<?xml version="1.0" encoding="utf-8"?>
<!-- Generator: Adobe Illustrator 16.0.3, SVG Export Plug-In . SVG Version: 6.00 Build 0)  -->
<!DOCTYPE svg PUBLIC "-//W3C//DTD SVG 1.1//EN" "http://www.w3.org/Graphics/SVG/1.1/DTD/svg11.dtd">
<svg version="1.1" id="图层_1" xmlns="http://www.w3.org/2000/svg" xmlns:xlink="http://www.w3.org/1999/xlink" x="0px" y="0px"
	 viewBox="0 0 97.732 25.395" enable-background="new 0 0 97.732 25.395" xml:space="preserve">
<g>
	<path fill="#FFFFFF" d="M1.998,3.652h0.258c0.716,0,2.034,0.093,3.953,0.279l2.385,0.064h0.064c1.088,0,1.883-0.05,2.385-0.15
		C11.214,4.49,11.3,5.264,11.3,6.166v0.107c0,0.387-0.086,0.58-0.258,0.58l-0.086,0.086c0,0.058,0.086,0.122,0.258,0.193h0.043
		v0.086c-0.086,0.129-0.337,0.208-0.752,0.236c-0.344,0-0.516-0.114-0.516-0.344L9.968,6.596L9.99,5.607
		c0-0.129-0.423-0.193-1.268-0.193H7.433l-0.73-0.021c-0.129,0-0.229,1.175-0.301,3.523c-0.086,1.934-0.129,3.244-0.129,3.932v0.645
		c0,0.187-0.064,0.38-0.193,0.58v0.021c0.114,0,0.179,0.15,0.193,0.451l-0.064,0.322H6.166v-0.021v-0.129l-0.043,1.676
		c0,0.172,0.709,0.322,2.127,0.451c0.272,0.101,0.408,0.236,0.408,0.408c-0.115,0.258-0.172,0.58-0.172,0.967
		c-0.043,0-0.064,0.071-0.064,0.215L8.335,18.52c-1.533-0.086-2.943-0.129-4.232-0.129H3.609c-0.659,0-1.167,0.028-1.525,0.086
		c-0.029-0.058-0.086-0.53-0.172-1.418h0.021l0.301,0.129h0.021l0.086-0.064v-0.021c-0.029-0.071-0.101-0.107-0.215-0.107
		L2.062,16.93v-0.043c0-0.043,0.315-0.122,0.945-0.236c0-0.043,0.501-0.071,1.504-0.086c0.114,0,0.193-0.465,0.236-1.396
		l0.107-1.375c-0.129-1.188-0.193-1.926-0.193-2.213L4.425,7.326V6.768l0.043-0.795L4.425,5.693l0.086-0.172V5.414
		c0-0.129-0.566-0.2-1.697-0.215C1.998,5.242,1.589,5.3,1.589,5.371C1.46,5.701,1.332,6.195,1.203,6.854l-0.15,0.129L1.009,6.961
		h-0.15C0.801,7.019,0.737,7.047,0.666,7.047L0.064,7.09c0-0.272,0.003-0.555,0.011-0.849c0.007-0.293,0.014-0.519,0.021-0.677
		c0.007-0.157,0.011-0.272,0.011-0.344L0,4.404c0-0.172,0.107-0.272,0.322-0.301L0.58,3.846h0.107L0.88,4.104h0.043
		C1.167,3.803,1.525,3.652,1.998,3.652z M0.966,5.414L0.859,5.521v0.172l0.064,0.086h0.043l0.107-0.107v-0.15L0.988,5.414H0.966z
		 M2.492,18.09v0.043l0.064,0.043h0.043c0.1-0.057,0.15-0.157,0.15-0.301v-0.021l-0.064-0.064H2.664
		C2.549,17.861,2.492,17.961,2.492,18.09z M2.878,16.973H2.814l-0.043,0.064l0.064,0.064h0.086l0.043-0.064L2.878,16.973z
		 M3.394,16.887l-0.107,0.107v0.107c0,0.029,0.028,0.043,0.086,0.043l0.451-0.043v-0.064c-0.058-0.1-0.165-0.15-0.322-0.15H3.394z
		 M3.458,17.682l-0.107,0.043v0.064l0.344,0.064l0.279-0.064v-0.021l-0.086-0.086H3.458z M4.962,17.596l-0.193,0.043v0.086
		l0.193,0.021h0.301c0.086,0,0.136-0.028,0.15-0.086c-0.072-0.043-0.179-0.064-0.322-0.064H4.962z M4.855,5.586v0.107
		c0.043,0.215,0.086,0.322,0.129,0.322c0.071,0,0.129-0.079,0.172-0.236v-0.15c0-0.086-0.05-0.157-0.15-0.215
		C4.905,5.414,4.855,5.472,4.855,5.586z M5.005,8.873L4.962,8.938L4.984,8.98h0.021V8.873z M5.242,10.484H5.177
		c-0.086,0.358-0.129,0.745-0.129,1.16v0.258c0,0.688,0.064,1.031,0.193,1.031c0.043,0,0.071-0.114,0.086-0.344l-0.129-1.01
		l0.107-0.473L5.242,10.484z M5.414,13.492H5.328v0.365l0.193,0.322v-0.107C5.521,13.686,5.485,13.492,5.414,13.492z M5.521,5.607
		v0.021l0.064,0.064c0.143,0,0.286-0.093,0.43-0.279V5.371L5.908,5.35C5.779,5.35,5.65,5.436,5.521,5.607z M5.736,6.295H5.714
		L5.671,6.553v0.344h0.043l0.021-0.301V6.295z M5.929,8.229H5.886L5.843,9.002v0.516c0,0.358,0.036,0.537,0.107,0.537h0.043
		l0.064-0.279L5.929,8.229z M6.81,4.469L6.746,4.533c0,0.072,0.229,0.122,0.688,0.15c0.243-0.028,0.365-0.057,0.365-0.086V4.555
		c-0.172-0.057-0.48-0.086-0.924-0.086H6.81z M7.025,17.553l-0.086,0.086c0.043,0.101,0.114,0.15,0.215,0.15h0.129
		c0.086,0,0.143-0.021,0.172-0.064v-0.043c0-0.057-0.101-0.1-0.301-0.129H7.025z M7.433,17.273c0.215,0.058,0.465,0.086,0.752,0.086
		l0.043-0.043v-0.064l-0.215-0.064h-0.43C7.483,17.202,7.433,17.23,7.433,17.273z M8.164,17.854l-0.086,0.086v0.064l0.086,0.043
		l0.064-0.086v-0.064L8.164,17.854z M9.625,5.07H9.41v0.021c0.028,0.072,0.086,0.107,0.172,0.107H9.71V5.156L9.625,5.07z
		 M10.162,5.07h-0.107v0.086h0.064l0.043-0.064V5.07z M10.376,6.896l-0.043,0.043v0.107h0.043l0.086-0.086V6.939l-0.064-0.043
		H10.376z M10.505,5.521h-0.043l-0.064,0.279l0.107,0.043l0.064-0.064V5.607L10.505,5.521z"/>
	<path fill="#FFFFFF" d="M10.462,2.514l0.43-0.021c1.833,0.072,2.75,0.236,2.75,0.494l0.15,3.158c0,0.287-0.158,1.01-0.473,2.17
		c-0.072,0.458-0.107,0.759-0.107,0.902v0.129h0.064c0.959-0.745,2.055-1.117,3.287-1.117c0.358,0,1.017,0.208,1.977,0.623
		c0.186,0.144,0.422,0.437,0.709,0.881c0.1,0.058,0.165,0.15,0.193,0.279l-0.021,0.215c0.401,0.315,0.602,0.881,0.602,1.697
		c0.043,0,0.079,0.702,0.107,2.105v0.043c0,0.258-0.115,1.046-0.344,2.363l-0.086,0.408h0.451c0.473,0.015,0.709,0.079,0.709,0.193
		c0,0.058-0.229,0.107-0.688,0.15c0,0.058,0.165,0.122,0.494,0.193l0.086,0.129v0.043c-0.272,0.043-0.408,0.079-0.408,0.107
		c0.272,0.058,0.408,0.15,0.408,0.279c0,0.673-0.193,1.01-0.58,1.01l-0.172,0.021c-0.559,0-0.838-0.079-0.838-0.236
		c0-0.043-0.294-0.079-0.881-0.107c-0.258-0.144-0.466-0.236-0.623-0.279l-0.021-0.086c0-0.63,0.093-1.547,0.279-2.75
		c0.071-0.702,0.2-1.446,0.387-2.234l-0.043-0.752l0.064-0.107c-0.187-0.143-0.279-0.351-0.279-0.623
		c-0.172-0.301-0.315-0.537-0.43-0.709c-0.501-0.215-0.802-0.322-0.902-0.322c-0.73-0.243-1.447-0.215-2.148,0.086
		c-0.931,0.63-1.396,1.096-1.396,1.396l-0.129,1.396l0.043,1.439c-0.086,1.06-0.193,1.59-0.322,1.59l-0.021,0.107l0.086,0.021h0.086
		l0.365-0.15c0.344,0.058,0.516,0.172,0.516,0.344l-0.15,0.129v0.086c0.014,0.043,0.107,0.093,0.279,0.15l0.043,0.107
		c-0.086,0.745-0.193,1.117-0.322,1.117h-0.064c-0.187-0.129-0.953-0.229-2.299-0.301c-0.96-0.086-1.439-0.229-1.439-0.43V17.51
		c-0.015-0.057,0.028-0.165,0.129-0.322v-0.129c-0.172-0.243-0.258-0.387-0.258-0.43c0.071-0.057,0.415-0.093,1.031-0.107
		c0.1,0,0.172-0.279,0.215-0.838c0.1-0.057,0.186-0.279,0.258-0.666c0.086-0.114,0.129-0.236,0.129-0.365v-0.021
		c0-0.229-0.072-0.458-0.215-0.688l0.215-0.516c0.1,0,0.157-1.568,0.172-4.705l0.301-3.158V4.619c0-0.315-0.101-0.473-0.301-0.473
		l-0.709-0.021l-0.451,0.129c-0.072,0-0.122-0.193-0.15-0.58V3.459C10.205,2.829,10.291,2.514,10.462,2.514z M10.183,17.123v0.064
		h0.15h0.752c0-0.114-0.222-0.179-0.666-0.193C10.276,16.994,10.197,17.037,10.183,17.123z M10.419,17.811v0.043h0.043
		c0.186,0,0.537,0.093,1.053,0.279c0.788,0.015,1.411,0.064,1.869,0.15h0.064l0.064-0.086v-0.021c0-0.143-0.681-0.215-2.041-0.215
		c-0.229-0.143-0.516-0.215-0.859-0.215C10.484,17.761,10.419,17.782,10.419,17.811z M10.613,3.094h-0.021v0.172h0.021l0.064-0.064
		V3.137L10.613,3.094z M10.935,2.814v0.064c0.172,0.129,0.415,0.193,0.73,0.193l0.043-0.086C11.408,2.872,11.15,2.814,10.935,2.814z
		 M11.193,3.244h-0.064v0.021l0.021,0.086h0.279V3.266L11.193,3.244z M11.193,16.457c0,0.101,0.236,0.172,0.709,0.215h0.043
		l0.064-0.043v-0.172c-0.029-0.043-0.086-0.064-0.172-0.064h-0.43C11.264,16.393,11.193,16.414,11.193,16.457z M11.365,3.588
		l-0.107,0.021v0.043c0.014,0.043,0.064,0.064,0.15,0.064h0.172l0.129-0.043V3.609L11.58,3.588H11.365z M12.289,6.273
		c-0.043,0.086-0.064,0.344-0.064,0.773c0.172,0,0.258,0.129,0.258,0.387h0.021c0.043-0.086,0.064-0.236,0.064-0.451V6.703h-0.021
		L12.46,6.939h-0.086l-0.021-0.129c0.028-0.114,0.057-0.172,0.086-0.172l0.129,0.043C12.539,6.596,12.446,6.46,12.289,6.273z
		 M12.482,5.629l-0.043,0.064v0.064l0.064,0.064l0.086-0.021V5.736l-0.086-0.107H12.482z M12.503,4.984L12.46,5.049v0.15
		l0.043,0.064l0.086-0.064V5.07L12.503,4.984z M12.761,11.387v0.172h0.064c0.143,0,0.236-0.129,0.279-0.387l0.021-0.021v-0.107
		h-0.021C13.004,11.101,12.89,11.215,12.761,11.387z M12.976,2.922L12.89,3.029c0.043,0.072,0.107,0.129,0.193,0.172h0.021
		c0.1,0,0.165-0.036,0.193-0.107V3.051l-0.086-0.129H12.976z M12.998,11.773l0.064,0.064h0.15c0.086,0,0.136-0.021,0.15-0.064
		l-0.064-0.064h-0.086C13.098,11.709,13.026,11.73,12.998,11.773z M13.126,17.188l-0.043,0.021v0.107l0.129,0.107h0.107l0.107-0.086
		v-0.021l-0.15-0.129H13.126z M13.298,16.93h-0.086v0.064h0.086V16.93z M13.835,10.227H13.9c0.157-0.114,0.236-0.186,0.236-0.215
		h-0.064C13.928,10.083,13.85,10.155,13.835,10.227z M14.759,10.613l-0.086,0.086v0.064h0.064l0.086-0.086v-0.064H14.759z
		 M15.748,9.625h-0.15v0.043l0.064,0.064h0.15V9.689L15.748,9.625z M15.919,10.27l-0.043,0.043h0.086V10.27H15.919z M16.306,10.033
		l-0.15,0.021v0.107c0.315,0.158,0.516,0.236,0.602,0.236l0.086-0.107C16.843,10.205,16.664,10.119,16.306,10.033z M16.779,8.465
		h-0.021v0.021c0,0.043,0.093,0.086,0.279,0.129V8.594C17.037,8.522,16.951,8.479,16.779,8.465z M17.531,10.57v0.043
		c0,0.129,0.071,0.193,0.215,0.193v-0.021C17.731,10.642,17.66,10.57,17.531,10.57z M18.111,18.09h-0.236v0.064
		c0.014,0.086,0.107,0.129,0.279,0.129h0.215v-0.064C18.369,18.176,18.283,18.133,18.111,18.09z M17.917,8.938v0.064
		c0.057,0.101,0.165,0.15,0.322,0.15V9.088C18.182,8.988,18.075,8.938,17.917,8.938z M18.046,17.789l-0.064,0.064v0.021l0.064,0.064
		h0.043l0.021-0.086L18.046,17.789z M18.003,17.553h0.043l0.215,0.021l0.666-0.021l0.021-0.021V17.51
		c-0.144-0.1-0.373-0.15-0.688-0.15C18.132,17.359,18.046,17.424,18.003,17.553z M18.669,11.408l0.129-0.344
		c0.057,0.115,0.093,0.201,0.107,0.258c0.057,0.101,0.114,0.15,0.172,0.15v-0.172c0-0.286-0.201-0.623-0.602-1.01l-0.107-0.021
		h-0.086v0.086c0.2,0.201,0.365,0.416,0.494,0.645l-0.193,0.322L18.669,11.408z M18.455,16.801v0.086h0.172l0.064-0.043v-0.107
		l-0.064-0.064C18.541,16.672,18.483,16.715,18.455,16.801z M18.82,11l-0.021,0.043c-0.029,0-0.029-0.014,0-0.043l0.021-0.021V11z
		 M19.314,15.877h0.064c0.1,0,0.236-0.537,0.408-1.611c0-0.157-0.05-0.258-0.15-0.301H19.55
		C19.464,13.965,19.385,14.603,19.314,15.877z M19.55,10.828l-0.064,0.064v0.043l0.129,0.086h0.043l0.043-0.043l-0.107-0.15H19.55z
		 M19.701,13.6l-0.064,0.043l0.064,0.064h0.043v-0.064L19.701,13.6z"/>
	<path fill="#FFFFFF" d="M24.083,6.596l2.664-0.064c0.229,0,0.709,0.101,1.439,0.301c0.831,0.788,1.325,1.404,1.482,1.848
		c0.315,0.33,0.565,0.981,0.752,1.955c0.229,0.229,0.344,0.738,0.344,1.525l0.021,0.537l-0.086,2.127c0,0.43,0.265,0.96,0.795,1.59
		c0.487,0.473,0.802,0.709,0.945,0.709v0.043c0,0.172-0.251,0.444-0.752,0.816c-0.373,0.372-0.609,0.559-0.709,0.559h-0.021
		c-0.229-0.029-0.81-0.451-1.74-1.268c-1.69,0.659-2.542,0.995-2.557,1.01c-0.559,0.172-1.182,0.258-1.869,0.258h-0.107
		c-0.773-0.129-1.433-0.43-1.977-0.902c-0.101-0.086-0.308-0.444-0.623-1.074c-0.258-0.315-0.387-0.702-0.387-1.16v-0.623
		c0-0.401,0.107-0.773,0.322-1.117c0.186-0.587,0.508-1.146,0.967-1.676c0.229-0.272,0.458-0.444,0.688-0.516
		c0.745-0.401,1.482-0.602,2.213-0.602l0.967-0.021h0.129c0.544,0,0.931,0.079,1.16,0.236h0.129c0.071,0,0.107-0.028,0.107-0.086
		c-0.158-0.673-0.416-1.317-0.773-1.934c-0.315-0.53-0.902-0.795-1.762-0.795l-0.881-0.129c-0.759,0.158-1.139,0.315-1.139,0.473
		c-0.301,0.387-0.48,0.867-0.537,1.439c-0.029,0.072-0.287,0.107-0.773,0.107l-0.129,0.043c-0.058,0-0.129,0.122-0.215,0.365
		c-0.401-0.057-0.602-0.143-0.602-0.258c0.028-0.086,0.079-0.602,0.15-1.547c0.229-0.659,0.773-1.268,1.633-1.826
		C23.754,6.71,23.998,6.596,24.083,6.596z M22.58,9.518l-0.064,0.043v0.322h0.021c0.057-0.014,0.086-0.064,0.086-0.15V9.561
		L22.58,9.518z M22.751,7.928v0.043h0.021c0.129,0,0.322-0.136,0.58-0.408V7.498h-0.021C23.188,7.498,22.995,7.642,22.751,7.928z
		 M23.074,16.543l-0.043,0.043v0.021l0.043,0.043h0.107v-0.043l-0.064-0.064H23.074z M23.138,17.66l-0.064,0.086
		c0.057,0.129,0.415,0.294,1.074,0.494c0.215,0.1,0.501,0.15,0.859,0.15v-0.021c0-0.043-0.272-0.122-0.816-0.236
		c-0.315-0.086-0.645-0.243-0.988-0.473H23.138z M23.589,12.117l-0.236,0.107v0.107h0.043c0.1,0,0.172-0.057,0.215-0.172v-0.043
		H23.589z M23.353,14.158c0.1,0.859,0.222,1.289,0.365,1.289l0.215,0.279v0.021l-0.193-0.021v0.064
		c0.272,0.373,0.831,0.716,1.676,1.031c0.1,0.058,0.243,0.101,0.43,0.129c0.258,0,1.246-0.422,2.965-1.268
		c0.114-0.071,0.172-0.15,0.172-0.236V15.34c-0.129-0.587-0.236-1.274-0.322-2.062l-0.043-0.021c0-0.157-0.158-0.286-0.473-0.387
		c-1.06-0.301-1.783-0.451-2.17-0.451c-1.089,0.244-1.833,0.609-2.234,1.096C23.482,13.771,23.353,13.986,23.353,14.158z
		 M24.685,7.24v0.064c0.014,0.043,0.086,0.064,0.215,0.064s0.308-0.043,0.537-0.129V7.154h-0.086
		C25.036,7.154,24.814,7.183,24.685,7.24z M25.48,17.359l-0.064,0.064c0.028,0.072,0.086,0.107,0.172,0.107
		c0.157-0.028,0.236-0.064,0.236-0.107v-0.021l-0.064-0.043H25.48z M25.738,7.777L25.63,7.863l0.064,0.107h0.279l0.064-0.064
		L25.91,7.777H25.738z M26.49,6.961l-0.043,0.064l0.064,0.086h0.129l0.021-0.043l-0.064-0.107H26.49z M27.199,17.123v0.043h0.086
		c0.2,0,0.465-0.086,0.795-0.258v-0.021h-0.086C27.506,16.944,27.242,17.023,27.199,17.123z M28.123,7.133H28.08v0.043
		c0.114,0.115,0.215,0.172,0.301,0.172h0.021V7.305C28.287,7.19,28.194,7.133,28.123,7.133z M29.154,14.459l-0.021,0.021v0.129
		l0.064,0.086h0.021l0.086-0.086V14.48l-0.064-0.021H29.154z M29.218,13.707l-0.064,0.064l0.064,0.086l0.086-0.021v-0.064
		l-0.064-0.064H29.218z M29.82,12.762l-0.064-0.043v0.064h0.064V12.762z M29.906,13.17h-0.129v0.086l0.064,0.064l0.064-0.064V13.17z
		 M29.884,11.988l-0.064,0.043v0.064c0.057,0.215,0.114,0.322,0.172,0.322h0.043c0-0.186-0.043-0.329-0.129-0.43H29.884z
		 M29.992,13.771h-0.064v0.021c0.028,0.544,0.086,0.816,0.172,0.816l0.043-0.043v-0.043C30.142,14.223,30.092,13.972,29.992,13.771z
		 M30.314,16.822l-0.064,0.064c0.043,0.101,0.1,0.165,0.172,0.193h0.021l0.086-0.086v-0.043l-0.107-0.129H30.314z M30.378,11.236
		h-0.021v0.043c0.028,0.115,0.057,0.172,0.086,0.172l0.021-0.107C30.436,11.272,30.407,11.236,30.378,11.236z M30.787,17.188
		l-0.043,0.086v0.043l0.086,0.086h0.086l0.064-0.043v-0.043l-0.107-0.129H30.787z M30.98,16.479h-0.064v0.129
		c0.057,0.187,0.122,0.279,0.193,0.279h0.064v-0.064C31.116,16.593,31.051,16.479,30.98,16.479z"/>
	<path fill="#FFFFFF" d="M37.619,0.967c0.315,0,0.573,0.086,0.773,0.258c-0.172,0.458-0.287,1.182-0.344,2.17l-0.193,1.977
		c0,0.101,0.286,0.15,0.859,0.15c1.69,0,2.535,0.079,2.535,0.236c0.071,0,0.157,0.043,0.258,0.129
		c-0.144,0.187-0.215,0.322-0.215,0.408v0.064l0.064,0.43l-0.279,0.945c0,0.101,0.107,0.244,0.322,0.43v0.043
		c-0.344,0.115-0.623,0.172-0.838,0.172c-0.229-0.014-0.344-0.05-0.344-0.107V8.229l0.193-0.021h0.15l0.086-0.086V8.078
		l-0.086-0.021l-1.439,0.021l-1.182-0.021c-0.072,0-0.15,0.401-0.236,1.203h-0.021l-0.301-0.344l-0.064,0.236v0.129
		c0.014,0.401,0.064,0.616,0.15,0.645c0.057,0,0.107-0.129,0.15-0.387v-0.15h0.064l0.021,0.064l-0.15,2.062
		c0.172,2.965,0.322,4.447,0.451,4.447c0.071,0.458,0.25,0.688,0.537,0.688c0.157,0.101,0.351,0.15,0.58,0.15h0.387l1.289-0.064
		c0.028,0,0.079,0.38,0.15,1.139c0.028,0.229-0.018,0.397-0.14,0.505c-0.122,0.107-0.326,0.161-0.612,0.161l-1.654,0.043
		c-0.902,0-1.662-0.251-2.277-0.752c-0.401-0.143-0.602-0.573-0.602-1.289c-0.029-0.387-0.079-1.532-0.15-3.438l0.258-2.922
		l0.064-1.268V8.744c-0.101-0.602-0.272-0.902-0.516-0.902h-0.645h-0.752c-0.215,0-0.43,0.05-0.645,0.15
		c-0.144-0.014-0.322-0.208-0.537-0.58l0.43-1.912c0-0.057,0.866-0.093,2.6-0.107c0-0.186,0.1-0.422,0.301-0.709
		c0.057-2.234,0.136-3.352,0.236-3.352V1.268c0-0.028-0.036-0.043-0.107-0.043V1.16C36.201,1.117,36.673,1.053,37.619,0.967z
		 M33.3,5.758c0,0.101,0.064,0.15,0.193,0.15h0.322c0.587,0,1.131-0.028,1.633-0.086V5.779c0-0.071-0.351-0.107-1.053-0.107h-0.902
		C33.365,5.672,33.3,5.701,33.3,5.758z M33.644,6.166l-0.043,0.043v0.129c0,0.144,0.479,0.215,1.439,0.215
		c0.487,0,0.73-0.036,0.73-0.107c0-0.172-0.63-0.265-1.891-0.279H33.644z M33.837,6.918l-0.086,0.064
		c0,0.058,0.036,0.086,0.107,0.086l0.537,0.021l0.58-0.021l0.021-0.021V7.004c-0.172-0.057-0.494-0.086-0.967-0.086H33.837z
		 M35.513,7.326l-1.762-0.064v0.043c0,0.101,0.544,0.15,1.633,0.15l0.172-0.043V7.391L35.513,7.326z M35.814,13.02l0.064,0.602
		l-0.021,0.752l0.021,0.215h0.064c0.086,0,0.129-0.336,0.129-1.01v-0.494c0-0.659-0.029-0.988-0.086-0.988
		C35.885,12.096,35.828,12.404,35.814,13.02z M36.544,15.791H36.48v0.322l0.043,0.129h0.021l0.043-0.043v-0.365L36.544,15.791z
		 M36.63,17.273h-0.043v0.086c0.043,0.358,0.2,0.537,0.473,0.537h0.215l0.043-0.064v-0.021c0-0.028-0.129-0.079-0.387-0.15
		L36.63,17.273z M36.695,8.379v0.172l0.064,0.064c0.057-0.014,0.086-0.064,0.086-0.15V8.379l-0.043-0.15h-0.021
		C36.723,8.243,36.695,8.293,36.695,8.379z M36.802,8.809h-0.043l-0.021,0.107v0.107l0.021,0.129h0.086V8.959V8.852L36.802,8.809z
		 M36.802,1.547h-0.021v0.129h0.064V1.59L36.802,1.547z M36.845,10.291h-0.064v0.172l0.064,0.086h0.043v-0.086L36.845,10.291z
		 M36.953,2.385L36.888,2.32c-0.029,0.144-0.043,0.33-0.043,0.559v0.086h0.043L36.953,2.6V2.385z M37.017,3.287h-0.043l-0.086,2.127
		v0.021L36.953,5.5h0.043c0.1,0,0.15-0.179,0.15-0.537V4.469l-0.043-1.053C37.074,3.33,37.045,3.287,37.017,3.287z M37.21,14.717
		h-0.043l-0.021,0.15v0.172c0,0.101,0.028,0.158,0.086,0.172h0.043c0.057-0.014,0.086-0.064,0.086-0.15
		C37.346,14.832,37.296,14.717,37.21,14.717z M37.167,17.145v0.021v0.129c0.014,0.058,0.064,0.115,0.15,0.172h0.15v-0.043
		C37.468,17.267,37.368,17.173,37.167,17.145z M37.382,15.641l-0.086,0.236c0,0.33,0.071,0.537,0.215,0.623l0.043-0.086v-0.193
		C37.54,15.863,37.482,15.669,37.382,15.641z M37.49,8.766L37.382,8.68v0.064l0.086,0.086h0.021V8.766z M37.726,1.59L37.64,1.676
		v0.043l0.064,0.494h0.043c0.172-0.172,0.258-0.322,0.258-0.451V1.676L37.941,1.59H37.726z M38.22,6.359l-0.064,0.064v0.021
		c0,0.072,0.258,0.115,0.773,0.129l0.365-0.021l0.494,0.086h0.086c0.1,0,0.15-0.043,0.15-0.129h-0.021l-1.633-0.15H38.22z
		 M38.585,7.391h-0.107v0.064c0.014,0.029,0.265,0.101,0.752,0.215h0.043V7.627C39.043,7.47,38.814,7.391,38.585,7.391z
		 M40.003,5.672l-0.279,0.107h-0.258h-0.365v0.064c0.315,0.086,0.587,0.129,0.816,0.129h0.494c0.028,0,0.043-0.021,0.043-0.064
		c-0.029-0.157-0.107-0.236-0.236-0.236H40.003z M39.552,17.574h0.086c0.53-0.086,0.795-0.179,0.795-0.279l-0.043-0.043
		C39.832,17.396,39.552,17.503,39.552,17.574z M39.681,7.605c0.387,0.129,0.73,0.193,1.031,0.193l0.086-0.086V7.584L40.734,7.52
		h-0.473C39.875,7.52,39.681,7.548,39.681,7.605z M40.541,6.832l-0.086,0.086v0.021l0.086,0.064h0.107
		c0.129,0,0.208-0.043,0.236-0.129L40.82,6.832H40.541z M40.605,5.887L40.541,5.93v0.043l0.064,0.021
		c0.143,0,0.222-0.028,0.236-0.086V5.887H40.605z"/>
	<path fill="#FFFFFF" d="M43.978,4.383c0.458,0,0.902,0.222,1.332,0.666c0.272,0.358,0.408,0.845,0.408,1.461
		c0.043,0,0.071,0.072,0.086,0.215v0.021c0,0.072-0.058,0.322-0.172,0.752L45.31,8.465l-0.73,0.902
		c-0.272-0.186-0.408-0.358-0.408-0.516c0.071-0.516,0.157-0.967,0.258-1.354V7.412c0-0.186-0.107-0.322-0.322-0.408
		c-0.773-0.415-1.16-0.823-1.16-1.225L42.925,5.65C43.04,4.806,43.391,4.383,43.978,4.383z M43.548,5.436v0.15
		c0,0.144,0.036,0.229,0.107,0.258c0.1-0.2,0.293-0.401,0.58-0.602l0.021-0.043l-0.064-0.064l-0.236,0.043l-0.086-0.043V5.092
		l0.172-0.172V4.877h-0.064C43.763,4.877,43.62,5.063,43.548,5.436z M44.236,6.789l-0.193,0.043v0.043l0.043,0.064h0.301
		l0.043-0.064V6.832L44.236,6.789z M44.236,5.973h0.021c0.157,0,0.236-0.071,0.236-0.215l-0.064-0.043h-0.086
		C44.271,5.744,44.236,5.83,44.236,5.973z M44.837,7.52l-0.021,0.064v0.107l0.021,0.043l0.086-0.064V7.605L44.837,7.52z
		 M45.031,6.037l-0.064,0.086v0.064h0.043c0.028,0,0.064-0.043,0.107-0.129l-0.021-0.021H45.031z M45.246,7.906h-0.064l-0.129,0.236
		h0.064l0.129-0.15V7.906z M45.138,6.875l-0.043,0.064v0.043h0.043l0.064-0.043V6.875H45.138z"/>
	<path fill="#FFFFFF" d="M50.574,5.371l0.322-0.086c0.372,0,1.439,0.215,3.201,0.645c0.831,0.387,1.311,0.58,1.439,0.58
		c0.114-0.157,0.172-0.358,0.172-0.602V5.865v-0.15c0-0.186,0.129-0.279,0.387-0.279c0.172-0.129,0.415-0.193,0.73-0.193
		c0.43,0,0.645,0.05,0.645,0.15l0.193,2.02v0.623c0,0.516-0.072,0.824-0.215,0.924c-0.129,0.129-0.229,0.193-0.301,0.193
		c-0.802-0.071-1.203-0.179-1.203-0.322c-0.101-0.344-0.351-0.594-0.752-0.752c-1.375-0.688-2.363-1.031-2.965-1.031l-0.602-0.043
		c-0.716,0-1.139,0.136-1.268,0.408c-0.172,0.229-0.258,0.537-0.258,0.924v0.021c0,0.788,0.408,1.439,1.225,1.955
		c0.816,0.33,1.525,0.494,2.127,0.494c0,0.115,0.322,0.272,0.967,0.473c0.129,0.215,0.408,0.322,0.838,0.322
		c0.444,0.172,1.081,0.716,1.912,1.633l0.086,0.086v0.086c0,0.029-0.043,0.043-0.129,0.043v0.043c0.2,0.43,0.301,0.681,0.301,0.752
		c0,1.289-0.208,2.099-0.623,2.428c-0.187,0.387-0.58,0.767-1.182,1.139c-0.673,0.616-1.361,0.924-2.062,0.924h-0.752
		c-1.132-0.172-1.697-0.315-1.697-0.43c-0.659-0.458-1.039-0.688-1.139-0.688c-0.702-0.329-1.189-0.673-1.461-1.031h-0.086
		c-0.172,0.501-0.315,0.752-0.43,0.752c-0.902-0.143-1.354-0.301-1.354-0.473c-0.086-0.243-0.136-0.866-0.15-1.869l0.215-1.332
		c0-0.487,0.057-0.73,0.172-0.73l1.375-0.15c0.1,0,0.2,0.394,0.301,1.182l0.602,1.096c0,0.043,0.637,0.473,1.912,1.289
		c0.315,0.358,0.766,0.537,1.354,0.537h0.752c0.759,0,1.274-0.243,1.547-0.73c0.329-0.358,0.573-0.881,0.73-1.568v-0.064
		c0-0.415-0.365-0.938-1.096-1.568c-0.315-0.358-0.716-0.537-1.203-0.537c-0.287-0.129-0.931-0.265-1.934-0.408L49.5,11.129
		l-0.838-0.709c-0.358-0.544-0.552-0.931-0.58-1.16l0.043-0.365l-0.086-0.816c0-0.2,0.122-0.437,0.365-0.709
		c0-0.172,0.344-0.565,1.031-1.182C50.08,5.844,50.459,5.572,50.574,5.371z M46.814,15.34l0.021,0.537h0.021
		c0.1-0.057,0.15-0.394,0.15-1.01v-0.172l-0.043-0.043h-0.043C46.878,14.652,46.842,14.882,46.814,15.34z M47.501,16.457h-0.107
		v0.086l0.107,0.064l0.086-0.021v-0.043L47.501,16.457z M47.652,13.621h-0.107v0.086l0.043,0.043l0.086-0.043L47.652,13.621z
		 M48.468,7.885l-0.064,0.021c0.028,0.272,0.064,0.466,0.107,0.58h0.064V8.465l-0.021-0.58H48.468z M48.49,15.727h-0.064v0.086
		c0.215,0.272,0.422,0.408,0.623,0.408h0.043v-0.064C48.776,15.87,48.576,15.727,48.49,15.727z M48.683,7.369h-0.107l-0.021,0.15
		v0.064l0.021,0.043l0.107-0.215V7.369z M48.962,9.904l-0.043,0.064V9.99l0.043,0.043h0.064V9.969L48.962,9.904z M49.048,8.078
		l-0.086,0.064v0.064h0.064l0.107-0.086V8.078H49.048z M49.285,7.133L49.22,7.154l0.021,0.043v0.021l0.086-0.021V7.133H49.285z
		 M49.349,10.033h-0.021v0.043c0.1,0.315,0.2,0.473,0.301,0.473h0.086l0.107-0.107V10.42C49.635,10.162,49.478,10.033,49.349,10.033
		z M49.371,7.455v0.021l0.043,0.021H49.5c0.315-0.229,0.473-0.415,0.473-0.559h-0.021h-0.043C49.75,6.939,49.571,7.111,49.371,7.455
		z M49.951,9.84l-0.043,0.021v0.043l0.043,0.064h0.215V9.904C50.151,9.861,50.08,9.84,49.951,9.84z M50.423,10.033l-0.043,0.043
		v0.129l0.129,0.129h0.064l0.064-0.043v-0.107C50.581,10.083,50.509,10.033,50.423,10.033z M50.445,11.172h-0.021
		c0,0.101,0.093,0.179,0.279,0.236l0.043-0.021C50.746,11.315,50.645,11.244,50.445,11.172z M51.197,17.66l-0.623-0.043v0.043
		c0,0.058,0.186,0.129,0.559,0.215l0.086,0.086h0.107C51.297,17.761,51.254,17.66,51.197,17.66z M50.789,5.586v0.086
		c0,0.058,0.093,0.107,0.279,0.15c0.387-0.028,0.58-0.079,0.58-0.15V5.586c0-0.1-0.201-0.15-0.602-0.15
		C50.932,5.436,50.846,5.486,50.789,5.586z M51.111,10.549l-0.043,0.043v0.021c0.186,0.172,0.465,0.322,0.838,0.451L51.949,11
		C51.949,10.914,51.669,10.764,51.111,10.549z M51.39,6.531c0.057,0.058,0.129,0.086,0.215,0.086c0.143,0,0.293-0.079,0.451-0.236
		l-0.107-0.086h-0.236C51.498,6.295,51.39,6.374,51.39,6.531z M51.712,18.197h-0.043l0.086,0.107h0.172v-0.021
		C51.913,18.226,51.841,18.197,51.712,18.197z M51.906,17.961l-0.064-0.064v0.086h0.064V17.961z M52.142,18.326
		c0.2,0.114,0.473,0.172,0.816,0.172h0.043l0.924-0.043v-0.043c-0.043-0.115-0.537-0.172-1.482-0.172
		C52.242,18.24,52.142,18.269,52.142,18.326z M52.378,6.789l-0.086,0.086c0,0.101,0.258,0.165,0.773,0.193V7.004
		c0-0.057-0.215-0.129-0.645-0.215H52.378z M52.292,11.086c0,0.058,0.508,0.208,1.525,0.451l0.279,0.021h0.064v-0.021
		c-0.43-0.329-0.953-0.522-1.568-0.58C52.393,11.029,52.292,11.072,52.292,11.086z M52.55,11.709v0.086l0.365,0.129h0.236v-0.064
		C52.894,11.759,52.693,11.709,52.55,11.709z M54.205,18.197l-0.043,0.043v0.064l0.043,0.043h0.086
		c0.272-0.015,0.408-0.05,0.408-0.107l-0.064-0.043H54.205z M54.312,6.51v0.021c0,0.043,0.086,0.072,0.258,0.086h0.064V6.596
		C54.634,6.567,54.527,6.539,54.312,6.51z M54.57,7.305l-0.021,0.021v0.043c0.444,0.258,0.723,0.387,0.838,0.387V7.734
		C55.386,7.648,55.114,7.505,54.57,7.305z M54.849,12.01h-0.193v0.064c0.086,0.086,0.465,0.301,1.139,0.645
		c0.286,0.258,0.508,0.387,0.666,0.387h0.021l0.043-0.064C56.195,12.611,55.637,12.268,54.849,12.01z M55.15,16.5v0.086h0.043
		c0.129-0.086,0.236-0.208,0.322-0.365l-0.043-0.064C55.357,16.228,55.25,16.343,55.15,16.5z M55.386,13.32h-0.021v0.107
		c0,0.144,0.122,0.315,0.365,0.516h0.129v-0.172C55.859,13.6,55.701,13.449,55.386,13.32z M56.31,16.693l-0.73,0.602v0.043
		c0,0.029,0.028,0.043,0.086,0.043c0.172,0,0.408-0.229,0.709-0.688H56.31z M55.666,7.09l-0.043,0.043
		c0.2,0.158,0.43,0.265,0.688,0.322l0.021-0.043V7.369c0-0.071-0.208-0.165-0.623-0.279H55.666z M55.773,14.996h-0.107v0.107
		l0.064,0.021l0.064-0.064L55.773,14.996z M56.246,8.637L56.16,8.68c0.114,0.072,0.322,0.107,0.623,0.107l0.43-0.021V8.68
		c-0.258-0.028-0.523-0.043-0.795-0.043H56.246z M56.396,5.543v0.043c0.157,0.258,0.293,0.387,0.408,0.387
		c0.114,0,0.2-0.071,0.258-0.215V5.672C57.062,5.586,56.84,5.543,56.396,5.543z M56.998,14.996l-0.172,0.172v0.107l0.043,0.064
		h0.064c0.086-0.014,0.129-0.129,0.129-0.344H56.998z M57.148,6.209l-0.064,0.086l0.064,0.043h0.107V6.209H57.148z"/>
	<path fill="#FFFFFF" d="M68.599,7.305c0.157,0.029,0.236,0.05,0.236,0.064L68.75,7.52v0.021h0.043l1.096-0.021
		c1.246,0,2.077,0.315,2.492,0.945c0.329,0.43,0.508,0.681,0.537,0.752l0.086,0.021c0.143,0,0.952-0.387,2.428-1.16
		c0.2-0.1,0.365-0.15,0.494-0.15c0.587,0,1.196,0.222,1.826,0.666c1.217,0.96,1.827,1.776,1.827,2.449
		c0.129,0.272,0.35,1.74,0.666,4.404v0.58c0,0.129,0.035,0.208,0.107,0.236h0.086c0.113,0,0.344-0.057,0.688-0.172
		c0.229,0,0.344,0.423,0.344,1.268c0.027,0.43,0.043,0.752,0.043,0.967h-0.301c-0.602,0.1-1.133,0.15-1.59,0.15l-0.688-0.086
		l-1.247,0.043h-0.215c-0.029,0-0.043-0.058-0.043-0.172l-0.279-0.279v-0.021l0.064-0.215v-0.043l-0.107-0.58v-0.279
		c0-0.186,0.143-0.279,0.43-0.279c0.516,0.058,0.731-0.136,0.645-0.58c-0.016-1.117,0.027-1.955,0.129-2.514v-0.043l-0.043-1.289
		c0-0.229-0.194-0.494-0.581-0.795l-0.172-0.043h-0.15l-0.172,0.086c-0.029,0-0.043-0.064-0.043-0.193
		c-0.33-0.43-0.859-0.645-1.59-0.645c-0.931,0.086-1.49,0.365-1.676,0.838c-0.029,0.129-0.058,0.466-0.086,1.01l0.043,0.494v1.547
		l-0.021,0.623c0,0.645,0.179,1.017,0.537,1.117c0.157,0.029,0.236,0.079,0.236,0.15c-0.158,0.716-0.258,1.11-0.301,1.182
		l-0.537,0.107l-1.826-0.15l-0.215,0.043c-0.244,0-0.365-0.365-0.365-1.096v-0.086c0-0.086,0.215-0.193,0.645-0.322
		c0.114,0,0.172-0.057,0.172-0.172c-0.072-0.358-0.107-0.759-0.107-1.203l0.043-2.363c-0.086-0.315-0.129-0.565-0.129-0.752
		c0.014-0.358,0.064-0.537,0.15-0.537l0.193,0.107h0.021v-0.043c0-0.315-0.487-0.766-1.461-1.354c-0.258-0.1-0.516-0.15-0.773-0.15
		c-0.401,0-0.853,0.179-1.354,0.537l-0.021,0.107v1.74l0.064,4.49l0.086,0.086h0.086c0.043,0,0.071-0.05,0.086-0.15h0.043
		c0.387,0,0.623,0.101,0.709,0.301v0.172l0.021,0.516c0.028,0.587-0.122,0.881-0.451,0.881c-0.086,0.028-0.473,0.057-1.16,0.086
		l-2.793-0.172c-0.144,0-0.279-0.437-0.408-1.311v-0.021c0-0.129,0.293-0.279,0.881-0.451c0-0.1,0.286-0.193,0.859-0.279
		c0.1-0.014,0.15-0.086,0.15-0.215l0.15-5.027l0.043-1.182c0-0.129-0.136-0.193-0.408-0.193c-0.272,0-0.609,0.036-1.01,0.107
		c-0.244-0.129-0.365-0.265-0.365-0.408c0.114-0.071,0.172-0.186,0.172-0.344V8.637c-0.072-0.372-0.158-0.559-0.258-0.559
		l-0.021-0.021V8.014c0.086-0.057,0.186-0.193,0.301-0.408C66.465,7.477,67.496,7.376,68.599,7.305z M65.613,16.715h-0.064
		c0,0.129-0.058,0.251-0.172,0.365c0.1,0.487,0.208,0.73,0.322,0.73h0.064l-0.129-1.074L65.613,16.715z M65.699,8.852
		c0,0.144,0.129,0.215,0.387,0.215c0.329,0,0.666-0.107,1.01-0.322V8.68h-0.086C66.135,8.68,65.699,8.737,65.699,8.852z
		 M66.171,8.229l-0.408,0.043v0.064l0.064,0.043c0.587,0,0.881-0.028,0.881-0.086l-0.064-0.064H66.171z M65.935,16.607l0.021,0.322
		H66c0.1-0.143,0.243-0.25,0.43-0.322v-0.064L66.236,16.5h-0.215C65.963,16.5,65.935,16.536,65.935,16.607z M66.085,17.316h-0.043
		v0.15l0.043,0.064h0.064v-0.15L66.085,17.316z M66.386,17.145l-0.064,0.064c0,0.187,0.25,0.222,0.752,0.107
		c0.057,0.101,0.136,0.15,0.236,0.15c0.358-0.014,0.73-0.05,1.117-0.107v-0.086l-0.559-0.021c-0.358,0.029-0.788,0.015-1.289-0.043
		l-0.107-0.064H66.386z M66.623,7.756l0.064,0.086c0.286-0.028,0.43-0.071,0.43-0.129l-0.107-0.021
		C66.751,7.706,66.623,7.728,66.623,7.756z M67.095,16.758l-0.172,0.043v0.064l0.172,0.021h0.172l0.129-0.021v-0.064l-0.129-0.043
		H67.095z M67.675,15.834h-0.451c0.014,0.229,0.043,0.344,0.086,0.344h0.064C67.561,16.178,67.661,16.063,67.675,15.834z
		 M67.546,8.486l-0.043,0.064v0.043h0.043l0.086-0.064V8.486H67.546z M67.675,9.26v1.074c0,0.215-0.043,0.43-0.129,0.645l0.15,0.215
		l-0.043,0.344v0.215l0.043,0.043h0.021c0.114,0,0.179-0.78,0.193-2.342V9.432c0-0.172-0.05-0.286-0.15-0.344
		C67.704,9.103,67.675,9.16,67.675,9.26z M67.718,11.924h-0.021v0.086l0.064,0.064h0.021v-0.107L67.718,11.924z M68.427,16.285
		l-0.43-0.365v0.043c0,0.287,0.086,0.43,0.258,0.43h0.129C68.413,16.393,68.427,16.357,68.427,16.285z M68.255,7.949l-0.043,0.064
		v0.043L68.255,8.1h0.043l0.086-0.043l-0.043-0.107H68.255z M68.298,10.076h-0.043c-0.029,0.229-0.043,0.473-0.043,0.73v0.279
		l0.043,0.107c0.1,0,0.15-0.193,0.15-0.58v-0.172C68.406,10.198,68.37,10.076,68.298,10.076z M68.298,7.541l-0.043,0.064V7.67
		l0.064,0.064c0.1,0,0.15-0.05,0.15-0.15l-0.021-0.043H68.298z M68.298,11.752l-0.043,0.043v0.129l0.086,0.086h0.043l0.043-0.043
		v-0.107l-0.107-0.107H68.298z M68.298,17.145h0.043v-0.021C68.327,17.123,68.312,17.13,68.298,17.145z M68.964,16.994l-0.559,0.043
		v0.086h0.408l0.322-0.043v-0.086H68.964z M68.578,17.811v0.043l0.064,0.043c0.129-0.057,0.229-0.129,0.301-0.215v-0.043
		C68.814,17.639,68.692,17.696,68.578,17.811z M68.728,8.594l-0.086-0.043l-0.043,0.086l0.043,0.043h0.021l0.064-0.043V8.594z
		 M68.642,9.217V9.26h0.086c0.186-0.014,0.279-0.05,0.279-0.107V9.088h-0.172C68.707,9.117,68.642,9.16,68.642,9.217z M68.664,7.992
		v0.021l0.086,0.043l1.396-0.258V7.756h-0.645C68.943,7.756,68.664,7.835,68.664,7.992z M68.75,17.188l-0.086,0.064
		c0,0.129,0.136,0.201,0.408,0.215l0.107-0.086v-0.086C69.179,17.224,69.036,17.188,68.75,17.188z M69.33,16.607h-0.15v0.129
		l0.15,0.021l0.064-0.086L69.33,16.607z M69.265,8.594v0.021l1.117-0.129c0.315,0,0.637,0.144,0.967,0.43h0.064V8.83
		c-0.086-0.301-0.236-0.451-0.451-0.451h-0.193C69.781,8.379,69.279,8.451,69.265,8.594z M69.802,8.916
		c0,0.043,0.2,0.115,0.602,0.215c0.272,0.144,0.508,0.215,0.709,0.215h0.021l0.043-0.064c-0.33-0.286-0.695-0.43-1.096-0.43h-0.129
		C69.852,8.866,69.802,8.888,69.802,8.916z M70.962,7.992h-0.129v0.064c0.329,0.072,0.537,0.107,0.623,0.107H71.5V8.121
		C71.5,8.035,71.32,7.992,70.962,7.992z M71.585,8.873l-0.043,0.043c0,0.144,0.064,0.215,0.193,0.215V9.088
		C71.736,8.988,71.686,8.916,71.585,8.873z M71.886,8.766h-0.043v0.086c0.129,0.201,0.243,0.33,0.344,0.387h0.064V9.217
		C72.18,9.045,72.058,8.895,71.886,8.766z M71.951,9.281h-0.021v0.021c0,0.144,0.129,0.272,0.387,0.387V9.453
		C72.316,9.425,72.194,9.367,71.951,9.281z M72.509,12.955l-0.043,0.193v0.795l0.043,0.387h0.064
		c0.057-0.129,0.086-0.308,0.086-0.537C72.631,13.234,72.581,12.955,72.509,12.955z M72.574,10.377h-0.043
		c0,0.115,0.057,0.172,0.172,0.172h0.043v-0.086C72.731,10.406,72.674,10.377,72.574,10.377z M72.66,17.037l-0.064,0.086v0.043
		l0.129,0.021l0.129-0.021v-0.043l-0.064-0.086H72.66z M73.132,16.113l-0.086,0.107l0.064,0.064h0.15l0.086-0.086v-0.021
		l-0.064-0.064H73.132z M73.175,9.582v0.193l0.086,0.064c0.172,0,0.394-0.129,0.666-0.387H73.39
		C73.29,9.453,73.218,9.496,73.175,9.582z M73.197,10.807l-0.021,0.064c0.028,0.115,0.057,0.172,0.086,0.172h0.021l0.129-0.107
		v-0.064C73.397,10.828,73.326,10.807,73.197,10.807z M73.218,15.662l-0.043,0.064v0.064l0.086,0.021l0.021-0.086l-0.021-0.064
		H73.218z M74.056,9.174l0.021,0.043h0.129c0.186-0.014,0.279-0.079,0.279-0.193l-0.064-0.021
		C74.207,9.045,74.084,9.103,74.056,9.174z M74.658,8.916v0.043h0.021c0.086,0,0.329-0.165,0.73-0.494V8.379
		C74.908,8.537,74.658,8.716,74.658,8.916z M75.904,9.238v0.043c0.043,0.072,0.086,0.107,0.129,0.107
		c0.587,0,0.902-0.036,0.945-0.107c-0.043-0.129-0.272-0.193-0.688-0.193h-0.043C76.033,9.088,75.918,9.138,75.904,9.238z
		 M76.333,8.551h-0.129v0.064c0,0.043,0.071,0.064,0.215,0.064h0.086l0.043-0.043C76.534,8.58,76.462,8.551,76.333,8.551z
		 M76.291,8.336c0,0.029,0.122,0.079,0.365,0.15c0.129,0.187,0.286,0.279,0.473,0.279h0.408V8.701c0-0.143-0.365-0.301-1.096-0.473
		h-0.021C76.333,8.271,76.291,8.308,76.291,8.336z M76.849,10.012l-0.064,0.064c0.315,0.344,0.608,0.516,0.881,0.516l0.064-0.043
		v-0.107c-0.101-0.129-0.258-0.272-0.473-0.43H76.849z M77.988,9.582h-0.064v0.129c0.057,0.172,0.193,0.344,0.409,0.516v0.064h0.15
		v-0.043C78.482,10.091,78.316,9.869,77.988,9.582z M77.988,17.381v0.043h0.559c0.143,0,0.229-0.036,0.258-0.107
		c-0.016-0.057-0.072-0.086-0.172-0.086h-0.322C78.238,17.23,78.131,17.281,77.988,17.381z M78.418,10.828h-0.043v0.043
		c0.113,0.387,0.221,0.58,0.322,0.58v-0.043C78.697,11.208,78.604,11.015,78.418,10.828z M78.805,13.213h-0.129l-0.043,0.086
		l0.064,0.816v0.064l0.064,0.086h0.043l0.107-0.107V13.32L78.805,13.213z M78.762,15.061l-0.064,0.064v0.086l0.043,0.043h0.064
		v-0.193H78.762z M78.74,11.773l0.258,0.387h0.086v-0.15v-0.172c0-0.086-0.021-0.143-0.064-0.172h-0.193
		C78.797,11.666,78.768,11.702,78.74,11.773z M78.848,15.641l-0.086,0.107v0.021l0.086,0.086l0.064-0.086v-0.043L78.848,15.641z
		 M78.848,17.059v0.064h0.279c0.414,0,0.623-0.043,0.623-0.129l-0.086-0.043h-0.043C79.105,16.951,78.848,16.987,78.848,17.059z
		 M79.471,16.307v0.043l0.064,0.064H79.6l0.086-0.107v-0.107l-0.043-0.086h-0.086C79.498,16.156,79.471,16.221,79.471,16.307z
		 M80.051,17.037l0.021,0.021h0.086c0.07,0,0.121-0.021,0.15-0.064v-0.021c0-0.114-0.021-0.172-0.064-0.172
		C80.186,16.801,80.121,16.88,80.051,17.037z M80.76,16.586l-0.086,0.064v0.258l0.086,0.086c0.043,0,0.064-0.114,0.064-0.344
		l-0.021-0.064H80.76z"/>
	<path fill="#FFFFFF" d="M87.742,7.455c0.602,0,1.332,0.258,2.191,0.773c0.73,0.544,1.096,0.917,1.096,1.117
		c0.572,1.203,0.859,1.927,0.859,2.17l0.021,0.172c-0.215,0.501-0.322,0.845-0.322,1.031l-0.129,0.021h-1.826
		c-0.172,0-0.38,0.021-0.623,0.064c-2.062-0.172-3.51-0.258-4.34-0.258h-0.451c-0.172,0.258-0.258,0.444-0.258,0.559
		c0.1,0.158,0.15,0.408,0.15,0.752c0,0.544,0.086,0.867,0.258,0.967l0.021,0.107v0.021l-0.129-0.064v0.064l0.193,0.215
		c0,0.187,0.129,0.423,0.387,0.709c0.473,0.831,0.988,1.347,1.547,1.547c0.473,0.158,1.01,0.236,1.611,0.236
		c0.1,0,0.308-0.093,0.623-0.279c0.258-0.057,0.802-0.522,1.633-1.396V15.92c0-0.028-0.101-0.057-0.301-0.086l-0.043-0.107
		c0.329-0.63,0.723-1.045,1.182-1.246c0.129,0.129,0.394,0.33,0.795,0.602c0.314,0.487,0.737,1.06,1.268,1.719v0.086
		c-0.459,0.602-0.788,0.902-0.988,0.902h-0.086c0-0.315-0.193-0.494-0.58-0.537c-0.072,0-0.387,0.236-0.945,0.709
		c-0.33,0.258-0.896,0.501-1.697,0.73c-0.932,0.186-1.59,0.279-1.977,0.279l-1.225-0.43c-0.688,0-1.318-0.372-1.891-1.117
		c-0.244-0.258-0.444-0.565-0.602-0.924c0-0.114-0.158-0.709-0.473-1.783c-0.101-0.415-0.15-0.816-0.15-1.203v-0.021
		c0-1.905,0.572-3.573,1.719-5.006c0.143-0.358,0.473-0.623,0.988-0.795c0.344-0.1,0.759-0.179,1.246-0.236
		C86.625,7.398,87.04,7.398,87.742,7.455z M82.908,12.934v0.064v0.021c-0.015,0.043-0.021,0.144-0.021,0.301v0.086
		c0,0.258,0.071,0.487,0.215,0.688h0.021C83.123,13.406,83.051,13.02,82.908,12.934z M83.209,10.979
		c-0.115,0.115-0.215,0.401-0.301,0.859h0.043c0.086,0,0.215-0.25,0.387-0.752C83.309,11.015,83.266,10.979,83.209,10.979z
		 M83.016,12.117h-0.107v0.129c0,0.086,0.021,0.129,0.064,0.129c0.071,0,0.114-0.071,0.129-0.215L83.016,12.117z M83.295,14.803
		H83.23v0.043l0.064,0.043h0.043v-0.043L83.295,14.803z M83.445,15.168l-0.021,0.021v0.043c0.057,0.229,0.143,0.344,0.258,0.344
		v-0.021v-0.043C83.682,15.397,83.603,15.283,83.445,15.168z M84.068,12.332v0.021h0.021l0.365-0.043v-0.043l-0.064-0.086h-0.064
		C84.197,12.182,84.111,12.232,84.068,12.332z M84.133,9.668L84.09,9.732v0.021h0.043l0.086-0.064V9.668H84.133z M84.09,11.107
		v0.086l0.043,0.043h0.043c0.1-0.043,0.186-0.122,0.258-0.236v-0.064h-0.107C84.24,10.936,84.161,10.993,84.09,11.107z
		 M84.305,10.549v0.064c0,0.158,1.303,0.337,3.91,0.537l0.215,0.064l0.279-0.021c0.572,0.187,0.959,0.279,1.16,0.279
		c0,0.043,0.043,0.079,0.129,0.107c0.086-0.129,0.129-0.25,0.129-0.365v-0.408c0-0.186-0.358-0.602-1.074-1.246
		c-0.33-0.329-0.702-0.516-1.117-0.559l-0.73-0.129c-1.189,0.244-1.97,0.537-2.342,0.881C84.705,10.055,84.52,10.32,84.305,10.549z
		 M84.326,10.227c0.086-0.014,0.129-0.071,0.129-0.172v-0.021C84.369,10.062,84.326,10.126,84.326,10.227z M84.455,17.574h-0.064
		v0.086c0.028,0.072,0.15,0.15,0.365,0.236l0.086,0.064C84.684,17.718,84.555,17.589,84.455,17.574z M84.541,9.26v0.043h0.043
		c0.186-0.043,0.279-0.093,0.279-0.15V9.131h-0.107C84.684,9.131,84.612,9.174,84.541,9.26z M84.756,12.16l-0.107,0.021v0.129h0.107
		v-0.086v-0.043V12.16z M84.906,8.271v0.021l0.064,0.043h0.021c0.286-0.071,0.43-0.143,0.43-0.215V7.992l-0.086-0.086h-0.043
		C85.035,7.992,84.906,8.114,84.906,8.271z M85.186,11.967v0.043c0.286,0.072,1.045,0.144,2.277,0.215v0.021v0.021l-0.451,0.064
		c0,0.043,0.186,0.064,0.559,0.064c0.602,0,0.902-0.028,0.902-0.086C88.473,12.167,87.377,12.053,85.186,11.967z M85.4,11.236v0.064
		c0.271,0.187,0.766,0.279,1.482,0.279h0.193l0.279-0.021v-0.086C86.768,11.344,86.116,11.265,85.4,11.236z M85.443,9.131
		c0.143-0.114,0.43-0.236,0.859-0.365V8.723L86.281,8.68h-0.215C85.65,8.794,85.443,8.945,85.443,9.131z M85.766,7.906v0.021h0.043
		c0.229,0,0.658-0.079,1.289-0.236c0.129-0.014,0.193-0.05,0.193-0.107L87.227,7.52h-0.021c-0.416,0-0.881,0.115-1.396,0.344
		L85.766,7.906z M85.959,17.66h-0.021v0.021c0,0.058,0.15,0.122,0.451,0.193l0.021-0.021v-0.043
		C86.224,17.71,86.073,17.66,85.959,17.66z M86.689,8.379V8.4c0,0.058,0.293,0.129,0.881,0.215l0.043-0.021V8.508
		c-0.115-0.157-0.309-0.236-0.58-0.236h-0.064C86.782,8.286,86.689,8.322,86.689,8.379z M87.227,17.896h-0.064v0.064h0.064V17.896z
		 M87.957,18.434l-0.451-0.043H87.42c-0.129,0-0.201,0.028-0.215,0.086v0.043l0.086,0.064h0.387c0.443,0,0.967-0.079,1.568-0.236
		c-0.029-0.086-0.115-0.129-0.258-0.129h-0.107C88.537,18.219,88.229,18.29,87.957,18.434z M88.215,8.057H87.57V8.1
		c0,0.058,0.293,0.101,0.881,0.129h0.021V8.143C88.473,8.114,88.387,8.085,88.215,8.057z M88,8.508v0.021
		c0.816,0.473,1.253,0.709,1.311,0.709h0.021l0.215-0.086l0.129,0.043l0.021-0.043V9.131c-0.058-0.043-0.18-0.086-0.365-0.129
		l-0.43-0.193c-0.115-0.243-0.344-0.365-0.688-0.365H88.15C88.05,8.458,88,8.479,88,8.508z M89.332,11.795h-0.064v0.064h0.064
		V11.795z M89.289,12.375c0,0.058,0.129,0.086,0.387,0.086l0.193-0.021v-0.043c0-0.057-0.137-0.086-0.408-0.086
		C89.346,12.339,89.289,12.361,89.289,12.375z M89.289,17.273h0.043c0.114-0.043,0.179-0.114,0.193-0.215l-0.021-0.021
		C89.36,17.123,89.289,17.202,89.289,17.273z M89.461,18.219c0.143,0,0.258-0.107,0.344-0.322H89.74
		C89.554,17.997,89.461,18.104,89.461,18.219z M89.676,9.561c0.028,0.115,0.093,0.172,0.193,0.172h0.043l0.043-0.064V9.539
		l-0.086-0.107C89.74,9.432,89.676,9.475,89.676,9.561z M89.955,16.607l0.043,0.021h0.021c0.157,0,0.258-0.093,0.301-0.279v-0.043
		C90.162,16.307,90.041,16.407,89.955,16.607z M90.213,9.84h-0.086c0.157,0.473,0.271,0.73,0.344,0.773h0.086l0.064-0.043
		c-0.115-0.458-0.236-0.688-0.365-0.688L90.213,9.84z M90.449,15.361l0.043,0.064H90.6c0.086,0,0.136-0.028,0.15-0.086l-0.086-0.086
		h-0.021C90.542,15.254,90.478,15.29,90.449,15.361z M90.557,17.381h0.086c0.143-0.129,0.215-0.222,0.215-0.279h-0.021
		C90.649,17.159,90.557,17.252,90.557,17.381z M90.943,10.807l-0.064,0.043V11l0.064,0.086c0.057-0.014,0.086-0.064,0.086-0.15
		V10.85l-0.021-0.043H90.943z M90.965,16.801l0.064,0.043c0.215-0.071,0.322-0.165,0.322-0.279v-0.043H91.33
		C91.129,16.521,91.008,16.615,90.965,16.801z M91.459,16.564l0.021,0.021h0.064c0.086-0.057,0.129-0.136,0.129-0.236h-0.064
		C91.509,16.407,91.459,16.479,91.459,16.564z M92.211,16.35h-0.021v0.043c0.043,0.172,0.107,0.258,0.193,0.258h0.021l0.043-0.043
		v-0.021C92.418,16.429,92.34,16.35,92.211,16.35z"/>
	<path fill="#FFFFFF" d="M95.67,15.254c0.443,0.058,0.752,0.165,0.924,0.322c0.057,0.115,0.086,0.244,0.086,0.387v0.301
		c0,0.587-0.337,1.153-1.01,1.697l-0.279,0.086c-0.272,0-0.552-0.408-0.838-1.225v-0.086c0-0.63,0.093-1.017,0.279-1.16
		C95.247,15.361,95.526,15.254,95.67,15.254z M94.982,16.199c0.028,0.373,0.078,0.559,0.15,0.559
		c0.028-0.028,0.093-0.279,0.193-0.752l0.064-0.15v-0.064h-0.021C95.111,15.877,94.982,16.013,94.982,16.199z M95.885,17.037
		l-0.795,0.086c0,0.115,0.043,0.179,0.129,0.193h0.236c0.172,0,0.314-0.079,0.43-0.236V17.037z M95.562,16.328v0.043
		c0,0.144,0.028,0.222,0.086,0.236h0.021c0.057,0,0.143-0.15,0.258-0.451v-0.129l-0.064-0.021h-0.064
		C95.641,16.006,95.562,16.113,95.562,16.328z M96.186,16.607l0.021,0.043h0.107l0.021-0.15v-0.064h-0.021
		C96.271,16.436,96.229,16.493,96.186,16.607z"/>
</g>
<g>
</g>
<g>
</g>
<g>
</g>
<g>
</g>
<g>
</g>
<g>
</g>
</svg>
