<?xml version="1.0" encoding="utf-8"?>
<!-- Generator: Adobe Illustrator 16.0.3, SVG Export Plug-In . SVG Version: 6.00 Build 0)  -->
<!DOCTYPE svg PUBLIC "-//W3C//DTD SVG 1.1//EN" "http://www.w3.org/Graphics/SVG/1.1/DTD/svg11.dtd">
<svg version="1.1" id="图层_1" xmlns="http://www.w3.org/2000/svg" xmlns:xlink="http://www.w3.org/1999/xlink" x="0px" y="0px"
viewBox="0 0 1936.774 104" enable-background="new 0 0 1936.774 104" xml:space="preserve">
<g>
	<path fill="#FFFFFF" d="M71.804,49.997c0,5.5-0.9,10.301-2.5,14.701s-3.9,8.101-6.9,11.201s-6.5,5.5-10.601,7.1
		c-4.1,1.601-8.801,2.4-13.801,2.4H13.501H5v-2c0-1.1,0.7-1.7,2-1.8h1c0.5,0,1.2-0.1,2.2-0.1s2.1-0.1,3.3-0.1V18.595
		c-1.2,0-2.3-0.1-3.3-0.1s-1.7-0.1-2.2-0.1H7c-1.3-0.1-2-0.7-2-1.8v-1.9h8.5h24.501c5,0,9.701,0.8,13.801,2.4s7.601,4,10.601,7.101
		s5.3,6.7,6.9,11.101S71.804,44.596,71.804,49.997z M66.504,49.997c0-4.9-0.7-9.3-2.1-13.201c-1.4-3.9-3.2-7.101-5.7-9.8
		c-2.5-2.7-5.5-4.701-9-6.101c-3.5-1.4-7.4-2.1-11.701-2.1H18.601v62.504h19.401c4.3,0,8.2-0.7,11.701-2.1c3.5-1.4,6.5-3.4,9-6.101
		s4.3-5.9,5.7-9.801C65.804,59.397,66.504,54.997,66.504,49.997z"/>
	<path fill="#FFFFFF" d="M116.902,36.696l-0.6,3.3c-0.1,0.5-0.4,0.8-1,0.8c-0.2,0-0.5-0.1-0.9-0.2s-0.7-0.3-1.3-0.5
		c-0.5-0.2-1.3-0.3-2.1-0.4c-0.8-0.1-1.7-0.2-2.7-0.2c-3.8,0-6.9,1.2-9.3,3.5c-2.4,2.3-4.4,5.7-5.9,10.101v28.302
		c4.1,0.2,4.7,0.2,5.3,0.2c1.2,0.1,1.9,0.5,1.9,1.8v2h-7.2h-4.7H81.2v-2c0-1.301,0.7-1.7,1.9-1.8c0.6,0,1.2,0,5.3-0.2V39.596
		c-4.101-0.2-4.7-0.2-5.3-0.2c-1.2-0.1-1.9-0.5-1.9-1.8v-1.9H88.4h2.5c0.6,0,1,0.1,1.2,0.3c0.2,0.2,0.4,0.6,0.4,1.2l0.4,10.501
		c1.6-4,3.7-7.201,6.4-9.501c2.7-2.3,6-3.4,9.901-3.4c1.5,0,2.8,0.2,4.1,0.5C114.602,35.596,115.802,36.096,116.902,36.696z"/>
	<path fill="#FFFFFF" d="M152.901,36.296c2.4,1,4.5,2.4,6.2,4.2c1.8,1.8,3.101,4.2,4.101,6.9s1.5,5.8,1.5,9.301
		c0,0.7-0.2,1.2-0.4,1.5c-0.2,0.3-0.5,0.4-1,0.4h-35.902v0.9c0,3.7,0.4,7.1,1.3,9.9c0.9,2.8,2.101,5.2,3.7,7.101
		c1.601,1.9,3.5,3.3,5.801,4.3c2.3,1,4.8,1.5,7.6,1.5c2.5,0,4.701-0.301,6.5-0.9c1.8-0.6,3.4-1.1,4.601-1.8c1.3-0.7,2.3-1.3,3-1.9
		c0.7-0.6,1.3-0.8,1.6-0.8c0.4,0,0.8,0.2,1,0.5l1.3,1.6c-0.8,1-1.9,1.9-3.2,2.801c-1.3,0.899-2.8,1.6-4.4,2.199
		c-1.6,0.601-3.4,1.101-5.2,1.5c-1.8,0.4-3.7,0.5-5.601,0.5c-3.4,0-6.5-0.5-9.3-1.699c-2.8-1.201-5.201-2.9-7.201-5.201
		s-3.5-5-4.6-8.301c-1.1-3.3-1.7-7.1-1.7-11.3c0-3.601,0.6-6.9,1.6-9.901c1-3,2.5-5.6,4.4-7.8c1.9-2.2,4.2-3.9,7-5.101
		c2.8-1.2,6-1.9,9.501-1.9C147.9,34.796,150.501,35.296,152.901,36.296z M138.3,39.596c-2,0.8-3.8,1.9-5.3,3.4
		c-1.5,1.5-2.7,3.3-3.6,5.4s-1.5,4.5-1.8,7.101h32.802c0-2.7-0.4-5.1-1.1-7.2s-1.8-3.8-3.1-5.3c-1.3-1.5-2.9-2.601-4.8-3.4
		c-1.9-0.8-3.9-1.2-6.201-1.2C142.6,38.396,140.3,38.796,138.3,39.596z"/>
	<path fill="#FFFFFF" d="M215.501,83.399v2H208.9h-1.8H207c-1,0-1.7-0.5-1.9-1.4l-0.7-6.4c-1.4,1.3-2.7,2.5-4,3.6
		c-1.4,1.101-2.8,2-4.3,2.7s-3,1.3-4.7,1.7c-1.7,0.399-3.6,0.6-5.6,0.6c-1.7,0-3.3-0.3-4.9-0.8s-3.1-1.301-4.3-2.301
		s-2.2-2.299-3-3.899c-0.7-1.6-1.1-3.601-1.1-5.9c0-2.1,0.6-4,1.8-5.8c1.2-1.8,3-3.4,5.601-4.701c2.6-1.3,5.9-2.4,9.9-3.2
		c4-0.8,8.801-1.3,14.401-1.4v-5.2c0-4.601-0.9-8.101-2.9-10.601c-2-2.5-5-3.7-8.9-3.7c-2.4,0-4.4,0.3-6.1,1
		c-1.7,0.7-3,1.4-4.201,2.2c-1.2,0.8-2.2,1.4-2.9,2.1c-0.7,0.7-1.4,1.1-1.9,1.1c-0.7,0-1.2-0.3-1.5-0.9l-0.8-1.5
		c2.6-2.6,5.3-4.6,8.2-5.9c2.9-1.3,6.101-2,9.701-2c2.7,0,5,0.4,7,1.3c2,0.8,3.7,2,5,3.601c1.3,1.6,2.3,3.5,3,5.8
		c0.7,2.3,1,4.7,1,7.5v28.501c0.8,0,1.6,0.1,2.3,0.1h1.6h0.7C214.801,81.699,215.501,82.299,215.501,83.399z M204.2,61.397
		c-4.7,0.1-8.8,0.5-12.201,1.1s-6.2,1.4-8.4,2.4c-2.2,1-3.8,2.1-4.9,3.5c-1.1,1.4-1.6,3-1.6,4.8c0,1.7,0.2,3.1,0.8,4.3
		c0.5,1.2,1.3,2.2,2.2,3c0.9,0.8,1.9,1.301,3.1,1.7c1.2,0.399,2.5,0.5,3.8,0.5c1.9,0,3.7-0.2,5.3-0.601
		c1.6-0.399,3.101-0.899,4.5-1.7c1.4-0.8,2.7-1.7,3.9-2.7c1.2-1,2.3-2.2,3.5-3.4V61.397z"/>
	<path fill="#FFFFFF" d="M303.902,83.399v2h-7.2h-4.7V53.597c0-4.9-1.1-8.5-3.2-11.101c-2.1-2.5-5.101-3.8-9-3.8
		c-1.7,0-3.4,0.3-5,0.9s-3,1.6-4.2,2.8c-1.2,1.2-2.2,2.8-2.9,4.7c-0.7,1.9-1,4-1,6.5v27.802c0.9,0,1.7,0.1,2.4,0.1
		c0.7,0,1.2,0.1,1.5,0.1h0.8h0.5c1.3,0.1,2,0.701,2,1.8v2H266.7h-4.8V53.597c0-4.8-1-8.5-2.9-11.101c-1.9-2.6-4.7-3.8-8.4-3.8
		c-2.7,0-5.2,0.8-7.5,2.4c-2.3,1.6-4.4,3.8-6.2,6.7v33.603c0.9,0,1.8,0.1,2.5,0.1c0.7,0,1.2,0.1,1.5,0.1h0.7h0.6
		c1.3,0.1,1.9,0.701,1.9,1.8v2h-7.2h-4.7h-7.201v-2c0-1.1,0.6-1.7,1.9-1.8h0.7h1.6c0.8,0,1.8-0.2,3-0.2V39.596
		c-0.9,0-1.8-0.1-2.5-0.1h-1.5c-0.3,0-0.5-0.1-0.7-0.1h-0.6c-1.3-0.1-1.9-0.7-1.9-1.8v-1.9h7.201h2.6c0.9,0,1.4,0.4,1.5,1.2l0.4,7.2
		c1-1.4,2-2.6,3.1-3.7c1.1-1.1,2.3-2.2,3.5-3c1.3-0.8,2.6-1.5,4-1.9c1.4-0.5,2.9-0.6,4.5-0.6c3.6,0,6.5,1,8.701,3.1s3.6,5.1,4.4,8.9
		c0.6-2.1,1.4-3.9,2.5-5.4c1.1-1.5,2.4-2.7,3.8-3.7c1.4-1,2.9-1.7,4.5-2.2s3.4-0.7,5.101-0.7c2.5,0,4.6,0.4,6.6,1.2
		c2,0.8,3.7,2,5.101,3.601c1.4,1.6,2.4,3.6,3.1,5.9c0.7,2.3,1.1,5,1.1,8v27.802c0.9,0,1.8,0.1,2.5,0.1s1.2,0.1,1.5,0.1h0.7h0.6
		C303.302,81.699,303.902,82.299,303.902,83.399z"/>
	<path fill="#FFFFFF" d="M342.198,36.296c2.4,1,4.5,2.4,6.2,4.2c1.8,1.8,3.101,4.2,4.101,6.9s1.5,5.8,1.5,9.301
		c0,0.7-0.2,1.2-0.4,1.5c-0.2,0.3-0.5,0.4-1,0.4h-35.902v0.9c0,3.7,0.4,7.1,1.3,9.9c0.9,2.8,2.1,5.2,3.701,7.101
		c1.6,1.9,3.5,3.3,5.8,4.3c2.3,1,4.8,1.5,7.6,1.5c2.5,0,4.701-0.301,6.5-0.9c1.8-0.6,3.4-1.1,4.601-1.8c1.3-0.7,2.3-1.3,3-1.9
		c0.7-0.6,1.3-0.8,1.6-0.8c0.4,0,0.8,0.2,1,0.5l1.3,1.6c-0.8,1-1.9,1.9-3.2,2.801c-1.3,0.899-2.8,1.6-4.4,2.199
		c-1.6,0.601-3.4,1.101-5.2,1.5c-1.8,0.4-3.7,0.5-5.601,0.5c-3.4,0-6.5-0.5-9.3-1.699c-2.8-1.201-5.201-2.9-7.201-5.201
		s-3.5-5-4.6-8.301c-1.1-3.3-1.7-7.1-1.7-11.3c0-3.601,0.6-6.9,1.6-9.901c1-3,2.5-5.6,4.4-7.8c1.9-2.2,4.2-3.9,7-5.101
		c2.8-1.2,6-1.9,9.5-1.9C337.198,34.796,339.798,35.296,342.198,36.296z M327.597,39.596c-2,0.8-3.8,1.9-5.3,3.4
		c-1.5,1.5-2.7,3.3-3.6,5.4s-1.5,4.5-1.8,7.101h32.802c0-2.7-0.4-5.1-1.1-7.2s-1.8-3.8-3.1-5.3c-1.3-1.5-2.9-2.601-4.8-3.4
		c-1.9-0.8-3.9-1.2-6.2-1.2C331.897,38.396,329.598,38.796,327.597,39.596z"/>
	<path fill="#FFFFFF" d="M398.698,36.696l-0.6,3.3c-0.1,0.5-0.4,0.8-1,0.8c-0.2,0-0.5-0.1-0.9-0.2s-0.7-0.3-1.3-0.5
		c-0.5-0.2-1.3-0.3-2.1-0.4c-0.8-0.1-1.7-0.2-2.7-0.2c-3.8,0-6.9,1.2-9.3,3.5c-2.4,2.3-4.4,5.7-5.9,10.101v28.302
		c4.1,0.2,4.7,0.2,5.3,0.2c1.2,0.1,1.9,0.5,1.9,1.8v2h-7.2h-4.7h-7.201v-2c0-1.301,0.7-1.7,1.9-1.8c0.6,0,1.2,0,5.3-0.2V39.596
		c-4.101-0.2-4.7-0.2-5.3-0.2c-1.2-0.1-1.9-0.5-1.9-1.8v-1.9h7.201h2.5c0.6,0,1,0.1,1.2,0.3c0.2,0.2,0.4,0.6,0.4,1.2l0.4,10.501
		c1.6-4,3.7-7.201,6.4-9.501c2.7-2.3,6-3.4,9.901-3.4c1.5,0,2.8,0.2,4.1,0.5C396.398,35.596,397.598,36.096,398.698,36.696z"/>
	<path fill="#FFFFFF" d="M402.495,79.798c0.2-0.6,0.6-1.1,1-1.5c0.4-0.4,0.8-0.8,1.4-1c0.6-0.2,1.2-0.4,1.9-0.4
		c0.6,0,1.2,0.2,1.8,0.4c0.6,0.2,1,0.6,1.4,1c0.4,0.4,0.8,0.9,1,1.5c0.2,0.6,0.4,1.2,0.4,1.8c0,0.701-0.2,1.201-0.4,1.8
		c-0.2,0.6-0.6,1-1,1.4c-0.4,0.399-0.8,0.8-1.4,1c-0.6,0.199-1.2,0.399-1.8,0.399c-1.3,0-2.4-0.5-3.3-1.399
		c-0.9-0.9-1.3-1.9-1.3-3.201C402.195,80.999,402.295,80.398,402.495,79.798z"/>
	<path fill="#FFFFFF" d="M550.101,14.695v1.9c0,1.1-0.6,1.7-1.9,1.8h-0.7c-0.3,0-0.7,0.1-1.2,0.1s-1,0.1-1.6,0.1l-21.001,66.804
		h-4.6l-20.901-61.404c-0.3-0.8-0.5-1.6-0.7-2.5c-0.2,0.9-0.4,1.7-0.7,2.5l-21.001,61.404h-4.5l-21.102-66.804
		c-0.6,0-1.2-0.1-1.7-0.1s-0.8-0.1-1.1-0.1h-0.7c-1.3-0.1-2-0.7-2-1.8v-1.9h4.3h4.201h10.5v1.9c0,1.1-0.7,1.7-2,1.8h-0.8
		c-0.4,0-1,0.1-1.9,0.1c-0.9,0-1.9,0.1-3.1,0.1l17.001,55.503c0.2,0.7,0.4,1.4,0.5,2.2c0.2,0.9,0.4,1.7,0.5,2.4
		c0.2-0.9,0.3-1.7,0.5-2.4c0.2-0.8,0.4-1.4,0.6-2.1l20.001-58.204c0.1-0.4,0.4-0.6,0.7-0.9c0.3-0.3,0.7-0.4,1.2-0.4h1.4
		c0.5,0,0.9,0.1,1.2,0.3c0.3,0.2,0.5,0.6,0.7,1l20.001,58.104l0.6,2.1c0.2,0.7,0.3,1.6,0.5,2.4c0.2-0.8,0.4-1.5,0.5-2.3
		c0.1-0.8,0.3-1.5,0.5-2.2L539.3,18.595c-1.2,0-2.2-0.1-3.2-0.1s-1.7-0.1-2.1-0.1h-0.9c-1.3-0.1-1.9-0.7-1.9-1.8v-1.9h10.501h0.3
		h3.9H550.101z"/>
	<path fill="#FFFFFF" d="M599.597,83.399v2h-6.601h-1.8h-0.1c-1,0-1.7-0.5-1.9-1.4l-0.7-6.4c-1.4,1.3-2.7,2.5-4,3.6
		c-1.4,1.101-2.8,2-4.3,2.7s-3,1.3-4.7,1.7c-1.7,0.399-3.6,0.6-5.6,0.6c-1.7,0-3.3-0.3-4.9-0.8s-3.1-1.301-4.3-2.301
		s-2.2-2.299-3-3.899c-0.7-1.6-1.1-3.601-1.1-5.9c0-2.1,0.6-4,1.8-5.8c1.2-1.8,3-3.4,5.601-4.701c2.6-1.3,5.9-2.4,9.9-3.2
		c4-0.8,8.801-1.3,14.401-1.4v-5.2c0-4.601-0.9-8.101-2.9-10.601c-2-2.5-5-3.7-8.9-3.7c-2.4,0-4.4,0.3-6.1,1
		c-1.7,0.7-3,1.4-4.201,2.2c-1.2,0.8-2.2,1.4-2.9,2.1c-0.7,0.7-1.4,1.1-1.9,1.1c-0.7,0-1.2-0.3-1.5-0.9l-0.8-1.5
		c2.6-2.6,5.3-4.6,8.2-5.9c2.9-1.3,6.101-2,9.701-2c2.7,0,5,0.4,7,1.3c2,0.8,3.7,2,5,3.601c1.3,1.6,2.3,3.5,3,5.8
		c0.7,2.3,1,4.7,1,7.5v28.501c0.8,0,1.6,0.1,2.3,0.1h1.6h0.7C598.896,81.699,599.597,82.299,599.597,83.399z M588.296,61.397
		c-4.7,0.1-8.8,0.5-12.201,1.1s-6.2,1.4-8.4,2.4c-2.2,1-3.8,2.1-4.9,3.5c-1.1,1.4-1.6,3-1.6,4.8c0,1.7,0.2,3.1,0.8,4.3
		c0.5,1.2,1.3,2.2,2.2,3c0.9,0.8,1.9,1.301,3.1,1.7c1.2,0.399,2.5,0.5,3.8,0.5c1.9,0,3.7-0.2,5.3-0.601
		c1.6-0.399,3.101-0.899,4.5-1.7c1.4-0.8,2.7-1.7,3.9-2.7c1.2-1,2.3-2.2,3.5-3.4V61.397z"/>
	<path fill="#FFFFFF" d="M662.596,83.399v2h-7.201h-4.8V53.597c0-4.701-1.1-8.301-3.2-11.001c-2.1-2.6-5.4-3.9-9.8-3.9
		c-3.3,0-6.3,0.8-9.101,2.5s-5.3,4-7.5,6.9v33.302c0.9,0,1.8,0.1,2.5,0.1c0.7,0,1.2,0.1,1.5,0.1h0.7h0.6c1.3,0.1,1.9,0.701,1.9,1.8
		v2h-7.2h-4.7h-7.201v-2c0-1.1,0.6-1.7,1.9-1.8h0.7h1.6c0.8,0,1.8-0.2,3-0.2V39.596c-0.9,0-1.8-0.1-2.5-0.1h-1.5
		c-0.3,0-0.5-0.1-0.7-0.1h-0.6c-1.3-0.1-1.9-0.7-1.9-1.8v-1.9h7.201h2.6c0.9,0,1.4,0.4,1.5,1.2l0.4,7.5c2.3-2.9,4.9-5.101,7.901-6.9
		c3-1.7,6.4-2.6,10.101-2.6c2.7,0,5.1,0.4,7.2,1.3c2.1,0.9,3.8,2.1,5.2,3.7c1.4,1.6,2.4,3.601,3.101,5.9c0.7,2.3,1.1,4.9,1.1,7.801
		v27.802c0.9,0,1.7,0.1,2.4,0.1s1.2,0.1,1.5,0.1h0.8h0.5C661.896,81.699,662.596,82.299,662.596,83.399z"/>
	<path fill="#FFFFFF" d="M718.896,83.899v1.5h-6.7h-2.6c-0.8,0-1.3-0.4-1.4-1.301l-0.5-7.9c-2.2,3-4.7,5.4-7.7,7.201
		c-3,1.8-6.3,2.6-10,2.6c-6.101,0-10.901-2.1-14.301-6.3c-3.4-4.2-5.1-10.601-5.1-19.102c0-3.6,0.4-7,1.4-10.101
		c1-3.1,2.3-5.9,4.2-8.2c1.9-2.3,4.101-4.2,6.801-5.5c2.7-1.3,5.8-2,9.3-2c3.4,0,6.3,0.6,8.801,1.9c2.5,1.2,4.6,3,6.4,5.4V16.595
		c-0.9,0-1.7-0.1-2.4-0.1h-1.6c-0.3,0-0.5-0.1-0.7-0.1h-0.5c-1.3-0.1-2-0.7-2-1.8v-2h7.201h4.7v68.904h2.2c0.6,0,1.1,0.1,1.4,0.1
		h0.7h0.5c1.3,0.1,1.9,0.701,1.9,1.8V83.899z M707.495,46.296c-1.9-2.8-4.101-4.8-6.4-6c-2.3-1.2-5-1.8-7.9-1.8
		c-2.9,0-5.5,0.5-7.701,1.6s-4,2.7-5.5,4.6c-1.5,1.9-2.6,4.3-3.4,7c-0.8,2.7-1.1,5.601-1.1,8.9c0,7.401,1.4,12.901,4.1,16.401
		c2.7,3.5,6.7,5.2,11.801,5.2c3.3,0,6.2-0.9,8.9-2.6s5.101-4.1,7.201-7.101V46.296z"/>
	<path fill="#FFFFFF" d="M756.894,36.296c2.4,1,4.5,2.4,6.2,4.2c1.8,1.8,3.101,4.2,4.101,6.9s1.5,5.8,1.5,9.301
		c0,0.7-0.2,1.2-0.4,1.5c-0.2,0.3-0.5,0.4-1,0.4h-35.902v0.9c0,3.7,0.4,7.1,1.3,9.9c0.9,2.8,2.101,5.2,3.7,7.101
		c1.601,1.9,3.5,3.3,5.801,4.3c2.3,1,4.8,1.5,7.6,1.5c2.5,0,4.701-0.301,6.5-0.9c1.8-0.6,3.4-1.1,4.601-1.8c1.3-0.7,2.3-1.3,3-1.9
		c0.7-0.6,1.3-0.8,1.6-0.8c0.4,0,0.8,0.2,1,0.5l1.3,1.6c-0.8,1-1.9,1.9-3.2,2.801c-1.3,0.899-2.8,1.6-4.4,2.199
		c-1.6,0.601-3.4,1.101-5.2,1.5c-1.8,0.4-3.7,0.5-5.601,0.5c-3.4,0-6.5-0.5-9.3-1.699c-2.8-1.201-5.201-2.9-7.201-5.201
		s-3.5-5-4.6-8.301c-1.1-3.3-1.7-7.1-1.7-11.3c0-3.601,0.6-6.9,1.6-9.901c1-3,2.5-5.6,4.4-7.8c1.9-2.2,4.2-3.9,7-5.101
		c2.8-1.2,6-1.9,9.501-1.9C751.894,34.796,754.494,35.296,756.894,36.296z M742.293,39.596c-2,0.8-3.8,1.9-5.3,3.4
		c-1.5,1.5-2.7,3.3-3.6,5.4s-1.5,4.5-1.8,7.101h32.802c0-2.7-0.4-5.1-1.1-7.2s-1.8-3.8-3.1-5.3c-1.3-1.5-2.9-2.601-4.8-3.4
		c-1.9-0.8-3.9-1.2-6.201-1.2C746.593,38.396,744.293,38.796,742.293,39.596z"/>
	<path fill="#FFFFFF" d="M813.394,36.696l-0.6,3.3c-0.1,0.5-0.4,0.8-1,0.8c-0.2,0-0.5-0.1-0.9-0.2s-0.7-0.3-1.3-0.5
		c-0.5-0.2-1.3-0.3-2.1-0.4c-0.8-0.1-1.7-0.2-2.7-0.2c-3.8,0-6.9,1.2-9.3,3.5c-2.4,2.3-4.4,5.7-5.9,10.101v28.302
		c4.1,0.2,4.7,0.2,5.3,0.2c1.2,0.1,1.9,0.5,1.9,1.8v2h-7.2h-4.7h-7.201v-2c0-1.301,0.7-1.7,1.9-1.8c0.6,0,1.2,0,5.3-0.2V39.596
		c-4.101-0.2-4.7-0.2-5.3-0.2c-1.2-0.1-1.9-0.5-1.9-1.8v-1.9h7.201h2.5c0.6,0,1,0.1,1.2,0.3c0.2,0.2,0.4,0.6,0.4,1.2l0.4,10.501
		c1.6-4,3.7-7.201,6.4-9.501c2.7-2.3,6-3.4,9.901-3.4c1.5,0,2.8,0.2,4.1,0.5C811.094,35.596,812.293,36.096,813.394,36.696z"/>
	<path fill="#FFFFFF" d="M849.393,36.296c2.4,1,4.5,2.4,6.2,4.2c1.8,1.8,3.101,4.2,4.101,6.9s1.5,5.8,1.5,9.301
		c0,0.7-0.2,1.2-0.4,1.5c-0.2,0.3-0.5,0.4-1,0.4h-35.902v0.9c0,3.7,0.4,7.1,1.3,9.9c0.9,2.8,2.101,5.2,3.7,7.101
		c1.601,1.9,3.5,3.3,5.801,4.3c2.3,1,4.8,1.5,7.6,1.5c2.5,0,4.701-0.301,6.5-0.9c1.8-0.6,3.4-1.1,4.601-1.8c1.3-0.7,2.3-1.3,3-1.9
		c0.7-0.6,1.3-0.8,1.6-0.8c0.4,0,0.8,0.2,1,0.5l1.3,1.6c-0.8,1-1.9,1.9-3.2,2.801c-1.3,0.899-2.8,1.6-4.4,2.199
		c-1.6,0.601-3.4,1.101-5.2,1.5c-1.8,0.4-3.7,0.5-5.601,0.5c-3.4,0-6.5-0.5-9.3-1.699c-2.8-1.201-5.201-2.9-7.201-5.201
		s-3.5-5-4.6-8.301c-1.1-3.3-1.7-7.1-1.7-11.3c0-3.601,0.6-6.9,1.6-9.901c1-3,2.5-5.6,4.4-7.8c1.9-2.2,4.2-3.9,7-5.101
		c2.8-1.2,6-1.9,9.501-1.9C844.393,34.796,846.993,35.296,849.393,36.296z M834.792,39.596c-2,0.8-3.8,1.9-5.3,3.4
		c-1.5,1.5-2.7,3.3-3.6,5.4s-1.5,4.5-1.8,7.101h32.802c0-2.7-0.4-5.1-1.1-7.2s-1.8-3.8-3.1-5.3c-1.3-1.5-2.9-2.601-4.8-3.4
		c-1.9-0.8-3.9-1.2-6.201-1.2C839.092,38.396,836.792,38.796,834.792,39.596z"/>
	<path fill="#FFFFFF" d="M905.893,36.696l-0.6,3.3c-0.1,0.5-0.4,0.8-1,0.8c-0.2,0-0.5-0.1-0.9-0.2s-0.7-0.3-1.3-0.5
		c-0.5-0.2-1.3-0.3-2.1-0.4c-0.8-0.1-1.7-0.2-2.7-0.2c-3.8,0-6.9,1.2-9.3,3.5c-2.4,2.3-4.4,5.7-5.9,10.101v28.302
		c4.1,0.2,4.7,0.2,5.3,0.2c1.2,0.1,1.9,0.5,1.9,1.8v2h-7.2h-4.7h-7.201v-2c0-1.301,0.7-1.7,1.9-1.8c0.6,0,1.2,0,5.3-0.2V39.596
		c-4.101-0.2-4.7-0.2-5.3-0.2c-1.2-0.1-1.9-0.5-1.9-1.8v-1.9h7.201h2.5c0.6,0,1,0.1,1.2,0.3c0.2,0.2,0.4,0.6,0.4,1.2l0.4,10.501
		c1.6-4,3.7-7.201,6.4-9.501c2.7-2.3,6-3.4,9.901-3.4c1.5,0,2.8,0.2,4.1,0.5C903.593,35.596,904.792,36.096,905.893,36.696z"/>
	<path fill="#FFFFFF" d="M909.69,79.798c0.2-0.6,0.6-1.1,1-1.5c0.4-0.4,0.8-0.8,1.4-1c0.6-0.2,1.2-0.4,1.9-0.4
		c0.6,0,1.2,0.2,1.8,0.4c0.6,0.2,1,0.6,1.4,1c0.4,0.4,0.8,0.9,1,1.5c0.2,0.6,0.4,1.2,0.4,1.8c0,0.701-0.2,1.201-0.4,1.8
		c-0.2,0.6-0.6,1-1,1.4c-0.4,0.399-0.8,0.8-1.4,1c-0.6,0.199-1.2,0.399-1.8,0.399c-1.3,0-2.4-0.5-3.3-1.399
		c-0.9-0.9-1.3-1.9-1.3-3.201C909.39,80.999,909.49,80.398,909.69,79.798z"/>
	<path fill="#FFFFFF" d="M1057.295,14.695v1.9c0,1.1-0.6,1.7-1.899,1.8h-0.7c-0.3,0-0.7,0.1-1.2,0.1s-1,0.1-1.601,0.1
		l-21.001,66.804h-4.601l-20.9-61.404c-0.301-0.8-0.5-1.6-0.7-2.5c-0.2,0.9-0.4,1.7-0.7,2.5l-21.001,61.404h-4.5l-21.102-66.804
		c-0.6,0-1.2-0.1-1.7-0.1s-0.8-0.1-1.1-0.1h-0.7c-1.3-0.1-2-0.7-2-1.8v-1.9h4.3h4.201h10.5v1.9c0,1.1-0.7,1.7-2,1.8h-0.8
		c-0.4,0-1,0.1-1.9,0.1c-0.9,0-1.9,0.1-3.1,0.1l17.001,55.503c0.2,0.7,0.4,1.4,0.5,2.2c0.2,0.9,0.4,1.7,0.5,2.4
		c0.2-0.9,0.3-1.7,0.5-2.4c0.2-0.8,0.4-1.4,0.6-2.1l20.001-58.204c0.1-0.4,0.4-0.6,0.7-0.9c0.3-0.3,0.7-0.4,1.2-0.4h1.4
		c0.5,0,0.9,0.1,1.2,0.3s0.5,0.6,0.7,1l20.001,58.104l0.6,2.1c0.2,0.7,0.301,1.6,0.5,2.4c0.2-0.8,0.4-1.5,0.5-2.3
		c0.101-0.8,0.301-1.5,0.501-2.2l17.001-55.503c-1.2,0-2.2-0.1-3.2-0.1s-1.7-0.1-2.101-0.1h-0.9c-1.3-0.1-1.899-0.7-1.899-1.8v-1.9
		h10.5h0.301h3.899H1057.295z"/>
	<path fill="#FFFFFF" d="M1100.69,36.696l-0.6,3.3c-0.101,0.5-0.4,0.8-1,0.8c-0.2,0-0.5-0.1-0.9-0.2s-0.7-0.3-1.3-0.5
		c-0.5-0.2-1.301-0.3-2.101-0.4s-1.7-0.2-2.7-0.2c-3.8,0-6.9,1.2-9.301,3.5c-2.399,2.3-4.399,5.7-5.9,10.101v28.302
		c4.101,0.2,4.701,0.2,5.301,0.2c1.2,0.1,1.9,0.5,1.9,1.8v2h-7.201h-4.7h-7.2v-2c0-1.301,0.7-1.7,1.9-1.8c0.6,0,1.2,0,5.3-0.2
		V39.596c-4.1-0.2-4.7-0.2-5.3-0.2c-1.2-0.1-1.9-0.5-1.9-1.8v-1.9h7.2h2.501c0.6,0,1,0.1,1.199,0.3c0.2,0.2,0.4,0.6,0.4,1.2
		l0.4,10.501c1.6-4,3.7-7.201,6.4-9.501c2.7-2.3,6-3.4,9.9-3.4c1.5,0,2.8,0.2,4.101,0.5
		C1098.391,35.596,1099.591,36.096,1100.69,36.696z"/>
	<path fill="#FFFFFF" d="M1127.589,83.399v2h-7.2h-4.8h-7.201v-2c0-1.1,0.7-1.7,2-1.8h0.601h1.7c0.8,0,1.8-0.2,2.9-0.2V39.596
		c-0.9,0-1.7-0.1-2.4-0.1h-1.5c-0.3,0-0.601-0.1-0.801-0.1h-0.5c-1.3-0.1-2-0.7-2-1.8v-2h7.201h4.8v45.803c0.9,0,1.7,0.1,2.4,0.1
		s1.2,0.1,1.5,0.1h0.8h0.5C1126.889,81.699,1127.589,82.299,1127.589,83.399z M1113.988,20.195c-0.2-0.5-0.4-1.1-0.4-1.7
		c0-0.6,0.2-1.2,0.4-1.7s0.5-1,0.9-1.4c0.399-0.4,0.899-0.8,1.399-1c0.5-0.2,1.101-0.3,1.7-0.3c0.601,0,1.2,0.1,1.7,0.3
		c0.5,0.2,1,0.6,1.4,1s0.8,0.9,1,1.4c0.2,0.6,0.4,1.1,0.4,1.7c0,0.6-0.2,1.2-0.4,1.7s-0.6,1-1,1.4c-0.4,0.4-0.9,0.7-1.4,0.9
		s-1.1,0.4-1.7,0.4c-0.6,0-1.2-0.2-1.7-0.4s-1-0.5-1.399-0.9C1114.488,21.195,1114.188,20.695,1113.988,20.195z"/>
	<path fill="#FFFFFF" d="M1144.487,83.399c-1.899-1.9-2.8-4.7-2.8-8.601V40.796h-7.101c-0.399,0-0.8-0.2-1-0.4
		c-0.2-0.2-0.3-0.4-0.3-0.8v-1.8l8.5-0.6l1.2-17.801c0-0.3,0.2-0.6,0.4-0.8c0.2-0.2,0.4-0.4,0.8-0.4h2.301v19.001h15.7v3.601h-15.7
		v33.702c0,1.4,0.1,2.5,0.5,3.5c0.399,1,0.899,1.8,1.5,2.4c0.6,0.6,1.3,1.1,2.1,1.401c0.8,0.299,1.801,0.5,2.801,0.5
		c1.199,0,2.1-0.101,3-0.5c0.899-0.4,1.7-0.801,2.3-1.201c0.601-0.4,1.101-0.7,1.5-1.1c0.4-0.4,0.8-0.5,1-0.5c0.3,0,0.5,0.1,0.8,0.4
		l1.301,2.2c-1.301,1.4-2.9,2.5-4.801,3.3c-2,0.8-4,1.3-6.1,1.3C1148.988,86.199,1146.388,85.299,1144.487,83.399z"/>
	<path fill="#FFFFFF" d="M1201.189,36.296c2.399,1,4.5,2.4,6.2,4.2c1.8,1.8,3.1,4.2,4.1,6.9s1.5,5.8,1.5,9.301
		c0,0.7-0.199,1.2-0.399,1.5s-0.5,0.4-1,0.4h-35.902v0.9c0,3.7,0.4,7.1,1.3,9.9c0.9,2.8,2.101,5.2,3.7,7.101
		c1.601,1.9,3.5,3.3,5.801,4.3c2.3,1,4.8,1.5,7.601,1.5c2.5,0,4.7-0.301,6.5-0.9c1.8-0.6,3.4-1.1,4.601-1.8c1.3-0.7,2.3-1.3,3-1.9
		c0.7-0.6,1.3-0.8,1.6-0.8c0.4,0,0.801,0.2,1.001,0.5l1.3,1.6c-0.8,1-1.9,1.9-3.2,2.801c-1.3,0.899-2.801,1.6-4.4,2.199
		c-1.601,0.601-3.4,1.101-5.2,1.5c-1.801,0.4-3.7,0.5-5.601,0.5c-3.4,0-6.5-0.5-9.301-1.699c-2.8-1.201-5.2-2.9-7.2-5.201
		s-3.5-5-4.601-8.301c-1.1-3.3-1.7-7.1-1.7-11.3c0-3.601,0.601-6.9,1.601-9.901c1-3,2.5-5.6,4.4-7.8s4.2-3.9,7-5.101
		c2.801-1.2,6.001-1.9,9.501-1.9C1196.188,34.796,1198.789,35.296,1201.189,36.296z M1186.588,39.596c-2,0.8-3.8,1.9-5.3,3.4
		c-1.5,1.5-2.7,3.3-3.601,5.4s-1.5,4.5-1.8,7.101h32.802c0-2.7-0.4-5.1-1.1-7.2c-0.7-2.1-1.801-3.8-3.101-5.3
		c-1.3-1.5-2.9-2.601-4.801-3.4c-1.899-0.8-3.899-1.2-6.2-1.2C1190.889,38.396,1188.588,38.796,1186.588,39.596z"/>
	<path fill="#FFFFFF" d="M1257.688,36.696l-0.6,3.3c-0.101,0.5-0.4,0.8-1,0.8c-0.2,0-0.5-0.1-0.9-0.2s-0.7-0.3-1.3-0.5
		c-0.5-0.2-1.301-0.3-2.101-0.4s-1.7-0.2-2.7-0.2c-3.8,0-6.9,1.2-9.301,3.5c-2.399,2.3-4.399,5.7-5.9,10.101v28.302
		c4.101,0.2,4.701,0.2,5.301,0.2c1.2,0.1,1.9,0.5,1.9,1.8v2h-7.201h-4.7h-7.2v-2c0-1.301,0.7-1.7,1.9-1.8c0.6,0,1.2,0,5.3-0.2
		V39.596c-4.1-0.2-4.7-0.2-5.3-0.2c-1.2-0.1-1.9-0.5-1.9-1.8v-1.9h7.2h2.501c0.6,0,1,0.1,1.199,0.3c0.2,0.2,0.4,0.6,0.4,1.2
		l0.4,10.501c1.6-4,3.7-7.201,6.4-9.501c2.7-2.3,6-3.4,9.9-3.4c1.5,0,2.8,0.2,4.101,0.5
		C1255.389,35.596,1256.589,36.096,1257.688,36.696z"/>
	<path fill="#FFFFFF" d="M1261.486,79.798c0.199-0.6,0.6-1.1,1-1.5c0.399-0.4,0.8-0.8,1.399-1c0.601-0.2,1.2-0.4,1.9-0.4
		c0.601,0,1.2,0.2,1.8,0.4c0.601,0.2,1,0.6,1.4,1c0.4,0.4,0.8,0.9,1,1.5c0.2,0.6,0.4,1.2,0.4,1.8c0,0.701-0.2,1.201-0.4,1.8
		s-0.6,1-1,1.4c-0.4,0.399-0.8,0.8-1.4,1c-0.6,0.199-1.199,0.399-1.8,0.399c-1.3,0-2.4-0.5-3.3-1.399
		c-0.9-0.9-1.301-1.9-1.301-3.201C1261.186,80.999,1261.286,80.398,1261.486,79.798z"/>
	<path fill="#FFFFFF" d="M1357.088,35.696c0,3.1-0.5,5.9-1.7,8.5c-1.101,2.6-2.801,4.8-5.001,6.701c-2.199,1.9-4.8,3.3-7.9,4.4
		c-3.1,1-6.6,1.6-10.5,1.6h-12.101v24.502c1.199,0,2.2,0.1,3.2,0.1s1.8,0.1,2.3,0.1h0.9c1.3,0.1,2,0.701,2,1.8v2h-8.4h-5.101h-8.501
		v-2c0-1.1,0.7-1.7,2-1.8h1.001c0.5,0,1.199-0.1,2.199-0.1s2.101-0.1,3.301-0.1V18.595c-1.2,0-2.301-0.1-3.301-0.1
		s-1.699-0.1-2.199-0.1h-1.001c-1.3-0.1-2-0.7-2-1.8v-1.9h8.501h17.201c8.3,0,14.601,1.8,18.801,5.4
		C1354.987,23.695,1357.088,28.996,1357.088,35.696z M1351.987,35.596c0-5.4-1.7-9.601-5-12.5c-3.4-2.9-8.4-4.4-15.001-4.4h-12.101
		v34.102h12.101c3.1,0,5.9-0.4,8.4-1.3c2.5-0.9,4.601-2.1,6.3-3.601c1.7-1.5,3.001-3.3,3.9-5.4
		C1351.487,40.396,1351.987,38.096,1351.987,35.596z"/>
	<path fill="#FFFFFF" d="M1418.986,83.399v2h-7.2h-4.7V53.597c0-4.701-1.101-8.301-3.2-11.001c-2.101-2.6-5.4-3.9-9.801-3.9
		c-3.3,0-6.3,0.8-9.101,2.5c-2.8,1.7-5.3,4-7.5,6.9v33.302c0.899,0,1.7,0.1,2.399,0.1c0.7,0,1.2,0.1,1.501,0.1h0.8h0.5
		c1.3,0.1,2,0.701,2,1.8v2h-7.2h-4.801h-7.2v-2c0-1.1,0.7-1.7,2-1.8h0.6h1.7c0.801,0,1.801-0.2,2.9-0.2V16.595
		c-0.9,0-1.7-0.1-2.4-0.1h-1.5c-0.3,0-0.6-0.1-0.8-0.1h-0.5c-1.3-0.1-2-0.7-2-1.8v-1.9h7.2h4.801v31.502c2.3-2.8,4.9-5.1,7.8-6.8
		c3.001-1.7,6.301-2.5,10.001-2.5c2.7,0,5.101,0.4,7.2,1.3c2.101,0.9,3.801,2.1,5.2,3.7c1.4,1.6,2.4,3.601,3.101,5.9
		c0.7,2.3,1,4.9,1,7.801v27.802c0.9,0,1.8,0.1,2.5,0.1s1.2,0.1,1.5,0.1h0.7h0.601C1418.387,81.699,1418.986,82.299,1418.986,83.399z
		"/>
	<path fill="#FFFFFF" d="M1459.085,36.696c2.8,1.2,5.2,2.9,7.101,5.101c1.899,2.2,3.5,4.9,4.5,8.101s1.5,6.7,1.5,10.601
		c0,3.9-0.5,7.4-1.5,10.5s-2.601,5.9-4.5,8.101c-1.9,2.2-4.301,3.9-7.101,5.1c-2.801,1.2-5.9,1.8-9.501,1.8s-6.801-0.6-9.601-1.8
		s-5.2-2.9-7.2-5.1s-3.4-5-4.4-8.101s-1.601-6.601-1.601-10.5c0-3.9,0.601-7.4,1.601-10.601s2.4-5.9,4.4-8.101s4.4-3.9,7.2-5.101
		c2.8-1.2,6-1.9,9.601-1.9S1456.284,35.496,1459.085,36.696z M1457.284,80.799c2.2-1,4.101-2.5,5.601-4.4
		c1.5-1.9,2.601-4.2,3.301-6.9c0.699-2.7,1.1-5.701,1.1-9c0-3.3-0.4-6.301-1.1-9c-0.7-2.7-1.801-5-3.301-6.901
		c-1.5-1.9-3.4-3.5-5.601-4.5s-4.7-1.5-7.7-1.5s-5.601,0.5-7.801,1.5s-4.1,2.6-5.6,4.5c-1.5,1.9-2.501,4.201-3.301,6.901
		c-0.8,2.7-1.1,5.7-1.1,9c0,3.3,0.3,6.3,1.1,9s1.801,5,3.301,6.9c1.5,1.9,3.399,3.4,5.6,4.4s4.801,1.5,7.801,1.5
		S1455.084,81.799,1457.284,80.799z"/>
	<path fill="#FFFFFF" d="M1488.883,83.399c-1.899-1.9-2.8-4.7-2.8-8.601V40.796h-7.101c-0.399,0-0.8-0.2-1-0.4
		c-0.2-0.2-0.3-0.4-0.3-0.8v-1.8l8.5-0.6l1.2-17.801c0-0.3,0.2-0.6,0.4-0.8c0.2-0.2,0.4-0.4,0.8-0.4h2.301v19.001h15.7v3.601h-15.7
		v33.702c0,1.4,0.1,2.5,0.5,3.5c0.399,1,0.899,1.8,1.5,2.4c0.6,0.6,1.3,1.1,2.1,1.401c0.8,0.299,1.8,0.5,2.801,0.5
		c1.199,0,2.1-0.101,3-0.5c0.899-0.4,1.7-0.801,2.3-1.201c0.601-0.4,1.101-0.7,1.5-1.1c0.4-0.4,0.8-0.5,1-0.5
		c0.3,0,0.5,0.1,0.801,0.4l1.3,2.2c-1.3,1.4-2.9,2.5-4.801,3.3c-2,0.8-4,1.3-6.101,1.3
		C1493.384,86.199,1490.783,85.299,1488.883,83.399z"/>
	<path fill="#FFFFFF" d="M1547.585,36.696c2.8,1.2,5.2,2.9,7.101,5.101c1.899,2.2,3.5,4.9,4.5,8.101s1.5,6.7,1.5,10.601
		c0,3.9-0.5,7.4-1.5,10.5s-2.601,5.9-4.5,8.101c-1.9,2.2-4.301,3.9-7.101,5.1c-2.801,1.2-5.9,1.8-9.501,1.8s-6.801-0.6-9.601-1.8
		s-5.2-2.9-7.2-5.1s-3.4-5-4.4-8.101s-1.601-6.601-1.601-10.5c0-3.9,0.601-7.4,1.601-10.601s2.4-5.9,4.4-8.101s4.4-3.9,7.2-5.101
		c2.8-1.2,6-1.9,9.601-1.9S1544.784,35.496,1547.585,36.696z M1545.784,80.799c2.2-1,4.101-2.5,5.601-4.4
		c1.5-1.9,2.601-4.2,3.301-6.9c0.699-2.7,1.1-5.701,1.1-9c0-3.3-0.4-6.301-1.1-9c-0.7-2.7-1.801-5-3.301-6.901
		c-1.5-1.9-3.4-3.5-5.601-4.5s-4.7-1.5-7.7-1.5s-5.601,0.5-7.801,1.5s-4.1,2.6-5.6,4.5c-1.5,1.9-2.501,4.201-3.301,6.901
		c-0.8,2.7-1.1,5.7-1.1,9c0,3.3,0.3,6.3,1.1,9s1.801,5,3.301,6.9c1.5,1.9,3.399,3.4,5.6,4.4s4.801,1.5,7.801,1.5
		S1543.584,81.799,1545.784,80.799z"/>
	<path fill="#FFFFFF" d="M1594.283,35.596c1.8,0.5,3.5,1.2,5,2.2h12.801v1.7c0,0.8-0.5,1.2-1.399,1.3l-7.601,0.6
		c0.899,1.3,1.7,2.7,2.2,4.3s0.7,3.3,0.7,5.101c0,2.4-0.4,4.5-1.301,6.5c-0.899,2-2,3.6-3.6,5c-1.601,1.4-3.4,2.4-5.601,3.2
		c-2.2,0.8-4.601,1.1-7.2,1.1c-2.9,0-5.501-0.3-7.801-1.2c-1.4,0.8-2.5,1.7-3.3,2.8c-0.801,1.1-1.2,2.2-1.2,3.2
		c0,1.4,0.5,2.5,1.5,3.3c1,0.8,2.4,1.3,4,1.7c1.601,0.4,3.5,0.5,5.601,0.6c2.1,0.1,4.3,0.3,6.5,0.4s4.301,0.3,6.4,0.6
		c2.101,0.3,4.101,0.8,5.7,1.6c1.601,0.8,3.001,1.7,4.001,3.1c1,1.399,1.399,3.2,1.399,5.4c0,2.101-0.5,4-1.5,5.9
		c-1,1.899-2.5,3.601-4.5,5.101s-4.2,2.6-7,3.5c-2.801,0.9-6.001,1.4-9.401,1.4c-3.5,0-6.601-0.4-9.2-1.101
		c-2.601-0.7-4.801-1.7-6.601-2.899c-1.8-1.201-3.1-2.601-4-4.201c-0.9-1.6-1.4-3.4-1.4-5.2c0-2.601,0.9-4.9,2.601-6.8
		c1.7-1.9,4.2-3.401,7.2-4.401c-1.7-0.6-3-1.3-4-2.4s-1.4-2.5-1.4-4.4c0-0.7,0.1-1.4,0.4-2.2c0.3-0.8,0.7-1.5,1.2-2.3
		c0.5-0.8,1.1-1.4,1.899-2.1c0.801-0.7,1.601-1.3,2.601-1.8c-2.4-1.4-4.2-3.2-5.5-5.5c-1.301-2.3-2.001-4.9-2.001-7.9
		c0-2.4,0.5-4.6,1.301-6.601c0.8-2,2-3.6,3.6-5c1.601-1.4,3.4-2.4,5.601-3.2c2.2-0.8,4.601-1.2,7.301-1.2
		C1590.483,34.796,1592.483,35.096,1594.283,35.596z M1605.484,84.999c-0.801-1-1.801-1.699-3.2-2.199c-1.4-0.5-3.001-1-4.801-1.201
		c-1.8-0.2-3.601-0.3-5.601-0.4s-3.8-0.2-5.8-0.3c-2-0.1-3.801-0.3-5.501-0.6c-1.3,0.5-2.5,1.1-3.6,1.7c-1.101,0.6-1.9,1.4-2.7,2.2
		s-1.4,1.7-1.8,2.7c-0.4,1-0.7,2-0.7,3.2c0,1.5,0.3,2.9,1.1,4.101c0.8,1.199,1.9,2.3,3.301,3.2c1.399,0.899,3.3,1.7,5.399,2.2
		c2.101,0.5,4.501,0.8,7.201,0.8c2.5,0,4.9-0.2,7.101-0.8c2.2-0.601,4.1-1.4,5.7-2.4c1.6-1,2.9-2.4,3.8-3.801
		c0.9-1.399,1.4-2.9,1.4-4.6C1606.784,87.2,1606.284,85.999,1605.484,84.999z M1593.983,62.498c1.7-0.6,3.1-1.5,4.2-2.6
		c1.1-1.1,2-2.4,2.6-3.9c0.601-1.5,0.9-3.3,0.9-5.2c0-1.9-0.3-3.5-0.9-5.101c-0.6-1.6-1.5-2.8-2.699-3.9c-1.2-1.1-2.601-2-4.201-2.6
		c-1.6-0.6-3.5-0.9-5.6-0.9c-2.101,0-3.9,0.3-5.601,0.9s-3.101,1.5-4.301,2.6c-1.199,1.1-2,2.3-2.6,3.9
		c-0.601,1.6-0.9,3.3-0.9,5.201c0,1.9,0.3,3.6,0.9,5.1c0.6,1.5,1.4,2.8,2.6,3.9c1.2,1.1,2.601,2,4.301,2.6s3.5,0.9,5.601,0.9
		C1590.383,63.397,1592.283,63.098,1593.983,62.498z"/>
	<path fill="#FFFFFF" d="M1656.983,36.696l-0.6,3.3c-0.101,0.5-0.4,0.8-1,0.8c-0.2,0-0.5-0.1-0.9-0.2s-0.7-0.3-1.3-0.5
		c-0.5-0.2-1.301-0.3-2.101-0.4s-1.7-0.2-2.7-0.2c-3.8,0-6.9,1.2-9.301,3.5c-2.399,2.3-4.399,5.7-5.9,10.101v28.302
		c4.101,0.2,4.701,0.2,5.301,0.2c1.2,0.1,1.9,0.5,1.9,1.8v2h-7.201h-4.7h-7.2v-2c0-1.301,0.7-1.7,1.9-1.8c0.6,0,1.2,0,5.3-0.2
		V39.596c-4.1-0.2-4.7-0.2-5.3-0.2c-1.2-0.1-1.9-0.5-1.9-1.8v-1.9h7.2h2.501c0.6,0,1,0.1,1.199,0.3c0.2,0.2,0.4,0.6,0.4,1.2
		l0.4,10.501c1.6-4,3.7-7.201,6.4-9.501c2.7-2.3,6-3.4,9.9-3.4c1.5,0,2.8,0.2,4.101,0.5
		C1654.684,35.596,1655.884,36.096,1656.983,36.696z"/>
	<path fill="#FFFFFF" d="M1705.183,83.399v2h-6.601h-1.8h-0.101c-1,0-1.699-0.5-1.899-1.4l-0.7-6.4c-1.4,1.3-2.7,2.5-4,3.6
		c-1.4,1.101-2.801,2-4.301,2.7s-3,1.3-4.7,1.7c-1.7,0.399-3.601,0.6-5.601,0.6c-1.7,0-3.3-0.3-4.9-0.8
		c-1.6-0.5-3.1-1.301-4.3-2.301s-2.2-2.299-3-3.899c-0.7-1.6-1.101-3.601-1.101-5.9c0-2.1,0.601-4,1.801-5.8
		c1.199-1.8,3-3.4,5.6-4.701c2.601-1.3,5.9-2.4,9.901-3.2c4-0.8,8.8-1.3,14.4-1.4v-5.2c0-4.601-0.9-8.101-2.9-10.601
		c-2-2.5-5-3.7-8.9-3.7c-2.4,0-4.4,0.3-6.101,1c-1.7,0.7-3,1.4-4.2,2.2c-1.2,0.8-2.2,1.4-2.9,2.1c-0.699,0.7-1.399,1.1-1.899,1.1
		c-0.7,0-1.2-0.3-1.5-0.9l-0.801-1.5c2.601-2.6,5.301-4.6,8.201-5.9c2.9-1.3,6.1-2,9.7-2c2.7,0,5,0.4,7.001,1.3c2,0.8,3.7,2,5,3.601
		s2.3,3.5,3,5.8c0.7,2.3,1,4.7,1,7.5v28.501c0.8,0,1.601,0.1,2.3,0.1h1.601h0.7C1704.482,81.699,1705.183,82.299,1705.183,83.399z
		 M1693.882,61.397c-4.7,0.1-8.801,0.5-12.201,1.1c-3.399,0.6-6.2,1.4-8.4,2.4c-2.2,1-3.8,2.1-4.9,3.5c-1.1,1.4-1.6,3-1.6,4.8
		c0,1.7,0.2,3.1,0.8,4.3c0.5,1.2,1.3,2.2,2.2,3c0.9,0.8,1.9,1.301,3.101,1.7s2.5,0.5,3.8,0.5c1.9,0,3.7-0.2,5.301-0.601
		c1.6-0.399,3.1-0.899,4.5-1.7c1.4-0.8,2.7-1.7,3.9-2.7c1.2-1,2.3-2.2,3.5-3.4V61.397z"/>
	<path fill="#FFFFFF" d="M1760.382,60.197c0,3.6-0.4,7.101-1.4,10.201c-0.9,3.1-2.4,5.9-4.2,8.201c-1.8,2.3-4.101,4.1-6.801,5.4
		c-2.7,1.301-5.7,2-9.2,2c-3.4,0-6.301-0.6-8.801-1.8s-4.6-3.1-6.4-5.5V99c0.9,0,1.7,0.101,2.4,0.101s1.2,0.1,1.5,0.1h0.8h0.5
		c1.301,0.1,2.001,0.7,2.001,1.801v2h-7.201h-4.8h-7.2v-2c0-1.101,0.699-1.701,2-1.801h0.6h1.7c0.8,0,1.8-0.2,2.9-0.2V39.596
		c-0.9,0-1.7-0.1-2.4-0.1h-1.5c-0.3,0-0.6-0.1-0.8-0.1h-0.5c-1.301-0.1-2-0.7-2-1.8v-1.9h7.2h2.6c0.4,0,0.801,0,1.101,0.2
		c0.3,0.2,0.399,0.5,0.399,1l0.5,7.7c2.2-3,4.801-5.3,7.701-7.1c3-1.8,6.2-2.7,9.9-2.7c6.101,0,10.9,2.2,14.301,6.4
		S1760.382,51.697,1760.382,60.197z M1755.481,60.197c0-7.4-1.4-12.801-4.101-16.301c-2.7-3.5-6.601-5.2-11.7-5.2
		c-3.301,0-6.301,0.8-9.001,2.5s-5,4.1-7.101,7.2v26.102c1.9,2.9,4.001,4.8,6.301,6s4.9,1.801,7.9,1.801c2.9,0,5.5-0.5,7.7-1.601
		c2.2-1.1,4-2.5,5.501-4.5c1.5-2,2.7-4.3,3.399-7C1755.182,66.498,1755.481,63.498,1755.481,60.197z"/>
	<path fill="#FFFFFF" d="M1822.681,83.399v2h-7.2h-4.7V53.597c0-4.701-1.101-8.301-3.2-11.001c-2.101-2.6-5.4-3.9-9.801-3.9
		c-3.3,0-6.301,0.8-9.101,2.5s-5.3,4-7.5,6.9v33.302c0.899,0,1.7,0.1,2.399,0.1c0.7,0,1.2,0.1,1.5,0.1h0.801h0.5
		c1.3,0.1,2,0.701,2,1.8v2h-7.2h-4.801h-7.2v-2c0-1.1,0.7-1.7,2-1.8h0.6h1.7c0.801,0,1.801-0.2,2.9-0.2V16.595
		c-0.899,0-1.7-0.1-2.4-0.1h-1.5c-0.3,0-0.6-0.1-0.8-0.1h-0.5c-1.3-0.1-2-0.7-2-1.8v-1.9h7.2h4.801v31.502c2.3-2.8,4.9-5.1,7.8-6.8
		c3.001-1.7,6.301-2.5,10.001-2.5c2.7,0,5.101,0.4,7.2,1.3c2.101,0.9,3.801,2.1,5.2,3.7c1.4,1.6,2.4,3.601,3.101,5.9
		c0.7,2.3,1,4.9,1,7.801v27.802c0.9,0,1.8,0.1,2.5,0.1s1.2,0.1,1.5,0.1h0.7h0.601C1822.081,81.699,1822.681,82.299,1822.681,83.399z
		"/>
	<path fill="#FFFFFF" d="M1860.779,36.296c2.399,1,4.5,2.4,6.2,4.2c1.8,1.8,3.1,4.2,4.1,6.9s1.5,5.8,1.5,9.301
		c0,0.7-0.199,1.2-0.399,1.5s-0.5,0.4-1,0.4h-35.902v0.9c0,3.7,0.4,7.1,1.3,9.9c0.9,2.8,2.101,5.2,3.7,7.101
		c1.601,1.9,3.5,3.3,5.801,4.3c2.3,1,4.8,1.5,7.601,1.5c2.5,0,4.7-0.301,6.5-0.9c1.8-0.6,3.4-1.1,4.601-1.8c1.3-0.7,2.3-1.3,3-1.9
		c0.7-0.6,1.3-0.8,1.6-0.8c0.4,0,0.801,0.2,1.001,0.5l1.3,1.6c-0.8,1-1.9,1.9-3.2,2.801c-1.3,0.899-2.801,1.6-4.4,2.199
		c-1.601,0.601-3.4,1.101-5.2,1.5c-1.801,0.4-3.7,0.5-5.601,0.5c-3.4,0-6.5-0.5-9.301-1.699c-2.8-1.201-5.2-2.9-7.2-5.201
		s-3.5-5-4.601-8.301c-1.1-3.3-1.7-7.1-1.7-11.3c0-3.601,0.601-6.9,1.601-9.901c1-3,2.5-5.6,4.4-7.8s4.2-3.9,7-5.101
		c2.801-1.2,6.001-1.9,9.501-1.9C1855.778,34.796,1858.379,35.296,1860.779,36.296z M1846.178,39.596c-2,0.8-3.8,1.9-5.3,3.4
		c-1.5,1.5-2.7,3.3-3.601,5.4s-1.5,4.5-1.8,7.101h32.802c0-2.7-0.4-5.1-1.1-7.2c-0.7-2.1-1.801-3.8-3.101-5.3
		c-1.3-1.5-2.9-2.601-4.801-3.4c-1.899-0.8-3.899-1.2-6.2-1.2C1850.479,38.396,1848.178,38.796,1846.178,39.596z"/>
	<path fill="#FFFFFF" d="M1917.278,36.696l-0.6,3.3c-0.101,0.5-0.4,0.8-1,0.8c-0.2,0-0.5-0.1-0.9-0.2s-0.7-0.3-1.3-0.5
		c-0.5-0.2-1.301-0.3-2.101-0.4s-1.7-0.2-2.7-0.2c-3.8,0-6.9,1.2-9.301,3.5c-2.399,2.3-4.399,5.7-5.9,10.101v28.302
		c4.101,0.2,4.701,0.2,5.301,0.2c1.2,0.1,1.9,0.5,1.9,1.8v2h-7.201h-4.7h-7.2v-2c0-1.301,0.7-1.7,1.9-1.8c0.6,0,1.2,0,5.3-0.2
		V39.596c-4.1-0.2-4.7-0.2-5.3-0.2c-1.2-0.1-1.9-0.5-1.9-1.8v-1.9h7.2h2.501c0.6,0,1,0.1,1.199,0.3c0.2,0.2,0.4,0.6,0.4,1.2
		l0.4,10.501c1.6-4,3.7-7.201,6.4-9.501c2.7-2.3,6-3.4,9.9-3.4c1.5,0,2.8,0.2,4.101,0.5
		C1914.979,35.596,1916.179,36.096,1917.278,36.696z"/>
	<path fill="#FFFFFF" d="M1921.076,79.798c0.199-0.6,0.6-1.1,1-1.5c0.399-0.4,0.8-0.8,1.399-1c0.601-0.2,1.2-0.4,1.9-0.4
		c0.601,0,1.2,0.2,1.8,0.4c0.601,0.2,1,0.6,1.4,1c0.4,0.4,0.8,0.9,1,1.5c0.2,0.6,0.4,1.2,0.4,1.8c0,0.701-0.2,1.201-0.4,1.8
		s-0.6,1-1,1.4c-0.4,0.399-0.8,0.8-1.4,1c-0.6,0.199-1.199,0.399-1.8,0.399c-1.3,0-2.4-0.5-3.3-1.399
		c-0.9-0.9-1.301-1.9-1.301-3.201C1920.775,80.999,1920.876,80.398,1921.076,79.798z"/>
</g>
<g>
</g>
<g>
</g>
<g>
</g>
<g>
</g>
<g>
</g>
<g>
</g>
</svg>
