<?xml version="1.0" encoding="utf-8"?>
<!-- Generator: Adobe Illustrator 16.0.3, SVG Export Plug-In . SVG Version: 6.00 Build 0)  -->
<!DOCTYPE svg PUBLIC "-//W3C//DTD SVG 1.1//EN" "http://www.w3.org/Graphics/SVG/1.1/DTD/svg11.dtd">
<svg version="1.1" id="图层_1" xmlns="http://www.w3.org/2000/svg" xmlns:xlink="http://www.w3.org/1999/xlink" x="0px" y="0px"
	 viewBox="0 0 987.286 224" enable-background="new 0 0 987.286 224" xml:space="preserve">
<g>
	<path fill="#FFFFFF" d="M102.753,49.997c0,5.5-0.9,10.301-2.5,14.701s-3.9,8.101-6.9,11.201s-6.5,5.5-10.601,7.1
		c-4.1,1.601-8.801,2.4-13.801,2.4H44.45h-8.5v-2c0-1.1,0.7-1.7,2-1.8h1c0.5,0,1.2-0.1,2.2-0.1s2.1-0.1,3.3-0.1V18.595
		c-1.2,0-2.3-0.1-3.3-0.1s-1.7-0.1-2.2-0.1h-1c-1.3-0.1-2-0.7-2-1.8v-1.9h8.5h24.501c5,0,9.701,0.8,13.801,2.4s7.601,4,10.601,7.101
		s5.3,6.7,6.9,11.101S102.753,44.596,102.753,49.997z M97.453,49.997c0-4.9-0.7-9.3-2.1-13.201c-1.4-3.9-3.2-7.101-5.7-9.8
		c-2.5-2.7-5.5-4.701-9-6.101c-3.5-1.4-7.4-2.1-11.701-2.1H49.55v62.504h19.401c4.3,0,8.2-0.7,11.701-2.1c3.5-1.4,6.5-3.4,9-6.101
		s4.3-5.9,5.7-9.801C96.753,59.397,97.453,54.997,97.453,49.997z"/>
	<path fill="#FFFFFF" d="M147.851,36.696l-0.6,3.3c-0.1,0.5-0.4,0.8-1,0.8c-0.2,0-0.5-0.1-0.9-0.2s-0.7-0.3-1.3-0.5
		c-0.5-0.2-1.3-0.3-2.1-0.4c-0.8-0.1-1.7-0.2-2.7-0.2c-3.8,0-6.9,1.2-9.3,3.5c-2.4,2.3-4.4,5.7-5.9,10.101v28.302
		c4.1,0.2,4.7,0.2,5.3,0.2c1.2,0.1,1.9,0.5,1.9,1.8v2h-7.2h-4.7h-7.201v-2c0-1.301,0.7-1.7,1.9-1.8c0.6,0,1.2,0,5.3-0.2V39.596
		c-4.101-0.2-4.7-0.2-5.3-0.2c-1.2-0.1-1.9-0.5-1.9-1.8v-1.9h7.201h2.5c0.6,0,1,0.1,1.2,0.3c0.2,0.2,0.4,0.6,0.4,1.2l0.4,10.501
		c1.6-4,3.7-7.201,6.4-9.501c2.7-2.3,6-3.4,9.901-3.4c1.5,0,2.8,0.2,4.1,0.5C145.551,35.596,146.75,36.096,147.851,36.696z"/>
	<path fill="#FFFFFF" d="M183.85,36.296c2.4,1,4.5,2.4,6.2,4.2c1.8,1.8,3.101,4.2,4.101,6.9s1.5,5.8,1.5,9.301
		c0,0.7-0.2,1.2-0.4,1.5c-0.2,0.3-0.5,0.4-1,0.4h-35.902v0.9c0,3.7,0.4,7.1,1.3,9.9c0.9,2.8,2.1,5.2,3.701,7.101
		c1.6,1.9,3.5,3.3,5.8,4.3c2.3,1,4.8,1.5,7.6,1.5c2.5,0,4.701-0.301,6.5-0.9c1.8-0.6,3.4-1.1,4.601-1.8c1.3-0.7,2.3-1.3,3-1.9
		c0.7-0.6,1.3-0.8,1.6-0.8c0.4,0,0.8,0.2,1,0.5l1.3,1.6c-0.8,1-1.9,1.9-3.2,2.801c-1.3,0.899-2.8,1.6-4.4,2.199
		c-1.6,0.601-3.4,1.101-5.2,1.5c-1.8,0.4-3.7,0.5-5.601,0.5c-3.4,0-6.5-0.5-9.3-1.699c-2.8-1.201-5.201-2.9-7.201-5.201
		s-3.5-5-4.6-8.301c-1.1-3.3-1.7-7.1-1.7-11.3c0-3.601,0.6-6.9,1.6-9.901c1-3,2.5-5.6,4.4-7.8c1.9-2.2,4.2-3.9,7-5.101
		c2.8-1.2,6-1.9,9.5-1.9C178.849,34.796,181.45,35.296,183.85,36.296z M169.249,39.596c-2,0.8-3.8,1.9-5.3,3.4
		c-1.5,1.5-2.7,3.3-3.6,5.4s-1.5,4.5-1.8,7.101h32.802c0-2.7-0.4-5.1-1.1-7.2s-1.8-3.8-3.1-5.3c-1.3-1.5-2.9-2.601-4.8-3.4
		c-1.9-0.8-3.9-1.2-6.2-1.2C173.549,38.396,171.249,38.796,169.249,39.596z"/>
	<path fill="#FFFFFF" d="M246.45,83.399v2h-6.601h-1.8h-0.1c-1,0-1.7-0.5-1.9-1.4l-0.7-6.4c-1.4,1.3-2.7,2.5-4,3.6
		c-1.4,1.101-2.8,2-4.3,2.7s-3,1.3-4.7,1.7c-1.7,0.399-3.6,0.6-5.6,0.6c-1.7,0-3.3-0.3-4.9-0.8s-3.1-1.301-4.3-2.301
		s-2.2-2.299-3-3.899c-0.7-1.6-1.1-3.601-1.1-5.9c0-2.1,0.6-4,1.8-5.8c1.2-1.8,3-3.4,5.601-4.701c2.6-1.3,5.9-2.4,9.9-3.2
		c4-0.8,8.801-1.3,14.401-1.4v-5.2c0-4.601-0.9-8.101-2.9-10.601c-2-2.5-5-3.7-8.901-3.7c-2.4,0-4.4,0.3-6.1,1
		c-1.7,0.7-3,1.4-4.2,2.2c-1.2,0.8-2.2,1.4-2.9,2.1c-0.7,0.7-1.4,1.1-1.9,1.1c-0.7,0-1.2-0.3-1.5-0.9l-0.8-1.5
		c2.6-2.6,5.3-4.6,8.2-5.9c2.9-1.3,6.101-2,9.701-2c2.7,0,5,0.4,7,1.3c2,0.8,3.7,2,5,3.601c1.3,1.6,2.3,3.5,3,5.8
		c0.7,2.3,1,4.7,1,7.5v28.501c0.8,0,1.6,0.1,2.3,0.1h1.6h0.7C245.75,81.699,246.45,82.299,246.45,83.399z M235.149,61.397
		c-4.7,0.1-8.8,0.5-12.201,1.1s-6.2,1.4-8.4,2.4c-2.2,1-3.8,2.1-4.9,3.5c-1.1,1.4-1.6,3-1.6,4.8c0,1.7,0.2,3.1,0.8,4.3
		c0.5,1.2,1.3,2.2,2.2,3c0.9,0.8,1.9,1.301,3.1,1.7c1.2,0.399,2.5,0.5,3.8,0.5c1.9,0,3.7-0.2,5.3-0.601
		c1.6-0.399,3.101-0.899,4.5-1.7c1.4-0.8,2.7-1.7,3.9-2.7c1.2-1,2.3-2.2,3.5-3.4V61.397z"/>
	<path fill="#FFFFFF" d="M334.851,83.399v2h-7.2h-4.7V53.597c0-4.9-1.1-8.5-3.2-11.101c-2.1-2.5-5.101-3.8-9.001-3.8
		c-1.7,0-3.4,0.3-5,0.9s-3,1.6-4.2,2.8c-1.2,1.2-2.2,2.8-2.9,4.7c-0.7,1.9-1,4-1,6.5v27.802c0.9,0,1.7,0.1,2.4,0.1
		c0.7,0,1.2,0.1,1.5,0.1h0.8h0.5c1.3,0.1,2,0.701,2,1.8v2h-7.201h-4.8V53.597c0-4.8-1-8.5-2.9-11.101c-1.9-2.6-4.701-3.8-8.401-3.8
		c-2.7,0-5.2,0.8-7.5,2.4c-2.3,1.6-4.4,3.8-6.2,6.7v33.603c0.9,0,1.8,0.1,2.5,0.1c0.7,0,1.2,0.1,1.5,0.1h0.7h0.6
		c1.3,0.1,1.9,0.701,1.9,1.8v2h-7.2h-4.7h-7.201v-2c0-1.1,0.6-1.7,1.9-1.8h0.7h1.6c0.8,0,1.8-0.2,3-0.2V39.596
		c-0.9,0-1.8-0.1-2.5-0.1h-1.5c-0.3,0-0.5-0.1-0.7-0.1h-0.6c-1.3-0.1-1.9-0.7-1.9-1.8v-1.9h7.201h2.6c0.9,0,1.4,0.4,1.5,1.2l0.4,7.2
		c1-1.4,2-2.6,3.101-3.7c1.1-1.1,2.3-2.2,3.5-3c1.3-0.8,2.6-1.5,4-1.9c1.4-0.5,2.9-0.6,4.5-0.6c3.6,0,6.5,1,8.701,3.1
		s3.6,5.1,4.4,8.9c0.6-2.1,1.4-3.9,2.5-5.4c1.1-1.5,2.4-2.7,3.8-3.7c1.4-1,2.9-1.7,4.5-2.2s3.4-0.7,5.101-0.7c2.5,0,4.6,0.4,6.6,1.2
		c2,0.8,3.7,2,5.101,3.601c1.4,1.6,2.4,3.6,3.1,5.9c0.7,2.3,1.1,5,1.1,8v27.802c0.9,0,1.8,0.1,2.5,0.1s1.2,0.1,1.5,0.1h0.7h0.6
		C334.25,81.699,334.851,82.299,334.851,83.399z"/>
	<path fill="#FFFFFF" d="M373.147,36.296c2.4,1,4.5,2.4,6.2,4.2c1.8,1.8,3.101,4.2,4.101,6.9s1.5,5.8,1.5,9.301
		c0,0.7-0.2,1.2-0.4,1.5c-0.2,0.3-0.5,0.4-1,0.4h-35.902v0.9c0,3.7,0.4,7.1,1.3,9.9c0.9,2.8,2.101,5.2,3.7,7.101
		c1.601,1.9,3.5,3.3,5.801,4.3c2.3,1,4.8,1.5,7.6,1.5c2.5,0,4.701-0.301,6.5-0.9c1.8-0.6,3.4-1.1,4.601-1.8c1.3-0.7,2.3-1.3,3-1.9
		c0.7-0.6,1.3-0.8,1.6-0.8c0.4,0,0.8,0.2,1,0.5l1.3,1.6c-0.8,1-1.9,1.9-3.2,2.801c-1.3,0.899-2.8,1.6-4.4,2.199
		c-1.6,0.601-3.4,1.101-5.2,1.5c-1.8,0.4-3.7,0.5-5.601,0.5c-3.4,0-6.5-0.5-9.3-1.699c-2.8-1.201-5.201-2.9-7.201-5.201
		s-3.5-5-4.6-8.301c-1.1-3.3-1.7-7.1-1.7-11.3c0-3.601,0.6-6.9,1.6-9.901c1-3,2.5-5.6,4.4-7.8c1.9-2.2,4.2-3.9,7-5.101
		c2.8-1.2,6-1.9,9.501-1.9C368.146,34.796,370.747,35.296,373.147,36.296z M358.546,39.596c-2,0.8-3.8,1.9-5.3,3.4
		c-1.5,1.5-2.7,3.3-3.6,5.4s-1.5,4.5-1.8,7.101h32.802c0-2.7-0.4-5.1-1.1-7.2s-1.8-3.8-3.1-5.3c-1.3-1.5-2.9-2.601-4.8-3.4
		c-1.9-0.8-3.9-1.2-6.201-1.2C362.846,38.396,360.546,38.796,358.546,39.596z"/>
	<path fill="#FFFFFF" d="M429.647,36.696l-0.6,3.3c-0.1,0.5-0.4,0.8-1,0.8c-0.2,0-0.5-0.1-0.9-0.2s-0.7-0.3-1.3-0.5
		c-0.5-0.2-1.3-0.3-2.1-0.4c-0.8-0.1-1.7-0.2-2.7-0.2c-3.8,0-6.9,1.2-9.3,3.5c-2.4,2.3-4.4,5.7-5.9,10.101v28.302
		c4.1,0.2,4.7,0.2,5.3,0.2c1.2,0.1,1.9,0.5,1.9,1.8v2h-7.2h-4.7h-7.201v-2c0-1.301,0.7-1.7,1.9-1.8c0.6,0,1.2,0,5.3-0.2V39.596
		c-4.101-0.2-4.7-0.2-5.3-0.2c-1.2-0.1-1.9-0.5-1.9-1.8v-1.9h7.201h2.5c0.6,0,1,0.1,1.2,0.3c0.2,0.2,0.4,0.6,0.4,1.2l0.4,10.501
		c1.6-4,3.7-7.201,6.4-9.501c2.7-2.3,6-3.4,9.901-3.4c1.5,0,2.8,0.2,4.1,0.5C427.347,35.596,428.547,36.096,429.647,36.696z"/>
	<path fill="#FFFFFF" d="M433.444,79.798c0.2-0.6,0.6-1.1,1-1.5c0.4-0.4,0.8-0.8,1.4-1c0.6-0.2,1.2-0.4,1.9-0.4
		c0.6,0,1.2,0.2,1.8,0.4c0.6,0.2,1,0.6,1.4,1c0.4,0.4,0.8,0.9,1,1.5c0.2,0.6,0.4,1.2,0.4,1.8c0,0.701-0.2,1.201-0.4,1.8
		c-0.2,0.6-0.6,1-1,1.4c-0.4,0.399-0.8,0.8-1.4,1c-0.6,0.199-1.2,0.399-1.8,0.399c-1.3,0-2.4-0.5-3.3-1.399
		c-0.9-0.9-1.3-1.9-1.3-3.201C433.144,80.999,433.244,80.398,433.444,79.798z"/>
	<path fill="#FFFFFF" d="M581.05,14.695v1.9c0,1.1-0.601,1.7-1.9,1.8h-0.7c-0.3,0-0.699,0.1-1.199,0.1c-0.501,0-1.001,0.1-1.601,0.1
		l-21.001,66.804h-4.601l-20.901-61.404c-0.3-0.8-0.5-1.6-0.7-2.5c-0.2,0.9-0.4,1.7-0.7,2.5l-21.001,61.404h-4.5l-21.102-66.804
		c-0.6,0-1.2-0.1-1.7-0.1s-0.8-0.1-1.1-0.1h-0.7c-1.3-0.1-2-0.7-2-1.8v-1.9h4.3h4.201h10.5v1.9c0,1.1-0.7,1.7-2,1.8h-0.8
		c-0.4,0-1,0.1-1.9,0.1c-0.9,0-1.9,0.1-3.101,0.1l17.001,55.503c0.2,0.7,0.4,1.4,0.5,2.2c0.2,0.9,0.4,1.7,0.5,2.4
		c0.2-0.9,0.3-1.7,0.5-2.4c0.2-0.8,0.4-1.4,0.6-2.1l20.001-58.204c0.1-0.4,0.4-0.6,0.7-0.9c0.3-0.3,0.7-0.4,1.2-0.4h1.4
		c0.5,0,0.9,0.1,1.2,0.3c0.301,0.2,0.5,0.6,0.7,1l20.001,58.104l0.601,2.1c0.2,0.7,0.3,1.6,0.5,2.4c0.2-0.8,0.4-1.5,0.5-2.3
		c0.1-0.8,0.3-1.5,0.5-2.2l17.001-55.503c-1.2,0-2.2-0.1-3.2-0.1s-1.7-0.1-2.1-0.1h-0.9c-1.3-0.1-1.9-0.7-1.9-1.8v-1.9h10.501h0.3
		h3.9H581.05z"/>
	<path fill="#FFFFFF" d="M630.546,83.399v2h-6.601h-1.8h-0.101c-1,0-1.699-0.5-1.899-1.4l-0.7-6.4c-1.4,1.3-2.7,2.5-4,3.6
		c-1.4,1.101-2.801,2-4.301,2.7s-3,1.3-4.7,1.7c-1.7,0.399-3.601,0.6-5.601,0.6c-1.7,0-3.3-0.3-4.9-0.8
		c-1.6-0.5-3.1-1.301-4.3-2.301s-2.2-2.299-3-3.899c-0.7-1.6-1.101-3.601-1.101-5.9c0-2.1,0.601-4,1.801-5.8
		c1.199-1.8,3-3.4,5.6-4.701c2.601-1.3,5.9-2.4,9.901-3.2c4-0.8,8.8-1.3,14.4-1.4v-5.2c0-4.601-0.9-8.101-2.9-10.601
		c-2-2.5-5-3.7-8.9-3.7c-2.4,0-4.4,0.3-6.101,1c-1.7,0.7-3,1.4-4.2,2.2c-1.2,0.8-2.2,1.4-2.9,2.1c-0.699,0.7-1.399,1.1-1.899,1.1
		c-0.7,0-1.2-0.3-1.5-0.9l-0.801-1.5c2.601-2.6,5.301-4.6,8.201-5.9c2.9-1.3,6.1-2,9.7-2c2.7,0,5,0.4,7.001,1.3c2,0.8,3.7,2,5,3.601
		s2.3,3.5,3,5.8c0.7,2.3,1,4.7,1,7.5v28.501c0.8,0,1.601,0.1,2.3,0.1h1.601h0.7C629.846,81.699,630.546,82.299,630.546,83.399z
		 M619.245,61.397c-4.7,0.1-8.801,0.5-12.201,1.1c-3.399,0.6-6.2,1.4-8.4,2.4c-2.2,1-3.8,2.1-4.9,3.5c-1.1,1.4-1.6,3-1.6,4.8
		c0,1.7,0.2,3.1,0.8,4.3c0.5,1.2,1.3,2.2,2.2,3c0.9,0.8,1.9,1.301,3.101,1.7s2.5,0.5,3.8,0.5c1.9,0,3.7-0.2,5.301-0.601
		c1.6-0.399,3.1-0.899,4.5-1.7c1.4-0.8,2.7-1.7,3.9-2.7c1.2-1,2.3-2.2,3.5-3.4V61.397z"/>
	<path fill="#FFFFFF" d="M693.544,83.399v2h-7.2h-4.8V53.597c0-4.701-1.101-8.301-3.2-11.001c-2.101-2.6-5.4-3.9-9.801-3.9
		c-3.301,0-6.301,0.8-9.101,2.5s-5.301,4-7.501,6.9v33.302c0.9,0,1.801,0.1,2.501,0.1c0.699,0,1.2,0.1,1.5,0.1h0.7h0.6
		c1.3,0.1,1.9,0.701,1.9,1.8v2h-7.201h-4.7h-7.2v-2c0-1.1,0.601-1.7,1.9-1.8h0.7h1.6c0.8,0,1.8-0.2,3-0.2V39.596
		c-0.899,0-1.8-0.1-2.5-0.1h-1.5c-0.3,0-0.5-0.1-0.7-0.1h-0.6c-1.3-0.1-1.9-0.7-1.9-1.8v-1.9h7.2h2.601c0.9,0,1.4,0.4,1.5,1.2
		l0.4,7.5c2.3-2.9,4.9-5.101,7.9-6.9c3-1.7,6.4-2.6,10.101-2.6c2.7,0,5.101,0.4,7.2,1.3c2.101,0.9,3.8,2.1,5.2,3.7
		s2.4,3.601,3.101,5.9c0.7,2.3,1.1,4.9,1.1,7.801v27.802c0.9,0,1.7,0.1,2.4,0.1s1.2,0.1,1.5,0.1h0.8h0.5
		C692.845,81.699,693.544,82.299,693.544,83.399z"/>
	<path fill="#FFFFFF" d="M749.845,83.899v1.5h-6.701h-2.6c-0.8,0-1.3-0.4-1.4-1.301l-0.5-7.9c-2.2,3-4.7,5.4-7.7,7.201
		c-3,1.8-6.301,2.6-10.001,2.6c-6.101,0-10.9-2.1-14.301-6.3s-5.101-10.601-5.101-19.102c0-3.6,0.4-7,1.4-10.101
		c1-3.1,2.3-5.9,4.2-8.2c1.9-2.3,4.101-4.2,6.801-5.5c2.7-1.3,5.8-2,9.301-2c3.399,0,6.3,0.6,8.8,1.9c2.5,1.2,4.601,3,6.4,5.4
		V16.595c-0.899,0-1.7-0.1-2.399-0.1h-1.601c-0.3,0-0.5-0.1-0.7-0.1h-0.5c-1.3-0.1-2-0.7-2-1.8v-2h7.2h4.7v68.904h2.2
		c0.601,0,1.101,0.1,1.4,0.1h0.7h0.5c1.3,0.1,1.9,0.701,1.9,1.8V83.899z M738.443,46.296c-1.899-2.8-4.1-4.8-6.4-6
		c-2.3-1.2-5-1.8-7.9-1.8s-5.5,0.5-7.7,1.6s-4,2.7-5.5,4.6c-1.5,1.9-2.601,4.3-3.4,7s-1.101,5.601-1.101,8.9
		c0,7.401,1.4,12.901,4.101,16.401c2.7,3.5,6.7,5.2,11.801,5.2c3.3,0,6.2-0.9,8.9-2.6s5.101-4.1,7.2-7.101V46.296z"/>
	<path fill="#FFFFFF" d="M787.844,36.296c2.399,1,4.5,2.4,6.2,4.2c1.8,1.8,3.1,4.2,4.1,6.9s1.5,5.8,1.5,9.301
		c0,0.7-0.199,1.2-0.399,1.5s-0.5,0.4-1,0.4h-35.902v0.9c0,3.7,0.4,7.1,1.3,9.9c0.9,2.8,2.101,5.2,3.7,7.101
		c1.601,1.9,3.5,3.3,5.801,4.3c2.3,1,4.8,1.5,7.601,1.5c2.5,0,4.7-0.301,6.5-0.9c1.8-0.6,3.4-1.1,4.601-1.8c1.3-0.7,2.3-1.3,3-1.9
		c0.7-0.6,1.3-0.8,1.6-0.8c0.4,0,0.801,0.2,1.001,0.5l1.3,1.6c-0.8,1-1.9,1.9-3.2,2.801c-1.3,0.899-2.801,1.6-4.4,2.199
		c-1.601,0.601-3.4,1.101-5.2,1.5c-1.801,0.4-3.7,0.5-5.601,0.5c-3.4,0-6.5-0.5-9.301-1.699c-2.8-1.201-5.2-2.9-7.2-5.201
		s-3.5-5-4.601-8.301c-1.1-3.3-1.7-7.1-1.7-11.3c0-3.601,0.601-6.9,1.601-9.901c1-3,2.5-5.6,4.4-7.8s4.2-3.9,7-5.101
		c2.801-1.2,6.001-1.9,9.501-1.9C782.843,34.796,785.443,35.296,787.844,36.296z M773.242,39.596c-2,0.8-3.8,1.9-5.3,3.4
		c-1.5,1.5-2.7,3.3-3.601,5.4s-1.5,4.5-1.8,7.101h32.802c0-2.7-0.4-5.1-1.1-7.2c-0.7-2.1-1.801-3.8-3.101-5.3
		c-1.3-1.5-2.9-2.601-4.801-3.4c-1.899-0.8-3.899-1.2-6.2-1.2C777.543,38.396,775.242,38.796,773.242,39.596z"/>
	<path fill="#FFFFFF" d="M844.343,36.696l-0.6,3.3c-0.101,0.5-0.4,0.8-1,0.8c-0.2,0-0.5-0.1-0.9-0.2s-0.7-0.3-1.3-0.5
		c-0.5-0.2-1.301-0.3-2.101-0.4s-1.7-0.2-2.7-0.2c-3.8,0-6.9,1.2-9.301,3.5c-2.399,2.3-4.399,5.7-5.9,10.101v28.302
		c4.101,0.2,4.701,0.2,5.301,0.2c1.2,0.1,1.9,0.5,1.9,1.8v2h-7.201h-4.7h-7.2v-2c0-1.301,0.7-1.7,1.9-1.8c0.6,0,1.2,0,5.3-0.2
		V39.596c-4.1-0.2-4.7-0.2-5.3-0.2c-1.2-0.1-1.9-0.5-1.9-1.8v-1.9h7.2h2.501c0.6,0,1,0.1,1.199,0.3c0.2,0.2,0.4,0.6,0.4,1.2
		l0.4,10.501c1.6-4,3.7-7.201,6.4-9.501c2.7-2.3,6-3.4,9.9-3.4c1.5,0,2.8,0.2,4.101,0.5
		C842.043,35.596,843.243,36.096,844.343,36.696z"/>
	<path fill="#FFFFFF" d="M880.342,36.296c2.399,1,4.5,2.4,6.2,4.2c1.8,1.8,3.1,4.2,4.1,6.9s1.5,5.8,1.5,9.301
		c0,0.7-0.199,1.2-0.399,1.5s-0.5,0.4-1,0.4H854.84v0.9c0,3.7,0.4,7.1,1.3,9.9c0.9,2.8,2.101,5.2,3.7,7.101
		c1.601,1.9,3.5,3.3,5.801,4.3c2.3,1,4.8,1.5,7.601,1.5c2.5,0,4.7-0.301,6.5-0.9c1.8-0.6,3.4-1.1,4.601-1.8c1.3-0.7,2.3-1.3,3-1.9
		c0.7-0.6,1.3-0.8,1.6-0.8c0.4,0,0.801,0.2,1.001,0.5l1.3,1.6c-0.8,1-1.9,1.9-3.2,2.801c-1.3,0.899-2.801,1.6-4.4,2.199
		c-1.601,0.601-3.4,1.101-5.2,1.5c-1.801,0.4-3.7,0.5-5.601,0.5c-3.4,0-6.5-0.5-9.301-1.699c-2.8-1.201-5.2-2.9-7.2-5.201
		s-3.5-5-4.601-8.301c-1.1-3.3-1.7-7.1-1.7-11.3c0-3.601,0.601-6.9,1.601-9.901c1-3,2.5-5.6,4.4-7.8s4.2-3.9,7-5.101
		c2.801-1.2,6.001-1.9,9.501-1.9C875.341,34.796,877.941,35.296,880.342,36.296z M865.74,39.596c-2,0.8-3.8,1.9-5.3,3.4
		c-1.5,1.5-2.7,3.3-3.601,5.4s-1.5,4.5-1.8,7.101h32.802c0-2.7-0.4-5.1-1.1-7.2c-0.7-2.1-1.801-3.8-3.101-5.3
		c-1.3-1.5-2.9-2.601-4.801-3.4c-1.899-0.8-3.899-1.2-6.2-1.2C870.041,38.396,867.74,38.796,865.74,39.596z"/>
	<path fill="#FFFFFF" d="M936.842,36.696l-0.6,3.3c-0.101,0.5-0.4,0.8-1,0.8c-0.2,0-0.5-0.1-0.9-0.2s-0.7-0.3-1.3-0.5
		c-0.5-0.2-1.301-0.3-2.101-0.4s-1.7-0.2-2.7-0.2c-3.8,0-6.9,1.2-9.301,3.5c-2.399,2.3-4.399,5.7-5.9,10.101v28.302
		c4.101,0.2,4.701,0.2,5.301,0.2c1.2,0.1,1.9,0.5,1.9,1.8v2h-7.201h-4.7h-7.2v-2c0-1.301,0.7-1.7,1.9-1.8c0.6,0,1.2,0,5.3-0.2
		V39.596c-4.1-0.2-4.7-0.2-5.3-0.2c-1.2-0.1-1.9-0.5-1.9-1.8v-1.9h7.2h2.501c0.6,0,1,0.1,1.199,0.3c0.2,0.2,0.4,0.6,0.4,1.2
		l0.4,10.501c1.6-4,3.7-7.201,6.4-9.501c2.7-2.3,6-3.4,9.9-3.4c1.5,0,2.8,0.2,4.101,0.5
		C934.542,35.596,935.742,36.096,936.842,36.696z"/>
	<path fill="#FFFFFF" d="M940.639,79.798c0.199-0.6,0.6-1.1,1-1.5c0.399-0.4,0.8-0.8,1.399-1c0.601-0.2,1.2-0.4,1.9-0.4
		c0.601,0,1.2,0.2,1.8,0.4c0.601,0.2,1,0.6,1.4,1c0.4,0.4,0.8,0.9,1,1.5c0.2,0.6,0.4,1.2,0.4,1.8c0,0.701-0.2,1.201-0.4,1.8
		s-0.6,1-1,1.4c-0.4,0.399-0.8,0.8-1.4,1c-0.6,0.199-1.199,0.399-1.8,0.399c-1.3,0-2.4-0.5-3.3-1.399
		c-0.9-0.9-1.301-1.9-1.301-3.201C940.338,80.999,940.438,80.398,940.639,79.798z"/>
	<path fill="#FFFFFF" d="M107.807,134.695v1.9c0,1.1-0.6,1.699-1.9,1.8h-0.7c-0.3,0-0.7,0.1-1.2,0.1s-1,0.101-1.6,0.101
		l-21.001,66.804h-4.6l-20.901-61.403c-0.3-0.801-0.5-1.601-0.7-2.501c-0.2,0.9-0.4,1.7-0.7,2.501l-21.001,61.403h-4.5L7.9,138.595
		c-0.6,0-1.2-0.101-1.7-0.101s-0.8-0.1-1.1-0.1H4.4c-1.3-0.101-2-0.7-2-1.8v-1.9h4.3h4.201h10.5v1.9c0,1.1-0.7,1.699-2,1.8h-0.8
		c-0.4,0-1,0.1-1.9,0.1c-0.9,0-1.9,0.101-3.101,0.101l17.001,55.503c0.2,0.7,0.4,1.4,0.5,2.2c0.2,0.9,0.4,1.7,0.5,2.4
		c0.2-0.9,0.3-1.7,0.5-2.4c0.2-0.8,0.4-1.4,0.6-2.1l20.001-58.204c0.1-0.4,0.4-0.6,0.7-0.9c0.3-0.3,0.7-0.399,1.2-0.399h1.4
		c0.5,0,0.9,0.1,1.2,0.3c0.3,0.2,0.5,0.6,0.7,1l20.001,58.104l0.6,2.101c0.2,0.699,0.3,1.6,0.5,2.399c0.2-0.8,0.4-1.5,0.5-2.3
		s0.3-1.5,0.5-2.2l17.001-55.503c-1.2,0-2.2-0.101-3.2-0.101s-1.7-0.1-2.1-0.1h-0.9c-1.3-0.101-1.9-0.7-1.9-1.8v-1.9h10.501h0.3h3.9
		H107.807z"/>
	<path fill="#FFFFFF" d="M151.202,156.696l-0.6,3.301c-0.1,0.5-0.4,0.8-1,0.8c-0.2,0-0.5-0.101-0.9-0.2s-0.7-0.3-1.3-0.5
		c-0.5-0.2-1.3-0.3-2.1-0.4c-0.8-0.1-1.7-0.199-2.7-0.199c-3.8,0-6.9,1.199-9.3,3.5c-2.4,2.3-4.4,5.7-5.9,10.101v28.302
		c4.1,0.2,4.7,0.2,5.3,0.2c1.2,0.1,1.9,0.5,1.9,1.8v2h-7.2h-4.7H115.5v-2c0-1.3,0.7-1.7,1.9-1.8c0.6,0,1.2,0,5.3-0.2v-41.803
		c-4.101-0.2-4.7-0.2-5.3-0.2c-1.2-0.1-1.9-0.5-1.9-1.8v-1.9h7.201h2.5c0.6,0,1,0.101,1.2,0.3c0.2,0.2,0.4,0.601,0.4,1.2l0.4,10.501
		c1.6-4,3.7-7.2,6.4-9.501c2.7-2.3,6-3.4,9.901-3.4c1.5,0,2.8,0.2,4.1,0.5C148.902,155.596,150.102,156.096,151.202,156.696z"/>
	<path fill="#FFFFFF" d="M178.1,203.399v2h-7.201h-4.8h-7.2v-2c0-1.101,0.7-1.7,2-1.8h0.6h1.7c0.8,0,1.8-0.2,2.9-0.2v-41.803
		c-0.9,0-1.7-0.1-2.4-0.1h-1.5c-0.3,0-0.6-0.101-0.8-0.101h-0.5c-1.3-0.1-2-0.7-2-1.8v-2h7.2h4.8v45.803c0.9,0,1.7,0.1,2.4,0.1
		c0.7,0,1.2,0.101,1.5,0.101h0.8h0.5C177.4,201.699,178.1,202.298,178.1,203.399z M164.499,140.195c-0.2-0.5-0.4-1.1-0.4-1.7
		c0-0.6,0.2-1.2,0.4-1.7s0.5-1,0.9-1.399c0.4-0.4,0.9-0.801,1.4-1c0.5-0.2,1.1-0.301,1.7-0.301s1.2,0.101,1.7,0.301
		c0.5,0.199,1,0.6,1.4,1c0.4,0.399,0.8,0.899,1,1.399c0.2,0.601,0.4,1.101,0.4,1.7c0,0.601-0.2,1.2-0.4,1.7s-0.6,1-1,1.4
		c-0.4,0.399-0.9,0.7-1.4,0.899c-0.5,0.2-1.1,0.4-1.7,0.4s-1.2-0.2-1.7-0.4c-0.5-0.199-1-0.5-1.4-0.899
		C164.999,141.195,164.699,140.695,164.499,140.195z"/>
	<path fill="#FFFFFF" d="M195,203.399c-1.9-1.9-2.8-4.7-2.8-8.601v-34.002h-7.101c-0.4,0-0.8-0.2-1-0.4c-0.2-0.2-0.3-0.399-0.3-0.8
		v-1.8l8.5-0.601l1.2-17.801c0-0.3,0.2-0.601,0.4-0.8c0.2-0.2,0.4-0.4,0.8-0.4h2.3v19.001h15.701v3.601H197v33.702
		c0,1.399,0.1,2.5,0.5,3.5s0.9,1.8,1.5,2.4c0.6,0.6,1.3,1.1,2.1,1.399c0.8,0.301,1.8,0.5,2.8,0.5c1.2,0,2.1-0.1,3-0.5
		c0.9-0.399,1.7-0.8,2.3-1.199c0.6-0.4,1.1-0.7,1.5-1.101c0.4-0.4,0.8-0.5,1-0.5c0.3,0,0.5,0.1,0.8,0.4l1.3,2.2
		c-1.3,1.399-2.9,2.5-4.8,3.3c-2,0.8-4,1.3-6.101,1.3C199.5,206.199,196.899,205.299,195,203.399z"/>
	<path fill="#FFFFFF" d="M251.7,156.296c2.4,1,4.5,2.399,6.2,4.2c1.8,1.8,3.101,4.2,4.101,6.9s1.5,5.8,1.5,9.3
		c0,0.7-0.2,1.2-0.4,1.5c-0.2,0.301-0.5,0.4-1,0.4h-35.902v0.9c0,3.7,0.4,7.101,1.3,9.9c0.9,2.8,2.1,5.2,3.701,7.101
		c1.6,1.9,3.5,3.3,5.8,4.3c2.3,1,4.8,1.5,7.6,1.5c2.5,0,4.701-0.3,6.5-0.899c1.8-0.601,3.4-1.101,4.601-1.801
		c1.3-0.699,2.3-1.3,3-1.899c0.7-0.601,1.3-0.801,1.6-0.801c0.4,0,0.8,0.2,1,0.5l1.3,1.601c-0.8,1-1.9,1.9-3.2,2.8
		c-1.3,0.9-2.8,1.601-4.4,2.2c-1.6,0.601-3.4,1.101-5.2,1.5c-1.8,0.4-3.7,0.5-5.601,0.5c-3.4,0-6.5-0.5-9.3-1.699
		c-2.8-1.2-5.201-2.9-7.201-5.201c-2-2.3-3.5-5-4.6-8.3c-1.1-3.301-1.7-7.101-1.7-11.301c0-3.601,0.6-6.9,1.6-9.9
		c1-3.001,2.5-5.601,4.4-7.801c1.9-2.2,4.2-3.9,7-5.101c2.8-1.2,6-1.9,9.5-1.9C246.7,154.795,249.3,155.295,251.7,156.296z
		 M237.099,159.596c-2,0.8-3.8,1.9-5.3,3.4c-1.5,1.5-2.7,3.3-3.6,5.4c-0.9,2.1-1.5,4.5-1.8,7.101h32.802c0-2.7-0.4-5.101-1.1-7.201
		c-0.7-2.1-1.8-3.8-3.1-5.3c-1.3-1.5-2.9-2.601-4.8-3.4c-1.9-0.8-3.9-1.2-6.2-1.2C241.399,158.396,239.1,158.796,237.099,159.596z"
		/>
	<path fill="#FFFFFF" d="M308.2,156.696l-0.6,3.301c-0.1,0.5-0.4,0.8-1,0.8c-0.2,0-0.5-0.101-0.9-0.2s-0.7-0.3-1.3-0.5
		c-0.5-0.2-1.3-0.3-2.1-0.4c-0.8-0.1-1.7-0.199-2.7-0.199c-3.8,0-6.9,1.199-9.3,3.5c-2.4,2.3-4.4,5.7-5.9,10.101v28.302
		c4.1,0.2,4.7,0.2,5.3,0.2c1.2,0.1,1.9,0.5,1.9,1.8v2h-7.2h-4.7h-7.201v-2c0-1.3,0.7-1.7,1.9-1.8c0.6,0,1.2,0,5.3-0.2v-41.803
		c-4.101-0.2-4.7-0.2-5.3-0.2c-1.2-0.1-1.9-0.5-1.9-1.8v-1.9h7.201h2.5c0.6,0,1,0.101,1.2,0.3c0.2,0.2,0.4,0.601,0.4,1.2l0.4,10.501
		c1.6-4,3.7-7.2,6.4-9.501c2.7-2.3,6-3.4,9.901-3.4c1.5,0,2.8,0.2,4.1,0.5C305.9,155.596,307.1,156.096,308.2,156.696z"/>
	<path fill="#FFFFFF" d="M311.997,199.798c0.2-0.6,0.6-1.1,1-1.5c0.4-0.399,0.8-0.8,1.4-1s1.2-0.4,1.9-0.4c0.6,0,1.2,0.2,1.8,0.4
		s1,0.601,1.4,1c0.4,0.4,0.8,0.9,1,1.5c0.2,0.601,0.4,1.2,0.4,1.801c0,0.699-0.2,1.199-0.4,1.8c-0.2,0.6-0.6,1-1,1.4
		c-0.4,0.399-0.8,0.8-1.4,1c-0.6,0.199-1.2,0.399-1.8,0.399c-1.3,0-2.4-0.5-3.3-1.399c-0.9-0.9-1.3-1.9-1.3-3.2
		C311.697,200.999,311.797,200.399,311.997,199.798z"/>
	<path fill="#FFFFFF" d="M407.599,155.696c0,3.101-0.5,5.9-1.7,8.501c-1.1,2.6-2.8,4.8-5,6.7s-4.8,3.3-7.9,4.4
		c-3.1,1-6.601,1.6-10.501,1.6h-12.101v24.502c1.2,0,2.2,0.1,3.2,0.1s1.8,0.101,2.3,0.101h0.9c1.3,0.1,2,0.699,2,1.8v2h-8.4h-5.1
		h-8.5v-2c0-1.101,0.7-1.7,2-1.8h1c0.5,0,1.2-0.101,2.2-0.101s2.1-0.1,3.3-0.1v-62.804c-1.2,0-2.3-0.101-3.3-0.101s-1.7-0.1-2.2-0.1
		h-1c-1.3-0.101-2-0.7-2-1.8v-1.9h8.5h17.201c8.301,0,14.601,1.8,18.801,5.4C405.499,143.695,407.599,148.996,407.599,155.696z
		 M402.499,155.596c0-5.4-1.7-9.601-5-12.501c-3.4-2.9-8.4-4.4-15.001-4.4h-12.101v34.103h12.101c3.101,0,5.9-0.4,8.401-1.301
		c2.5-0.899,4.6-2.1,6.3-3.6s3-3.301,3.9-5.4C401.999,160.396,402.499,158.096,402.499,155.596z"/>
	<path fill="#FFFFFF" d="M469.498,203.399v2h-7.2h-4.7v-31.802c0-4.7-1.1-8.301-3.2-11.001c-2.1-2.6-5.4-3.9-9.801-3.9
		c-3.3,0-6.3,0.801-9.101,2.5c-2.8,1.7-5.3,4.001-7.5,6.9v33.303c0.9,0,1.7,0.1,2.4,0.1c0.7,0,1.2,0.101,1.5,0.101h0.8h0.5
		c1.3,0.1,2,0.699,2,1.8v2h-7.201h-4.8h-7.2v-2c0-1.101,0.7-1.7,2-1.8h0.6h1.7c0.8,0,1.8-0.2,2.9-0.2v-64.804
		c-0.9,0-1.7-0.101-2.4-0.101h-1.5c-0.3,0-0.6-0.1-0.8-0.1h-0.5c-1.3-0.101-2-0.7-2-1.801v-1.899h7.2h4.8v31.502
		c2.3-2.801,4.9-5.101,7.801-6.801c3-1.7,6.3-2.5,10-2.5c2.7,0,5.1,0.399,7.2,1.3c2.101,0.9,3.8,2.101,5.201,3.7
		c1.4,1.601,2.4,3.601,3.1,5.9s1,4.9,1,7.801v27.802c0.9,0,1.8,0.1,2.5,0.1c0.7,0,1.2,0.101,1.5,0.101h0.7h0.6
		C468.898,201.699,469.498,202.298,469.498,203.399z"/>
	<path fill="#FFFFFF" d="M509.596,156.696c2.8,1.2,5.201,2.9,7.101,5.101s3.5,4.9,4.5,8.101c1,3.2,1.5,6.7,1.5,10.601
		s-0.5,7.4-1.5,10.5c-1,3.101-2.601,5.9-4.5,8.101s-4.3,3.9-7.101,5.101c-2.8,1.2-5.9,1.8-9.5,1.8s-6.8-0.6-9.601-1.8
		s-5.2-2.9-7.2-5.101c-2-2.2-3.4-5-4.4-8.101c-1-3.1-1.6-6.6-1.6-10.5s0.6-7.4,1.6-10.601s2.4-5.9,4.4-8.101
		c2-2.2,4.4-3.9,7.2-5.101s6-1.9,9.601-1.9S506.796,155.496,509.596,156.696z M507.796,200.798c2.2-1,4.1-2.5,5.6-4.4
		c1.5-1.899,2.6-4.2,3.3-6.9s1.1-5.7,1.1-9c0-3.301-0.4-6.301-1.1-9.001s-1.8-5-3.3-6.9c-1.5-1.899-3.4-3.5-5.6-4.5
		s-4.701-1.5-7.701-1.5s-5.6,0.5-7.8,1.5s-4.101,2.601-5.601,4.5c-1.5,1.9-2.5,4.2-3.3,6.9c-0.8,2.7-1.1,5.7-1.1,9.001
		c0,3.3,0.3,6.3,1.1,9c0.8,2.7,1.8,5.001,3.3,6.9c1.5,1.9,3.4,3.4,5.601,4.4s4.8,1.5,7.8,1.5S505.596,201.798,507.796,200.798z"/>
	<path fill="#FFFFFF" d="M539.395,203.399c-1.9-1.9-2.8-4.7-2.8-8.601v-34.002h-7.101c-0.4,0-0.8-0.2-1-0.4
		c-0.2-0.2-0.3-0.399-0.3-0.8v-1.8l8.5-0.601l1.2-17.801c0-0.3,0.2-0.601,0.399-0.8c0.2-0.2,0.4-0.4,0.801-0.4h2.3v19.001h15.701
		v3.601h-15.701v33.702c0,1.399,0.1,2.5,0.5,3.5s0.9,1.8,1.5,2.4c0.601,0.6,1.3,1.1,2.101,1.399c0.8,0.301,1.8,0.5,2.8,0.5
		c1.2,0,2.101-0.1,3-0.5c0.9-0.399,1.7-0.8,2.301-1.199c0.6-0.4,1.1-0.7,1.5-1.101c0.399-0.4,0.8-0.5,1-0.5c0.3,0,0.5,0.1,0.8,0.4
		l1.3,2.2c-1.3,1.399-2.9,2.5-4.8,3.3c-2,0.8-4,1.3-6.101,1.3C543.895,206.199,541.295,205.299,539.395,203.399z"/>
	<path fill="#FFFFFF" d="M598.096,156.696c2.8,1.2,5.2,2.9,7.1,5.101c1.9,2.2,3.501,4.9,4.501,8.101s1.5,6.7,1.5,10.601
		s-0.5,7.4-1.5,10.5c-1,3.101-2.601,5.9-4.501,8.101c-1.899,2.2-4.3,3.9-7.1,5.101c-2.801,1.2-5.9,1.8-9.501,1.8
		s-6.801-0.6-9.601-1.8s-5.2-2.9-7.2-5.101s-3.4-5-4.4-8.101c-1-3.1-1.601-6.6-1.601-10.5s0.601-7.4,1.601-10.601s2.4-5.9,4.4-8.101
		s4.4-3.9,7.2-5.101s6-1.9,9.601-1.9S595.295,155.496,598.096,156.696z M596.295,200.798c2.2-1,4.101-2.5,5.601-4.4
		c1.5-1.899,2.601-4.2,3.3-6.9c0.7-2.7,1.101-5.7,1.101-9c0-3.301-0.4-6.301-1.101-9.001c-0.699-2.7-1.8-5-3.3-6.9
		c-1.5-1.899-3.4-3.5-5.601-4.5s-4.7-1.5-7.7-1.5s-5.601,0.5-7.801,1.5s-4.1,2.601-5.6,4.5c-1.5,1.9-2.501,4.2-3.301,6.9
		s-1.1,5.7-1.1,9.001c0,3.3,0.3,6.3,1.1,9s1.801,5.001,3.301,6.9c1.5,1.9,3.399,3.4,5.6,4.4s4.801,1.5,7.801,1.5
		S594.095,201.798,596.295,200.798z"/>
	<path fill="#FFFFFF" d="M644.795,155.596c1.8,0.5,3.5,1.2,5,2.2h12.801v1.7c0,0.8-0.5,1.199-1.399,1.3l-7.601,0.6
		c0.899,1.301,1.7,2.7,2.2,4.301c0.5,1.6,0.7,3.3,0.7,5.1c0,2.4-0.4,4.501-1.301,6.501c-0.899,2-2,3.6-3.6,5
		c-1.601,1.4-3.4,2.4-5.601,3.2s-4.601,1.101-7.2,1.101c-2.9,0-5.501-0.301-7.801-1.2c-1.4,0.8-2.5,1.7-3.3,2.8
		c-0.801,1.101-1.2,2.2-1.2,3.2c0,1.4,0.5,2.5,1.5,3.301c1,0.8,2.4,1.3,4,1.699c1.601,0.4,3.5,0.5,5.601,0.601
		c2.1,0.1,4.3,0.3,6.5,0.399c2.2,0.101,4.301,0.301,6.4,0.601c2.101,0.3,4.101,0.8,5.7,1.6c1.601,0.801,3.001,1.7,4.001,3.101
		s1.399,3.2,1.399,5.4c0,2.1-0.5,4-1.5,5.9s-2.5,3.601-4.5,5.101s-4.2,2.6-7,3.5c-2.801,0.9-6.001,1.4-9.401,1.4
		c-3.5,0-6.601-0.4-9.2-1.101c-2.601-0.7-4.801-1.7-6.601-2.9s-3.1-2.6-4-4.2c-0.9-1.6-1.4-3.4-1.4-5.2c0-2.6,0.9-4.9,2.601-6.801
		c1.7-1.899,4.2-3.399,7.2-4.399c-1.7-0.601-3-1.301-4-2.4c-1-1.101-1.4-2.5-1.4-4.4c0-0.7,0.1-1.4,0.4-2.2c0.3-0.8,0.7-1.5,1.2-2.3
		c0.5-0.801,1.1-1.4,1.899-2.101c0.801-0.7,1.601-1.3,2.601-1.8c-2.4-1.4-4.2-3.2-5.5-5.5c-1.301-2.301-2.001-4.9-2.001-7.901
		c0-2.399,0.5-4.6,1.301-6.6c0.8-2,2-3.601,3.6-5.001c1.601-1.399,3.4-2.399,5.601-3.2c2.2-0.8,4.601-1.2,7.301-1.2
		C640.995,154.795,642.995,155.096,644.795,155.596z M655.996,204.999c-0.801-1-1.801-1.7-3.2-2.2c-1.4-0.5-3.001-1-4.801-1.199
		c-1.8-0.2-3.601-0.301-5.601-0.4s-3.8-0.2-5.8-0.3c-2-0.101-3.801-0.3-5.501-0.601c-1.3,0.5-2.5,1.101-3.6,1.7
		c-1.101,0.601-1.9,1.4-2.7,2.2s-1.4,1.7-1.8,2.7c-0.4,1-0.7,2-0.7,3.2c0,1.5,0.3,2.9,1.1,4.101s1.9,2.3,3.301,3.2
		c1.399,0.899,3.3,1.7,5.399,2.2c2.101,0.5,4.501,0.8,7.201,0.8c2.5,0,4.9-0.2,7.101-0.8c2.2-0.601,4.1-1.4,5.7-2.4
		c1.6-1,2.9-2.4,3.8-3.8c0.9-1.4,1.4-2.9,1.4-4.601C657.296,207.199,656.796,205.999,655.996,204.999z M644.495,182.498
		c1.7-0.6,3.1-1.5,4.2-2.601c1.1-1.1,2-2.399,2.6-3.899c0.601-1.501,0.9-3.301,0.9-5.201c0-1.899-0.3-3.5-0.9-5.1
		c-0.6-1.601-1.5-2.801-2.699-3.9c-1.2-1.101-2.601-2-4.201-2.601c-1.6-0.6-3.5-0.899-5.6-0.899c-2.101,0-3.9,0.3-5.601,0.899
		c-1.7,0.601-3.101,1.5-4.301,2.601c-1.199,1.1-2,2.3-2.6,3.9c-0.601,1.6-0.9,3.3-0.9,5.2s0.3,3.6,0.9,5.101
		c0.6,1.5,1.4,2.8,2.6,3.899c1.2,1.101,2.601,2.001,4.301,2.601s3.5,0.9,5.601,0.9C640.895,183.398,642.795,183.097,644.495,182.498
		z"/>
	<path fill="#FFFFFF" d="M707.495,156.696l-0.6,3.301c-0.101,0.5-0.4,0.8-1,0.8c-0.2,0-0.5-0.101-0.9-0.2s-0.7-0.3-1.3-0.5
		c-0.5-0.2-1.301-0.3-2.101-0.4c-0.8-0.1-1.7-0.199-2.7-0.199c-3.8,0-6.9,1.199-9.301,3.5c-2.399,2.3-4.399,5.7-5.9,10.101v28.302
		c4.101,0.2,4.701,0.2,5.301,0.2c1.2,0.1,1.9,0.5,1.9,1.8v2h-7.201h-4.7h-7.2v-2c0-1.3,0.7-1.7,1.9-1.8c0.6,0,1.2,0,5.3-0.2v-41.803
		c-4.1-0.2-4.7-0.2-5.3-0.2c-1.2-0.1-1.9-0.5-1.9-1.8v-1.9h7.2h2.501c0.6,0,1,0.101,1.199,0.3c0.2,0.2,0.4,0.601,0.4,1.2l0.4,10.501
		c1.6-4,3.7-7.2,6.4-9.501c2.7-2.3,6-3.4,9.9-3.4c1.5,0,2.8,0.2,4.101,0.5C705.195,155.596,706.396,156.096,707.495,156.696z"/>
	<path fill="#FFFFFF" d="M755.694,203.399v2h-6.601h-1.8h-0.101c-1,0-1.699-0.5-1.899-1.4l-0.7-6.4c-1.4,1.301-2.7,2.5-4,3.601
		c-1.4,1.1-2.801,2-4.301,2.7s-3,1.3-4.7,1.7c-1.7,0.399-3.601,0.6-5.601,0.6c-1.7,0-3.3-0.3-4.9-0.8c-1.6-0.5-3.1-1.3-4.3-2.3
		s-2.2-2.301-3-3.9c-0.7-1.601-1.101-3.601-1.101-5.9c0-2.101,0.601-4,1.801-5.801c1.199-1.8,3-3.4,5.6-4.7
		c2.601-1.3,5.9-2.4,9.901-3.2c4-0.8,8.8-1.3,14.4-1.4v-5.2c0-4.6-0.9-8.101-2.9-10.601s-5-3.7-8.9-3.7c-2.4,0-4.4,0.3-6.101,1
		s-3,1.4-4.2,2.2c-1.2,0.801-2.2,1.4-2.9,2.101c-0.699,0.7-1.399,1.1-1.899,1.1c-0.7,0-1.2-0.3-1.5-0.899l-0.801-1.5
		c2.601-2.601,5.301-4.601,8.201-5.9c2.9-1.301,6.1-2.001,9.7-2.001c2.7,0,5,0.4,7.001,1.301c2,0.8,3.7,2,5,3.6
		c1.3,1.601,2.3,3.501,3,5.801s1,4.7,1,7.5v28.502c0.8,0,1.601,0.101,2.3,0.101h1.601h0.7
		C754.994,201.699,755.694,202.298,755.694,203.399z M744.394,181.398c-4.7,0.1-8.801,0.5-12.201,1.1c-3.399,0.6-6.2,1.4-8.4,2.4
		s-3.8,2.1-4.9,3.5c-1.1,1.4-1.6,3-1.6,4.8c0,1.7,0.2,3.101,0.8,4.301c0.5,1.2,1.3,2.2,2.2,3s1.9,1.3,3.101,1.7s2.5,0.5,3.8,0.5
		c1.9,0,3.7-0.2,5.301-0.6c1.6-0.4,3.1-0.9,4.5-1.7c1.4-0.801,2.7-1.7,3.9-2.7s2.3-2.2,3.5-3.4V181.398z"/>
	<path fill="#FFFFFF" d="M810.894,180.198c0,3.6-0.4,7.1-1.4,10.2c-0.9,3.101-2.4,5.9-4.2,8.2c-1.8,2.301-4.101,4.101-6.801,5.4
		c-2.7,1.301-5.7,2-9.2,2c-3.4,0-6.301-0.6-8.801-1.8s-4.6-3.1-6.4-5.5V219c0.9,0,1.7,0.101,2.4,0.101s1.2,0.1,1.5,0.1h0.8h0.5
		c1.301,0.1,2.001,0.7,2.001,1.8v2h-7.201h-4.8h-7.2v-2c0-1.1,0.699-1.7,2-1.8h0.6h1.7c0.8,0,1.8-0.2,2.9-0.2v-59.403
		c-0.9,0-1.7-0.1-2.4-0.1h-1.5c-0.3,0-0.6-0.101-0.8-0.101h-0.5c-1.301-0.1-2-0.7-2-1.8v-1.9h7.2h2.6c0.4,0,0.801,0,1.101,0.2
		s0.399,0.5,0.399,1l0.5,7.7c2.2-3,4.801-5.3,7.701-7.101c3-1.8,6.2-2.7,9.9-2.7c6.101,0,10.9,2.2,14.301,6.4
		S810.894,171.697,810.894,180.198z M805.993,180.198c0-7.4-1.4-12.801-4.101-16.302c-2.7-3.5-6.601-5.2-11.7-5.2
		c-3.301,0-6.301,0.801-9.001,2.5c-2.7,1.7-5,4.101-7.101,7.201v26.102c1.9,2.899,4.001,4.8,6.301,6s4.9,1.8,7.9,1.8
		c2.9,0,5.5-0.5,7.7-1.6c2.2-1.101,4-2.5,5.501-4.5c1.5-2,2.7-4.301,3.399-7.001C805.693,186.498,805.993,183.498,805.993,180.198z"
		/>
	<path fill="#FFFFFF" d="M873.192,203.399v2h-7.2h-4.7v-31.802c0-4.7-1.101-8.301-3.2-11.001c-2.101-2.6-5.4-3.9-9.801-3.9
		c-3.3,0-6.301,0.801-9.101,2.5c-2.8,1.7-5.3,4.001-7.5,6.9v33.303c0.899,0,1.7,0.1,2.399,0.1c0.7,0,1.2,0.101,1.5,0.101h0.801h0.5
		c1.3,0.1,2,0.699,2,1.8v2h-7.2h-4.801h-7.2v-2c0-1.101,0.7-1.7,2-1.8h0.6h1.7c0.801,0,1.801-0.2,2.9-0.2v-64.804
		c-0.899,0-1.7-0.101-2.4-0.101h-1.5c-0.3,0-0.6-0.1-0.8-0.1h-0.5c-1.3-0.101-2-0.7-2-1.801v-1.899h7.2h4.801v31.502
		c2.3-2.801,4.9-5.101,7.8-6.801c3.001-1.7,6.301-2.5,10.001-2.5c2.7,0,5.101,0.399,7.2,1.3c2.101,0.9,3.801,2.101,5.2,3.7
		c1.4,1.601,2.4,3.601,3.101,5.9s1,4.9,1,7.801v27.802c0.9,0,1.8,0.1,2.5,0.1s1.2,0.101,1.5,0.101h0.7h0.601
		C872.593,201.699,873.192,202.298,873.192,203.399z"/>
	<path fill="#FFFFFF" d="M911.291,156.296c2.399,1,4.5,2.399,6.2,4.2c1.8,1.8,3.1,4.2,4.1,6.9s1.5,5.8,1.5,9.3
		c0,0.7-0.199,1.2-0.399,1.5c-0.2,0.301-0.5,0.4-1,0.4h-35.902v0.9c0,3.7,0.4,7.101,1.3,9.9c0.9,2.8,2.101,5.2,3.7,7.101
		c1.601,1.9,3.5,3.3,5.801,4.3c2.3,1,4.8,1.5,7.601,1.5c2.5,0,4.7-0.3,6.5-0.899c1.8-0.601,3.4-1.101,4.601-1.801
		c1.3-0.699,2.3-1.3,3-1.899c0.7-0.601,1.3-0.801,1.6-0.801c0.4,0,0.801,0.2,1.001,0.5l1.3,1.601c-0.8,1-1.9,1.9-3.2,2.8
		c-1.3,0.9-2.801,1.601-4.4,2.2c-1.601,0.601-3.4,1.101-5.2,1.5c-1.801,0.4-3.7,0.5-5.601,0.5c-3.4,0-6.5-0.5-9.301-1.699
		c-2.8-1.2-5.2-2.9-7.2-5.201c-2-2.3-3.5-5-4.601-8.3c-1.1-3.301-1.7-7.101-1.7-11.301c0-3.601,0.601-6.9,1.601-9.9
		c1-3.001,2.5-5.601,4.4-7.801s4.2-3.9,7-5.101c2.801-1.2,6.001-1.9,9.501-1.9C906.29,154.795,908.891,155.295,911.291,156.296z
		 M896.689,159.596c-2,0.8-3.8,1.9-5.3,3.4s-2.7,3.3-3.601,5.4c-0.9,2.1-1.5,4.5-1.8,7.101h32.802c0-2.7-0.4-5.101-1.1-7.201
		c-0.7-2.1-1.801-3.8-3.101-5.3s-2.9-2.601-4.801-3.4c-1.899-0.8-3.899-1.2-6.2-1.2C900.99,158.396,898.689,158.796,896.689,159.596
		z"/>
	<path fill="#FFFFFF" d="M967.79,156.696l-0.6,3.301c-0.101,0.5-0.4,0.8-1,0.8c-0.2,0-0.5-0.101-0.9-0.2s-0.7-0.3-1.3-0.5
		c-0.5-0.2-1.301-0.3-2.101-0.4c-0.8-0.1-1.7-0.199-2.7-0.199c-3.8,0-6.9,1.199-9.301,3.5c-2.399,2.3-4.399,5.7-5.9,10.101v28.302
		c4.101,0.2,4.701,0.2,5.301,0.2c1.2,0.1,1.9,0.5,1.9,1.8v2h-7.201h-4.7h-7.2v-2c0-1.3,0.7-1.7,1.9-1.8c0.6,0,1.2,0,5.3-0.2v-41.803
		c-4.1-0.2-4.7-0.2-5.3-0.2c-1.2-0.1-1.9-0.5-1.9-1.8v-1.9h7.2h2.501c0.6,0,1,0.101,1.199,0.3c0.2,0.2,0.4,0.601,0.4,1.2l0.4,10.501
		c1.6-4,3.7-7.2,6.4-9.501c2.7-2.3,6-3.4,9.9-3.4c1.5,0,2.8,0.2,4.101,0.5C965.49,155.596,966.69,156.096,967.79,156.696z"/>
	<path fill="#FFFFFF" d="M971.588,199.798c0.199-0.6,0.6-1.1,1-1.5c0.399-0.399,0.8-0.8,1.399-1c0.601-0.2,1.2-0.4,1.9-0.4
		c0.601,0,1.2,0.2,1.8,0.4c0.601,0.2,1,0.601,1.4,1c0.4,0.4,0.8,0.9,1,1.5c0.2,0.601,0.4,1.2,0.4,1.801c0,0.699-0.2,1.199-0.4,1.8
		c-0.2,0.6-0.6,1-1,1.4c-0.4,0.399-0.8,0.8-1.4,1c-0.6,0.199-1.199,0.399-1.8,0.399c-1.3,0-2.4-0.5-3.3-1.399
		c-0.9-0.9-1.301-1.9-1.301-3.2C971.287,200.999,971.388,200.399,971.588,199.798z"/>
</g>
<g>
</g>
<g>
</g>
<g>
</g>
<g>
</g>
<g>
</g>
<g>
</g>
</svg>
