<?xml version="1.0" encoding="utf-8"?>
<!-- Generator: Adobe Illustrator 18.0.0, SVG Export Plug-In . SVG Version: 6.00 Build 0)  -->
<!DOCTYPE svg PUBLIC "-//W3C//DTD SVG 1.1//EN" "http://www.w3.org/Graphics/SVG/1.1/DTD/svg11.dtd">
<svg version="1.1" xmlns="http://www.w3.org/2000/svg" xmlns:xlink="http://www.w3.org/1999/xlink" x="0px" y="0px"
	 viewBox="0 0 141.7 130" enable-background="new 0 0 141.7 130" xml:space="preserve">
<g id="Layer_6">
	<path fill="#004158" d="M67.5,28C46.8,28,30,44.8,30,65.6c0,20.7,16.8,37.5,37.5,37.5S105,86.3,105,65.6C105,44.8,88.2,28,67.5,28z
		 M67.5,100.4c-19.3,0-34.9-15.6-34.9-34.9s15.6-34.9,34.9-34.9s34.9,15.6,34.9,34.9S86.8,100.4,67.5,100.4z"/>
	<text transform="matrix(1 0 0 1 66.3589 14.4345)" fill="#004158" font-family="'LoveYaLikeASister-Regular'" font-size="12">N</text>
	<text transform="matrix(1 0 0 1 66.9324 124.7678)" fill="#004158" font-family="'LoveYaLikeASister-Regular'" font-size="12">S</text>
	<text transform="matrix(1 0 0 1 120.3955 69.4944)" fill="#004158" font-family="'LoveYaLikeASister-Regular'" font-size="12">E</text>
	<text transform="matrix(1 0 0 1 12.0619 68.3278)" fill="#004158" font-family="'LoveYaLikeASister-Regular'" font-size="12">W</text>
</g>
<g id="Layer_2">
	<polygon fill="#F09979" points="82.4,53 90.4,87 57.1,78.3 	"/>
	<polygon fill="#F09979" points="91.1,44.9 57.1,52.9 82.3,78.3 	"/>
	<polygon fill="#F09979" points="49,44.2 82.4,53 57.1,78.3 	"/>
	<polygon fill="#F09979" points="48.4,86.3 57.1,52.9 82.3,78.3 	"/>
	<polygon fill="#004158" points="82.4,54.1 119.3,65.6 82.4,78.3 79.7,78.3 69.7,115.2 57.1,78.3 57.1,76.1 20.1,65.6 57,52.9 
		59.9,51.9 69.7,16 82.4,52.9 	"/>
	<polygon fill="#038B8B" points="69.7,16 69.7,115.2 82.4,78.3 57.1,52.9 	"/>
	<polygon fill="#038B8B" points="20.1,65.6 119.3,65.6 82.4,52.9 57.1,78.3 	"/>
	<polygon fill="#004158" points="69.7,15.9 69.7,115.2 57.1,78.3 82.4,52.9 	"/>
	<polygon fill="#004158" points="20.1,65.6 119.3,65.6 82.4,78.3 57.1,52.9 	"/>
</g>
</svg>
