<?xml version="1.0" encoding="utf-8"?>
<!-- Generator: Adobe Illustrator 16.0.3, SVG Export Plug-In . SVG Version: 6.00 Build 0)  -->
<!DOCTYPE svg PUBLIC "-//W3C//DTD SVG 1.1//EN" "http://www.w3.org/Graphics/SVG/1.1/DTD/svg11.dtd">
<svg version="1.1" id="图层_1" xmlns="http://www.w3.org/2000/svg" xmlns:xlink="http://www.w3.org/1999/xlink" x="0px" y="0px"
	  viewBox="0 0 390.333 130" enable-background="new 0 0 390.333 130" xml:space="preserve">
<polygon fill="#F09979" points="82.427,52.666 90.488,86.679 57.132,77.992 "/>
<polygon fill="#F09979" points="91.133,44.638 57.132,52.628 82.412,77.963 "/>
<polygon fill="#F09979" points="49.112,43.919 82.427,52.665 57.132,77.992 "/>
<polygon fill="#F09979" points="48.435,85.981 57.132,52.628 82.412,77.964 "/>
<polygon fill="#004158" points="82.431,53.85 119.397,65.275 82.428,77.963 79.792,77.963 69.779,114.894 57.131,77.992
	57.13,75.787 20.162,65.275 57.102,52.616 59.979,51.6 69.779,15.659 82.428,52.629 "/>
<polygon fill="#048B8B" points="69.779,15.659 69.779,114.894 82.428,77.964 57.13,52.617 "/>
<polygon fill="#048B8B" points="20.162,65.276 119.397,65.276 82.436,52.657 57.132,77.963 "/>
<polygon fill="#004158" points="69.783,15.625 69.783,114.86 57.135,77.96 82.436,52.657 "/>
<polygon fill="#004158" points="20.162,65.276 119.397,65.276 82.431,77.982 57.132,52.628 "/>
<g>
	<path fill="#FFFFFF" d="M105.682,26.762l1.714-0.22c1.611,0.293,2.417,0.586,2.417,0.879c0.38,0.176,0.732,0.557,1.055,1.143
		c0.762,0.586,1.641,2.153,2.637,4.702l1.362,2.505c0.527,1.905,0.923,2.856,1.187,2.856c0.352,0,0.938-0.938,1.758-2.812
		c0.996-2.05,2.432-4.555,4.307-7.515c0.556-0.205,0.835-0.424,0.835-0.659c0.176-0.41,0.41-0.674,0.703-0.791l0.571,0.044
		c0.439-0.146,0.894-0.249,1.362-0.308c1.992,0.264,2.988,0.571,2.988,0.923v0.044l0.088,10.283l-0.088,2.856
		c0.146,1.202,0.396,4.292,0.747,9.272l-0.088,0.483c0.234,0.147,0.6,0.22,1.099,0.22c0.615,0.088,0.923,0.367,0.923,0.835v0.264
		c0,1.934-0.117,2.9-0.352,2.9h-0.088c-0.469-0.235-0.952-0.352-1.45-0.352h-2.593c-2.696,0-4.043-0.278-4.043-0.835l0.132-1.099
		v-0.176c0-0.117-0.103-0.322-0.308-0.615v-0.264c0-0.146,0.483-0.308,1.45-0.483l0.264-0.308l-0.132-0.264v-0.659
		c0-0.439,0.146-1.157,0.439-2.153l0.176-0.22c-0.205-0.234-0.308-1.435-0.308-3.604v-2.681l0.044-1.318
		c-0.117-0.322-0.176-0.747-0.176-1.274v-0.659c0-0.644,0.088-1.538,0.264-2.681c0-0.352,0.146-0.82,0.439-1.406l0.044-0.264
		c-0.205-0.996-0.308-1.714-0.308-2.153h-0.132c-0.499,0.499-1.29,1.597-2.373,3.296c-1.23,2.314-2.344,4.16-3.34,5.537
		l-1.758,2.505c-0.176,0.264-0.425,0.396-0.747,0.396l-0.527-0.22c-0.293,0.059-0.513,0.132-0.659,0.22
		c-0.352,0-0.557-0.336-0.615-1.011c-0.323-0.674-0.776-1.347-1.362-2.021c-0.469-0.556-1.362-2.226-2.681-5.01l-0.483-0.879
		l-0.571-1.011l0.044-0.044h0.264c0.146,0,0.264,0.191,0.352,0.571l0.044,0.088h0.132v-0.176c0-0.879-0.411-1.67-1.23-2.373h-0.132
		v0.22h-0.352v0.264l-0.044,0.439v0.439c0.468,6.445,0.703,11.982,0.703,16.611c-0.059,0.147-0.161,0.22-0.308,0.22
		c-0.117,0-0.176-0.161-0.176-0.483l-0.088-0.044h-0.088l-0.132,0.923c0.38,0.205,0.571,0.455,0.571,0.747l-0.088,0.527
		c-0.469,0-0.703-0.103-0.703-0.308h-0.132l-0.132,0.22v0.22c0,0.117,0.586,0.308,1.758,0.571h0.176
		c0.205,0,0.424-0.044,0.659-0.132c1.201,0.235,1.802,0.455,1.802,0.659v0.176l-0.264,0.044c-0.205,0-0.513-0.161-0.923-0.483h-0.22
		c-0.703,0.088-1.055,0.205-1.055,0.352c0.029,0.117,0.132,0.176,0.308,0.176h0.615c0.879,0.088,1.318,0.249,1.318,0.483
		l0.088,0.439v0.264c0,0.381-0.308,0.6-0.923,0.659c-0.439-0.205-0.894-0.308-1.362-0.308v0.044c0,0.088,0.146,0.132,0.439,0.132
		c0.38,0.088,0.571,0.176,0.571,0.264l-0.483,0.044c-0.879,0-2.637-0.161-5.273-0.483l-1.099,0.308
		c-0.527-0.117-0.791-0.336-0.791-0.659v-0.264c-0.352,0-0.586-0.366-0.703-1.099l-0.044-0.088v-0.22
		c0.322-0.586,0.908-0.879,1.758-0.879c0.732-0.176,1.099-0.308,1.099-0.396v-0.044l-0.747-20.347l0.088-1.89l-0.176-0.703
		C104.627,27.069,104.979,26.762,105.682,26.762z M103.353,51.591l-0.176,0.132v0.22c0,0.205,0.176,0.455,0.527,0.747h0.088
		c0.088,0,0.146-0.103,0.176-0.308c-0.029-0.527-0.117-0.791-0.264-0.791H103.353z M103.968,53.305h-0.176v0.132l0.088,0.132
		l0.088-0.088h0.044L103.968,53.305z M105.462,27.948h-0.132v0.132l0.088,0.088h0.044V27.948z M105.55,28.915l-0.044,0.044v0.044
		c0.117,1.348,0.249,2.021,0.396,2.021c0.117-0.205,0.176-0.468,0.176-0.791v-0.352C106.077,29.267,105.901,28.944,105.55,28.915z
		 M105.989,34.979h-0.176v1.099l0.132,0.088h0.044l0.088-0.703v-0.132L105.989,34.979z M106.209,49.789h-0.088v0.22h0.132v-0.132
		L106.209,49.789z M106.209,44.867l0.044,0.044c0.264,0,0.396-0.439,0.396-1.318v-1.406l-0.044-0.264
		C106.458,41.923,106.326,42.905,106.209,44.867z M106.253,48.075v0.703l0.176,0.088h0.088l0.132-0.967l-0.044-0.308h-0.088
		C106.399,47.592,106.312,47.753,106.253,48.075z M106.517,40.429h-0.088v0.396v0.044c0,0.439,0.059,0.659,0.176,0.659l0.132-0.439
		C106.677,40.648,106.604,40.429,106.517,40.429z M106.648,28.388h-0.044v0.264c0.205,1.084,0.41,1.626,0.615,1.626h0.132v-0.176
		l-0.308-0.747C107.044,28.915,106.912,28.593,106.648,28.388z M106.912,53.568l-0.264,0.132c0.205,0.117,0.454,0.176,0.747,0.176
		h0.132l0.439-0.088v-0.176L106.912,53.568z M107.22,31.2H107l-0.044,0.264v1.538c0,0.527,0.073,0.791,0.22,0.791
		c0.146,0,0.22-0.38,0.22-1.143C107.396,32.035,107.336,31.552,107.22,31.2z M107.791,27.904l-0.264,0.044v0.132
		c0,0.059,0.117,0.117,0.352,0.176c0.176-0.059,0.264-0.117,0.264-0.176v-0.088l-0.132-0.088H107.791z M107.879,37.836
		c0.059,1.553,0.161,2.329,0.308,2.329h0.088v-0.571c0-0.908-0.029-1.831-0.088-2.769h-0.044
		C108.025,36.825,107.938,37.162,107.879,37.836z M107.967,41.615v0.176l0.044,0.571h0.132v-0.308
		C108.143,41.762,108.083,41.615,107.967,41.615z M108.055,43.241c-0.059,0.176-0.088,0.367-0.088,0.571v2.461l0.044,2.329
		l0.044,0.088h0.088c0.292,0,0.483-0.205,0.571-0.615v-0.264c-0.117,0-0.205-0.161-0.264-0.483l0.044-0.791v-0.044
		c0-0.703-0.073-1.23-0.22-1.582l0.132-0.615C108.377,43.652,108.259,43.3,108.055,43.241z M108.45,50.053l-0.132,0.088l0.132,0.132
		h0.176l0.088-0.132l-0.088-0.088H108.45z M108.626,53.788h-0.308v0.088l0.527,0.132h0.703v-0.132L108.626,53.788z M108.802,29.442
		c0.352,0.645,0.923,1.406,1.714,2.285l1.626,3.252h0.132c0-0.498-0.571-1.978-1.714-4.438c0-0.205-0.293-0.571-0.879-1.099
		l-0.088-0.264h-0.264C108.978,29.208,108.802,29.296,108.802,29.442z M109.285,28.256V28.3h0.483l0.044-0.044v-0.088l-0.044-0.088
		C109.476,28.08,109.314,28.139,109.285,28.256z M117.02,39.638h-0.132c-0.176,0.264-0.264,0.469-0.264,0.615v0.088h0.132
		c0.146,0,0.234-0.19,0.264-0.571V39.638z M119.129,35.902l0.088,0.088c0.234-0.146,0.542-0.659,0.923-1.538
		c0.264-0.264,0.498-0.776,0.703-1.538v-0.088l-0.176-0.088C120.256,32.738,119.744,33.793,119.129,35.902z M123.26,29.442h0.088
		h0.044c0.176-0.205,0.264-0.38,0.264-0.527v-0.088h-0.044C123.376,28.974,123.26,29.179,123.26,29.442z M123.743,52.074
		l-0.132,0.176v0.176l0.088,0.088l0.615-0.132V52.25c-0.029-0.117-0.132-0.176-0.308-0.176H123.743z M124.007,53.349l-0.308,0.088
		v0.132l0.132,0.044h0.483v-0.044C124.255,53.422,124.153,53.349,124.007,53.349z M123.787,28.52l0.044,0.044
		c0.088,0,0.292-0.205,0.615-0.615v-0.264h-0.132C124.08,27.832,123.904,28.109,123.787,28.52z M125.237,49.613h-0.132l-0.044,0.264
		v0.088h0.132l0.044-0.132V49.613z M126.116,36.254h-0.088v0.176l0.088,0.264h0.088v-0.308L126.116,36.254z M126.116,35.023v0.132
		l0.088,0.132c0.117-0.029,0.176-0.132,0.176-0.308v-0.264h-0.088C126.175,34.745,126.116,34.848,126.116,35.023z M126.6,46.537
		h-0.176c-0.205,0.527-0.308,0.996-0.308,1.406c0.088,0.352,0.19,0.527,0.308,0.527h0.088l0.088-1.846V46.537z M126.292,34.232
		h0.088c0.088-0.059,0.132-0.19,0.132-0.396C126.365,33.896,126.292,34.028,126.292,34.232z M126.688,49.174h-0.264v0.176h0.132
		l0.132-0.132V49.174z M126.731,44.428H126.6l-0.044,0.132l0.176,0.132l0.088-0.132v-0.044L126.731,44.428z M126.995,50.097
		l-0.176,0.176l0.088,0.132h0.264v-0.132L126.995,50.097z M127.566,35.902c0.059,1.905,0.19,2.9,0.396,2.988l0.088-0.088v-1.406
		c0-1.113-0.044-1.948-0.132-2.505h-0.132C127.639,34.892,127.566,35.229,127.566,35.902z M128.05,47.24
		c-0.176,0.176-0.264,0.513-0.264,1.011v0.659l0.176,0.264h0.264c0.088,0,0.146-0.146,0.176-0.439
		C128.284,47.739,128.167,47.24,128.05,47.24z M128.226,49.613h-0.396v0.088l0.22,0.264h0.088l0.22-0.176v-0.088L128.226,49.613z"/>
	<path fill="#FFFFFF" d="M135.608,32.387l2.988,1.011c0.029,0.439,0.205,0.908,0.527,1.406l0.088,0.483
		c-0.264,1.875-0.337,5.772-0.22,11.689c0,0.85,0.352,1.406,1.055,1.67l0.308,0.703c0,0.176,0.967,0.337,2.9,0.483h0.176
		c0.615,0,1.377-0.659,2.285-1.978c0.703-0.703,1.171-1.259,1.406-1.67h0.22v-0.264l-0.088-0.22
		c0.176-0.264,0.308-0.659,0.396-1.187h0.044V44.12l0.791-8.35v-0.791l-0.088-0.439v-0.044c0.322-0.234,0.483-0.6,0.483-1.099
		c0-0.322,0.103-0.498,0.308-0.527l1.011,0.527h0.967c1.171,0,2.006,0.249,2.505,0.747v0.176c-0.323,0-0.483,0.059-0.483,0.176
		l0.439,1.011h0.132c0.059-0.439,0.117-0.659,0.176-0.659c0.117,0.147,0.19,0.396,0.22,0.747l-0.483,5.449l0.088,0.088v0.044
		c-0.205,0.615-0.411,2.388-0.615,5.317v1.274c0,1.905,0.088,2.856,0.264,2.856h0.176c0.527,0,1.377-0.117,2.549-0.352
		c0.117,0.029,0.38,0.205,0.791,0.527c-0.117,2.637-0.293,3.955-0.527,3.955l-0.483-0.396l-1.318,0.088l-4.878-0.088
		c-0.264,0-0.527-0.6-0.791-1.802c-0.176-0.146-0.264-0.322-0.264-0.527l0.088-0.396h-0.132c-0.235,0-1.099,0.396-2.593,1.187
		c-0.088,0.205-1.114,0.63-3.076,1.274c-0.439,0.234-1.026,0.468-1.758,0.703c-0.439-0.264-1.143-0.527-2.109-0.791
		c-1.846-1.816-2.974-3.413-3.384-4.79c-0.762-1.083-1.143-3.398-1.143-6.943l0.483-5.142v-0.132c0-0.059-0.996-0.249-2.988-0.571
		c-0.176-0.264-0.264-0.996-0.264-2.197c0-0.791,0.132-1.187,0.396-1.187C132.181,32.724,133.323,32.504,135.608,32.387z
		 M132.972,34.496H132.4v0.132l0.088,0.044h0.132l0.352-0.044V34.496z M132.576,35.639l-0.176,0.176l0.088,0.088h0.352l0.132-0.088
		l-0.176-0.176H132.576z M132.972,34.936h-0.352v0.088c0.029,0.176,0.19,0.264,0.483,0.264l0.044-0.088v-0.088L132.972,34.936z
		 M133.543,35.331l-0.22,0.088v0.132l0.044,0.044v0.044c0.264-0.059,0.396-0.132,0.396-0.22v-0.088H133.543z M134.114,35.463
		c0,0.176,0.468,0.425,1.406,0.747h0.439c0.117,0,0.176-0.103,0.176-0.308c-0.323-0.322-0.718-0.527-1.187-0.615h-0.352
		C134.305,35.287,134.143,35.346,134.114,35.463z M134.861,32.914l-0.176,0.088v0.088h0.308v-0.088L134.861,32.914z M135.477,37.792
		v0.352l0.659-0.22v-0.923l-0.088-0.132C135.901,36.869,135.711,37.177,135.477,37.792z M135.652,45.263l-0.132,0.132v0.176
		c0,1.143,0.615,2.93,1.846,5.361c0.234,0.147,0.396,0.22,0.483,0.22v-0.22l-1.274-3.56c-0.381-1.347-0.674-2.05-0.879-2.109
		H135.652z M135.96,33.266l-0.22,0.088v0.044c0,0.029,0.22,0.161,0.659,0.396c0,0.381,0.029,0.571,0.088,0.571h0.264
		c0.703,0,1.127-0.117,1.274-0.352v-0.088c0-0.205-0.439-0.366-1.318-0.483c0-0.059-0.176-0.117-0.527-0.176H135.96z
		 M136.268,42.714l-0.132-0.044l-0.176,0.176v0.088l0.176,0.088l0.132-0.132V42.714z M137.146,44.208v0.308
		c0,0.381,0.19,0.674,0.571,0.879h0.132c0-1.083-0.088-1.626-0.264-1.626h-0.176C137.234,43.856,137.146,44.003,137.146,44.208z
		 M137.41,35.814v0.835l0.132,0.088c0.176-0.088,0.264-0.264,0.264-0.527v-0.483c0-0.176-0.044-0.292-0.132-0.352h-0.088
		C137.469,35.404,137.41,35.551,137.41,35.814z M137.981,47.108v0.044c0.088,0.176,0.205,0.264,0.352,0.264v-0.044
		C138.333,47.196,138.216,47.108,137.981,47.108z M138.948,50.272h-0.132v0.176c0.029,0.117,0.132,0.176,0.308,0.176v-0.176
		L138.948,50.272z M141.321,53.173h-0.352l-1.758-0.176h-0.088l-0.176,0.176v0.044c0,0.264,0.82,0.557,2.461,0.879
		c0.498,0,1.479-0.366,2.944-1.099l0.044-0.044v-0.132h-0.308C143.211,53.056,142.288,53.173,141.321,53.173z M139.256,49.35h-0.044
		v0.132l0.088,0.132h0.044v-0.132L139.256,49.35z M140.047,50.58h-0.132v0.044c0,0.323,0.512,0.791,1.538,1.406
		c1.171-0.468,1.758-0.762,1.758-0.879v-0.044C142.449,51.107,141.394,50.932,140.047,50.58z M142.156,52.206v0.088h0.527
		c1.143-0.264,1.904-0.659,2.285-1.187v-0.176h-0.22C144.573,50.932,143.709,51.356,142.156,52.206z M145.848,48.646l0.044,0.088
		h0.044c0.703-0.938,1.055-1.479,1.055-1.626v-0.088h-0.132C146.624,47.313,146.287,47.855,145.848,48.646z M148.221,47.636
		l-0.176-0.22c-0.176,0.235-0.264,0.411-0.264,0.527l0.22,0.132h0.044l0.176-0.132V47.636z M148.396,50.141v0.044h0.088l0.308-0.264
		v-0.176C148.528,49.745,148.396,49.877,148.396,50.141z M149.319,33.881h-0.088c0,0.293,0.234,0.439,0.703,0.439h0.264l0.132-0.088
		v-0.044C150.33,34.042,149.993,33.94,149.319,33.881z M149.627,44.779l-0.132,0.132v0.396l0.132,0.176
		c0.176-0.088,0.308-0.22,0.396-0.396v-0.176l-0.132-0.132H149.627z M149.715,35.287l-0.132,0.132v0.088
		c0,0.117,0.103,0.176,0.308,0.176h0.044c0.205,0,0.322-0.059,0.352-0.176v-0.088c-0.029-0.088-0.176-0.132-0.439-0.132H149.715z
		 M149.715,50.053l-0.132,0.132v0.527c0,2.051,0.103,3.076,0.308,3.076h0.132c0.205-0.029,0.308-0.117,0.308-0.264
		c-0.235-0.41-0.367-1.479-0.396-3.208L149.715,50.053z M149.715,48.075h-0.088v0.308h0.088l0.132-0.132v-0.132L149.715,48.075z
		 M149.715,44.296l0.22,0.22c0.146-0.059,0.234-0.352,0.264-0.879l-0.044-0.088h-0.088
		C149.832,43.725,149.715,43.974,149.715,44.296z M150.33,40.121v0.176h0.044c0.292,0,0.439-0.336,0.439-1.011
		c-0.029-0.292-0.073-0.439-0.132-0.439C150.594,38.847,150.477,39.271,150.33,40.121z M150.682,46.493l-0.176,0.176v0.044
		l0.176,0.132l0.132-0.132l-0.044-0.22H150.682z M150.594,47.196h-0.088v0.264c0,0.469,0.073,1.07,0.22,1.802h0.132
		c0.117-0.439,0.176-0.864,0.176-1.274V47.68C151.033,47.357,150.886,47.196,150.594,47.196z M151.561,52.733l-0.132,0.088v0.132
		c0.059,0.147,0.234,0.22,0.527,0.22h0.439l0.132-0.088v-0.088c0-0.146-0.191-0.234-0.571-0.264H151.561z M152.088,41.483h-0.132
		l-0.088,0.176c0.059,0.147,0.117,0.22,0.176,0.22h0.044V41.483z M152.483,49.394l-0.439,0.659v0.132h0.439l0.176-0.132v-0.22
		C152.659,49.569,152.6,49.423,152.483,49.394z M155.12,51.283l-1.362,0.176v0.176l0.264,0.044h0.176
		c0.644-0.029,0.967-0.132,0.967-0.308v-0.088H155.12z M155.12,52.03h-0.176v0.264h0.176l0.132-0.088v-0.088
		C155.252,52.06,155.208,52.03,155.12,52.03z"/>
	<path fill="#FFFFFF" d="M166.546,27.86l0.659-0.176c0.762,0,2.944,0.439,6.548,1.318c1.699,0.791,2.681,1.187,2.944,1.187
		c0.234-0.322,0.352-0.732,0.352-1.23v-0.088v-0.308c0-0.38,0.264-0.571,0.791-0.571c0.352-0.264,0.85-0.396,1.494-0.396
		c0.879,0,1.318,0.103,1.318,0.308l0.396,4.131v1.274c0,1.055-0.147,1.685-0.439,1.89c-0.264,0.264-0.469,0.396-0.615,0.396
		c-1.641-0.146-2.461-0.366-2.461-0.659c-0.205-0.703-0.718-1.215-1.538-1.538c-2.812-1.406-4.834-2.109-6.064-2.109l-1.23-0.088
		c-1.465,0-2.329,0.279-2.593,0.835c-0.352,0.469-0.527,1.099-0.527,1.89v0.044c0,1.611,0.835,2.944,2.505,3.999
		c1.67,0.674,3.12,1.011,4.351,1.011c0,0.235,0.659,0.557,1.978,0.967c0.264,0.439,0.835,0.659,1.714,0.659
		c0.908,0.352,2.212,1.465,3.911,3.34l0.176,0.176v0.176c0,0.059-0.088,0.088-0.264,0.088v0.088c0.41,0.879,0.615,1.392,0.615,1.538
		c0,2.637-0.425,4.292-1.274,4.966c-0.381,0.791-1.187,1.567-2.417,2.329c-1.377,1.259-2.784,1.89-4.219,1.89h-1.538
		c-2.314-0.352-3.472-0.645-3.472-0.879c-1.348-0.938-2.125-1.406-2.329-1.406c-1.436-0.674-2.432-1.377-2.988-2.109h-0.176
		c-0.352,1.026-0.645,1.538-0.879,1.538c-1.846-0.292-2.769-0.615-2.769-0.967c-0.176-0.498-0.279-1.772-0.308-3.823l0.439-2.725
		c0-0.996,0.117-1.494,0.352-1.494l2.812-0.308c0.205,0,0.41,0.806,0.615,2.417l1.23,2.241c0,0.088,1.303,0.967,3.911,2.637
		c0.644,0.732,1.567,1.099,2.769,1.099h1.538c1.553,0,2.607-0.498,3.164-1.494c0.674-0.732,1.171-1.802,1.494-3.208v-0.132
		c0-0.85-0.747-1.918-2.241-3.208c-0.645-0.732-1.465-1.099-2.461-1.099c-0.586-0.264-1.905-0.542-3.955-0.835l-3.516-1.802
		l-1.714-1.45c-0.732-1.113-1.128-1.904-1.187-2.373l0.088-0.747l-0.176-1.67c0-0.41,0.249-0.894,0.747-1.45
		c0-0.352,0.703-1.157,2.109-2.417C165.535,28.827,166.311,28.271,166.546,27.86z M158.855,48.251l0.044,1.099h0.044
		c0.205-0.117,0.308-0.806,0.308-2.065v-0.352l-0.088-0.088h-0.088C158.987,46.845,158.914,47.313,158.855,48.251z M160.262,50.536
		h-0.22v0.176l0.22,0.132l0.176-0.044v-0.088L160.262,50.536z M160.569,44.735h-0.22v0.176l0.088,0.088l0.176-0.088L160.569,44.735z
		 M162.239,33.002l-0.132,0.044c0.059,0.557,0.132,0.952,0.22,1.187h0.132v-0.044l-0.044-1.187H162.239z M162.283,49.042h-0.132
		v0.176c0.439,0.557,0.864,0.835,1.274,0.835h0.088v-0.132C162.869,49.335,162.459,49.042,162.283,49.042z M162.679,31.947h-0.22
		l-0.044,0.308v0.132l0.044,0.088l0.22-0.439V31.947z M163.25,37.133l-0.088,0.132v0.044l0.088,0.088h0.132v-0.132L163.25,37.133z
		 M163.426,33.397l-0.176,0.132v0.132h0.132l0.22-0.176v-0.088H163.426z M163.909,31.464l-0.132,0.044l0.044,0.088v0.044
		l0.176-0.044v-0.132H163.909z M164.041,37.396h-0.044v0.088c0.205,0.645,0.41,0.967,0.615,0.967h0.176l0.22-0.22v-0.044
		C164.627,37.66,164.305,37.396,164.041,37.396z M164.085,32.123v0.044l0.088,0.044h0.176c0.644-0.468,0.967-0.85,0.967-1.143
		h-0.044h-0.088C164.861,31.068,164.495,31.42,164.085,32.123z M165.271,37.001l-0.088,0.044v0.088l0.088,0.132h0.439v-0.132
		C165.682,37.045,165.535,37.001,165.271,37.001z M166.238,37.396l-0.088,0.088v0.264l0.264,0.264h0.132l0.132-0.088v-0.22
		C166.561,37.5,166.414,37.396,166.238,37.396z M166.282,39.726h-0.044c0,0.205,0.19,0.367,0.571,0.483l0.088-0.044
		C166.897,40.019,166.692,39.873,166.282,39.726z M167.82,52.997l-1.274-0.088v0.088c0,0.117,0.38,0.264,1.143,0.439l0.176,0.176
		h0.22C168.025,53.202,167.937,52.997,167.82,52.997z M166.985,28.3v0.176c0,0.117,0.19,0.22,0.571,0.308
		c0.791-0.059,1.187-0.161,1.187-0.308V28.3c0-0.205-0.411-0.308-1.23-0.308C167.278,27.992,167.102,28.095,166.985,28.3z
		 M167.645,38.451l-0.088,0.088v0.044c0.38,0.352,0.952,0.659,1.714,0.923l0.088-0.132
		C169.358,39.198,168.787,38.891,167.645,38.451z M168.216,30.233c0.117,0.117,0.264,0.176,0.439,0.176
		c0.292,0,0.6-0.161,0.923-0.483l-0.22-0.176h-0.483C168.436,29.75,168.216,29.911,168.216,30.233z M168.875,54.096h-0.088
		l0.176,0.22h0.352v-0.044C169.285,54.155,169.139,54.096,168.875,54.096z M169.271,53.612l-0.132-0.132v0.176h0.132V53.612z
		 M169.754,54.359c0.41,0.234,0.967,0.352,1.67,0.352h0.088l1.89-0.088v-0.088c-0.088-0.235-1.099-0.352-3.032-0.352
		C169.958,54.184,169.754,54.242,169.754,54.359z M170.237,30.761l-0.176,0.176c0,0.205,0.527,0.337,1.582,0.396V31.2
		c0-0.117-0.439-0.264-1.318-0.439H170.237z M170.062,39.55c0,0.117,1.04,0.425,3.12,0.923l0.571,0.044h0.132v-0.044
		c-0.879-0.674-1.949-1.069-3.208-1.187C170.266,39.433,170.062,39.521,170.062,39.55z M170.589,40.824V41l0.747,0.264h0.483v-0.132
		C171.292,40.927,170.881,40.824,170.589,40.824z M173.973,54.096l-0.088,0.088v0.132l0.088,0.088h0.176
		c0.556-0.029,0.835-0.103,0.835-0.22l-0.132-0.088H173.973z M174.192,30.189v0.044c0,0.088,0.176,0.147,0.527,0.176h0.132v-0.044
		C174.852,30.307,174.632,30.249,174.192,30.189z M174.72,31.815l-0.044,0.044v0.088c0.908,0.527,1.479,0.791,1.714,0.791v-0.044
		C176.39,32.519,175.833,32.226,174.72,31.815z M175.291,41.439h-0.396v0.132c0.176,0.176,0.952,0.615,2.329,1.318
		c0.586,0.527,1.04,0.791,1.362,0.791h0.044l0.088-0.132C178.044,42.67,176.902,41.967,175.291,41.439z M175.906,50.624V50.8h0.088
		c0.264-0.176,0.483-0.424,0.659-0.747l-0.088-0.132C176.331,50.068,176.111,50.302,175.906,50.624z M176.39,44.12h-0.044v0.22
		c0,0.293,0.249,0.645,0.747,1.055h0.264v-0.352C177.356,44.691,177.034,44.384,176.39,44.12z M178.279,51.02l-1.494,1.23v0.088
		c0,0.059,0.059,0.088,0.176,0.088c0.352,0,0.835-0.468,1.45-1.406H178.279z M176.961,31.376l-0.088,0.088
		c0.41,0.323,0.879,0.542,1.406,0.659l0.044-0.088v-0.088c0-0.146-0.425-0.336-1.274-0.571H176.961z M177.181,47.548h-0.22v0.22
		l0.132,0.044l0.132-0.132L177.181,47.548z M178.147,34.54l-0.176,0.088c0.234,0.147,0.659,0.22,1.274,0.22l0.879-0.044v-0.176
		c-0.527-0.059-1.07-0.088-1.626-0.088H178.147z M178.455,28.212V28.3c0.322,0.527,0.6,0.791,0.835,0.791
		c0.234,0,0.41-0.146,0.527-0.439v-0.176C179.817,28.3,179.363,28.212,178.455,28.212z M179.686,47.548l-0.352,0.352v0.22
		l0.088,0.132h0.132c0.176-0.029,0.264-0.264,0.264-0.703H179.686z M179.993,29.574l-0.132,0.176l0.132,0.088h0.22v-0.264H179.993z"
		/>
	<path fill="#FFFFFF" d="M183.86,31.552h0.132c0.234,0.205,0.527,0.308,0.879,0.308l0.571-0.264c3.984,0,5.977,0.117,5.977,0.352
		l0.044,0.308v0.747c0.264,0.586,0.396,1.143,0.396,1.67v0.703c-0.352,4.775-0.586,8.643-0.703,11.602
		c-0.059,0.176-0.117,0.483-0.176,0.923c0.029,0.117,0.161,0.176,0.396,0.176h0.132c1.582,0,2.373,0.191,2.373,0.571l-0.044,0.088
		v0.264c0.352,0.703,0.527,1.817,0.527,3.34l0.176,1.758l-0.132,0.088l-1.934,0.088h-4.395c-3.281,0-4.922-0.264-4.922-0.791
		c0-0.322-0.088-0.644-0.264-0.967c0.088-0.205,0.234-0.366,0.439-0.483h0.132c0.117,0.117,0.249,0.176,0.396,0.176h0.088
		c0.85,0,1.86-0.073,3.032-0.22v-0.088c-2.52-0.176-3.779-0.38-3.779-0.615l-0.044-0.352v-0.483l-0.088-1.143
		c0-0.292,1.099-0.439,3.296-0.439c0.292,0,0.439-0.659,0.439-1.978l0.527-11.558h-0.088c-0.82,0-1.23-0.059-1.23-0.176
		c0-0.029,0.044-0.073,0.132-0.132c-1.758,0-2.637-0.205-2.637-0.615c-0.117-0.029-0.176-0.146-0.176-0.352l0.22-0.527
		c0-0.117-0.088-0.278-0.264-0.483c0.234-0.234,0.396-0.703,0.483-1.406L183.86,31.552z M184.388,50.316l-0.308,0.088v0.044
		c0.234,0.235,1.143,0.367,2.725,0.396h0.308c0.234,0,0.38-0.073,0.439-0.22v-0.088C186.321,50.39,185.267,50.316,184.388,50.316z
		 M184.563,32.431v0.176h0.22c0.762,0,1.143-0.059,1.143-0.176l-0.088-0.176h-0.132C184.944,32.255,184.563,32.314,184.563,32.431z
		 M185.53,33.046h-0.791v0.132c0,0.117,0.205,0.176,0.615,0.176h0.483h0.132h1.45c0.439,0,0.659-0.073,0.659-0.22V33.09
		C188.079,32.943,187.229,32.929,185.53,33.046z M188.431,23.158l1.494-0.22c1.025,0,1.831,0.527,2.417,1.582l0.308,1.406
		c-0.059,0.557-0.381,1.29-0.967,2.197c-0.381,0.381-0.967,0.571-1.758,0.571c-1.846,0-2.988-0.278-3.428-0.835
		c-0.439-0.586-0.645-1.406-0.615-2.461c-0.117,0-0.176-0.029-0.176-0.088v-0.088C186.585,23.847,187.493,23.158,188.431,23.158z
		 M187.552,24.257v0.044c0.996-0.117,1.494-0.249,1.494-0.396l-0.22-0.088C187.976,23.964,187.552,24.11,187.552,24.257z
		 M187.903,39.726l-0.132,5.669c0.029,0.205,0.073,0.308,0.132,0.308c0.088,0,0.146-0.132,0.176-0.396l-0.044-0.659
		c0.146-0.146,0.308-0.732,0.483-1.758v-0.264l-0.088-0.615c0.176-0.146,0.264-0.249,0.264-0.308
		c-0.117-0.322-0.176-0.644-0.176-0.967v-0.088c0.117,0,0.264-1.641,0.439-4.922c-0.088-0.234-0.176-0.352-0.264-0.352
		C188.255,35.375,187.991,36.825,187.903,39.726z M189.266,51.986l-0.571,0.044h-0.615v0.176l0.615,0.044l1.274-0.088V52.03h-0.176
		L189.266,51.986z M188.299,25.531h0.044l0.264,0.044h0.088c0.322,0,0.527-0.117,0.615-0.352l-0.044-0.088h-0.527
		C188.503,25.136,188.357,25.268,188.299,25.531z M188.519,50.844l0.176,0.22c0.264,0,0.396-0.146,0.396-0.439h-0.22
		C188.694,50.624,188.577,50.697,188.519,50.844z M189.09,47.812l-0.132,0.176v0.22h0.132l0.176-0.132v-0.132l-0.132-0.132H189.09z
		 M189.002,47.152v0.308h0.088c0.146-0.059,0.22-0.234,0.22-0.527v-0.308h-0.132C189.119,46.625,189.061,46.801,189.002,47.152z
		 M189.441,33.09l-0.396-0.044v0.088c0.205,0,0.454,0.147,0.747,0.439h0.088c0.059,0,0.088-0.044,0.088-0.132h0.088
		c0.117,0,0.19,0.132,0.22,0.396h0.088l0.615-0.439v-0.264l-0.923-0.044H189.441z M189.266,35.551l0.22,0.659l-0.308,0.791
		c0.117,0.264,0.22,0.396,0.308,0.396h0.044l0.088-0.264v-0.264c0-1.055,0.161-1.582,0.483-1.582l0.132-0.176v-0.176l-0.132-0.132
		h-0.264C189.456,34.804,189.266,35.053,189.266,35.551z M189.837,43.021h-0.22c-0.235,1.084-0.352,1.89-0.352,2.417h0.044
		c0.146,0,0.336-0.6,0.571-1.802v-0.308L189.837,43.021z M189.441,27.377l-0.132,0.132v0.088h0.791l0.132-0.088l-0.132-0.132
		H189.441z M190.057,35.858l-0.176,0.044v0.264c0,0.176,0.073,0.308,0.22,0.396h0.132l0.132-0.176v-0.22
		C190.305,36.02,190.203,35.917,190.057,35.858z M190.408,26.586v0.132h0.176c0.205,0,0.366-0.103,0.483-0.308v-0.132h-0.088
		C190.774,26.278,190.584,26.381,190.408,26.586z M190.54,32.123l-0.132,0.132l0.176,0.132h0.088v-0.132L190.54,32.123z
		 M191.463,25.136l-0.132,0.22v0.176h0.044l0.132-0.176v-0.22H191.463z M192.781,50.712l-0.527,0.132
		c0.059,0.352,0.322,0.527,0.791,0.527h0.132v-0.132l-0.088-0.132c0-0.029,0.117-0.117,0.352-0.264v-0.22
		c0-0.205-0.059-0.322-0.176-0.352h-0.176C193.001,50.302,192.898,50.448,192.781,50.712z M192.605,48.866l-0.132,0.044
		c0.176,0.147,0.498,0.235,0.967,0.264v-0.132c0-0.117-0.191-0.176-0.571-0.176H192.605z M192.649,51.723l-0.132,0.176v0.088h0.088
		l0.132-0.176v-0.088H192.649z M193.748,53.48l-0.176,0.132v0.132h0.264l0.044-0.132l-0.044-0.132H193.748z"/>
	<path fill="#FFFFFF" d="M195.77,32.035l0.088-0.088c0.674,0.117,1.377,0.176,2.109,0.176h3.604l0.132,0.132
		c-0.176,0.527-0.264,0.938-0.264,1.23v0.747c0.117,0.82,0.352,1.23,0.703,1.23c0.176-0.322,0.762-0.63,1.758-0.923
		c2.373-1.025,4.307-1.538,5.801-1.538c0.996,0,2.065,0.439,3.208,1.318c0.85,0.323,1.67,1.011,2.461,2.065
		c1.201,1.905,1.802,4.146,1.802,6.724v0.352l-0.308,3.164l0.308,2.285l-0.439,2.065v0.088v0.352l1.67,0.088h0.747
		c0.498,0,0.791,0.044,0.879,0.132c-0.117,2.139-0.337,3.208-0.659,3.208c-0.586,0.352-1.216,0.527-1.89,0.527h-0.923
		c-1.406,0-2.886,0.19-4.438,0.571c-1.025-0.147-1.538-0.659-1.538-1.538l-0.044-1.582c0-0.967,0.249-1.67,0.747-2.109
		c0.264-1.435,0.571-2.739,0.923-3.911l0.264-3.911c0.088,0,0.132-0.322,0.132-0.967c0-0.791-0.63-1.918-1.89-3.384
		c-0.967-0.41-1.523-0.615-1.67-0.615c-1.699,0-3.223,0.718-4.57,2.153c-0.117,0-0.835,0.718-2.153,2.153
		c-0.41,0.323-0.615,1.304-0.615,2.944c0.059,2.959,0.161,4.438,0.308,4.438c1.172,0.205,1.758,0.425,1.758,0.659v0.176
		l-0.967-0.044l-0.703,0.044v0.176c0,0.117,0.557,0.264,1.67,0.439c0.205,0.205,0.308,0.542,0.308,1.011v0.088
		c0,0.703-0.146,1.45-0.439,2.241l-5.098,0.044c-0.498,0-0.864-0.249-1.099-0.747c-0.117-0.556-0.249-1.641-0.396-3.252
		c0-0.146,0.439-0.308,1.318-0.483l0.22-0.308v-0.044c0-0.176-0.117-0.424-0.352-0.747v-1.362v-2.505l0.176-4.043
		c0-2.753-0.117-4.131-0.352-4.131h-0.22l-2.065,0.264c-0.205,0-0.483-0.176-0.835-0.527v-0.176c0.147-0.234,0.22-0.483,0.22-0.747
		l-0.088-1.626L195.77,32.035z M195.682,34.936v0.044c0,0.088,0.073,0.161,0.22,0.22c0.234,0,0.498-0.132,0.791-0.396V34.76h-0.703
		C195.784,34.789,195.682,34.848,195.682,34.936z M199.593,32.826l-3.604,0.571v0.088c0,0.088,0.22,0.147,0.659,0.176
		c1.904,0,2.856-0.132,2.856-0.396l0.176-0.264v-0.088h-0.088V32.826z M196.033,36.298v0.088h0.439l0.176-0.176v-0.044l-0.22-0.088
		C196.165,36.166,196.033,36.239,196.033,36.298z M196.868,34.496L197,34.628h0.088c0.381-0.029,0.571-0.117,0.571-0.264
		l-0.22-0.044C197.059,34.32,196.868,34.379,196.868,34.496z M197.264,35.375v0.088l0.835-0.044h0.132
		c0.293,0,0.469,0.073,0.527,0.22v0.132c-0.146,0.147-0.22,0.293-0.22,0.439c0.146,0.117,0.322,0.176,0.527,0.176
		c0.088,0,0.132-0.059,0.132-0.176l0.044-1.45l-0.044-0.132h-0.132c-0.176,0.117-0.762,0.352-1.758,0.703L197.264,35.375z
		 M197.747,50.624l-0.088,0.176v0.044c0.059,0.527,0.249,0.791,0.571,0.791h0.264l0.132-0.132v-0.088
		c-0.264-0.322-0.396-0.586-0.396-0.791H197.747z M198.846,37.265l0.088,0.132h0.088l0.132-0.571h-0.132
		C198.934,36.825,198.875,36.972,198.846,37.265z M199.593,52.689c0,0.147,0.381,0.22,1.143,0.22c1.465,0,2.197-0.073,2.197-0.22
		c0-0.176-0.498-0.264-1.494-0.264C200.325,52.426,199.71,52.514,199.593,52.689z M200.428,35.595h-0.22l-0.088,0.264v0.791
		c0,0.352-0.059,0.586-0.176,0.703v0.22l0.176,0.615v0.352c0,0.235,0.073,0.396,0.22,0.483c0.029,0,0.117-0.336,0.264-1.011
		c0.41-0.322,0.615-0.571,0.615-0.747c0-0.146-0.161-0.468-0.483-0.967C200.647,35.83,200.545,35.595,200.428,35.595z
		 M200.779,38.363l0.088,0.264c0,0.235-0.132,0.469-0.396,0.703c0.146,0.147,0.22,0.293,0.22,0.439c0,1.465,0.103,2.197,0.308,2.197
		h0.044c0.234-0.527,0.352-1.215,0.352-2.065c-0.029-1.083-0.161-1.655-0.396-1.714h-0.088
		C200.823,38.188,200.779,38.247,200.779,38.363z M201.966,35.99v0.176c0.41,0,0.85-0.264,1.318-0.791v-0.044l-0.044-0.044h-0.044
		C202.845,35.287,202.435,35.522,201.966,35.99z M202.01,38.451v0.132c0.762-0.088,1.816-0.718,3.164-1.89v-0.044h-0.264
		c-0.117,0-0.469,0.205-1.055,0.615C202.625,37.646,202.01,38.041,202.01,38.451z M202.405,39.55l-0.088,0.088l0.088,0.132h0.176
		v-0.132l-0.088-0.088H202.405z M203.636,39.11l-0.264,0.352v0.088l0.044,0.088h0.22l0.132-0.527H203.636z M204.163,38.803v0.088
		h0.132c0.469-0.38,0.703-0.703,0.703-0.967h-0.088v-0.088C204.676,37.836,204.427,38.159,204.163,38.803z M204.559,34.892
		l0.044,0.044v0.044c0.264-0.088,0.396-0.161,0.396-0.22v-0.088h-0.088C204.676,34.731,204.559,34.804,204.559,34.892z
		 M205.35,34.452v0.044l0.088,0.132c1.377-0.352,2.065-0.615,2.065-0.791h-0.088C206.771,33.837,206.082,34.042,205.35,34.452z
		 M205.569,38.275c0.645-0.117,0.967-0.278,0.967-0.483l-0.132-0.088h-0.132C205.833,37.704,205.599,37.895,205.569,38.275z
		 M207.635,35.814v0.088h0.22c0.439-0.059,0.659-0.146,0.659-0.264v-0.088h-0.308C207.825,35.58,207.635,35.668,207.635,35.814z
		 M208.338,33.661v0.044c0.205,0,0.557,0.176,1.055,0.527l0.483,0.132l1.406-0.044l0.044-0.088v-0.044
		c-0.029-0.176-0.19-0.264-0.483-0.264h-0.176l-0.439,0.088c-0.645-0.38-1.113-0.571-1.406-0.571
		C208.558,33.441,208.396,33.515,208.338,33.661z M208.382,36.737l0.088,0.088h0.044c0.645,0,0.967-0.059,0.967-0.176l-0.352-0.088
		C208.631,36.621,208.382,36.679,208.382,36.737z M209.92,37.572v0.132h1.099l0.176-0.132v-0.176l-0.22-0.132h-0.22
		C210.198,37.353,209.92,37.456,209.92,37.572z M210.843,35.639c0,0.117,0.264,0.205,0.791,0.264
		c0.117-0.088,0.176-0.205,0.176-0.352c0-0.146-0.234-0.264-0.703-0.352C210.931,35.316,210.843,35.463,210.843,35.639z
		 M211.37,54.799l-0.176,0.176v0.088c0,0.205,0.396,0.308,1.187,0.308h0.22l0.352-0.088v-0.044
		c-0.293-0.293-0.762-0.439-1.406-0.439H211.37z M211.502,52.821h-0.132v0.264l0.132,0.132h0.132l0.044-0.132v-0.044L211.502,52.821
		z M211.766,36.43l-0.264-0.132l-0.088,0.088v0.044l0.22,0.132h0.044L211.766,36.43z M212.513,35.375l-0.132,0.176
		c0.059,0.147,0.176,0.22,0.352,0.22h0.22l0.22-0.176v-0.044c-0.029-0.117-0.176-0.176-0.439-0.176H212.513z M212.513,36.737h-0.044
		v0.132c0,0.088,0.19,0.499,0.571,1.23c0,0.235,0.059,0.352,0.176,0.352l0.176-0.176V38.1
		C213.392,37.631,213.099,37.177,212.513,36.737z M212.469,53.964c0.088,0.234,0.234,0.352,0.439,0.352
		c1.582-0.029,2.373-0.132,2.373-0.308c-0.205-0.264-0.571-0.396-1.099-0.396C213.04,53.642,212.469,53.759,212.469,53.964z
		 M212.908,48.603c0.176,0.205,0.264,0.483,0.264,0.835h0.088l0.132-0.527v-0.747C213.069,48.163,212.908,48.31,212.908,48.603z
		 M213.172,38.935v0.132c0.352,1.318,0.571,2.007,0.659,2.065l0.088-0.308v-0.396C213.714,39.433,213.465,38.935,213.172,38.935z
		 M213.172,47.899l0.044,0.044h0.044c0.088,0,0.132-0.146,0.132-0.439v-0.527C213.274,46.977,213.201,47.284,213.172,47.899z
		 M214.842,51.239h-0.176v0.176l0.176,0.176l0.132-0.088v-0.088L214.842,51.239z M214.71,50.448v0.088h0.044l0.176-0.483v-0.088
		h-0.088C214.754,49.965,214.71,50.126,214.71,50.448z M214.842,48.207h-0.088v0.22h0.088V48.207z M214.842,44.735v0.044
		l0.132,0.527h0.22C215.164,44.926,215.047,44.735,214.842,44.735z M215.149,39.022h-0.044c0.059,1.553,0.205,2.329,0.439,2.329
		h0.088C215.486,39.799,215.325,39.022,215.149,39.022z M215.853,48.427l-0.088,0.879v1.099h0.044
		c0.381-0.468,0.571-0.908,0.571-1.318v-0.044C216.38,48.632,216.204,48.427,215.853,48.427z M217.215,52.25v0.132
		c1.318,0,1.978-0.103,1.978-0.308v-0.088h-0.615C217.669,52.016,217.215,52.104,217.215,52.25z M217.61,53.173v0.132
		c0.059,0.147,0.19,0.22,0.396,0.22c0.469,0,0.747-0.103,0.835-0.308v-0.132c-0.059-0.176-0.22-0.264-0.483-0.264h-0.22
		C217.845,52.821,217.669,52.938,217.61,53.173z"/>
	<path fill="#FFFFFF" d="M230.398,31.2h1.45c0.703,0,1.846,0.308,3.428,0.923c0.586,0,1.509,0.367,2.769,1.099h0.22
		c0.322,0,1.025-0.586,2.109-1.758c0.234,0,0.674,0.411,1.318,1.23c0.293,0.117,0.63,0.396,1.011,0.835v0.132
		c-1.641,1.817-2.461,2.828-2.461,3.032c-0.791,2.666-1.318,4.146-1.582,4.438c-0.557,0.586-1.348,1.099-2.373,1.538
		c-1.289,1.29-2.446,1.934-3.472,1.934l-1.318,0.044l-2.856-0.264h-0.571c-0.234,0-0.542,0.967-0.923,2.9l0.352,0.088h0.132
		c0.469,0,0.981-0.176,1.538-0.527l1.011-0.088h1.758c2.812,0,5.127,0.264,6.943,0.791c0.264,0.176,0.908,0.499,1.934,0.967
		l1.494,1.099c1.172,0.996,1.904,1.89,2.197,2.681c1.055,2.05,1.582,3.794,1.582,5.229c0,1.083-0.85,2.432-2.549,4.043l-2.681,1.934
		c-1.406,0.879-3.076,1.318-5.01,1.318l-1.23,0.176c-5.215,0-8.745-1.055-10.591-3.164c-1.348-0.82-2.021-1.89-2.021-3.208
		c-0.498-0.938-0.747-2.168-0.747-3.691l-0.176-0.967l0.176-0.571h0.132c0.146,0.674,0.264,1.011,0.352,1.011h0.132
		c0.41-1.846,0.732-3.076,0.967-3.691v-0.088h-0.044c-0.85,1.377-1.274,2.168-1.274,2.373h-0.088c-0.117,0-0.176-0.161-0.176-0.483
		c0.029-0.586,0.557-1.597,1.582-3.032c1.143-1.083,1.714-1.699,1.714-1.846c0.293-2.432,0.513-3.94,0.659-4.526
		c-0.762-1.465-1.143-2.666-1.143-3.604l-0.044-0.747c0-0.498,0.19-1.406,0.571-2.725c0.322-0.322,0.938-1.113,1.846-2.373
		C227.996,32.021,229.314,31.2,230.398,31.2z M221.741,55.985l-0.088,0.044v0.308l0.176,0.132h0.044v-0.483H221.741z
		 M221.961,56.776h-0.088v0.132c0.029,0.205,0.088,0.308,0.176,0.308l0.132-0.088v-0.132L221.961,56.776z M223.235,52.953
		l0.044,0.22h0.088c0.146,0,0.322-0.439,0.527-1.318h-0.088C223.426,52.147,223.235,52.514,223.235,52.953z M223.631,50.448v0.044
		l0.132,0.132c0.703-0.176,1.055-0.41,1.055-0.703v-0.308l-0.088-0.132C224.349,49.628,223.982,49.95,223.631,50.448z
		 M223.807,59.589l-0.176,0.22c0.088,0.205,0.176,0.308,0.264,0.308l0.176-0.22C224.07,59.779,223.982,59.677,223.807,59.589z
		 M224.246,56.117l-0.088,0.132l-0.088,0.879c0.029,0.615,0.117,0.923,0.264,0.923h0.088c0.088-0.059,0.132-0.161,0.132-0.308
		v-0.571c0-0.703-0.073-1.055-0.22-1.055H224.246z M224.422,51.854v0.176h0.132l0.264-0.308v-0.132
		C224.642,51.591,224.51,51.679,224.422,51.854z M224.466,38.319c0,0.645,0.146,1.128,0.439,1.45h0.176
		c0.088,0,0.132-0.044,0.132-0.132c-0.117-1.23-0.264-1.846-0.439-1.846C224.627,37.792,224.524,37.968,224.466,38.319z
		 M231.937,50.448v0.132l-0.703,0.132l-0.923-0.132l-3.252,0.044c-1.348,1.23-2.021,2.095-2.021,2.593l-0.264,0.308v0.088
		c0.205,2.929,0.498,4.746,0.879,5.449c0.029,0.146,0.557,0.586,1.582,1.318c0,0.205,0.879,0.556,2.637,1.055
		c2.578,0.38,4.717,0.571,6.416,0.571c2.197-0.411,3.691-1.026,4.482-1.846c1.436-1.465,2.153-2.666,2.153-3.604v-0.22
		c0-0.499-0.571-1.479-1.714-2.944c-0.146-0.41-0.586-0.806-1.318-1.187c-1.289-0.85-2.593-1.377-3.911-1.582l-2.725-0.044v-0.264
		v-0.044h-0.527C232.317,50.272,232.054,50.332,231.937,50.448z M224.993,60.731l-0.132,0.176v0.088h0.396v-0.264H224.993z
		 M225.037,37.001h0.132c0.088-0.059,0.322-0.352,0.703-0.879l-0.132-0.088C225.564,36.034,225.33,36.357,225.037,37.001z
		 M225.037,51.415v0.132h0.132l0.527-0.176v-0.176h-0.088C225.228,51.225,225.037,51.298,225.037,51.415z M225.257,42.099h-0.176
		v0.132c0.293,0.469,0.732,0.791,1.318,0.967v-0.088C226.136,42.436,225.755,42.099,225.257,42.099z M225.433,49.613l0.22,0.132
		h0.308l0.176-0.22v-0.264l-0.132-0.176C225.711,49.086,225.521,49.262,225.433,49.613z M225.608,60.424h-0.088v0.132l0.176,0.176
		h0.264V60.6C225.931,60.482,225.813,60.424,225.608,60.424z M226.312,43.944l-0.22,0.176v0.352c0,0.235,0.117,0.381,0.352,0.439
		l0.176-0.132v-0.703l-0.176-0.132H226.312z M226.707,38.847l-0.088,0.132c0,0.499,0.161,0.952,0.483,1.362h0.044v-0.176
		C227.088,39.403,226.941,38.964,226.707,38.847z M227.059,42.406l-0.132,0.132c0.117,0.293,0.308,0.439,0.571,0.439l0.22-0.264
		C227.718,42.597,227.498,42.494,227.059,42.406z M227.234,37.748v0.22c0.469,2.227,0.806,3.34,1.011,3.34
		c0.674,0.645,1.26,0.967,1.758,0.967c2.227,0,3.823-0.498,4.79-1.494c0.732-0.674,1.26-1.377,1.582-2.109
		c0.234-0.41,0.352-0.718,0.352-0.923v-0.703c0-0.468-0.352-1.171-1.055-2.109c-1.582-0.703-2.681-1.055-3.296-1.055
		c-1.377,0-2.71,0.601-3.999,1.802C227.615,36.621,227.234,37.309,227.234,37.748z M227.366,48.866c0,0.059,0.469,0.117,1.406,0.176
		c0.381-0.029,0.571-0.088,0.571-0.176c-0.146-0.234-0.322-0.396-0.527-0.483h-0.483C227.688,48.471,227.366,48.632,227.366,48.866z
		 M227.718,35.023l0.176,0.044c0.176,0,0.41-0.19,0.703-0.571V34.32h-0.264C227.923,34.555,227.718,34.789,227.718,35.023z
		 M228.025,42.934l-0.044,0.044v0.352l0.176,0.176h0.747v-0.176C228.406,43.065,228.113,42.934,228.025,42.934z M228.597,49.745
		l-0.22,0.176l0.132,0.132h0.308v-0.22l-0.132-0.088H228.597z M228.772,32.299v0.044c1.025-0.264,1.538-0.483,1.538-0.659V31.64
		h-0.132C229.769,31.64,229.3,31.859,228.772,32.299z M236.111,62.797c-3.604-0.235-5.64-0.439-6.108-0.615l-1.187-0.088v0.088
		c0.381,0.292,0.879,0.483,1.494,0.571l1.318-0.044l0.308,0.22l0.044-0.044h0.088c0.791,0.146,1.626,0.22,2.505,0.22h0.967
		c1.289,0,2.183-0.161,2.681-0.483c1.23-0.439,1.846-0.688,1.846-0.747V61.83C238.25,62.21,236.932,62.533,236.111,62.797z
		 M229.52,43.417l-0.176,0.132c0,0.264,0.483,0.396,1.45,0.396h1.274c0.176,0,0.278-0.059,0.308-0.176
		c-0.615-0.234-1.421-0.352-2.417-0.352H229.52z M229.871,33.222v0.176h0.088l1.318-0.483v-0.22h-0.396
		C230.208,32.841,229.871,33.017,229.871,33.222z M230.398,63.896l-0.22-0.176l-0.044,0.044v0.044l0.176,0.088H230.398z
		 M231.058,64.027h-0.176v0.044c0.029,0.117,0.19,0.176,0.483,0.176h0.483C231.849,64.1,231.585,64.027,231.058,64.027z
		 M232.332,42.582l-0.176,0.176c0,0.059,0.249,0.117,0.747,0.176l0.352-0.044c0-0.117-0.19-0.22-0.571-0.308H232.332z
		 M233.123,47.46l-0.967,0.176v0.044c0,0.264,1.509,0.439,4.526,0.527l0.923,0.308h0.088c0.088,0,0.205-0.044,0.352-0.132
		l1.274,0.044v-0.132c-0.146-0.234-0.483-0.352-1.011-0.352h-0.439c-0.146,0-0.278,0.044-0.396,0.132l-1.055-0.439
		c-0.615-0.117-1.567-0.176-2.856-0.176H233.123z M233.255,42.274v0.132l0.264,0.176h0.176c0.146,0,0.439-0.22,0.879-0.659v-0.088
		h-0.396C233.826,41.835,233.519,41.982,233.255,42.274z M234.617,64.027l-0.088,0.132v0.088c0.029,0.117,0.132,0.176,0.308,0.176
		h0.264l0.571-0.132v-0.132l-0.791-0.132H234.617z M234.793,49.833l-0.22,0.22c0,0.117,0.732,0.22,2.197,0.308
		c1.201,0.352,2.241,0.835,3.12,1.45l0.615,0.044l0.176-0.176v-0.044c-0.205-0.41-1.143-0.864-2.812-1.362
		C236.316,49.98,235.291,49.833,234.793,49.833z M234.969,42.099l-0.176,0.176v0.176h0.088l0.352-0.308v-0.044H234.969z
		 M234.881,49.042h-0.044v0.044c0,0.117,0.352,0.191,1.055,0.22l0.044-0.044v-0.088L234.881,49.042z M235.101,41.747h0.132
		c0.352-0.146,0.63-0.352,0.835-0.615l-0.132-0.176C235.438,41.308,235.159,41.571,235.101,41.747z M235.979,40.736v0.044h0.264
		c0.527,0,0.864-0.6,1.011-1.802v-0.22l-0.044-0.088h-0.132C236.346,39.843,235.979,40.532,235.979,40.736z M236.902,64.071v0.088
		h0.176c0.527-0.088,0.791-0.264,0.791-0.527h-0.176C237.283,63.778,237.02,63.924,236.902,64.071z M237.386,34.628h-0.22v0.044
		c0.205,0.557,0.454,0.835,0.747,0.835c0.088,0,0.132-0.044,0.132-0.132C238.045,35.17,237.825,34.921,237.386,34.628z
		 M238.265,40.561h-0.132l-0.132,0.22v0.044h0.132C238.162,40.824,238.206,40.736,238.265,40.561z M238.133,64.247h0.132
		c0.234,0,0.952-0.352,2.153-1.055v-0.088h-0.176C238.836,63.427,238.133,63.808,238.133,64.247z M239.1,49.042l-0.132,0.176
		l0.132,0.088l0.176-0.044v-0.22H239.1z M239.715,49.657h-0.044c0,0.205,0.337,0.381,1.011,0.527l0.176-0.044v-0.088
		c-0.205-0.264-0.527-0.396-0.967-0.396h-0.132H239.715z M240.154,35.111v0.264h0.088c0.615-0.527,1.04-0.981,1.274-1.362v-0.132
		h-0.044C241.15,33.881,240.711,34.292,240.154,35.111z M240.506,32.475l-0.132,0.132v0.044c0.059,0.088,0.161,0.132,0.308,0.132
		h0.264v-0.088l-0.308-0.22H240.506z M241.033,52.03h-0.176c0,0.147,0.425,0.732,1.274,1.758v0.044h0.088v-0.176
		C241.839,52.573,241.443,52.03,241.033,52.03z M241.385,50.492h-0.308v0.088l1.714,1.538h0.088V52.03
		C242.469,51.21,241.971,50.697,241.385,50.492z M241.912,59.809v0.088l0.132,0.088c0.732-0.205,1.099-0.586,1.099-1.143v-0.308
		h-0.132C242.278,59.09,241.912,59.516,241.912,59.809z M243.978,55.59h-0.22v0.088l0.132,0.176h0.088l0.176-0.176L243.978,55.59z
		 M244.681,56.82v0.088c0,0.264,0.059,0.41,0.176,0.439h0.088c0.234-0.411,0.352-0.85,0.352-1.318l-0.044-0.044h-0.132
		C244.827,56.19,244.681,56.469,244.681,56.82z M244.988,55.282h-0.176v0.088l0.132,0.176l0.044-0.088V55.282z"/>
	<path fill="#FFFFFF" d="M255.315,27.86l0.659-0.176c0.762,0,2.944,0.439,6.548,1.318c1.699,0.791,2.681,1.187,2.944,1.187
		c0.234-0.322,0.352-0.732,0.352-1.23v-0.088v-0.308c0-0.38,0.264-0.571,0.791-0.571c0.352-0.264,0.85-0.396,1.494-0.396
		c0.879,0,1.318,0.103,1.318,0.308l0.396,4.131v1.274c0,1.055-0.146,1.685-0.439,1.89c-0.264,0.264-0.469,0.396-0.615,0.396
		c-1.641-0.146-2.461-0.366-2.461-0.659c-0.205-0.703-0.718-1.215-1.538-1.538c-2.812-1.406-4.834-2.109-6.064-2.109l-1.23-0.088
		c-1.465,0-2.329,0.279-2.593,0.835c-0.352,0.469-0.527,1.099-0.527,1.89v0.044c0,1.611,0.835,2.944,2.505,3.999
		c1.67,0.674,3.12,1.011,4.351,1.011c0,0.235,0.659,0.557,1.978,0.967c0.264,0.439,0.835,0.659,1.714,0.659
		c0.908,0.352,2.212,1.465,3.911,3.34l0.176,0.176v0.176c0,0.059-0.088,0.088-0.264,0.088v0.088c0.41,0.879,0.615,1.392,0.615,1.538
		c0,2.637-0.425,4.292-1.274,4.966c-0.381,0.791-1.187,1.567-2.417,2.329c-1.377,1.259-2.783,1.89-4.219,1.89h-1.538
		c-2.314-0.352-3.472-0.645-3.472-0.879c-1.348-0.938-2.124-1.406-2.329-1.406c-1.436-0.674-2.432-1.377-2.988-2.109h-0.176
		c-0.352,1.026-0.645,1.538-0.879,1.538c-1.846-0.292-2.769-0.615-2.769-0.967c-0.176-0.498-0.278-1.772-0.308-3.823l0.439-2.725
		c0-0.996,0.117-1.494,0.352-1.494l2.812-0.308c0.205,0,0.41,0.806,0.615,2.417l1.23,2.241c0,0.088,1.304,0.967,3.911,2.637
		c0.645,0.732,1.567,1.099,2.769,1.099h1.538c1.553,0,2.607-0.498,3.164-1.494c0.674-0.732,1.172-1.802,1.494-3.208v-0.132
		c0-0.85-0.747-1.918-2.241-3.208c-0.645-0.732-1.465-1.099-2.461-1.099c-0.586-0.264-1.904-0.542-3.955-0.835l-3.516-1.802
		l-1.714-1.45c-0.732-1.113-1.128-1.904-1.187-2.373l0.088-0.747l-0.176-1.67c0-0.41,0.249-0.894,0.747-1.45
		c0-0.352,0.703-1.157,2.109-2.417C254.305,28.827,255.081,28.271,255.315,27.86z M247.625,48.251l0.044,1.099h0.044
		c0.205-0.117,0.308-0.806,0.308-2.065v-0.352l-0.088-0.088h-0.088C247.757,46.845,247.684,47.313,247.625,48.251z M249.031,50.536
		h-0.22v0.176l0.22,0.132l0.176-0.044v-0.088L249.031,50.536z M249.339,44.735h-0.22v0.176l0.088,0.088l0.176-0.088L249.339,44.735z
		 M251.009,33.002l-0.132,0.044c0.059,0.557,0.132,0.952,0.22,1.187h0.132v-0.044l-0.044-1.187H251.009z M251.053,49.042h-0.132
		v0.176c0.439,0.557,0.864,0.835,1.274,0.835h0.088v-0.132C251.639,49.335,251.229,49.042,251.053,49.042z M251.448,31.947h-0.22
		l-0.044,0.308v0.132l0.044,0.088l0.22-0.439V31.947z M252.02,37.133l-0.088,0.132v0.044l0.088,0.088h0.132v-0.132L252.02,37.133z
		 M252.195,33.397l-0.176,0.132v0.132h0.132l0.22-0.176v-0.088H252.195z M252.679,31.464l-0.132,0.044l0.044,0.088v0.044
		l0.176-0.044v-0.132H252.679z M252.811,37.396h-0.044v0.088c0.205,0.645,0.41,0.967,0.615,0.967h0.176l0.22-0.22v-0.044
		C253.396,37.66,253.074,37.396,252.811,37.396z M252.854,32.123v0.044l0.088,0.044h0.176c0.645-0.468,0.967-0.85,0.967-1.143
		h-0.044h-0.088C253.631,31.068,253.265,31.42,252.854,32.123z M254.041,37.001l-0.088,0.044v0.088l0.088,0.132h0.439v-0.132
		C254.451,37.045,254.305,37.001,254.041,37.001z M255.008,37.396l-0.088,0.088v0.264l0.264,0.264h0.132l0.132-0.088v-0.22
		C255.33,37.5,255.184,37.396,255.008,37.396z M255.052,39.726h-0.044c0,0.205,0.19,0.367,0.571,0.483l0.088-0.044
		C255.667,40.019,255.462,39.873,255.052,39.726z M256.59,52.997l-1.274-0.088v0.088c0,0.117,0.381,0.264,1.143,0.439l0.176,0.176
		h0.22C256.795,53.202,256.707,52.997,256.59,52.997z M255.755,28.3v0.176c0,0.117,0.19,0.22,0.571,0.308
		c0.791-0.059,1.187-0.161,1.187-0.308V28.3c0-0.205-0.41-0.308-1.23-0.308C256.048,27.992,255.872,28.095,255.755,28.3z
		 M256.414,38.451l-0.088,0.088v0.044c0.381,0.352,0.952,0.659,1.714,0.923l0.088-0.132
		C258.128,39.198,257.557,38.891,256.414,38.451z M256.985,30.233c0.117,0.117,0.264,0.176,0.439,0.176
		c0.293,0,0.601-0.161,0.923-0.483l-0.22-0.176h-0.483C257.205,29.75,256.985,29.911,256.985,30.233z M257.645,54.096h-0.088
		l0.176,0.22h0.352v-0.044C258.055,54.155,257.908,54.096,257.645,54.096z M258.04,53.612l-0.132-0.132v0.176h0.132V53.612z
		 M258.523,54.359c0.41,0.234,0.967,0.352,1.67,0.352h0.088l1.89-0.088v-0.088c-0.088-0.235-1.099-0.352-3.032-0.352
		C258.729,54.184,258.523,54.242,258.523,54.359z M259.007,30.761l-0.176,0.176c0,0.205,0.527,0.337,1.582,0.396V31.2
		c0-0.117-0.439-0.264-1.318-0.439H259.007z M258.831,39.55c0,0.117,1.04,0.425,3.12,0.923l0.571,0.044h0.132v-0.044
		c-0.879-0.674-1.948-1.069-3.208-1.187C259.036,39.433,258.831,39.521,258.831,39.55z M259.358,40.824V41l0.747,0.264h0.483v-0.132
		C260.062,40.927,259.651,40.824,259.358,40.824z M262.742,54.096l-0.088,0.088v0.132l0.088,0.088h0.176
		c0.557-0.029,0.835-0.103,0.835-0.22l-0.132-0.088H262.742z M262.962,30.189v0.044c0,0.088,0.176,0.147,0.527,0.176h0.132v-0.044
		C263.621,30.307,263.401,30.249,262.962,30.189z M263.489,31.815l-0.044,0.044v0.088c0.908,0.527,1.479,0.791,1.714,0.791v-0.044
		C265.159,32.519,264.603,32.226,263.489,31.815z M264.061,41.439h-0.396v0.132c0.176,0.176,0.952,0.615,2.329,1.318
		c0.586,0.527,1.04,0.791,1.362,0.791h0.044l0.088-0.132C266.814,42.67,265.672,41.967,264.061,41.439z M264.676,50.624V50.8h0.088
		c0.264-0.176,0.483-0.424,0.659-0.747l-0.088-0.132C265.101,50.068,264.881,50.302,264.676,50.624z M265.159,44.12h-0.044v0.22
		c0,0.293,0.249,0.645,0.747,1.055h0.264v-0.352C266.126,44.691,265.804,44.384,265.159,44.12z M267.049,51.02l-1.494,1.23v0.088
		c0,0.059,0.059,0.088,0.176,0.088c0.352,0,0.835-0.468,1.45-1.406H267.049z M265.73,31.376l-0.088,0.088
		c0.41,0.323,0.879,0.542,1.406,0.659l0.044-0.088v-0.088c0-0.146-0.425-0.336-1.274-0.571H265.73z M265.95,47.548h-0.22v0.22
		l0.132,0.044l0.132-0.132L265.95,47.548z M266.917,34.54l-0.176,0.088c0.234,0.147,0.659,0.22,1.274,0.22l0.879-0.044v-0.176
		c-0.527-0.059-1.069-0.088-1.626-0.088H266.917z M267.225,28.212V28.3c0.322,0.527,0.601,0.791,0.835,0.791s0.41-0.146,0.527-0.439
		v-0.176C268.587,28.3,268.133,28.212,267.225,28.212z M268.455,47.548l-0.352,0.352v0.22l0.088,0.132h0.132
		c0.176-0.029,0.264-0.264,0.264-0.703H268.455z M268.763,29.574l-0.132,0.176l0.132,0.088h0.22v-0.264H268.763z"/>
	<path fill="#FFFFFF" d="M275.311,48.075c0.908,0.117,1.538,0.337,1.89,0.659c0.117,0.235,0.176,0.499,0.176,0.791v0.615
		c0,1.202-0.688,2.358-2.065,3.472l-0.571,0.176c-0.557,0-1.128-0.835-1.714-2.505v-0.176c0-1.289,0.19-2.08,0.571-2.373
		C274.446,48.295,275.018,48.075,275.311,48.075z M273.904,50.009c0.059,0.762,0.161,1.143,0.308,1.143
		c0.059-0.059,0.19-0.571,0.396-1.538l0.132-0.308v-0.132h-0.044C274.168,49.35,273.904,49.628,273.904,50.009z M275.75,51.723
		l-1.626,0.176c0,0.235,0.088,0.367,0.264,0.396h0.483c0.352,0,0.645-0.161,0.879-0.483V51.723z M275.091,50.272v0.088
		c0,0.293,0.059,0.455,0.176,0.483h0.044c0.117,0,0.293-0.308,0.527-0.923v-0.264l-0.132-0.044h-0.132
		C275.252,49.613,275.091,49.833,275.091,50.272z M276.365,50.844l0.044,0.088h0.22l0.044-0.308v-0.132h-0.044
		C276.541,50.492,276.453,50.609,276.365,50.844z"/>
	<path fill="#FFFFFF" d="M284.275,48.075c0.908,0.117,1.538,0.337,1.89,0.659c0.117,0.235,0.176,0.499,0.176,0.791v0.615
		c0,1.202-0.688,2.358-2.065,3.472l-0.571,0.176c-0.557,0-1.128-0.835-1.714-2.505v-0.176c0-1.289,0.19-2.08,0.571-2.373
		C283.411,48.295,283.982,48.075,284.275,48.075z M282.869,50.009c0.059,0.762,0.161,1.143,0.308,1.143
		c0.059-0.059,0.19-0.571,0.396-1.538l0.132-0.308v-0.132h-0.044C283.133,49.35,282.869,49.628,282.869,50.009z M284.715,51.723
		l-1.626,0.176c0,0.235,0.088,0.367,0.264,0.396h0.483c0.352,0,0.645-0.161,0.879-0.483V51.723z M284.056,50.272v0.088
		c0,0.293,0.059,0.455,0.176,0.483h0.044c0.117,0,0.293-0.308,0.527-0.923v-0.264l-0.132-0.044h-0.132
		C284.217,49.613,284.056,49.833,284.056,50.272z M285.33,50.844l0.044,0.088h0.22l0.044-0.308v-0.132h-0.044
		C285.506,50.492,285.418,50.609,285.33,50.844z"/>
	<path fill="#FFFFFF" d="M293.24,48.075c0.908,0.117,1.538,0.337,1.89,0.659c0.117,0.235,0.176,0.499,0.176,0.791v0.615
		c0,1.202-0.688,2.358-2.065,3.472l-0.571,0.176c-0.557,0-1.128-0.835-1.714-2.505v-0.176c0-1.289,0.19-2.08,0.571-2.373
		C292.376,48.295,292.947,48.075,293.24,48.075z M291.834,50.009c0.059,0.762,0.161,1.143,0.308,1.143
		c0.059-0.059,0.19-0.571,0.396-1.538l0.132-0.308v-0.132h-0.044C292.098,49.35,291.834,49.628,291.834,50.009z M293.68,51.723
		l-1.626,0.176c0,0.235,0.088,0.367,0.264,0.396h0.483c0.352,0,0.645-0.161,0.879-0.483V51.723z M293.021,50.272v0.088
		c0,0.293,0.059,0.455,0.176,0.483h0.044c0.117,0,0.293-0.308,0.527-0.923v-0.264l-0.132-0.044h-0.132
		C293.182,49.613,293.021,49.833,293.021,50.272z M294.295,50.844l0.044,0.088h0.22l0.044-0.308v-0.132h-0.044
		C294.471,50.492,294.383,50.609,294.295,50.844z"/>
</g>
<g>
	<path fill="#FFFFFF" d="M207.673,78.058l0.711,0.203h0.229c0.965,0.474,1.862,1.041,2.691,1.701
		c0.863,0.745,1.295,1.304,1.295,1.676h-0.051c-0.136-0.237-0.271-0.355-0.406-0.355h-0.025c-0.051,0-0.076,0.034-0.076,0.102
		c0.067,0.187,0.22,0.508,0.457,0.965h0.051c0.034,0,0.076-0.085,0.127-0.254h0.025c0.051,0.017,0.11,0.263,0.178,0.736l0.229,0.508
		l-0.051,0.33l0.076,0.914c-0.118,0.423-0.229,0.981-0.33,1.676c-0.067,0.321-0.854,1.523-2.361,3.605
		c-0.677,0.644-1.337,0.965-1.98,0.965c-0.593,0.067-1.261,0.102-2.006,0.102h-0.482c-0.288,0-1.041-0.245-2.26-0.736
		c-1.54-1.371-2.311-2.421-2.311-3.148c-0.22-0.457-0.406-0.88-0.559-1.27c0-0.22,0.229-0.948,0.686-2.184
		c0-0.778,0.187-1.32,0.559-1.625c0.796-1.71,1.803-2.818,3.021-3.326C206.175,78.252,207.029,78.058,207.673,78.058z
		 M201.249,85.548l-0.051,0.076c0.017,0.152,0.042,0.229,0.076,0.229l0.051-0.025V85.7l-0.051-0.152H201.249z M201.884,86.741
		l-0.102,0.076v0.178c0.034,0.575,0.194,0.897,0.482,0.965l0.025-0.025v-0.025C202.172,87.131,202.036,86.741,201.884,86.741z
		 M202.036,82.806c0.085,0,0.161-0.06,0.229-0.178v-0.051C202.112,82.577,202.036,82.653,202.036,82.806z M202.544,81.942h0.025
		c0.067-0.017,0.102-0.085,0.102-0.203h-0.051C202.569,81.773,202.544,81.841,202.544,81.942z M202.696,84.989l-0.102,0.102v0.051
		h0.076l0.051-0.076v-0.076H202.696z M202.823,88.417l-0.102,0.051v0.051l0.203,0.203h0.102
		C203.026,88.604,202.959,88.502,202.823,88.417z M203.103,86.03v0.152c0.237,0.457,0.499,0.948,0.787,1.473
		c0,0.169,0.321,0.406,0.965,0.711c0.305,0.355,0.872,0.635,1.701,0.838l0.457,0.051c0.745-0.152,1.304-0.313,1.676-0.482
		l0.914-0.762c0.948-1.016,1.405-1.87,1.371-2.564v-0.229c-0.102-0.271-0.152-0.711-0.152-1.32c0-0.474,0.034-0.847,0.102-1.117
		c0-0.118-0.33-0.415-0.99-0.889c-0.474-0.677-0.965-1.092-1.473-1.244h-0.305c-1.98,0.085-2.971,0.245-2.971,0.482
		c-0.44,0.44-0.745,0.872-0.914,1.295c-0.542,0.575-0.812,0.956-0.812,1.143C203.306,84.262,203.188,85.082,203.103,86.03z
		 M203.356,89.306h-0.178v0.102c0.22,0.22,0.618,0.33,1.193,0.33h0.279C204.566,89.619,204.135,89.475,203.356,89.306z
		 M203.56,81.765v0.178h0.076c0.22-0.203,0.33-0.364,0.33-0.482v-0.025h-0.127C203.737,81.502,203.645,81.612,203.56,81.765z
		 M203.89,79.886l-0.076,0.127v0.102c0.102,0,0.618-0.355,1.549-1.066l0.203-0.076l0.152,0.025c1.134-0.118,1.701-0.229,1.701-0.33
		v-0.025l-0.406-0.076C205.861,78.565,204.82,79.006,203.89,79.886z M204.093,80.444c0.152,0,0.296-0.102,0.432-0.305v-0.076
		C204.236,80.148,204.093,80.275,204.093,80.444z M204.194,81.155h-0.102v0.102h0.051l0.051-0.051V81.155z M204.55,89.991v0.025
		h0.33l0.051-0.051l-0.051-0.076h-0.051C204.66,89.89,204.566,89.924,204.55,89.991z M205.083,89.636v0.076
		c0,0.102,0.237,0.152,0.711,0.152l0.025-0.025v-0.051C205.6,89.687,205.354,89.636,205.083,89.636z M205.819,79.556v0.127
		c1.32-0.152,1.98-0.254,1.98-0.305l-0.203-0.076h-0.025C206.759,79.302,206.175,79.387,205.819,79.556z M205.87,80.419v0.025
		l0.051,0.076h0.355l1.803-0.406v-0.051l-0.482-0.102C206.445,80.098,205.87,80.25,205.87,80.419z M207.546,90.245v0.051
		c0,0.051,0.127,0.093,0.381,0.127c0.288,0,0.432-0.042,0.432-0.127v-0.051c-0.017-0.067-0.076-0.136-0.178-0.203h-0.229
		C207.766,90.042,207.631,90.109,207.546,90.245z M207.978,78.591c0.085,0.237,0.271,0.355,0.559,0.355l0.254,0.025l0.051-0.025
		v-0.127c0-0.187-0.178-0.296-0.533-0.33C208.088,78.506,207.978,78.54,207.978,78.591z M208.028,79.683v0.025l0.254-0.203
		l-0.051-0.025C208.062,79.581,207.994,79.648,208.028,79.683z M208.46,79.429l-0.051,0.025c0.321,0.254,0.575,0.381,0.762,0.381
		l0.025-0.051v-0.025C208.926,79.539,208.68,79.429,208.46,79.429z M208.917,90.423h0.025c0.305-0.102,0.457-0.187,0.457-0.254
		l-0.051-0.051C209.111,90.203,208.968,90.305,208.917,90.423z M209.298,80.597c0.102,0.169,0.22,0.254,0.355,0.254l0.025-0.051
		v-0.051c0-0.152-0.067-0.229-0.203-0.229C209.357,80.537,209.298,80.562,209.298,80.597z M209.755,79.149l-0.076,0.076
		c0.187,0.237,0.372,0.355,0.559,0.355c0-0.187-0.144-0.33-0.432-0.432H209.755z M210.136,80.267v0.051
		c0.051,0.203,0.288,0.415,0.711,0.635h0.076l0.051-0.076v-0.025C210.889,80.732,210.609,80.537,210.136,80.267z M210.694,81.054
		h-0.102c0.102,0.22,0.347,0.406,0.736,0.559h0.102l0.076-0.076v-0.025C211.219,81.206,210.948,81.054,210.694,81.054z
		 M211.761,87.274V87.3c0.136,0,0.254-0.136,0.355-0.406v-0.051h-0.076C211.938,86.843,211.846,86.986,211.761,87.274z
		 M212.167,86.817h0.127l0.102,0.076c0.017-0.271-0.025-0.39-0.127-0.355h-0.051l-0.025-0.178L212.167,86.817z M212.37,85.421
		c0.017,0.508,0.06,0.778,0.127,0.812h0.051c0-0.187,0.076-0.39,0.229-0.609v-0.076l-0.279-0.381h-0.051
		C212.412,85.167,212.387,85.252,212.37,85.421z M212.776,83.618l-0.076,0.076v0.102l0.076,0.102l0.102-0.102v-0.102l-0.076-0.076
		H212.776z"/>
	<path fill="#FFFFFF" d="M220.546,72.853l0.102-0.025c0.474,0.034,1.278,0.254,2.412,0.66c0.102,0.102,0.212,0.152,0.33,0.152
		l0.152-0.076l1.193,1.549c0.271,0.39,0.406,0.694,0.406,0.914c0.169,0.491,0.254,0.974,0.254,1.447c0,0.44-0.305,0.66-0.914,0.66
		c-0.152,0-0.432-0.067-0.838-0.203c-0.034,0-0.093,0.093-0.178,0.279h-0.076c-0.085,0-0.212-0.33-0.381-0.99
		c-0.491-1.388-0.762-2.091-0.812-2.107c-0.237-0.136-0.728-0.203-1.473-0.203h-0.076l-1.93,0.482
		c-0.474,0.321-0.711,0.533-0.711,0.635c0,2.302,0.085,3.453,0.254,3.453c0.39,0.271,1.134,0.406,2.234,0.406
		c0.203,0.051,0.305,0.136,0.305,0.254c0.321,0.271,0.482,0.559,0.482,0.863c0,0.711-0.517,1.066-1.549,1.066h-0.051
		c-0.254,0-0.542-0.093-0.863-0.279l-0.152-0.025c-0.339,0.034-0.508,0.085-0.508,0.152v3.453c0,0.457,0.042,0.981,0.127,1.574
		l-0.051,0.736v0.686c0,0.118,0.499,0.254,1.498,0.406c0.897,0,1.431,0.085,1.6,0.254l0.102,0.076c-0.102,0-0.212,0.491-0.33,1.473
		l-1.041-0.152l-0.33,0.051c-1.168-0.169-2.116-0.254-2.844-0.254l-2.082,0.051c-0.067-0.067-0.102-0.194-0.102-0.381v-0.559
		c0-0.542-0.034-0.914-0.102-1.117c0-0.118,0.144-0.178,0.432-0.178c0.169,0,0.499,0.076,0.99,0.229h0.381
		c0.169,0,0.279-0.051,0.33-0.152v-0.051c-0.152-0.372-0.229-0.99-0.229-1.854c-0.102-0.406-0.152-0.753-0.152-1.041v-0.051
		c0-0.423,0.118-1.489,0.355-3.199c0-0.051-0.152-0.093-0.457-0.127h-0.102c-0.711,0.22-1.32,0.33-1.828,0.33l-0.381-0.076
		c0.085-1.574,0.187-2.361,0.305-2.361c0.017-0.051,0.085-0.076,0.203-0.076h0.127c1.304-0.034,1.955-0.085,1.955-0.152
		c0-0.847-0.009-1.608-0.025-2.285s-0.025-1.024-0.025-1.041v-0.102l-0.152-0.457c0.237-0.423,0.474-0.753,0.711-0.99l1.193-1.244
		C218.93,73.014,219.699,72.853,220.546,72.853z M214.351,80.038v0.102l0.076,0.051h0.127c0.102-0.017,0.178-0.093,0.229-0.229
		l-0.076-0.076h-0.102C214.486,79.886,214.401,79.937,214.351,80.038z M214.604,81.282c-0.102,0.152-0.152,0.279-0.152,0.381v0.102
		l0.051,0.051h0.279l0.051-0.051C214.833,81.578,214.757,81.418,214.604,81.282z M215.442,89.483l-0.051,0.051v0.025
		c0,0.118,0.347,0.194,1.041,0.229l0.051-0.051c-0.22-0.169-0.508-0.254-0.863-0.254H215.442z M215.595,80.14l-0.127,0.102v0.051
		c0,0.118,0.051,0.203,0.152,0.254c0.118,0,0.271-0.067,0.457-0.203c0-0.051-0.152-0.118-0.457-0.203H215.595z M215.544,88.417
		h-0.076v0.102c0,0.067,0.136,0.11,0.406,0.127l0.279-0.051v-0.025C215.883,88.468,215.68,88.417,215.544,88.417z M215.671,81.003
		l-0.051,0.076v0.051l0.152,0.025h0.076l0.025-0.076C215.874,81.062,215.807,81.037,215.671,81.003z M216.28,81.409l-0.051,0.076
		v0.025h0.305l0.076-0.076v-0.025H216.28z M216.788,89.483v0.051c0.152,0.169,0.296,0.254,0.432,0.254h0.178v-0.051
		C217.178,89.568,216.975,89.483,216.788,89.483z M217.118,84.202l0.102,0.279l-0.051,0.33c0.051,0.542,0.118,0.812,0.203,0.812
		h0.025c0.085,0,0.136-0.305,0.152-0.914v-0.127c0-0.339-0.102-0.508-0.305-0.508h-0.076
		C217.135,84.075,217.118,84.117,217.118,84.202z M217.296,82.171h-0.051l-0.076,0.711l0.051,0.432h0.025l0.051-0.406V82.171z
		 M217.296,87.528h-0.051c-0.017,0.118-0.025,0.372-0.025,0.762v0.025h0.127l0.102-0.102v-0.33
		C217.397,87.646,217.347,87.528,217.296,87.528z M217.372,86.843h-0.127v0.102l0.102,0.051h0.051L217.372,86.843z M217.397,80.774
		h-0.025v0.203l0.076,0.051v-0.025v-0.178L217.397,80.774z M217.499,83.745l-0.102-0.025l-0.025,0.025v0.051l0.025,0.152h0.102
		V83.745z M217.55,83.313h-0.102v0.127v0.102l0.102-0.102V83.313z M217.601,82.856h-0.076v0.076h0.076V82.856z M218.134,89.737
		h-0.381v0.051c0,0.102,0.161,0.161,0.482,0.178h0.406l0.076-0.076C218.718,89.788,218.523,89.737,218.134,89.737z M218.591,73.843
		c0.626,0,1.092-0.127,1.396-0.381v-0.076h-0.051C219.445,73.386,218.997,73.538,218.591,73.843z M218.718,80.444h-0.127v0.076
		c0.067,0.118,0.194,0.178,0.381,0.178h0.152v-0.076C219.057,80.504,218.921,80.444,218.718,80.444z M219.987,80.749h-0.076V80.8
		h0.076V80.749z M219.962,81.409l0.102,0.025c0.491-0.085,0.736-0.178,0.736-0.279v-0.076h-0.152
		C220.19,81.13,219.962,81.24,219.962,81.409z M220.089,89.204v0.051l0.229,0.025c0.339-0.034,0.508-0.076,0.508-0.127l-0.025-0.051
		h-0.457C220.174,89.103,220.089,89.137,220.089,89.204z M220.267,74.528l-0.076,0.076v0.025h0.076l0.076-0.051v-0.051H220.267z
		 M220.647,89.712l-0.102,0.076v0.051l0.178,0.203h0.076l0.051-0.076v-0.178l-0.102-0.076H220.647z M220.8,73.843l-0.229,0.051
		v0.051c0.034,0.051,0.093,0.076,0.178,0.076h0.355l0.076-0.051C221.181,73.885,221.054,73.843,220.8,73.843z M222.425,73.792
		c0.288,0.339,0.55,0.508,0.787,0.508v-0.178c-0.203-0.271-0.44-0.406-0.711-0.406h-0.025
		C222.441,73.716,222.425,73.741,222.425,73.792z M223.06,75.798h-0.051v0.051c0,0.22,0.085,0.423,0.254,0.609h0.102l0.025-0.178
		C223.373,75.959,223.263,75.798,223.06,75.798z M223.567,77.397l0.076,0.025h0.102l0.025-0.127v-0.305h-0.025
		C223.627,77.093,223.567,77.229,223.567,77.397z"/>
	<path fill="#FFFFFF" d="M235.323,76.306l3.148-0.076c0.271,0,0.838,0.118,1.701,0.355c0.981,0.931,1.565,1.659,1.752,2.184
		c0.372,0.39,0.669,1.159,0.889,2.311c0.271,0.271,0.406,0.872,0.406,1.803l0.025,0.635l-0.102,2.514
		c0,0.508,0.313,1.134,0.939,1.879c0.575,0.559,0.948,0.838,1.117,0.838v0.051c0,0.203-0.296,0.524-0.889,0.965
		c-0.44,0.44-0.72,0.66-0.838,0.66h-0.025c-0.271-0.034-0.956-0.533-2.057-1.498c-1.997,0.778-3.005,1.177-3.021,1.193
		c-0.66,0.203-1.396,0.305-2.209,0.305h-0.127c-0.914-0.152-1.692-0.508-2.336-1.066c-0.118-0.102-0.364-0.524-0.736-1.27
		c-0.305-0.372-0.457-0.829-0.457-1.371v-0.736c0-0.474,0.127-0.914,0.381-1.32c0.22-0.694,0.601-1.354,1.143-1.98
		c0.271-0.321,0.542-0.524,0.812-0.609c0.88-0.474,1.752-0.711,2.615-0.711l1.143-0.025h0.152c0.644,0,1.101,0.093,1.371,0.279
		h0.152c0.085,0,0.127-0.034,0.127-0.102c-0.187-0.796-0.491-1.558-0.914-2.285c-0.372-0.626-1.066-0.939-2.082-0.939l-1.041-0.152
		c-0.897,0.187-1.346,0.372-1.346,0.559c-0.355,0.457-0.567,1.024-0.635,1.701c-0.034,0.085-0.339,0.127-0.914,0.127l-0.152,0.051
		c-0.067,0-0.152,0.144-0.254,0.432c-0.474-0.067-0.711-0.169-0.711-0.305c0.034-0.102,0.093-0.711,0.178-1.828
		c0.271-0.778,0.914-1.498,1.93-2.158C234.934,76.441,235.222,76.306,235.323,76.306z M233.546,79.759l-0.076,0.051v0.381h0.025
		c0.067-0.017,0.102-0.076,0.102-0.178V79.81L233.546,79.759z M233.749,77.88v0.051h0.025c0.152,0,0.381-0.161,0.686-0.482v-0.076
		h-0.025C234.266,77.372,234.037,77.541,233.749,77.88z M234.13,88.062l-0.051,0.051v0.025l0.051,0.051h0.127v-0.051l-0.076-0.076
		H234.13z M234.206,89.382l-0.076,0.102c0.067,0.152,0.491,0.347,1.27,0.584c0.254,0.118,0.593,0.178,1.016,0.178V90.22
		c0-0.051-0.321-0.144-0.965-0.279c-0.372-0.102-0.762-0.288-1.168-0.559H234.206z M234.739,82.831l-0.279,0.127v0.127h0.051
		c0.118,0,0.203-0.067,0.254-0.203v-0.051H234.739z M234.46,85.243c0.118,1.016,0.263,1.523,0.432,1.523l0.254,0.33v0.025
		l-0.229-0.025v0.076c0.321,0.44,0.981,0.847,1.98,1.219c0.118,0.067,0.288,0.118,0.508,0.152c0.305,0,1.473-0.499,3.504-1.498
		c0.136-0.085,0.203-0.178,0.203-0.279V86.64c-0.152-0.694-0.279-1.507-0.381-2.438l-0.051-0.025c0-0.187-0.187-0.339-0.559-0.457
		c-1.253-0.355-2.107-0.533-2.564-0.533c-1.286,0.288-2.167,0.72-2.641,1.295C234.612,84.786,234.46,85.04,234.46,85.243z
		 M236.034,77.067v0.076c0.017,0.051,0.102,0.076,0.254,0.076s0.364-0.051,0.635-0.152v-0.102h-0.102
		C236.449,76.966,236.187,77,236.034,77.067z M236.974,89.026l-0.076,0.076c0.034,0.085,0.102,0.127,0.203,0.127
		c0.187-0.034,0.279-0.076,0.279-0.127v-0.025l-0.076-0.051H236.974z M237.278,77.702l-0.127,0.102l0.076,0.127h0.33l0.076-0.076
		l-0.152-0.152H237.278z M238.167,76.737l-0.051,0.076l0.076,0.102h0.152l0.025-0.051l-0.076-0.127H238.167z M239.005,88.747v0.051
		h0.102c0.237,0,0.55-0.102,0.939-0.305v-0.025h-0.102C239.369,88.535,239.056,88.629,239.005,88.747z M240.097,76.94h-0.051v0.051
		c0.136,0.136,0.254,0.203,0.355,0.203h0.025v-0.051C240.291,77.008,240.182,76.94,240.097,76.94z M241.315,85.599l-0.025,0.025
		v0.152l0.076,0.102h0.025l0.102-0.102v-0.152l-0.076-0.025H241.315z M241.392,84.71l-0.076,0.076l0.076,0.102l0.102-0.025v-0.076
		l-0.076-0.076H241.392z M242.103,83.593l-0.076-0.051v0.076h0.076V83.593z M242.204,84.075h-0.152v0.102l0.076,0.076l0.076-0.076
		V84.075z M242.179,82.679l-0.076,0.051v0.076c0.067,0.254,0.136,0.381,0.203,0.381h0.051c0-0.22-0.051-0.39-0.152-0.508H242.179z
		 M242.306,84.786h-0.076v0.025c0.034,0.644,0.102,0.965,0.203,0.965l0.051-0.051v-0.051
		C242.483,85.319,242.424,85.023,242.306,84.786z M242.687,88.392l-0.076,0.076c0.051,0.118,0.118,0.194,0.203,0.229h0.025
		l0.102-0.102v-0.051l-0.127-0.152H242.687z M242.763,81.79h-0.025v0.051c0.034,0.136,0.067,0.203,0.102,0.203l0.025-0.127
		C242.83,81.832,242.797,81.79,242.763,81.79z M243.245,88.823l-0.051,0.102v0.051l0.102,0.102h0.102l0.076-0.051v-0.051
		l-0.127-0.152H243.245z M243.474,87.985h-0.076v0.152c0.067,0.22,0.144,0.33,0.229,0.33h0.076v-0.076
		C243.635,88.121,243.559,87.985,243.474,87.985z"/>
</g>
<g>
	<path fill="#FFFFFF" d="M257.017,64.833l2.857-0.445h0.111c0.445,0,1.373,0.148,2.783,0.445c1.855,0,4.305,0.508,7.348,1.521
		c1.311,1.015,2.312,2.227,3.006,3.637c0.247,0.768,0.371,1.534,0.371,2.301v0.074c0,1.113-0.458,2.351-1.373,3.711
		c-0.52,0.668-1.312,1.287-2.375,1.855c-0.272,0.272-0.866,0.668-1.781,1.188c-0.396,0.322-0.594,0.545-0.594,0.668
		c2.127,3.093,3.55,5.097,4.268,6.012c0.692,1.188,1.336,1.781,1.93,1.781c1.88,0.1,2.82,0.371,2.82,0.816l0.297,1.744
		c-0.05,0.123-0.148,0.186-0.297,0.186h-0.297l-2.041,0.482c-0.198-0.272-0.978-0.408-2.338-0.408c-1.336,0-2.004-0.074-2.004-0.223
		c-0.025-0.371-0.137-0.878-0.334-1.521l-0.037-0.26v-0.148c0-0.223-0.347-0.791-1.039-1.707c-0.124-0.544-0.26-0.865-0.408-0.965
		c-0.569-0.791-1.41-2.387-2.523-4.787c-0.272-0.271-0.495-0.408-0.668-0.408l-2.301,0.52c-1.064,0-1.596,0.322-1.596,0.965v0.631
		c0,3.143,0.234,4.713,0.705,4.713l0.482,0.037h0.408l0.891-0.186c0.148,0.322,0.223,0.854,0.223,1.596l-0.148,0.371l0.037,0.668
		c0,0.223-0.866,0.457-2.598,0.705l-0.111-0.074l-2.895-0.074h-2.078c-0.248,0-0.371-0.309-0.371-0.928v-0.631
		c0-0.939,0.223-1.41,0.668-1.41l1.67-0.371l0.074-0.557c-0.174-5.393-0.359-8.931-0.557-10.613c-0.025-5.418-0.1-8.127-0.223-8.127
		l-0.148-0.074l-2.523,0.482l-0.148-0.037l0.074-0.334h-0.445v-0.111h-0.074l0.074-0.445v-0.223c0-0.148-0.1-0.396-0.297-0.742
		c0.346-0.049,0.52-0.148,0.52-0.297l-0.223-0.297C253.788,65.365,254.864,65.13,257.017,64.833z M254.233,67.06v0.148l0.111,0.037
		c0.173,0,0.321-0.099,0.445-0.297v-0.186l-0.148-0.148h-0.223C254.319,66.614,254.258,66.763,254.233,67.06z M257.907,67.542
		l-0.111,0.111v0.816l0.186,2.041h0.037l0.223-2.895l-0.074-0.074H257.907z M258.019,72.515h-0.111v0.111l0.111,0.074h0.074v-0.074
		L258.019,72.515z M258.946,70.771l-0.26,2.486l0.111,0.111h0.148l0.111-0.148v-1.967C259.058,70.932,259.021,70.771,258.946,70.771
		z M258.835,76.226l-0.111,0.148v0.037l0.111,0.111l0.111-0.111v-0.037L258.835,76.226z M258.946,85.8l-0.148,0.148v0.371h0.148
		l0.074-0.371l-0.037-0.148H258.946z M259.058,87.321h-0.074l-0.074,0.631v0.037h0.148l0.148-0.111v-0.148
		C259.206,87.482,259.156,87.347,259.058,87.321z M259.763,87.952v0.037l0.148,0.148h0.074c0.099,0,0.173-0.173,0.223-0.52V87.47
		l-0.074-0.223h-0.111C259.923,87.247,259.837,87.482,259.763,87.952z M260.022,69.546l-0.037,0.148v0.148
		c0.024,0.174,0.062,0.26,0.111,0.26l0.111-0.111v-0.297l-0.111-0.148H260.022z M260.208,65.093l-0.111,0.111l0.111,0.111h0.631
		v-0.111l-0.482-0.111H260.208z M260.468,67.468v0.297l0.297,2.375c-0.148,2.573-0.272,3.959-0.371,4.156l-0.186,0.26v0.445
		l0.26,1.893c0,0.891,0.123,1.336,0.371,1.336h0.074c1.88-0.247,2.82-0.47,2.82-0.668c1.262-0.47,2.152-0.854,2.672-1.15
		c1.088,0,2.399-0.767,3.934-2.301c0.42-0.841,0.631-1.62,0.631-2.338v-0.408c0-0.247-0.347-0.902-1.039-1.967
		c-1.262-1.435-2.462-2.152-3.6-2.152l-1.262-0.074C263.09,67.369,261.556,67.468,260.468,67.468z M260.394,66.206
		c0,0.1,0.099,0.148,0.297,0.148h0.074c0.668-0.024,1.026-0.099,1.076-0.223l-0.111-0.111h-0.742
		C260.591,66.046,260.394,66.107,260.394,66.206z M262.472,89.214l0.074,0.037h0.148l0.148-0.111v-0.074l-0.074-0.111
		C262.57,88.954,262.472,89.041,262.472,89.214z M262.694,88.212l-0.037,0.037v0.148h0.037l0.111-0.148v-0.037H262.694z
		 M263.288,78.526v0.037h0.111c0.396,0,0.594-0.062,0.594-0.186v-0.074h-0.111C263.758,78.304,263.56,78.378,263.288,78.526z
		 M263.474,66.503l0.148,0.074h0.371c0.223,0,0.358-0.062,0.408-0.186c0-0.099-0.148-0.148-0.445-0.148
		C263.708,66.243,263.548,66.33,263.474,66.503z M264.661,78.229v0.037h0.26c0.346-0.049,0.52-0.099,0.52-0.148l-0.074-0.074h-0.074
		C264.871,78.094,264.661,78.155,264.661,78.229z M265.737,78.86l0.074,0.037h0.037c0.618-0.148,0.928-0.284,0.928-0.408
		l-0.037-0.074h-0.037C266.183,78.515,265.86,78.663,265.737,78.86z M266.331,77.599v0.111c0.692-0.148,1.15-0.383,1.373-0.705
		v-0.037h-0.074C266.912,77.19,266.479,77.401,266.331,77.599z M266.517,81.087v0.037c0,0.198,0.099,0.371,0.297,0.52h0.148v-0.074
		C266.788,81.248,266.64,81.087,266.517,81.087z M268.038,66.503l-0.074,0.037v0.037c0.099,0.1,0.234,0.148,0.408,0.148v-0.037
		C268.372,66.64,268.261,66.577,268.038,66.503z M268.038,76.634v0.111h0.334c0.123-0.148,0.396-0.321,0.816-0.52l0.037-0.037
		v-0.111C268.879,76.077,268.483,76.263,268.038,76.634z M268.669,77.562l0.037,0.037h0.037l0.26-0.148v-0.111h-0.037
		C268.792,77.389,268.693,77.463,268.669,77.562z M269.226,67.022v0.037c0.47,0.322,1.051,0.742,1.744,1.262h0.111v-0.186
		C271.081,67.765,270.462,67.394,269.226,67.022z M269.374,76.968l-0.111,0.074v0.074h0.186v-0.148H269.374z M269.819,68.247
		l-0.074,0.111l0.186,0.186h0.111V68.47l-0.148-0.223H269.819z M270.116,89.585l-0.074,0.074c0,0.1,0.062,0.148,0.186,0.148
		l0.186-0.074l-0.037-0.148H270.116z M270.376,75.854v0.111h0.148c0.197-0.074,0.297-0.173,0.297-0.297h-0.111
		C270.536,75.669,270.425,75.731,270.376,75.854z M271.378,88.397l-0.148,0.186l0.148,0.186h0.037l0.148-0.186v-0.186H271.378z
		 M271.378,75.483c0.024,0.124,0.111,0.235,0.26,0.334h0.074c0.271-0.223,0.408-0.445,0.408-0.668l-0.074-0.037
		C271.699,75.112,271.477,75.236,271.378,75.483z M272.157,88.88h-0.408v0.037l0.148,0.148h0.631v-0.037
		C272.503,88.93,272.38,88.88,272.157,88.88z M272.009,71.55l-0.111,0.074v0.26l0.111,0.074h0.037l0.111-0.111v-0.148l-0.111-0.148
		H272.009z M272.269,73.628h-0.111v0.186l-0.26,0.557v0.148l0.223,0.26c0.173,0,0.271-0.26,0.297-0.779
		C272.392,73.752,272.343,73.628,272.269,73.628z M274.978,88.583v0.186l0.223,0.037h0.186l0.111-0.111v-0.111l-0.111-0.111h-0.148
		C275.063,88.497,274.978,88.534,274.978,88.583z M275.052,89.585l0.111,0.186h0.482c0.223,0,0.358-0.062,0.408-0.186
		c0-0.099-0.1-0.148-0.297-0.148h-0.408C275.15,89.486,275.052,89.536,275.052,89.585z"/>
	<path fill="#FFFFFF" d="M287.298,72.515l1.039,0.297h0.334c1.41,0.693,2.721,1.521,3.934,2.486
		c1.262,1.089,1.893,1.905,1.893,2.449h-0.074c-0.198-0.346-0.396-0.52-0.594-0.52h-0.037c-0.074,0-0.111,0.05-0.111,0.148
		c0.099,0.272,0.321,0.742,0.668,1.41h0.074c0.049,0,0.111-0.123,0.186-0.371h0.037c0.074,0.025,0.16,0.384,0.26,1.076l0.334,0.742
		l-0.074,0.482l0.111,1.336c-0.174,0.619-0.334,1.436-0.482,2.449c-0.1,0.471-1.25,2.227-3.451,5.27
		c-0.99,0.939-1.955,1.41-2.895,1.41c-0.866,0.099-1.844,0.148-2.932,0.148h-0.705c-0.421,0-1.521-0.359-3.303-1.076
		c-2.252-2.004-3.377-3.537-3.377-4.602c-0.322-0.668-0.594-1.286-0.816-1.855c0-0.321,0.334-1.385,1.002-3.191
		c0-1.138,0.271-1.93,0.816-2.375c1.162-2.498,2.635-4.119,4.416-4.861C285.108,72.8,286.357,72.515,287.298,72.515z
		 M277.909,83.462l-0.074,0.111c0.024,0.223,0.062,0.334,0.111,0.334l0.074-0.037v-0.186l-0.074-0.223H277.909z M278.837,85.206
		l-0.148,0.111v0.26c0.049,0.842,0.284,1.312,0.705,1.41l0.037-0.037v-0.037C279.257,85.775,279.06,85.206,278.837,85.206z
		 M279.06,79.454c0.123,0,0.234-0.086,0.334-0.26V79.12C279.171,79.12,279.06,79.231,279.06,79.454z M279.802,78.192h0.037
		c0.099-0.024,0.148-0.123,0.148-0.297h-0.074C279.839,77.945,279.802,78.044,279.802,78.192z M280.024,82.646l-0.148,0.148v0.074
		h0.111l0.074-0.111v-0.111H280.024z M280.21,87.655l-0.148,0.074v0.074l0.297,0.297h0.148
		C280.507,87.928,280.407,87.779,280.21,87.655z M280.618,84.167v0.223c0.346,0.668,0.729,1.386,1.15,2.152
		c0,0.248,0.47,0.594,1.41,1.039c0.445,0.52,1.273,0.928,2.486,1.225l0.668,0.074c1.088-0.223,1.904-0.457,2.449-0.705l1.336-1.113
		c1.385-1.484,2.053-2.733,2.004-3.748v-0.334c-0.148-0.396-0.223-1.039-0.223-1.93c0-0.692,0.049-1.236,0.148-1.633
		c0-0.173-0.482-0.605-1.447-1.299c-0.693-0.989-1.41-1.596-2.152-1.818h-0.445c-2.895,0.124-4.342,0.359-4.342,0.705
		c-0.644,0.644-1.089,1.274-1.336,1.893c-0.792,0.842-1.188,1.398-1.188,1.67C280.915,81.582,280.741,82.782,280.618,84.167z
		 M280.989,88.954h-0.26v0.148c0.321,0.322,0.902,0.482,1.744,0.482h0.408C282.758,89.412,282.127,89.202,280.989,88.954z
		 M281.286,77.933v0.26h0.111c0.321-0.297,0.482-0.531,0.482-0.705V77.45h-0.186C281.546,77.55,281.409,77.71,281.286,77.933z
		 M281.769,75.187l-0.111,0.186v0.148c0.148,0,0.902-0.52,2.264-1.559l0.297-0.111l0.223,0.037c1.657-0.173,2.486-0.334,2.486-0.482
		v-0.037l-0.594-0.111C284.65,73.257,283.129,73.9,281.769,75.187z M282.065,76.003c0.223,0,0.433-0.148,0.631-0.445v-0.111
		C282.275,75.57,282.065,75.756,282.065,76.003z M282.214,77.042h-0.148v0.148h0.074l0.074-0.074V77.042z M282.733,89.956v0.037
		h0.482l0.074-0.074l-0.074-0.111h-0.074C282.894,89.808,282.758,89.857,282.733,89.956z M283.513,89.437v0.111
		c0,0.148,0.346,0.223,1.039,0.223l0.037-0.037v-0.074C284.267,89.511,283.908,89.437,283.513,89.437z M284.589,74.704v0.186
		c1.93-0.223,2.895-0.371,2.895-0.445l-0.297-0.111h-0.037C285.962,74.333,285.108,74.457,284.589,74.704z M284.663,75.966v0.037
		l0.074,0.111h0.52l2.635-0.594v-0.074l-0.705-0.148C285.504,75.496,284.663,75.719,284.663,75.966z M287.112,90.327v0.074
		c0,0.074,0.186,0.136,0.557,0.186c0.42,0,0.631-0.062,0.631-0.186v-0.074c-0.025-0.1-0.111-0.198-0.26-0.297h-0.334
		C287.434,90.03,287.235,90.129,287.112,90.327z M287.743,73.294c0.123,0.347,0.396,0.52,0.816,0.52l0.371,0.037l0.074-0.037v-0.186
		c0-0.271-0.26-0.433-0.779-0.482C287.903,73.171,287.743,73.22,287.743,73.294z M287.817,74.89v0.037l0.371-0.297l-0.074-0.037
		C287.866,74.741,287.768,74.841,287.817,74.89z M288.448,74.519l-0.074,0.037c0.47,0.371,0.841,0.557,1.113,0.557l0.037-0.074
		v-0.037C289.128,74.68,288.77,74.519,288.448,74.519z M289.116,90.587h0.037c0.445-0.148,0.668-0.272,0.668-0.371l-0.074-0.074
		C289.4,90.265,289.19,90.413,289.116,90.587z M289.673,76.226c0.148,0.248,0.321,0.371,0.52,0.371l0.037-0.074v-0.074
		c0-0.223-0.1-0.334-0.297-0.334C289.759,76.14,289.673,76.177,289.673,76.226z M290.341,74.11l-0.111,0.111
		c0.271,0.347,0.544,0.52,0.816,0.52c0-0.271-0.211-0.482-0.631-0.631H290.341z M290.897,75.743v0.074
		c0.074,0.297,0.42,0.606,1.039,0.928h0.111l0.074-0.111v-0.037C291.998,76.424,291.59,76.14,290.897,75.743z M291.714,76.894
		h-0.148c0.148,0.322,0.507,0.594,1.076,0.816h0.148l0.111-0.111v-0.037C292.48,77.116,292.085,76.894,291.714,76.894z
		 M293.272,85.985v0.037c0.197,0,0.371-0.197,0.52-0.594v-0.074h-0.111C293.532,85.354,293.396,85.565,293.272,85.985z
		 M293.866,85.317h0.186l0.148,0.111c0.024-0.396-0.037-0.568-0.186-0.52h-0.074l-0.037-0.26L293.866,85.317z M294.163,83.276
		c0.024,0.742,0.086,1.139,0.186,1.188h0.074c0-0.271,0.111-0.568,0.334-0.891v-0.111l-0.408-0.557h-0.074
		C294.225,82.905,294.188,83.029,294.163,83.276z M294.757,80.642l-0.111,0.111v0.148l0.111,0.148l0.148-0.148v-0.148l-0.111-0.111
		H294.757z"/>
	<path fill="#FFFFFF" d="M299.581,71.476c1.83,0.223,2.746,0.557,2.746,1.002l0.186,0.223v0.482l0.408,0.445
		c-0.272,0.223-0.408,0.458-0.408,0.705c0.049,0.124,0.136,0.186,0.26,0.186v0.037l-0.223,0.26h-0.297
		c-0.248-0.197-0.445-0.297-0.594-0.297c-1.312,0.074-1.473,1.15-0.482,3.229c0.717,2.499,1.323,4.058,1.818,4.676
		c1.385,3.167,2.325,4.8,2.82,4.898h0.074c0.099,0,0.383-0.605,0.854-1.818c0.915-1.657,1.645-3.229,2.189-4.713
		c0.42-0.717,0.631-1.212,0.631-1.484l-0.111-0.371c1.633-3.018,1.694-4.49,0.186-4.416l-0.445,0.074h-0.148
		c-0.074-2.177,0.16-3.266,0.705-3.266c0.594-0.247,2.14-0.371,4.639-0.371c1.138,0,1.707,0.421,1.707,1.262
		c0.271,0.471,0.408,0.768,0.408,0.891c-0.396,0.322-0.594,0.693-0.594,1.113l-1.373,0.26c-0.05,0.1-0.458,0.965-1.225,2.598
		c-0.174,0.52-1.052,2.202-2.635,5.047l-1.002,3.08c-1.484,3.068-2.252,4.602-2.301,4.602c-0.05,0-0.074,0.074-0.074,0.223v0.297
		v0.037c0,0.371-0.31,0.594-0.928,0.668l-0.742,0.445c-0.297,0-0.73-0.186-1.299-0.557l-1.818-2.561
		c-0.297-1.088-0.569-1.633-0.816-1.633c-0.148-0.148-0.359-0.767-0.631-1.855c-0.495-0.865-0.965-1.62-1.41-2.264
		c0-0.099,0.062-0.21,0.186-0.334v-0.148l-0.631-1.521c-0.371-1.336-0.644-2.053-0.816-2.152c-0.816-2.35-1.373-3.525-1.67-3.525
		c0,0.124-0.161,0.198-0.482,0.223c-0.421,0-0.915-0.21-1.484-0.631v-0.074l0.111-0.186v-0.111c0-0.049-0.173-0.173-0.52-0.371
		l-0.037-0.074c0.569-0.123,0.854-0.247,0.854-0.371l-0.52-0.26l-0.037-0.037v-0.111l0.26-0.334c0-0.099-0.086-0.223-0.26-0.371
		v-0.111C297.478,71.687,299.136,71.476,299.581,71.476z M295.796,74.519l-0.111,0.111l0.111,0.074h0.482V74.63l-0.408-0.111
		H295.796z M296.724,73.183l-0.148,0.111v0.148l0.186,0.074c0.346-0.049,0.52-0.136,0.52-0.26l-0.111-0.074H296.724z M298.06,75.521
		h-0.111l-0.037,0.111c0.197,0.124,0.315,0.174,0.353,0.148C298.301,75.756,298.232,75.669,298.06,75.521z M298.505,72.106
		c0,0.074,0.197,0.111,0.594,0.111h1.373v-0.074c-0.421-0.173-0.792-0.26-1.113-0.26h-0.445
		C298.69,71.884,298.554,71.958,298.505,72.106z M299.655,78.452h-0.037c0.049,0.297,0.123,0.445,0.223,0.445v-0.074
		C299.815,78.576,299.754,78.452,299.655,78.452z M302.216,82.423h-0.111v0.111c0.321,0.965,0.594,1.447,0.816,1.447v-0.074
		C302.648,82.968,302.413,82.473,302.216,82.423z M303.44,87.358h-0.074v0.111c0,0.248,0.234,0.482,0.705,0.705h0.037l0.037-0.037
		v-0.037C304.046,87.854,303.812,87.606,303.44,87.358z M304.294,89.288h-0.074v0.037l0.111,0.223h0.111v-0.111L304.294,89.288z
		 M304.442,87.321h-0.074v0.037c0.024,0.248,0.21,0.557,0.557,0.928h0.074l0.074-0.037
		C304.949,87.903,304.739,87.594,304.442,87.321z M304.628,88.583l-0.111,0.074c0.321,0.445,0.631,0.668,0.928,0.668v-0.111
		C305.246,88.794,304.974,88.583,304.628,88.583z M305.63,88.175v0.074c0.148,0.471,0.358,0.705,0.631,0.705
		c0.271-0.47,0.408-0.791,0.408-0.965v-0.074h-0.037C306.558,87.965,306.224,88.052,305.63,88.175z M307.448,88.509H307.3
		l-0.928,1.633v0.111c0.494,0,0.804-0.47,0.928-1.41C307.398,88.843,307.448,88.731,307.448,88.509z M308.302,84.278h-0.111
		c-0.916,1.732-1.373,2.672-1.373,2.82l0.111,0.111c0.692-1.113,1.113-1.941,1.262-2.486c0.074-0.099,0.111-0.223,0.111-0.371
		V84.278z M307.485,88.249h0.111c0.099,0,0.68-1.162,1.744-3.488l0.111-0.557v-0.037h-0.074c-0.297,0.198-0.656,0.891-1.076,2.078
		C307.757,87.26,307.485,87.928,307.485,88.249z M309.267,72.663v0.223c0,0.371,0.136,0.557,0.408,0.557h0.037l0.111-0.111v-0.037
		c-0.223-0.594-0.371-0.891-0.445-0.891C309.304,72.453,309.267,72.54,309.267,72.663z M309.601,71.735v0.186l0.111,0.186h0.037
		c0-0.148,1.435-0.284,4.305-0.408l0.074-0.037h0.037V71.55c0-0.074-0.198-0.111-0.594-0.111
		C312.062,71.438,310.738,71.538,309.601,71.735z M309.749,81.458v0.037l0.111,0.074c0.123,0,0.186-0.086,0.186-0.26v-0.111
		l-0.111-0.148C309.811,81.1,309.749,81.235,309.749,81.458z M310.269,80.901l-0.148,0.148l0.074,0.148l0.111-0.186v-0.111H310.269z
		 M310.38,72.737l-0.111,0.148l0.111,0.074c0.148-0.024,0.223-0.062,0.223-0.111v-0.111H310.38z M310.417,80.456h0.074
		c0.223-0.223,0.371-0.507,0.445-0.854v-0.037C310.664,79.565,310.491,79.862,310.417,80.456z M310.974,78.897v0.223h0.148
		c0.247-0.223,0.371-0.47,0.371-0.742v-0.148h-0.148C311.097,78.378,310.974,78.601,310.974,78.897z M311.679,77.302v0.148h0.148
		c0.123,0,0.247-0.26,0.371-0.779v-0.148h-0.037v-0.074C312.037,76.448,311.876,76.733,311.679,77.302z M312.272,77.45h-0.074v0.111
		h0.074V77.45z M312.347,76.263v0.26h0.074c0.148-0.049,0.321-0.334,0.52-0.854c0.074-0.074,0.247-0.111,0.52-0.111l0.037-0.074
		v-0.26l-0.074-0.148v-0.111l0.186-0.074c0-0.223-0.1-0.396-0.297-0.52C312.965,74.37,312.644,75.001,312.347,76.263z
		 M314.351,73.183v0.037l0.52,0.111c0.371-0.024,0.557-0.062,0.557-0.111c0-0.099-0.161-0.16-0.482-0.186h-0.334
		C314.437,73.034,314.351,73.084,314.351,73.183z"/>
	<path fill="#FFFFFF" d="M325.112,71.438c1.039,0,2.301,0.445,3.785,1.336c1.262,0.94,1.893,1.584,1.893,1.93
		c0.989,2.078,1.484,3.328,1.484,3.748l0.037,0.297c-0.371,0.866-0.557,1.46-0.557,1.781l-0.223,0.037h-3.154
		c-0.297,0-0.656,0.037-1.076,0.111c-3.562-0.297-6.062-0.445-7.496-0.445h-0.779c-0.297,0.445-0.445,0.768-0.445,0.965
		c0.173,0.272,0.26,0.705,0.26,1.299c0,0.94,0.148,1.497,0.445,1.67l0.037,0.186v0.037l-0.223-0.111v0.111l0.334,0.371
		c0,0.322,0.223,0.73,0.668,1.225c0.816,1.436,1.707,2.326,2.672,2.672c0.816,0.272,1.744,0.408,2.783,0.408
		c0.173,0,0.531-0.16,1.076-0.482c0.445-0.099,1.385-0.902,2.82-2.412V86.06c0-0.049-0.174-0.099-0.52-0.148l-0.074-0.186
		c0.568-1.088,1.249-1.806,2.041-2.152c0.223,0.223,0.68,0.569,1.373,1.039c0.544,0.842,1.273,1.831,2.189,2.969v0.148
		c-0.792,1.039-1.361,1.559-1.707,1.559h-0.148c0-0.544-0.334-0.854-1.002-0.928c-0.124,0-0.668,0.408-1.633,1.225
		c-0.569,0.445-1.547,0.865-2.932,1.262c-1.608,0.321-2.746,0.482-3.414,0.482l-2.115-0.742c-1.188,0-2.276-0.643-3.266-1.93
		c-0.421-0.445-0.768-0.977-1.039-1.596c0-0.197-0.272-1.225-0.816-3.08c-0.174-0.717-0.26-1.41-0.26-2.078v-0.037
		c0-3.29,0.989-6.172,2.969-8.646c0.247-0.618,0.816-1.076,1.707-1.373c0.594-0.173,1.311-0.309,2.152-0.408
		C323.183,71.34,323.899,71.34,325.112,71.438z M316.763,80.901v0.111v0.037c-0.025,0.074-0.037,0.248-0.037,0.52v0.148
		c0,0.445,0.123,0.842,0.371,1.188h0.037C317.134,81.718,317.01,81.05,316.763,80.901z M317.282,77.524
		c-0.198,0.198-0.371,0.693-0.52,1.484h0.074c0.148,0,0.371-0.433,0.668-1.299C317.455,77.587,317.381,77.524,317.282,77.524z
		 M316.948,79.491h-0.186v0.223c0,0.148,0.037,0.223,0.111,0.223c0.123,0,0.197-0.123,0.223-0.371L316.948,79.491z M317.431,84.13
		h-0.111v0.074l0.111,0.074h0.074v-0.074L317.431,84.13z M317.69,84.761l-0.037,0.037v0.074c0.099,0.396,0.247,0.594,0.445,0.594
		v-0.037v-0.074C318.099,85.157,317.962,84.959,317.69,84.761z M318.767,79.862v0.037h0.037l0.631-0.074v-0.074l-0.111-0.148h-0.111
		C318.989,79.603,318.841,79.689,318.767,79.862z M318.878,75.261l-0.074,0.111v0.037h0.074l0.148-0.111v-0.037H318.878z
		 M318.804,77.747v0.148l0.074,0.074h0.074c0.173-0.074,0.321-0.21,0.445-0.408V77.45h-0.186
		C319.063,77.45,318.927,77.55,318.804,77.747z M319.175,76.782v0.111c0,0.272,2.251,0.582,6.754,0.928l0.371,0.111l0.482-0.037
		c0.989,0.322,1.657,0.482,2.004,0.482c0,0.074,0.074,0.137,0.223,0.186c0.148-0.223,0.223-0.433,0.223-0.631v-0.705
		c0-0.321-0.619-1.039-1.855-2.152c-0.569-0.568-1.213-0.891-1.93-0.965l-1.262-0.223c-2.054,0.421-3.402,0.928-4.045,1.521
		C319.867,75.929,319.546,76.387,319.175,76.782z M319.212,76.226c0.148-0.024,0.223-0.123,0.223-0.297v-0.037
		C319.286,75.941,319.212,76.053,319.212,76.226z M319.435,88.917h-0.111v0.148c0.049,0.124,0.26,0.26,0.631,0.408l0.148,0.111
		C319.83,89.165,319.607,88.942,319.435,88.917z M319.583,74.556v0.074h0.074c0.321-0.074,0.482-0.16,0.482-0.26v-0.037h-0.186
		C319.83,74.333,319.706,74.407,319.583,74.556z M319.954,79.565l-0.186,0.037v0.223h0.186v-0.148v-0.074V79.565z M320.214,72.849
		v0.037l0.111,0.074h0.037c0.494-0.123,0.742-0.247,0.742-0.371v-0.223l-0.148-0.148h-0.074
		C320.437,72.366,320.214,72.577,320.214,72.849z M320.696,79.231v0.074c0.494,0.124,1.806,0.248,3.934,0.371v0.037v0.037
		l-0.779,0.111c0,0.074,0.321,0.111,0.965,0.111c1.039,0,1.559-0.049,1.559-0.148C326.374,79.578,324.481,79.38,320.696,79.231z
		 M321.067,77.97v0.111c0.47,0.322,1.323,0.482,2.561,0.482h0.334l0.482-0.037v-0.148C323.43,78.155,322.304,78.02,321.067,77.97z
		 M321.142,74.333c0.247-0.197,0.742-0.408,1.484-0.631v-0.074l-0.037-0.074h-0.371C321.5,73.752,321.142,74.012,321.142,74.333z
		 M321.698,72.218v0.037h0.074c0.396,0,1.138-0.136,2.227-0.408c0.223-0.024,0.334-0.086,0.334-0.186l-0.111-0.111h-0.037
		c-0.718,0-1.521,0.198-2.412,0.594L321.698,72.218z M322.032,89.065h-0.037v0.037c0,0.1,0.26,0.211,0.779,0.334l0.037-0.037v-0.074
		C322.489,89.152,322.229,89.065,322.032,89.065z M323.294,73.034v0.037c0,0.1,0.507,0.223,1.521,0.371l0.074-0.037v-0.148
		c-0.198-0.271-0.532-0.408-1.002-0.408h-0.111C323.454,72.874,323.294,72.936,323.294,73.034z M324.222,89.474h-0.111v0.111h0.111
		V89.474z M325.483,90.401l-0.779-0.074h-0.148c-0.223,0-0.347,0.049-0.371,0.148v0.074l0.148,0.111h0.668
		c0.767,0,1.67-0.137,2.709-0.408c-0.05-0.148-0.198-0.223-0.445-0.223h-0.186C326.485,90.03,325.953,90.153,325.483,90.401z
		 M325.929,72.478h-1.113v0.074c0,0.1,0.507,0.174,1.521,0.223h0.037v-0.148C326.374,72.577,326.226,72.527,325.929,72.478z
		 M325.558,73.257v0.037c1.41,0.816,2.164,1.225,2.264,1.225h0.037l0.371-0.148l0.223,0.074l0.037-0.074v-0.037
		c-0.1-0.074-0.31-0.148-0.631-0.223l-0.742-0.334c-0.198-0.42-0.594-0.631-1.188-0.631h-0.111
		C325.644,73.171,325.558,73.208,325.558,73.257z M327.858,78.935h-0.111v0.111h0.111V78.935z M327.784,79.937
		c0,0.1,0.223,0.148,0.668,0.148l0.334-0.037v-0.074c0-0.099-0.235-0.148-0.705-0.148C327.883,79.875,327.784,79.912,327.784,79.937
		z M327.784,88.397h0.074c0.197-0.074,0.309-0.197,0.334-0.371l-0.037-0.037C327.907,88.138,327.784,88.274,327.784,88.397z
		 M328.081,90.03c0.247,0,0.445-0.186,0.594-0.557h-0.111C328.241,89.647,328.081,89.833,328.081,90.03z M328.452,75.075
		c0.049,0.198,0.16,0.297,0.334,0.297h0.074l0.074-0.111v-0.223l-0.148-0.186C328.563,74.853,328.452,74.927,328.452,75.075z
		 M328.935,87.247l0.074,0.037h0.037c0.271,0,0.445-0.16,0.52-0.482v-0.074C329.293,86.728,329.083,86.901,328.935,87.247z
		 M329.38,75.558h-0.148c0.271,0.816,0.47,1.262,0.594,1.336h0.148l0.111-0.074c-0.198-0.791-0.408-1.188-0.631-1.188L329.38,75.558
		z M329.788,85.095l0.074,0.111h0.186c0.148,0,0.234-0.049,0.26-0.148l-0.148-0.148h-0.037
		C329.948,84.909,329.837,84.972,329.788,85.095z M329.974,88.583h0.148c0.247-0.223,0.371-0.383,0.371-0.482h-0.037
		C330.134,88.2,329.974,88.36,329.974,88.583z M330.642,77.228l-0.111,0.074v0.26l0.111,0.148c0.099-0.024,0.148-0.111,0.148-0.26
		v-0.148l-0.037-0.074H330.642z M330.679,87.581l0.111,0.074c0.371-0.123,0.557-0.284,0.557-0.482v-0.074h-0.037
		C330.963,87.099,330.753,87.26,330.679,87.581z M331.532,87.173l0.037,0.037h0.111c0.148-0.099,0.223-0.234,0.223-0.408h-0.111
		C331.618,86.901,331.532,87.024,331.532,87.173z M332.831,86.802h-0.037v0.074c0.074,0.297,0.186,0.445,0.334,0.445h0.037
		l0.074-0.074V87.21C333.189,86.938,333.054,86.802,332.831,86.802z"/>
	<path fill="#FFFFFF" d="M349.196,72.774c0.965,0,1.781,0.681,2.449,2.041c0.123,0,0.297,0.161,0.52,0.482l0.482,2.746
		c-0.174,0.297-0.829,0.445-1.967,0.445h-0.371c-0.916-0.148-1.373-0.457-1.373-0.928c0-0.346-0.285-0.828-0.854-1.447
		c-0.074-0.123-0.606-0.186-1.596-0.186c-0.94,0-2.078,0.248-3.414,0.742c-0.94,0.99-1.559,1.757-1.855,2.301
		c0.173,4.23,0.234,6.878,0.186,7.941c0,0.223,0.148,0.334,0.445,0.334h0.891c0.396,0.025,0.594,0.1,0.594,0.223v0.037l0.148,0.482
		l-0.074,2.078l-0.223,0.297l-1.744,0.186h-0.148l-0.742,0.223c-2.846-0.1-4.268-0.211-4.268-0.334
		c-0.495,0-0.742-0.223-0.742-0.668c-0.05-0.445-0.074-0.902-0.074-1.373c0-0.47,0.482-0.779,1.447-0.928
		c0-0.197,0.334-0.297,1.002-0.297l0.111-0.037v-0.074l-0.223-10.168c0-0.618-0.161-0.928-0.482-0.928h-0.223
		c-0.297,0-0.792,0.137-1.484,0.408L335.54,76.3v-0.074c0-0.049,0.099-0.111,0.297-0.186v-0.074c-0.248,0-0.371-0.692-0.371-2.078
		c-0.05,0-0.087-0.223-0.111-0.668c0.989-0.767,2.028-1.15,3.117-1.15h0.928c0.371,0,1.002,0.124,1.893,0.371v0.111
		c-0.223,0.347-0.334,0.594-0.334,0.742v0.26C342.962,72.663,345.708,72.403,349.196,72.774z M336.097,89.214l-0.148-0.148
		l-0.074,0.148v0.148l0.074,0.111h0.148V89.214z M336.319,73.517c0.197,0.198,0.408,0.297,0.631,0.297l0.037-0.074v-0.26
		l-0.148-0.186C336.492,73.344,336.319,73.418,336.319,73.517z M337.247,89.585l-0.482,0.037v0.074c0,0.124,0.358,0.186,1.076,0.186
		h1.113l0.26-0.037C339.214,89.722,338.558,89.635,337.247,89.585z M336.913,74.964v0.074h0.111c0.271,0,0.42-0.049,0.445-0.148
		l-0.074-0.111h-0.074C337.099,74.778,336.962,74.841,336.913,74.964z M336.987,88.991l-0.074,0.074l0.037,0.074h2.041v-0.111
		l-1.262-0.037H336.987z M338.026,72.774h-0.111v0.148l0.223,0.26h0.334v-0.074L338.026,72.774z M339.474,78.378v0.186
		c0.123,0.248,0.186,0.508,0.186,0.779c-0.025,0.1-0.062,0.606-0.111,1.521l0.074,1.484h0.037c0.074,0,0.173-1.15,0.297-3.451
		c0.049,0,0.074-0.247,0.074-0.742c-0.025-0.223-0.087-0.334-0.186-0.334h-0.074C339.572,77.945,339.474,78.131,339.474,78.378z
		 M339.919,76.411h-0.148l-0.186,0.779c0,0.124,0.074,0.248,0.223,0.371h0.037c0.074,0,0.136-0.173,0.186-0.52L339.919,76.411z
		 M340.067,89.251l0.111,0.111h0.557l0.148-0.148c0-0.049-0.062-0.099-0.186-0.148C340.277,89.115,340.067,89.177,340.067,89.251z
		 M340.476,73.479l-0.148,0.111v0.074l0.074,0.074l0.186-0.148v-0.111H340.476z M340.587,72.812l-0.186,0.074v0.148h0.186
		l0.111-0.148L340.587,72.812z M340.55,85.169l-0.148,0.111v0.297h0.148l0.148-0.111v-0.223l-0.074-0.074H340.55z M340.55,85.985
		h-0.074v0.148h0.074V85.985z M341.292,75.187l-0.148,0.037v0.111l0.148,0.111h0.111l0.111-0.111v-0.111L341.292,75.187z
		 M343.667,74.37v0.074c0.223,0,0.52-0.358,0.891-1.076v-0.186h-0.037C343.877,73.381,343.593,73.776,343.667,74.37z
		 M345.077,73.554l0.186,0.742h0.297v-0.779l-0.111-0.111h-0.111C345.163,73.431,345.077,73.479,345.077,73.554z M346.413,73.22
		l-0.445,0.037v0.037l0.074,0.111h0.371c0.173,0,0.271-0.049,0.297-0.148l-0.074-0.037H346.413z M347.155,73.183v0.074h0.26
		l0.148-0.111l-0.111-0.111C347.254,73.084,347.155,73.134,347.155,73.183z M348.231,73.294l-0.148,0.111v0.037h0.186l0.074-0.074
		v-0.074H348.231z M348.454,75.558h0.186c0.123-0.024,0.358-0.321,0.705-0.891V74.63c0-0.049-0.05-0.074-0.148-0.074
		c-0.421,0.198-0.631,0.458-0.631,0.779C348.54,75.335,348.503,75.409,348.454,75.558z M349.493,76.56v0.074h0.074l0.148-0.111
		v-0.111h-0.037C349.555,76.485,349.493,76.535,349.493,76.56z M349.604,73.183l-0.074,0.074v0.037l0.074,0.111h0.148l0.074-0.111
		v-0.037l-0.074-0.074H349.604z M350.755,74.519h-0.111v0.074c0.197,0.198,0.371,0.297,0.52,0.297h0.111v-0.074
		C351.076,74.618,350.903,74.519,350.755,74.519z"/>
</g>
</svg>
