<?xml version="1.0" encoding="utf-8"?>
<!-- Generator: Adobe Illustrator 16.0.3, SVG Export Plug-In . SVG Version: 6.00 Build 0)  -->
<!DOCTYPE svg PUBLIC "-//W3C//DTD SVG 1.1//EN" "http://www.w3.org/Graphics/SVG/1.1/DTD/svg11.dtd">
<svg version="1.1" id="图层_1" xmlns="http://www.w3.org/2000/svg" xmlns:xlink="http://www.w3.org/1999/xlink" x="0px" y="0px"
	 viewBox="33.835 357.614 546.604 72.398"
	 enable-background="new 33.835 357.614 546.604 72.398" xml:space="preserve">
<g id="Layer_3">
	<g enable-background="new    ">
		<path d="M38.857,371.396l2.389-0.306c2.246,0.409,3.369,0.817,3.369,1.225c0.53,0.245,1.02,0.776,1.47,1.592
			c1.062,0.817,2.287,3.001,3.675,6.554l1.899,3.491c0.735,2.655,1.286,3.981,1.654,3.981c0.49,0,1.306-1.307,2.45-3.92
			c1.388-2.857,3.389-6.349,6.003-10.474c0.775-0.285,1.164-0.592,1.164-0.919c0.245-0.571,0.571-0.939,0.98-1.103l0.796,0.062
			c0.612-0.204,1.245-0.347,1.898-0.429c2.777,0.368,4.166,0.796,4.166,1.287v0.061l0.122,14.333l-0.122,3.981
			c0.204,1.675,0.551,5.983,1.041,12.924l-0.123,0.674c0.327,0.204,0.836,0.306,1.531,0.306c0.857,0.123,1.286,0.512,1.286,1.164
			v0.367c0,2.695-0.164,4.043-0.49,4.043h-0.123c-0.654-0.327-1.328-0.49-2.021-0.49h-3.614c-3.757,0-5.635-0.388-5.635-1.164
			l0.184-1.531v-0.244c0-0.163-0.144-0.449-0.429-0.858v-0.367c0-0.204,0.674-0.429,2.021-0.674l0.367-0.429l-0.184-0.367v-0.919
			c0-0.612,0.204-1.612,0.612-3.001l0.245-0.307c-0.286-0.326-0.429-2-0.429-5.022v-3.736l0.061-1.837
			c-0.164-0.449-0.245-1.042-0.245-1.776v-0.919c0-0.897,0.123-2.144,0.367-3.736c0-0.49,0.204-1.143,0.613-1.96l0.061-0.367
			c-0.286-1.388-0.429-2.389-0.429-3.001h-0.184c-0.695,0.695-1.797,2.226-3.308,4.594c-1.715,3.226-3.268,5.799-4.655,7.718
			l-2.45,3.491c-0.245,0.368-0.593,0.551-1.042,0.551l-0.735-0.306c-0.409,0.082-0.715,0.184-0.919,0.306
			c-0.49,0-0.776-0.469-0.857-1.409c-0.45-0.939-1.083-1.878-1.899-2.818c-0.653-0.775-1.898-3.103-3.736-6.982l-0.674-1.225
			l-0.796-1.409l0.061-0.061h0.368c0.204,0,0.367,0.266,0.49,0.796l0.062,0.123h0.184v-0.245c0-1.225-0.572-2.327-1.715-3.307
			h-0.184v0.306h-0.49v0.367l-0.062,0.613v0.612c0.653,8.984,0.98,16.702,0.98,23.153c-0.082,0.204-0.225,0.306-0.429,0.306
			c-0.164,0-0.245-0.224-0.245-0.674l-0.123-0.061h-0.123l-0.184,1.286c0.53,0.286,0.796,0.634,0.796,1.041l-0.123,0.735
			c-0.653,0-0.98-0.143-0.98-0.429h-0.184l-0.184,0.306v0.307c0,0.163,0.816,0.429,2.45,0.796h0.245
			c0.285,0,0.591-0.062,0.919-0.184c1.674,0.327,2.511,0.634,2.511,0.919v0.245l-0.368,0.061c-0.286,0-0.715-0.224-1.286-0.673
			h-0.306c-0.98,0.122-1.47,0.286-1.47,0.489c0.04,0.164,0.184,0.245,0.429,0.245h0.857c1.225,0.123,1.838,0.348,1.838,0.674
			l0.123,0.612v0.368c0,0.531-0.429,0.836-1.287,0.918c-0.612-0.285-1.246-0.429-1.898-0.429v0.062c0,0.123,0.204,0.184,0.612,0.184
			c0.53,0.123,0.796,0.245,0.796,0.368l-0.674,0.061c-1.225,0-3.675-0.225-7.35-0.674l-1.531,0.429
			c-0.735-0.162-1.103-0.469-1.103-0.918v-0.368c-0.49,0-0.817-0.51-0.98-1.531l-0.062-0.122v-0.307
			c0.449-0.816,1.265-1.225,2.45-1.225c1.02-0.245,1.531-0.429,1.531-0.552v-0.061l-1.041-28.359l0.122-2.634l-0.245-0.98
			C37.388,371.824,37.877,371.396,38.857,371.396z M35.611,406.002l-0.245,0.185v0.306c0,0.286,0.245,0.634,0.735,1.041h0.123
			c0.123,0,0.204-0.143,0.245-0.429c-0.041-0.734-0.164-1.103-0.368-1.103H35.611z M36.469,408.392h-0.245v0.184l0.123,0.184
			l0.123-0.123h0.061L36.469,408.392z M38.551,373.049h-0.184v0.184l0.123,0.123h0.061V373.049z M38.674,374.397l-0.062,0.061v0.062
			c0.163,1.878,0.347,2.817,0.551,2.817c0.163-0.285,0.245-0.653,0.245-1.103v-0.49C39.409,374.887,39.164,374.438,38.674,374.397z
			 M39.286,382.85h-0.245v1.531l0.184,0.123h0.061l0.123-0.98v-0.184L39.286,382.85z M39.593,403.491H39.47v0.307h0.184v-0.185
			L39.593,403.491z M39.593,396.631l0.061,0.062c0.368,0,0.551-0.613,0.551-1.838v-1.96l-0.061-0.367
			C39.939,392.527,39.755,393.896,39.593,396.631z M39.654,401.103v0.979l0.245,0.123h0.123l0.184-1.348l-0.061-0.429h-0.123
			C39.857,400.429,39.735,400.653,39.654,401.103z M40.021,390.445h-0.123v0.551v0.061c0,0.613,0.081,0.919,0.245,0.919l0.184-0.613
			C40.245,390.751,40.144,390.445,40.021,390.445z M40.205,373.662h-0.061v0.367c0.285,1.511,0.571,2.267,0.857,2.267h0.184v-0.245
			l-0.429-1.042C40.756,374.397,40.573,373.948,40.205,373.662z M40.573,408.759l-0.368,0.184c0.285,0.164,0.633,0.245,1.041,0.245
			h0.184l0.612-0.122v-0.245L40.573,408.759z M41.001,377.582h-0.306l-0.062,0.367v2.144c0,0.735,0.102,1.103,0.306,1.103
			c0.204,0,0.306-0.53,0.306-1.593C41.246,378.746,41.164,378.072,41.001,377.582z M41.797,372.988l-0.367,0.061v0.184
			c0,0.083,0.163,0.164,0.49,0.245c0.245-0.081,0.368-0.163,0.368-0.245v-0.122l-0.184-0.123H41.797z M41.92,386.831
			c0.082,2.165,0.224,3.246,0.429,3.246h0.123v-0.796c0-1.265-0.041-2.551-0.123-3.859h-0.061
			C42.124,385.422,42.001,385.892,41.92,386.831z M42.042,392.099v0.245l0.062,0.796h0.184v-0.429
			C42.288,392.303,42.205,392.099,42.042,392.099z M42.165,394.365c-0.082,0.245-0.123,0.511-0.123,0.796v3.43l0.062,3.246
			l0.061,0.123h0.123c0.408,0,0.674-0.285,0.796-0.857v-0.368c-0.164,0-0.286-0.224-0.368-0.673l0.062-1.103v-0.062
			c0-0.98-0.103-1.715-0.307-2.205l0.184-0.857C42.614,394.937,42.45,394.447,42.165,394.365z M42.716,403.858l-0.184,0.123
			l0.184,0.184h0.245l0.123-0.184l-0.123-0.123H42.716z M42.961,409.065h-0.429v0.122l0.735,0.184h0.98v-0.184L42.961,409.065z
			 M43.207,375.132c0.49,0.899,1.286,1.96,2.389,3.185l2.266,4.533h0.184c0-0.694-0.796-2.756-2.389-6.187
			c0-0.285-0.409-0.796-1.225-1.531l-0.122-0.367h-0.368C43.451,374.806,43.207,374.928,43.207,375.132z M43.88,373.478v0.062h0.674
			l0.062-0.062v-0.123l-0.062-0.123C44.145,373.233,43.92,373.315,43.88,373.478z M54.66,389.342h-0.184
			c-0.245,0.367-0.368,0.653-0.368,0.857v0.123h0.184c0.204,0,0.326-0.265,0.367-0.796V389.342z M57.6,384.136l0.123,0.123
			c0.327-0.204,0.755-0.919,1.287-2.144c0.367-0.368,0.694-1.082,0.98-2.144v-0.123l-0.245-0.123
			C59.172,379.726,58.458,381.196,57.6,384.136z M63.358,375.132h0.123h0.061c0.245-0.285,0.368-0.53,0.368-0.735v-0.123h-0.061
			C63.521,374.479,63.358,374.765,63.358,375.132z M64.032,406.676l-0.184,0.245v0.245l0.122,0.123l0.858-0.185v-0.184
			c-0.042-0.162-0.184-0.245-0.429-0.245H64.032z M64.399,408.452l-0.429,0.123v0.184l0.184,0.062h0.674v-0.062
			C64.746,408.555,64.603,408.452,64.399,408.452z M64.093,373.846l0.062,0.061c0.123,0,0.408-0.285,0.857-0.857v-0.368h-0.184
			C64.5,372.887,64.256,373.274,64.093,373.846z M66.114,403.246h-0.184l-0.062,0.367v0.123h0.184l0.062-0.184V403.246z
			 M67.339,384.626h-0.123v0.245l0.123,0.368h0.123v-0.429L67.339,384.626z M67.339,382.911v0.184l0.123,0.184
			c0.163-0.04,0.245-0.184,0.245-0.429v-0.368h-0.122C67.42,382.523,67.339,382.666,67.339,382.911z M68.013,398.959h-0.245
			c-0.286,0.734-0.429,1.389-0.429,1.96c0.123,0.489,0.265,0.734,0.429,0.734h0.123l0.123-2.572V398.959z M67.584,381.808h0.122
			c0.123-0.081,0.184-0.265,0.184-0.551C67.686,381.339,67.584,381.523,67.584,381.808z M68.136,402.634h-0.368v0.245h0.184
			l0.184-0.184V402.634z M68.197,396.019h-0.184l-0.062,0.184l0.245,0.184l0.123-0.184v-0.061L68.197,396.019z M68.564,403.92
			l-0.245,0.245l0.123,0.184h0.367v-0.184L68.564,403.92z M69.36,384.136c0.082,2.655,0.265,4.042,0.551,4.165l0.123-0.123v-1.96
			c0-1.551-0.061-2.715-0.184-3.491h-0.184C69.462,382.727,69.36,383.197,69.36,384.136z M70.034,399.938
			c-0.245,0.245-0.367,0.715-0.367,1.409v0.918l0.245,0.368h0.368c0.123,0,0.204-0.204,0.245-0.612
			C70.361,400.634,70.197,399.938,70.034,399.938z M70.279,403.246h-0.551v0.122l0.306,0.368h0.123l0.306-0.245v-0.123
			L70.279,403.246z"/>
		<path d="M80.569,379.236l4.165,1.409c0.041,0.612,0.285,1.266,0.735,1.96l0.122,0.674c-0.367,2.614-0.47,8.045-0.306,16.293
			c0,1.185,0.49,1.96,1.47,2.327l0.429,0.98c0,0.245,1.348,0.47,4.042,0.674h0.245c0.857,0,1.919-0.919,3.185-2.757
			c0.98-0.979,1.633-1.755,1.96-2.327h0.306v-0.368l-0.123-0.306c0.245-0.367,0.429-0.919,0.551-1.653h0.062v-0.552l1.103-11.638
			v-1.103l-0.123-0.613v-0.061c0.449-0.326,0.674-0.836,0.674-1.531c0-0.449,0.143-0.694,0.429-0.735l1.409,0.735h1.348
			c1.632,0,2.796,0.347,3.491,1.041v0.245c-0.45,0-0.674,0.083-0.674,0.245l0.612,1.409h0.184c0.081-0.612,0.163-0.918,0.245-0.918
			c0.163,0.205,0.265,0.551,0.306,1.041l-0.674,7.595l0.123,0.123v0.061c-0.286,0.857-0.572,3.329-0.857,7.412v1.776
			c0,2.654,0.122,3.981,0.367,3.981h0.245c0.735,0,1.919-0.163,3.553-0.49c0.163,0.041,0.53,0.286,1.103,0.734
			c-0.164,3.676-0.409,5.513-0.735,5.513l-0.674-0.551l-1.837,0.122l-6.799-0.122c-0.368,0-0.735-0.837-1.103-2.512
			c-0.245-0.203-0.368-0.448-0.368-0.734l0.123-0.552H98.7c-0.327,0-1.531,0.552-3.614,1.654c-0.123,0.286-1.552,0.878-4.288,1.776
			c-0.612,0.326-1.43,0.652-2.45,0.979c-0.612-0.367-1.592-0.735-2.94-1.103c-2.572-2.531-4.145-4.757-4.716-6.676
			c-1.062-1.511-1.592-4.737-1.592-9.678l0.673-7.166v-0.184c0-0.081-1.389-0.346-4.165-0.796c-0.245-0.367-0.367-1.388-0.367-3.062
			c0-1.103,0.184-1.654,0.551-1.654C75.792,379.706,77.384,379.399,80.569,379.236z M76.895,382.176h-0.796v0.184l0.123,0.062h0.184
			l0.49-0.062V382.176z M76.343,383.768l-0.245,0.245l0.123,0.123h0.49l0.184-0.123l-0.245-0.245H76.343z M76.895,382.788h-0.49
			v0.123c0.04,0.245,0.265,0.368,0.674,0.368l0.061-0.123v-0.123L76.895,382.788z M77.69,383.339l-0.306,0.123v0.184l0.062,0.061
			v0.061c0.367-0.081,0.551-0.184,0.551-0.306v-0.123H77.69z M78.487,383.523c0,0.245,0.653,0.592,1.96,1.041h0.613
			c0.163,0,0.245-0.143,0.245-0.429c-0.45-0.449-1.001-0.735-1.654-0.857h-0.49C78.752,383.278,78.527,383.361,78.487,383.523z
			 M79.528,379.971l-0.245,0.123v0.123h0.429v-0.123L79.528,379.971z M80.386,386.77v0.49l0.919-0.307v-1.286l-0.123-0.184
			C80.977,385.483,80.712,385.912,80.386,386.77z M80.631,397.183l-0.184,0.184v0.245c0,1.592,0.858,4.083,2.573,7.473
			c0.326,0.204,0.551,0.306,0.674,0.306v-0.306l-1.776-4.962c-0.531-1.878-0.94-2.857-1.225-2.939H80.631z M81.06,380.461
			l-0.306,0.123v0.061c0,0.041,0.306,0.225,0.918,0.551c0,0.531,0.04,0.796,0.123,0.796h0.368c0.98,0,1.571-0.163,1.776-0.49v-0.123
			c0-0.285-0.613-0.51-1.838-0.674c0-0.081-0.245-0.163-0.735-0.245H81.06z M81.488,393.63l-0.184-0.062l-0.245,0.245v0.123
			l0.245,0.123l0.184-0.184V393.63z M82.713,395.712v0.429c0,0.53,0.265,0.939,0.796,1.225h0.184c0-1.51-0.123-2.267-0.368-2.267
			h-0.245C82.836,395.222,82.713,395.427,82.713,395.712z M83.081,384.013v1.164l0.184,0.123c0.245-0.123,0.367-0.368,0.367-0.735
			v-0.674c0-0.245-0.061-0.408-0.184-0.49h-0.123C83.162,383.442,83.081,383.646,83.081,384.013z M83.877,399.755v0.062
			c0.123,0.245,0.285,0.367,0.49,0.367v-0.062C84.367,399.877,84.203,399.755,83.877,399.755z M85.225,404.165h-0.184v0.245
			c0.041,0.163,0.184,0.245,0.429,0.245v-0.245L85.225,404.165z M88.532,408.207h-0.49l-2.45-0.244H85.47l-0.245,0.244v0.062
			c0,0.367,1.143,0.776,3.43,1.226c0.694,0,2.061-0.511,4.104-1.531l0.062-0.062v-0.184h-0.429
			C91.166,408.045,89.879,408.207,88.532,408.207z M85.653,402.879h-0.062v0.184l0.123,0.184h0.062v-0.184L85.653,402.879z
			 M86.756,404.594h-0.184v0.062c0,0.449,0.714,1.103,2.144,1.96c1.633-0.653,2.45-1.062,2.45-1.226v-0.061
			C90.104,405.329,88.633,405.084,86.756,404.594z M89.696,406.86v0.122h0.735c1.593-0.367,2.654-0.919,3.185-1.653v-0.245H93.31
			C93.064,405.084,91.86,405.676,89.696,406.86z M94.841,401.898l0.062,0.123h0.061c0.98-1.307,1.47-2.062,1.47-2.267v-0.123H96.25
			C95.922,400.041,95.454,400.796,94.841,401.898z M98.148,400.49l-0.245-0.307c-0.245,0.327-0.367,0.572-0.367,0.735l0.306,0.184
			h0.061l0.245-0.184V400.49z M98.394,403.981v0.061h0.123l0.429-0.367v-0.245C98.577,403.43,98.394,403.613,98.394,403.981z
			 M99.68,381.318h-0.123c0,0.409,0.327,0.612,0.98,0.612h0.368l0.184-0.123v-0.061C101.088,381.543,100.619,381.4,99.68,381.318z
			 M100.108,396.509l-0.184,0.184v0.551l0.184,0.245c0.245-0.122,0.429-0.306,0.551-0.551v-0.245l-0.184-0.184H100.108z
			 M100.231,383.278l-0.184,0.184v0.123c0,0.164,0.143,0.245,0.429,0.245h0.061c0.285,0,0.449-0.082,0.49-0.245v-0.123
			c-0.041-0.123-0.245-0.184-0.613-0.184H100.231z M100.231,403.858l-0.184,0.184v0.735c0,2.858,0.143,4.288,0.429,4.288h0.184
			c0.285-0.041,0.429-0.163,0.429-0.368c-0.327-0.571-0.511-2.062-0.551-4.471L100.231,403.858z M100.231,401.103h-0.123v0.429
			h0.123l0.184-0.184v-0.184L100.231,401.103z M100.231,395.835l0.306,0.307c0.204-0.082,0.327-0.491,0.368-1.226l-0.061-0.123
			h-0.123C100.394,395.039,100.231,395.386,100.231,395.835z M101.088,390.016v0.245h0.062c0.408,0,0.612-0.469,0.612-1.409
			c-0.041-0.408-0.103-0.612-0.184-0.612C101.456,388.24,101.292,388.832,101.088,390.016z M101.579,398.897l-0.245,0.245v0.061
			l0.245,0.185l0.184-0.185l-0.061-0.306H101.579z M101.456,399.877h-0.123v0.368c0,0.653,0.102,1.491,0.306,2.511h0.184
			c0.163-0.612,0.245-1.204,0.245-1.776v-0.429C102.068,400.103,101.864,399.877,101.456,399.877z M102.804,407.595l-0.184,0.123
			v0.184c0.082,0.205,0.327,0.306,0.735,0.306h0.612l0.184-0.122v-0.122c0-0.204-0.266-0.327-0.796-0.368H102.804z M103.539,391.915
			h-0.184l-0.123,0.245c0.081,0.205,0.163,0.306,0.245,0.306h0.061V391.915z M104.09,402.939l-0.612,0.919v0.184h0.612l0.245-0.184
			v-0.306C104.335,403.185,104.252,402.981,104.09,402.939z M107.765,405.573l-1.898,0.245v0.245l0.367,0.062h0.245
			c0.898-0.04,1.348-0.184,1.348-0.429v-0.123H107.765z M107.765,406.615h-0.245v0.367h0.245l0.184-0.122v-0.123
			C107.949,406.656,107.887,406.615,107.765,406.615z"/>
		<path d="M123.69,372.927l0.919-0.245c1.061,0,4.104,0.613,9.126,1.838c2.368,1.103,3.736,1.654,4.104,1.654
			c0.327-0.449,0.49-1.021,0.49-1.715v-0.123v-0.429c0-0.53,0.367-0.796,1.103-0.796c0.49-0.368,1.184-0.551,2.083-0.551
			c1.225,0,1.837,0.144,1.837,0.429l0.551,5.757v1.776c0,1.47-0.205,2.349-0.613,2.634c-0.367,0.368-0.653,0.551-0.857,0.551
			c-2.287-0.204-3.43-0.51-3.43-0.919c-0.287-0.98-1.001-1.694-2.144-2.144c-3.92-1.96-6.738-2.94-8.453-2.94l-1.715-0.123
			c-2.042,0-3.247,0.389-3.614,1.164c-0.49,0.654-0.735,1.531-0.735,2.634v0.062c0,2.246,1.164,4.104,3.492,5.574
			c2.327,0.94,4.349,1.409,6.063,1.409c0,0.327,0.919,0.776,2.756,1.348c0.368,0.612,1.164,0.918,2.389,0.918
			c1.266,0.49,3.083,2.042,5.452,4.655l0.245,0.245v0.245c0,0.082-0.123,0.122-0.368,0.122v0.122
			c0.571,1.226,0.857,1.94,0.857,2.145c0,3.675-0.592,5.982-1.776,6.921c-0.531,1.103-1.654,2.186-3.369,3.247
			c-1.92,1.755-3.88,2.634-5.88,2.634h-2.144c-3.226-0.49-4.839-0.899-4.839-1.226c-1.878-1.307-2.961-1.96-3.246-1.96
			c-2.001-0.938-3.39-1.919-4.165-2.94h-0.245c-0.49,1.431-0.899,2.145-1.225,2.145c-2.573-0.408-3.859-0.857-3.859-1.348
			c-0.245-0.694-0.389-2.471-0.429-5.329l0.612-3.798c0-1.387,0.163-2.082,0.49-2.082l3.92-0.429c0.285,0,0.571,1.124,0.858,3.369
			l1.715,3.123c0,0.123,1.816,1.348,5.451,3.676c0.898,1.021,2.184,1.531,3.859,1.531h2.144c2.164,0,3.634-0.694,4.41-2.083
			c0.939-1.021,1.633-2.511,2.083-4.472v-0.184c0-1.184-1.041-2.674-3.124-4.471c-0.899-1.02-2.042-1.531-3.43-1.531
			c-0.817-0.367-2.655-0.755-5.513-1.164l-4.9-2.511l-2.389-2.021c-1.021-1.551-1.573-2.654-1.654-3.308l0.123-1.041l-0.245-2.328
			c0-0.571,0.346-1.245,1.041-2.021c0-0.49,0.98-1.612,2.94-3.369C122.281,374.274,123.363,373.499,123.69,372.927z
			 M112.971,401.348l0.061,1.531h0.062c0.285-0.163,0.429-1.123,0.429-2.879v-0.49l-0.123-0.122h-0.123
			C113.155,399.388,113.052,400.041,112.971,401.348z M114.931,404.532h-0.306v0.245l0.306,0.184l0.245-0.062v-0.122
			L114.931,404.532z M115.36,396.447h-0.306v0.245l0.123,0.122l0.245-0.122L115.36,396.447z M117.688,380.093l-0.184,0.061
			c0.082,0.776,0.184,1.328,0.307,1.654h0.184v-0.061l-0.061-1.654H117.688z M117.749,402.45h-0.184v0.245
			c0.612,0.775,1.204,1.163,1.776,1.163h0.123v-0.184C118.565,402.858,117.994,402.45,117.749,402.45z M118.3,378.623h-0.306
			l-0.061,0.429v0.184l0.061,0.123l0.306-0.613V378.623z M119.096,385.851l-0.123,0.184v0.061l0.123,0.123h0.184v-0.184
			L119.096,385.851z M119.341,380.645l-0.245,0.184v0.184h0.184l0.306-0.245v-0.123H119.341z M120.015,377.949l-0.184,0.062
			l0.062,0.123v0.061l0.245-0.061v-0.184H120.015z M120.199,386.218h-0.062v0.123c0.286,0.899,0.572,1.348,0.858,1.348h0.245
			l0.307-0.306v-0.062C121.015,386.586,120.566,386.218,120.199,386.218z M120.26,378.868v0.062l0.123,0.061h0.245
			c0.897-0.653,1.348-1.184,1.348-1.592h-0.062h-0.123C121.341,377.398,120.831,377.888,120.26,378.868z M121.914,385.667
			l-0.123,0.062v0.123l0.123,0.184h0.613v-0.184C122.485,385.729,122.281,385.667,121.914,385.667z M123.261,386.218l-0.123,0.123
			v0.368l0.368,0.367h0.184l0.184-0.123v-0.306C123.71,386.362,123.506,386.218,123.261,386.218z M123.322,389.465h-0.061
			c0,0.286,0.265,0.511,0.796,0.673l0.123-0.061C124.18,389.874,123.894,389.669,123.322,389.465z M125.466,407.963l-1.776-0.123
			v0.123c0,0.163,0.53,0.367,1.593,0.612l0.245,0.245h0.307C125.751,408.249,125.629,407.963,125.466,407.963z M124.302,373.54
			v0.245c0,0.164,0.265,0.307,0.796,0.429c1.103-0.082,1.654-0.224,1.654-0.429v-0.245c0-0.285-0.572-0.429-1.715-0.429
			C124.71,373.111,124.465,373.254,124.302,373.54z M125.221,387.688l-0.123,0.123v0.061c0.53,0.49,1.327,0.919,2.389,1.286
			l0.123-0.184C127.61,388.729,126.814,388.301,125.221,387.688z M126.018,376.234c0.163,0.164,0.367,0.245,0.612,0.245
			c0.408,0,0.836-0.224,1.287-0.674l-0.307-0.245h-0.674C126.324,375.561,126.018,375.786,126.018,376.234z M126.936,409.494h-0.122
			l0.245,0.306h0.49v-0.062C127.508,409.576,127.304,409.494,126.936,409.494z M127.487,408.82l-0.184-0.185v0.245h0.184V408.82z
			 M128.161,409.861c0.571,0.326,1.348,0.49,2.328,0.49h0.123l2.634-0.123v-0.122c-0.123-0.327-1.531-0.49-4.227-0.49
			C128.446,409.616,128.161,409.697,128.161,409.861z M128.835,376.969l-0.245,0.245c0,0.286,0.735,0.47,2.205,0.551v-0.184
			c0-0.163-0.612-0.368-1.837-0.613H128.835z M128.59,389.22c0,0.164,1.449,0.592,4.349,1.286l0.796,0.062h0.184v-0.062
			c-1.225-0.939-2.716-1.49-4.471-1.654C128.875,389.057,128.59,389.18,128.59,389.22z M129.325,390.996v0.245l1.041,0.368h0.674
			v-0.184C130.305,391.14,129.733,390.996,129.325,390.996z M134.042,409.494l-0.123,0.122v0.184l0.123,0.123h0.245
			c0.775-0.042,1.164-0.144,1.164-0.307l-0.184-0.122H134.042z M134.348,376.173v0.061c0,0.123,0.245,0.205,0.735,0.245h0.184
			v-0.062C135.267,376.337,134.96,376.255,134.348,376.173z M135.083,378.439l-0.061,0.061v0.123
			c1.265,0.735,2.062,1.103,2.389,1.103v-0.061C137.41,379.419,136.634,379.012,135.083,378.439z M135.879,391.854h-0.551v0.184
			c0.245,0.245,1.327,0.857,3.246,1.837c0.816,0.735,1.449,1.103,1.899,1.103h0.062l0.122-0.184
			C139.717,393.568,138.124,392.588,135.879,391.854z M136.736,404.655v0.244h0.123c0.368-0.244,0.674-0.591,0.919-1.041
			l-0.123-0.184C137.328,403.88,137.021,404.206,136.736,404.655z M137.41,395.59h-0.061v0.306c0,0.409,0.346,0.899,1.041,1.47
			h0.368v-0.49C138.758,396.386,138.308,395.957,137.41,395.59z M140.044,405.206l-2.083,1.715v0.123
			c0,0.082,0.082,0.122,0.245,0.122c0.49,0,1.164-0.652,2.021-1.96H140.044z M138.207,377.827l-0.123,0.122
			c0.571,0.45,1.225,0.756,1.96,0.919l0.061-0.123v-0.123c0-0.204-0.592-0.469-1.776-0.796H138.207z M138.513,400.367h-0.306v0.307
			l0.184,0.061l0.184-0.184L138.513,400.367z M139.86,382.237l-0.245,0.123c0.326,0.205,0.919,0.307,1.776,0.307l1.225-0.062v-0.245
			c-0.735-0.081-1.491-0.123-2.267-0.123H139.86z M140.289,373.417v0.123c0.449,0.735,0.836,1.103,1.164,1.103
			c0.327,0,0.571-0.204,0.735-0.613v-0.245C142.188,373.54,141.554,373.417,140.289,373.417z M142.004,400.367l-0.49,0.49v0.307
			l0.123,0.184h0.184c0.245-0.04,0.368-0.368,0.368-0.98H142.004z M142.433,375.315l-0.184,0.245l0.184,0.123h0.307v-0.368H142.433z
			"/>
		<path d="M147.823,378.072h0.184c0.326,0.286,0.735,0.429,1.225,0.429l0.796-0.367c5.553,0,8.33,0.164,8.33,0.49l0.061,0.429v1.042
			c0.368,0.817,0.551,1.592,0.551,2.328v0.98c-0.49,6.656-0.817,12.046-0.98,16.17c-0.082,0.245-0.164,0.674-0.245,1.286
			c0.041,0.163,0.224,0.245,0.551,0.245h0.184c2.205,0,3.308,0.266,3.308,0.796l-0.062,0.123v0.367
			c0.49,0.979,0.735,2.532,0.735,4.655l0.245,2.45l-0.184,0.122l-2.695,0.122h-6.125c-4.574,0-6.86-0.367-6.86-1.103
			c0-0.448-0.123-0.897-0.368-1.347c0.123-0.285,0.326-0.511,0.612-0.674h0.184c0.163,0.163,0.346,0.245,0.551,0.245h0.123
			c1.184,0,2.592-0.102,4.226-0.307v-0.122c-3.512-0.245-5.268-0.53-5.268-0.858l-0.061-0.489v-0.674l-0.123-1.593
			c0-0.408,1.531-0.612,4.594-0.612c0.408,0,0.612-0.919,0.612-2.757l0.735-16.109h-0.123c-1.144,0-1.715-0.081-1.715-0.245
			c0-0.041,0.062-0.102,0.184-0.184c-2.45,0-3.675-0.285-3.675-0.857c-0.164-0.04-0.245-0.204-0.245-0.49l0.307-0.735
			c0-0.163-0.123-0.388-0.368-0.674c0.326-0.326,0.551-0.98,0.674-1.96L147.823,378.072z M148.558,404.227l-0.429,0.122v0.062
			c0.326,0.327,1.592,0.511,3.797,0.551h0.429c0.327,0,0.53-0.102,0.613-0.306v-0.123
			C151.253,404.328,149.783,404.227,148.558,404.227z M148.803,379.297v0.245h0.306c1.062,0,1.593-0.082,1.593-0.245l-0.123-0.245
			h-0.184C149.333,379.052,148.803,379.134,148.803,379.297z M150.15,380.154h-1.103v0.184c0,0.164,0.285,0.245,0.857,0.245h0.674
			h0.184h2.021c0.612,0,0.918-0.102,0.918-0.307v-0.061C153.703,380.012,152.518,379.992,150.15,380.154z M154.193,366.373
			l2.083-0.306c1.429,0,2.551,0.735,3.369,2.205l0.429,1.96c-0.082,0.776-0.531,1.797-1.348,3.062
			c-0.531,0.531-1.347,0.796-2.45,0.796c-2.573,0-4.165-0.388-4.778-1.164c-0.612-0.816-0.898-1.96-0.857-3.43
			c-0.164,0-0.245-0.041-0.245-0.123v-0.123C151.62,367.333,152.885,366.373,154.193,366.373z M152.968,367.904v0.061
			c1.388-0.163,2.083-0.346,2.083-0.551l-0.306-0.122C153.559,367.497,152.968,367.701,152.968,367.904z M153.458,389.465
			l-0.184,7.901c0.04,0.286,0.102,0.429,0.184,0.429c0.123,0,0.204-0.184,0.245-0.552l-0.061-0.918
			c0.204-0.204,0.429-1.021,0.674-2.451v-0.367l-0.123-0.857c0.245-0.204,0.367-0.347,0.367-0.429
			c-0.164-0.449-0.245-0.897-0.245-1.347v-0.123c0.163,0,0.367-2.287,0.612-6.86c-0.123-0.326-0.245-0.49-0.368-0.49
			C153.948,383.401,153.58,385.422,153.458,389.465z M155.356,406.554l-0.796,0.062h-0.857v0.245l0.857,0.061l1.776-0.122v-0.184
			h-0.245L155.356,406.554z M154.009,369.681h0.062l0.368,0.061h0.122c0.449,0,0.735-0.163,0.858-0.49l-0.062-0.123h-0.735
			C154.294,369.129,154.09,369.313,154.009,369.681z M154.315,404.961l0.245,0.307c0.368,0,0.551-0.204,0.551-0.612h-0.306
			C154.56,404.655,154.396,404.757,154.315,404.961z M155.111,400.734l-0.184,0.245v0.307h0.184l0.245-0.184v-0.184l-0.184-0.185
			H155.111z M154.989,399.816v0.429h0.123c0.204-0.082,0.307-0.326,0.307-0.735v-0.429h-0.184
			C155.152,399.081,155.07,399.326,154.989,399.816z M155.602,380.216l-0.551-0.062v0.123c0.285,0,0.633,0.205,1.041,0.613h0.123
			c0.082,0,0.123-0.062,0.123-0.184h0.123c0.163,0,0.265,0.184,0.306,0.551h0.123l0.857-0.612v-0.368l-1.286-0.061H155.602z
			 M155.356,383.646l0.306,0.918l-0.429,1.103c0.163,0.368,0.306,0.551,0.429,0.551h0.062l0.123-0.367v-0.368
			c0-1.47,0.224-2.205,0.674-2.205l0.184-0.245v-0.245l-0.184-0.184h-0.368C155.622,382.604,155.356,382.952,155.356,383.646z
			 M156.153,394.059h-0.306c-0.328,1.511-0.49,2.634-0.49,3.369h0.062c0.204,0,0.469-0.837,0.796-2.512v-0.429L156.153,394.059z
			 M155.602,372.253l-0.184,0.184v0.123h1.103l0.184-0.123l-0.184-0.184H155.602z M156.459,384.075l-0.245,0.061v0.368
			c0,0.245,0.102,0.429,0.307,0.551h0.184l0.184-0.245v-0.306C156.806,384.299,156.663,384.157,156.459,384.075z M156.949,371.15
			v0.184h0.245c0.285,0,0.51-0.143,0.674-0.429v-0.184h-0.123C157.459,370.722,157.194,370.865,156.949,371.15z M157.133,378.868
			l-0.184,0.184l0.245,0.184h0.123v-0.184L157.133,378.868z M158.419,369.129l-0.184,0.306v0.245h0.061l0.184-0.245v-0.306H158.419z
			 M160.256,404.777l-0.735,0.184c0.082,0.49,0.449,0.735,1.103,0.735h0.184v-0.184l-0.122-0.184c0-0.041,0.163-0.163,0.49-0.368
			v-0.306c0-0.285-0.082-0.449-0.245-0.49h-0.245C160.563,404.206,160.419,404.41,160.256,404.777z M160.012,402.205l-0.184,0.061
			c0.245,0.205,0.694,0.328,1.348,0.368v-0.184c0-0.163-0.266-0.245-0.796-0.245H160.012z M160.073,406.187l-0.184,0.245v0.122
			h0.123l0.184-0.245v-0.122H160.073z M161.604,408.636l-0.245,0.185v0.184h0.368l0.062-0.184l-0.062-0.185H161.604z"/>
		<path d="M164.422,378.746l0.123-0.123c0.939,0.164,1.919,0.245,2.94,0.245h5.022l0.184,0.184
			c-0.245,0.735-0.368,1.308-0.368,1.715v1.041c0.163,1.144,0.49,1.715,0.98,1.715c0.245-0.449,1.062-0.878,2.45-1.287
			c3.307-1.429,6.002-2.144,8.085-2.144c1.388,0,2.879,0.612,4.471,1.837c1.184,0.45,2.328,1.409,3.43,2.879
			c1.674,2.655,2.511,5.779,2.511,9.372v0.49l-0.429,4.41l0.429,3.185l-0.612,2.879v0.123v0.49l2.327,0.122h1.042
			c0.694,0,1.103,0.062,1.225,0.184c-0.164,2.981-0.47,4.472-0.919,4.472c-0.817,0.49-1.695,0.734-2.634,0.734h-1.286
			c-1.96,0-4.022,0.266-6.187,0.797c-1.43-0.205-2.144-0.919-2.144-2.144l-0.062-2.205c0-1.348,0.347-2.328,1.042-2.94
			c0.368-2,0.796-3.817,1.286-5.451l0.368-5.452c0.123,0,0.184-0.449,0.184-1.347c0-1.103-0.878-2.674-2.634-4.716
			c-1.348-0.571-2.124-0.858-2.328-0.858c-2.369,0-4.492,1.001-6.37,3.001c-0.164,0-1.164,1.001-3.001,3.001
			c-0.572,0.45-0.857,1.817-0.857,4.104c0.081,4.125,0.224,6.187,0.429,6.187c1.632,0.286,2.45,0.593,2.45,0.919v0.245l-1.347-0.062
			l-0.98,0.062v0.245c0,0.163,0.775,0.367,2.327,0.612c0.285,0.286,0.429,0.756,0.429,1.408v0.123c0,0.979-0.205,2.021-0.612,3.124
			l-7.105,0.061c-0.695,0-1.205-0.347-1.531-1.041c-0.164-0.775-0.348-2.286-0.551-4.532c0-0.204,0.612-0.429,1.837-0.674
			l0.306-0.429v-0.062c0-0.245-0.164-0.592-0.49-1.041v-1.899v-3.491l0.245-5.635c0-3.838-0.164-5.758-0.49-5.758h-0.306
			l-2.879,0.368c-0.286,0-0.674-0.245-1.164-0.735v-0.245c0.205-0.326,0.307-0.674,0.307-1.042l-0.123-2.266L164.422,378.746z
			 M164.299,382.788v0.062c0,0.123,0.102,0.225,0.306,0.306c0.327,0,0.694-0.184,1.103-0.551v-0.061h-0.98
			C164.442,382.584,164.299,382.666,164.299,382.788z M169.75,379.848l-5.022,0.796v0.123c0,0.123,0.306,0.205,0.919,0.245
			c2.654,0,3.981-0.184,3.981-0.551l0.245-0.368v-0.123h-0.123V379.848z M164.79,384.687v0.123h0.612l0.245-0.245v-0.061
			l-0.307-0.123C164.973,384.503,164.79,384.606,164.79,384.687z M165.953,382.176l0.184,0.184h0.123
			c0.53-0.04,0.796-0.163,0.796-0.367l-0.306-0.062C166.218,381.931,165.953,382.013,165.953,382.176z M166.504,383.401v0.123
			l1.164-0.062h0.184c0.408,0,0.652,0.103,0.735,0.306v0.184c-0.205,0.205-0.306,0.409-0.306,0.612
			c0.204,0.164,0.449,0.245,0.735,0.245c0.123,0,0.184-0.082,0.184-0.245l0.062-2.021l-0.062-0.184h-0.184
			c-0.245,0.164-1.062,0.49-2.45,0.98L166.504,383.401z M167.178,404.655l-0.123,0.244v0.062c0.081,0.735,0.346,1.103,0.796,1.103
			h0.367l0.184-0.184v-0.122c-0.368-0.449-0.551-0.816-0.551-1.103H167.178z M168.709,386.035l0.123,0.184h0.123l0.184-0.796h-0.184
			C168.832,385.422,168.75,385.627,168.709,386.035z M169.75,407.533c0,0.205,0.53,0.307,1.593,0.307
			c2.042,0,3.062-0.102,3.062-0.307c0-0.244-0.695-0.367-2.083-0.367C170.771,407.166,169.914,407.289,169.75,407.533z
			 M170.915,383.707h-0.306l-0.123,0.368v1.103c0,0.49-0.083,0.817-0.245,0.98v0.306l0.245,0.857v0.49
			c0,0.327,0.101,0.551,0.306,0.674c0.04,0,0.163-0.469,0.367-1.409c0.572-0.449,0.858-0.796,0.858-1.041
			c0-0.204-0.225-0.653-0.674-1.348C171.221,384.034,171.077,383.707,170.915,383.707z M171.404,387.566l0.123,0.368
			c0,0.327-0.184,0.653-0.551,0.98c0.204,0.205,0.306,0.409,0.306,0.612c0,2.042,0.143,3.062,0.429,3.062h0.062
			c0.326-0.735,0.49-1.694,0.49-2.879c-0.041-1.51-0.225-2.306-0.551-2.389h-0.122C171.466,387.321,171.404,387.403,171.404,387.566
			z M173.058,384.258v0.245c0.571,0,1.184-0.368,1.837-1.103v-0.062l-0.061-0.061h-0.061
			C174.283,383.278,173.711,383.605,173.058,384.258z M173.12,387.688v0.184c1.061-0.123,2.531-1,4.41-2.634v-0.061h-0.367
			c-0.164,0-0.654,0.286-1.47,0.857C173.977,386.566,173.12,387.117,173.12,387.688z M173.671,389.22l-0.123,0.123l0.123,0.184
			h0.245v-0.184l-0.123-0.123H173.671z M175.386,388.607l-0.368,0.49v0.123l0.062,0.123h0.306l0.184-0.735H175.386z
			 M176.121,388.178v0.123h0.184c0.652-0.53,0.98-0.98,0.98-1.348h-0.123v-0.122C176.834,386.831,176.488,387.281,176.121,388.178z
			 M176.672,382.727l0.062,0.061v0.062c0.367-0.123,0.551-0.224,0.551-0.306v-0.123h-0.123
			C176.834,382.503,176.672,382.604,176.672,382.727z M177.774,382.115v0.061l0.123,0.184c1.919-0.49,2.879-0.857,2.879-1.103
			h-0.123C179.755,381.257,178.795,381.543,177.774,382.115z M178.081,387.443c0.898-0.163,1.348-0.388,1.348-0.674l-0.184-0.123
			h-0.184C178.448,386.647,178.121,386.913,178.081,387.443z M180.959,384.013v0.123h0.306c0.613-0.081,0.919-0.204,0.919-0.368
			v-0.122h-0.429C181.225,383.687,180.959,383.81,180.959,384.013z M181.939,381.012v0.061c0.285,0,0.775,0.245,1.47,0.735
			l0.674,0.184l1.96-0.062l0.061-0.123v-0.061c-0.041-0.245-0.266-0.368-0.674-0.368h-0.245l-0.613,0.123
			c-0.898-0.53-1.552-0.796-1.96-0.796C182.246,380.706,182.021,380.808,181.939,381.012z M182.001,385.3l0.123,0.122h0.061
			c0.898,0,1.348-0.081,1.348-0.245l-0.49-0.123C182.347,385.137,182.001,385.218,182.001,385.3z M184.145,386.463v0.184h1.531
			l0.245-0.184v-0.245l-0.306-0.184h-0.306C184.532,386.157,184.145,386.301,184.145,386.463z M185.431,383.768
			c0,0.164,0.368,0.287,1.103,0.368c0.163-0.123,0.245-0.285,0.245-0.49c0-0.204-0.327-0.368-0.98-0.49
			C185.553,383.319,185.431,383.523,185.431,383.768z M186.166,410.474l-0.245,0.245v0.122c0,0.285,0.551,0.429,1.654,0.429h0.306
			l0.49-0.122v-0.062c-0.409-0.408-1.062-0.612-1.96-0.612H186.166z M186.35,407.718h-0.184v0.367l0.184,0.184h0.184l0.062-0.184
			v-0.062L186.35,407.718z M186.717,384.871l-0.368-0.184l-0.123,0.123v0.061l0.306,0.184h0.062L186.717,384.871z M187.758,383.401
			l-0.184,0.245c0.082,0.205,0.245,0.306,0.49,0.306h0.307l0.306-0.245v-0.061c-0.041-0.163-0.245-0.245-0.613-0.245H187.758z
			 M187.758,385.3h-0.061v0.184c0,0.123,0.265,0.695,0.796,1.715c0,0.328,0.081,0.49,0.245,0.49l0.245-0.245v-0.245
			C188.983,386.545,188.575,385.912,187.758,385.3z M187.697,409.31c0.123,0.327,0.326,0.49,0.612,0.49
			c2.205-0.041,3.308-0.184,3.308-0.429c-0.286-0.367-0.796-0.551-1.531-0.551C188.494,408.861,187.697,409.024,187.697,409.31z
			 M188.31,401.837c0.245,0.286,0.368,0.674,0.368,1.164h0.123l0.184-0.735v-1.041C188.534,401.225,188.31,401.43,188.31,401.837z
			 M188.677,388.362v0.184c0.49,1.837,0.796,2.797,0.919,2.879l0.122-0.429v-0.551C189.432,389.057,189.085,388.362,188.677,388.362
			z M188.677,400.857l0.061,0.062h0.062c0.123,0,0.184-0.204,0.184-0.613v-0.734C188.82,399.571,188.717,400,188.677,400.857z
			 M191.005,405.513h-0.245v0.245l0.245,0.244l0.184-0.122v-0.122L191.005,405.513z M190.821,404.41v0.122h0.062l0.245-0.674v-0.122
			h-0.123C190.882,403.736,190.821,403.961,190.821,404.41z M191.005,401.286h-0.123v0.307h0.123V401.286z M191.005,396.447v0.062
			l0.184,0.734h0.306C191.454,396.713,191.29,396.447,191.005,396.447z M191.434,388.485h-0.062
			c0.082,2.165,0.285,3.246,0.613,3.246h0.123C191.902,389.567,191.679,388.485,191.434,388.485z M192.414,401.593l-0.123,1.225
			v1.531h0.061c0.53-0.652,0.796-1.266,0.796-1.838v-0.061C193.148,401.879,192.903,401.593,192.414,401.593z M194.312,406.921
			v0.184c1.837,0,2.756-0.143,2.756-0.429v-0.122h-0.857C194.945,406.595,194.312,406.718,194.312,406.921z M194.864,408.207v0.185
			c0.081,0.204,0.265,0.306,0.551,0.306c0.652,0,1.041-0.143,1.164-0.429v-0.184c-0.083-0.245-0.306-0.367-0.674-0.367h-0.306
			C195.19,407.718,194.945,407.881,194.864,408.207z"/>
		<path d="M212.688,377.582h2.021c0.98,0,2.573,0.429,4.778,1.286c0.816,0,2.103,0.511,3.859,1.531h0.306
			c0.449,0,1.429-0.816,2.94-2.45c0.326,0,0.939,0.573,1.837,1.715c0.408,0.164,0.878,0.551,1.409,1.164v0.184
			c-2.287,2.532-3.43,3.941-3.43,4.226c-1.103,3.716-1.838,5.779-2.205,6.187c-0.776,0.817-1.879,1.531-3.308,2.144
			c-1.797,1.797-3.41,2.695-4.839,2.695l-1.837,0.062l-3.981-0.368h-0.796c-0.327,0-0.756,1.348-1.286,4.043l0.49,0.122h0.184
			c0.653,0,1.368-0.245,2.144-0.734l1.409-0.123h2.45c3.92,0,7.146,0.367,9.678,1.103c0.368,0.245,1.265,0.695,2.695,1.348
			l2.083,1.531c1.633,1.389,2.654,2.634,3.063,3.736c1.47,2.857,2.205,5.288,2.205,7.289c0,1.51-1.185,3.389-3.552,5.635
			l-3.736,2.695c-1.96,1.225-4.288,1.837-6.983,1.837l-1.715,0.245c-7.269,0-12.189-1.47-14.761-4.41
			c-1.879-1.144-2.818-2.634-2.818-4.471c-0.695-1.308-1.041-3.022-1.041-5.146l-0.245-1.348l0.245-0.796h0.184
			c0.204,0.939,0.368,1.409,0.49,1.409h0.184c0.571-2.573,1.02-4.288,1.348-5.146v-0.122h-0.062
			c-1.185,1.92-1.776,3.021-1.776,3.308h-0.122c-0.164,0-0.245-0.225-0.245-0.674c0.04-0.816,0.775-2.226,2.205-4.227
			c1.592-1.511,2.389-2.368,2.389-2.572c0.408-3.39,0.714-5.492,0.919-6.309c-1.062-2.042-1.593-3.715-1.593-5.023l-0.061-1.041
			c0-0.694,0.265-1.96,0.796-3.798c0.449-0.449,1.307-1.551,2.573-3.307C209.339,378.726,211.176,377.582,212.688,377.582z
			 M200.621,412.128l-0.123,0.061v0.429l0.245,0.184h0.062v-0.673H200.621z M200.927,413.23h-0.123v0.184
			c0.04,0.285,0.123,0.429,0.245,0.429l0.184-0.123v-0.184L200.927,413.23z M202.704,407.901l0.061,0.306h0.123
			c0.204,0,0.449-0.612,0.735-1.837H203.5C202.969,406.778,202.704,407.289,202.704,407.901z M203.255,404.41v0.061l0.184,0.185
			c0.98-0.245,1.47-0.571,1.47-0.98v-0.429l-0.123-0.184C204.255,403.268,203.745,403.716,203.255,404.41z M203.5,417.15
			l-0.245,0.306c0.122,0.285,0.245,0.429,0.367,0.429l0.245-0.306C203.867,417.415,203.745,417.272,203.5,417.15z M204.112,412.312
			l-0.123,0.184l-0.123,1.225c0.04,0.857,0.163,1.286,0.368,1.286h0.123c0.122-0.082,0.184-0.225,0.184-0.429v-0.796
			c0-0.98-0.103-1.47-0.306-1.47H204.112z M204.357,406.37v0.245h0.184l0.368-0.429v-0.185
			C204.664,406.002,204.479,406.125,204.357,406.37z M204.418,387.504c0,0.899,0.204,1.573,0.612,2.021h0.245
			c0.123,0,0.184-0.061,0.184-0.184c-0.164-1.715-0.368-2.573-0.613-2.573C204.643,386.77,204.5,387.015,204.418,387.504z
			 M214.831,404.41v0.184l-0.98,0.184l-1.286-0.184l-4.533,0.062c-1.878,1.715-2.817,2.92-2.817,3.613l-0.368,0.429v0.123
			c0.285,4.082,0.694,6.614,1.225,7.595c0.04,0.204,0.775,0.816,2.205,1.838c0,0.285,1.225,0.774,3.675,1.47
			c3.593,0.53,6.574,0.796,8.943,0.796c3.062-0.572,5.145-1.43,6.248-2.572c2-2.042,3.001-3.716,3.001-5.022v-0.307
			c0-0.694-0.796-2.062-2.389-4.104c-0.205-0.571-0.817-1.123-1.837-1.653c-1.797-1.185-3.614-1.919-5.451-2.205l-3.798-0.062
			v-0.367v-0.062h-0.735C215.361,404.165,214.994,404.247,214.831,404.41z M205.153,418.742l-0.184,0.245v0.123h0.551v-0.368
			H205.153z M205.215,385.667h0.184c0.123-0.081,0.449-0.49,0.98-1.225l-0.184-0.123C205.95,384.319,205.623,384.77,205.215,385.667
			z M205.215,405.758v0.184h0.184l0.735-0.245v-0.245h-0.122C205.48,405.492,205.215,405.595,205.215,405.758z M205.521,392.772
			h-0.245v0.184c0.408,0.653,1.021,1.103,1.837,1.348v-0.123C206.746,393.242,206.215,392.772,205.521,392.772z M205.766,403.246
			l0.306,0.184h0.429l0.245-0.306v-0.368l-0.184-0.245C206.154,402.511,205.889,402.756,205.766,403.246z M206.011,418.313h-0.123
			v0.185l0.245,0.244h0.368v-0.184C206.46,418.396,206.296,418.313,206.011,418.313z M206.991,395.345l-0.307,0.245v0.489
			c0,0.328,0.163,0.531,0.49,0.613l0.245-0.184v-0.98l-0.245-0.184H206.991z M207.542,388.24l-0.123,0.184
			c0,0.695,0.224,1.328,0.674,1.899h0.061v-0.245C208.072,389.016,207.869,388.403,207.542,388.24z M208.032,393.201l-0.184,0.184
			c0.163,0.409,0.429,0.612,0.796,0.612l0.306-0.367C208.951,393.467,208.645,393.323,208.032,393.201z M208.277,386.708v0.306
			c0.653,3.104,1.123,4.655,1.409,4.655c0.939,0.898,1.755,1.347,2.45,1.347c3.103,0,5.329-0.694,6.676-2.083
			c1.02-0.939,1.755-1.919,2.205-2.94c0.326-0.571,0.49-1,0.49-1.286v-0.98c0-0.653-0.49-1.633-1.47-2.94
			c-2.205-0.98-3.736-1.47-4.594-1.47c-1.92,0-3.778,0.837-5.574,2.511C208.808,385.137,208.277,386.096,208.277,386.708z
			 M208.461,402.205c0,0.082,0.653,0.163,1.96,0.245c0.53-0.041,0.796-0.123,0.796-0.245c-0.205-0.326-0.45-0.552-0.735-0.674
			h-0.674C208.91,401.653,208.461,401.879,208.461,402.205z M208.951,382.911l0.245,0.062c0.245,0,0.572-0.265,0.98-0.796v-0.245
			h-0.368C209.236,382.258,208.951,382.584,208.951,382.911z M209.38,393.936l-0.062,0.061v0.49l0.245,0.245h1.042v-0.245
			C209.91,394.12,209.502,393.936,209.38,393.936z M210.176,403.43l-0.307,0.245l0.184,0.184h0.429v-0.306l-0.184-0.123H210.176z
			 M210.421,379.113v0.061c1.429-0.367,2.144-0.674,2.144-0.918v-0.062h-0.184C211.809,378.194,211.156,378.5,210.421,379.113z
			 M220.65,421.621c-5.022-0.327-7.861-0.612-8.514-0.857l-1.654-0.122v0.122c0.53,0.408,1.225,0.674,2.083,0.797l1.837-0.062
			l0.429,0.306l0.062-0.061h0.122c1.103,0.203,2.267,0.306,3.492,0.306h1.347c1.796,0,3.042-0.225,3.736-0.674
			c1.715-0.612,2.573-0.96,2.573-1.041v-0.062C223.63,420.804,221.792,421.254,220.65,421.621z M211.462,394.61l-0.245,0.184
			c0,0.368,0.674,0.551,2.021,0.551h1.776c0.245,0,0.388-0.082,0.429-0.245c-0.858-0.326-1.981-0.49-3.369-0.49H211.462z
			 M211.952,380.399v0.245h0.123l1.838-0.674v-0.306h-0.551C212.421,379.869,211.952,380.114,211.952,380.399z M212.688,423.152
			l-0.307-0.245l-0.061,0.062v0.062l0.245,0.122H212.688z M213.606,423.337h-0.245v0.061c0.04,0.163,0.265,0.245,0.673,0.245h0.674
			C214.708,423.438,214.341,423.337,213.606,423.337z M215.382,393.446l-0.245,0.245c0,0.083,0.347,0.164,1.042,0.245l0.49-0.062
			c0-0.163-0.266-0.306-0.796-0.429H215.382z M216.485,400.245l-1.348,0.245v0.061c0,0.368,2.103,0.613,6.309,0.735l1.286,0.429
			h0.123c0.123,0,0.285-0.062,0.49-0.184l1.776,0.062v-0.185c-0.205-0.326-0.673-0.489-1.409-0.489H223.1
			c-0.205,0-0.389,0.061-0.551,0.184l-1.47-0.612c-0.857-0.163-2.185-0.245-3.981-0.245H216.485z M216.668,393.017v0.184
			l0.368,0.245h0.245c0.204,0,0.612-0.306,1.225-0.918v-0.123h-0.551C217.465,392.405,217.036,392.609,216.668,393.017z
			 M218.567,423.337l-0.123,0.184v0.122c0.041,0.163,0.184,0.245,0.429,0.245h0.368l0.796-0.184v-0.184l-1.103-0.184H218.567z
			 M218.812,403.553l-0.306,0.306c0,0.164,1.02,0.307,3.062,0.429c1.674,0.49,3.124,1.164,4.349,2.021l0.857,0.062l0.245-0.245
			v-0.062c-0.286-0.571-1.592-1.204-3.92-1.898C220.935,403.757,219.506,403.553,218.812,403.553z M219.058,392.772l-0.245,0.245
			v0.245h0.123l0.49-0.429v-0.062H219.058z M218.935,402.45h-0.062v0.061c0,0.164,0.49,0.267,1.47,0.307l0.061-0.062v-0.122
			L218.935,402.45z M219.241,392.282h0.184c0.49-0.204,0.878-0.49,1.164-0.857l-0.184-0.245
			C219.71,391.67,219.323,392.037,219.241,392.282z M220.466,390.874v0.061h0.367c0.735,0,1.204-0.836,1.409-2.511v-0.306
			l-0.062-0.123h-0.184C220.977,389.628,220.466,390.588,220.466,390.874z M221.752,423.397v0.123h0.245
			c0.735-0.123,1.103-0.368,1.103-0.735h-0.245C222.283,422.989,221.915,423.192,221.752,423.397z M222.426,382.359h-0.306v0.062
			c0.285,0.776,0.632,1.164,1.041,1.164c0.123,0,0.184-0.061,0.184-0.184C223.345,383.116,223.039,382.768,222.426,382.359z
			 M223.651,390.628h-0.184l-0.184,0.306v0.062h0.184C223.508,390.996,223.569,390.874,223.651,390.628z M223.467,423.643h0.184
			c0.326,0,1.326-0.49,3.001-1.47v-0.123h-0.245C224.448,422.499,223.467,423.03,223.467,423.643z M224.815,402.45l-0.184,0.245
			l0.184,0.122l0.245-0.062v-0.306H224.815z M225.672,403.308h-0.061c0,0.286,0.469,0.531,1.409,0.734l0.245-0.061v-0.123
			c-0.286-0.367-0.735-0.551-1.348-0.551h-0.184H225.672z M226.285,383.033v0.368h0.123c0.857-0.735,1.449-1.368,1.776-1.899v-0.184
			h-0.061C227.673,381.318,227.06,381.891,226.285,383.033z M226.775,379.358l-0.184,0.184v0.061
			c0.082,0.123,0.224,0.184,0.429,0.184h0.368v-0.123l-0.429-0.306H226.775z M227.51,406.615h-0.245c0,0.204,0.591,1.021,1.776,2.45
			v0.061h0.123v-0.245C228.633,407.371,228.082,406.615,227.51,406.615z M228,404.471h-0.429v0.123l2.389,2.144h0.123v-0.122
			C229.51,405.473,228.816,404.757,228,404.471z M228.735,417.456v0.123l0.184,0.122c1.02-0.286,1.531-0.817,1.531-1.593v-0.429
			h-0.184C229.245,416.455,228.735,417.048,228.735,417.456z M231.614,411.576h-0.306v0.123l0.184,0.244h0.123l0.245-0.244
			L231.614,411.576z M232.594,413.291v0.123c0,0.367,0.082,0.571,0.245,0.612h0.123c0.326-0.572,0.49-1.185,0.49-1.838l-0.062-0.061
			h-0.184C232.798,412.413,232.594,412.801,232.594,413.291z M233.022,411.147h-0.245v0.122l0.184,0.245l0.061-0.122V411.147z"/>
		<path d="M247.417,372.927l0.919-0.245c1.061,0,4.104,0.613,9.126,1.838c2.368,1.103,3.736,1.654,4.104,1.654
			c0.327-0.449,0.49-1.021,0.49-1.715v-0.123v-0.429c0-0.53,0.367-0.796,1.103-0.796c0.49-0.368,1.184-0.551,2.083-0.551
			c1.225,0,1.837,0.144,1.837,0.429l0.551,5.757v1.776c0,1.47-0.205,2.349-0.613,2.634c-0.367,0.368-0.653,0.551-0.857,0.551
			c-2.287-0.204-3.43-0.51-3.43-0.919c-0.287-0.98-1.001-1.694-2.144-2.144c-3.92-1.96-6.738-2.94-8.453-2.94l-1.715-0.123
			c-2.042,0-3.247,0.389-3.614,1.164c-0.49,0.654-0.735,1.531-0.735,2.634v0.062c0,2.246,1.164,4.104,3.492,5.574
			c2.327,0.94,4.349,1.409,6.063,1.409c0,0.327,0.919,0.776,2.756,1.348c0.368,0.612,1.164,0.918,2.389,0.918
			c1.266,0.49,3.083,2.042,5.452,4.655l0.245,0.245v0.245c0,0.082-0.123,0.122-0.368,0.122v0.122
			c0.571,1.226,0.857,1.94,0.857,2.145c0,3.675-0.592,5.982-1.776,6.921c-0.531,1.103-1.654,2.186-3.369,3.247
			c-1.92,1.755-3.88,2.634-5.88,2.634h-2.144c-3.226-0.49-4.839-0.899-4.839-1.226c-1.878-1.307-2.961-1.96-3.246-1.96
			c-2.001-0.938-3.39-1.919-4.165-2.94h-0.245c-0.49,1.431-0.899,2.145-1.225,2.145c-2.573-0.408-3.859-0.857-3.859-1.348
			c-0.245-0.694-0.389-2.471-0.429-5.329l0.612-3.798c0-1.387,0.163-2.082,0.49-2.082l3.92-0.429c0.285,0,0.571,1.124,0.858,3.369
			l1.715,3.123c0,0.123,1.816,1.348,5.451,3.676c0.898,1.021,2.184,1.531,3.859,1.531h2.144c2.164,0,3.634-0.694,4.41-2.083
			c0.939-1.021,1.633-2.511,2.083-4.472v-0.184c0-1.184-1.041-2.674-3.124-4.471c-0.899-1.02-2.042-1.531-3.43-1.531
			c-0.817-0.367-2.655-0.755-5.513-1.164l-4.9-2.511l-2.389-2.021c-1.021-1.551-1.573-2.654-1.654-3.308l0.123-1.041l-0.245-2.328
			c0-0.571,0.346-1.245,1.041-2.021c0-0.49,0.98-1.612,2.94-3.369C246.008,374.274,247.089,373.499,247.417,372.927z
			 M236.698,401.348l0.061,1.531h0.062c0.285-0.163,0.429-1.123,0.429-2.879v-0.49l-0.123-0.122h-0.123
			C236.881,399.388,236.779,400.041,236.698,401.348z M238.658,404.532h-0.306v0.245l0.306,0.184l0.245-0.062v-0.122
			L238.658,404.532z M239.086,396.447h-0.306v0.245l0.123,0.122l0.245-0.122L239.086,396.447z M241.414,380.093l-0.184,0.061
			c0.082,0.776,0.184,1.328,0.307,1.654h0.184v-0.061l-0.061-1.654H241.414z M241.475,402.45h-0.184v0.245
			c0.612,0.775,1.204,1.163,1.776,1.163h0.123v-0.184C242.292,402.858,241.72,402.45,241.475,402.45z M242.026,378.623h-0.306
			l-0.061,0.429v0.184l0.061,0.123l0.306-0.613V378.623z M242.823,385.851l-0.123,0.184v0.061l0.123,0.123h0.184v-0.184
			L242.823,385.851z M243.068,380.645l-0.245,0.184v0.184h0.184l0.306-0.245v-0.123H243.068z M243.742,377.949l-0.184,0.062
			l0.062,0.123v0.061l0.245-0.061v-0.184H243.742z M243.925,386.218h-0.062v0.123c0.286,0.899,0.572,1.348,0.858,1.348h0.245
			l0.307-0.306v-0.062C244.742,386.586,244.293,386.218,243.925,386.218z M243.986,378.868v0.062l0.123,0.061h0.245
			c0.897-0.653,1.348-1.184,1.348-1.592h-0.062h-0.123C245.068,377.398,244.558,377.888,243.986,378.868z M245.64,385.667
			l-0.123,0.062v0.123l0.123,0.184h0.613v-0.184C246.211,385.729,246.008,385.667,245.64,385.667z M246.988,386.218l-0.123,0.123
			v0.368l0.368,0.367h0.184l0.184-0.123v-0.306C247.437,386.362,247.233,386.218,246.988,386.218z M247.049,389.465h-0.061
			c0,0.286,0.265,0.511,0.796,0.673l0.123-0.061C247.907,389.874,247.621,389.669,247.049,389.465z M249.193,407.963l-1.776-0.123
			v0.123c0,0.163,0.53,0.367,1.593,0.612l0.245,0.245h0.307C249.478,408.249,249.355,407.963,249.193,407.963z M248.029,373.54
			v0.245c0,0.164,0.265,0.307,0.796,0.429c1.103-0.082,1.654-0.224,1.654-0.429v-0.245c0-0.285-0.572-0.429-1.715-0.429
			C248.437,373.111,248.192,373.254,248.029,373.54z M248.948,387.688l-0.123,0.123v0.061c0.53,0.49,1.327,0.919,2.389,1.286
			l0.123-0.184C251.336,388.729,250.541,388.301,248.948,387.688z M249.744,376.234c0.163,0.164,0.367,0.245,0.612,0.245
			c0.408,0,0.836-0.224,1.287-0.674l-0.307-0.245h-0.674C250.05,375.561,249.744,375.786,249.744,376.234z M250.663,409.494h-0.122
			l0.245,0.306h0.49v-0.062C251.234,409.576,251.03,409.494,250.663,409.494z M251.214,408.82l-0.184-0.185v0.245h0.184V408.82z
			 M251.888,409.861c0.571,0.326,1.348,0.49,2.328,0.49h0.123l2.634-0.123v-0.122c-0.123-0.327-1.531-0.49-4.227-0.49
			C252.173,409.616,251.888,409.697,251.888,409.861z M252.562,376.969l-0.245,0.245c0,0.286,0.735,0.47,2.205,0.551v-0.184
			c0-0.163-0.612-0.368-1.837-0.613H252.562z M252.316,389.22c0,0.164,1.449,0.592,4.349,1.286l0.796,0.062h0.184v-0.062
			c-1.225-0.939-2.716-1.49-4.471-1.654C252.602,389.057,252.316,389.18,252.316,389.22z M253.052,390.996v0.245l1.041,0.368h0.674
			v-0.184C254.032,391.14,253.459,390.996,253.052,390.996z M257.768,409.494l-0.123,0.122v0.184l0.123,0.123h0.245
			c0.775-0.042,1.164-0.144,1.164-0.307l-0.184-0.122H257.768z M258.074,376.173v0.061c0,0.123,0.245,0.205,0.735,0.245h0.184
			v-0.062C258.993,376.337,258.687,376.255,258.074,376.173z M258.809,378.439l-0.061,0.061v0.123
			c1.265,0.735,2.062,1.103,2.389,1.103v-0.061C261.137,379.419,260.36,379.012,258.809,378.439z M259.605,391.854h-0.551v0.184
			c0.245,0.245,1.327,0.857,3.246,1.837c0.816,0.735,1.449,1.103,1.899,1.103h0.062l0.122-0.184
			C263.443,393.568,261.851,392.588,259.605,391.854z M260.463,404.655v0.244h0.123c0.368-0.244,0.674-0.591,0.919-1.041
			l-0.123-0.184C261.054,403.88,260.748,404.206,260.463,404.655z M261.137,395.59h-0.061v0.306c0,0.409,0.346,0.899,1.041,1.47
			h0.368v-0.49C262.484,396.386,262.035,395.957,261.137,395.59z M263.771,405.206l-2.083,1.715v0.123
			c0,0.082,0.082,0.122,0.245,0.122c0.49,0,1.164-0.652,2.021-1.96H263.771z M261.933,377.827l-0.123,0.122
			c0.571,0.45,1.225,0.756,1.96,0.919l0.061-0.123v-0.123c0-0.204-0.592-0.469-1.776-0.796H261.933z M262.239,400.367h-0.306v0.307
			l0.184,0.061l0.184-0.184L262.239,400.367z M263.587,382.237l-0.245,0.123c0.326,0.205,0.919,0.307,1.776,0.307l1.225-0.062
			v-0.245c-0.735-0.081-1.491-0.123-2.267-0.123H263.587z M264.016,373.417v0.123c0.449,0.735,0.836,1.103,1.164,1.103
			c0.327,0,0.571-0.204,0.735-0.613v-0.245C265.915,373.54,265.281,373.417,264.016,373.417z M265.73,400.367l-0.49,0.49v0.307
			l0.123,0.184h0.184c0.245-0.04,0.368-0.368,0.368-0.98H265.73z M266.159,375.315l-0.184,0.245l0.184,0.123h0.307v-0.368H266.159z"
			/>
		<path d="M305.115,380.645l1.715,0.49h0.551c2.328,1.144,4.492,2.512,6.492,4.104c2.084,1.797,3.125,3.145,3.125,4.042h-0.123
			c-0.328-0.571-0.654-0.857-0.98-0.857h-0.061c-0.123,0-0.184,0.083-0.184,0.245c0.162,0.45,0.529,1.225,1.102,2.328h0.123
			c0.082,0,0.184-0.204,0.307-0.613h0.061c0.123,0.042,0.266,0.634,0.43,1.776l0.551,1.225l-0.123,0.796l0.184,2.205
			c-0.285,1.021-0.551,2.369-0.795,4.043c-0.164,0.776-2.062,3.675-5.697,8.697c-1.633,1.552-3.227,2.328-4.777,2.328
			c-1.43,0.162-3.042,0.245-4.839,0.245h-1.164c-0.695,0-2.511-0.593-5.451-1.776c-3.716-3.308-5.574-5.839-5.574-7.596
			c-0.531-1.103-0.98-2.122-1.348-3.062c0-0.53,0.551-2.286,1.654-5.268c0-1.877,0.449-3.185,1.348-3.92
			c1.919-4.124,4.349-6.799,7.289-8.024C301.501,381.114,303.562,380.645,305.115,380.645z M289.618,398.714l-0.123,0.184
			c0.041,0.367,0.102,0.551,0.184,0.551l0.122-0.061v-0.307l-0.122-0.367H289.618z M291.149,401.593l-0.245,0.184v0.429
			c0.082,1.389,0.469,2.165,1.164,2.327l0.061-0.062v-0.061C291.843,402.532,291.517,401.593,291.149,401.593z M291.517,392.099
			c0.204,0,0.388-0.143,0.551-0.429v-0.123C291.701,391.547,291.517,391.731,291.517,392.099z M292.742,390.016h0.061
			c0.163-0.041,0.245-0.204,0.245-0.49h-0.123C292.803,389.608,292.742,389.771,292.742,390.016z M293.109,397.366l-0.245,0.245
			v0.122h0.184l0.123-0.184v-0.184H293.109z M293.416,405.635l-0.245,0.123v0.122l0.49,0.49h0.245
			C293.906,406.085,293.742,405.84,293.416,405.635z M294.089,399.877v0.368c0.572,1.103,1.204,2.287,1.899,3.553
			c0,0.408,0.775,0.979,2.328,1.715c0.735,0.857,2.103,1.531,4.104,2.021l1.102,0.123c1.796-0.367,3.144-0.755,4.042-1.164
			l2.205-1.837c2.287-2.45,3.389-4.512,3.309-6.187v-0.552c-0.246-0.652-0.369-1.715-0.369-3.185c0-1.143,0.082-2.042,0.246-2.695
			c0-0.285-0.797-1-2.389-2.144c-1.145-1.633-2.328-2.634-3.553-3.001h-0.735c-4.778,0.205-7.167,0.592-7.167,1.164
			c-1.062,1.062-1.797,2.104-2.205,3.124c-1.308,1.389-1.96,2.308-1.96,2.756C294.58,395.611,294.293,397.591,294.089,399.877z
			 M294.702,407.778h-0.429v0.245c0.53,0.531,1.49,0.797,2.879,0.797h0.673C297.621,408.535,296.58,408.188,294.702,407.778z
			 M295.192,389.587v0.429h0.184c0.53-0.49,0.796-0.878,0.796-1.164v-0.061h-0.306C295.621,388.955,295.396,389.22,295.192,389.587z
			 M295.988,385.055l-0.184,0.306v0.245c0.245,0,1.49-0.857,3.736-2.573l0.49-0.184l0.368,0.061
			c2.735-0.285,4.104-0.551,4.104-0.796v-0.062l-0.98-0.184C300.745,381.87,298.233,382.932,295.988,385.055z M296.479,386.402
			c0.367,0,0.714-0.245,1.041-0.735v-0.184C296.825,385.688,296.479,385.995,296.479,386.402z M296.723,388.117h-0.245v0.245h0.123
			l0.122-0.123V388.117z M297.581,409.433v0.062h0.796l0.123-0.123l-0.123-0.184h-0.123
			C297.846,409.188,297.621,409.27,297.581,409.433z M298.867,408.575v0.184c0,0.245,0.571,0.367,1.715,0.367l0.062-0.061v-0.123
			C300.112,408.697,299.52,408.575,298.867,408.575z M300.644,384.258v0.306c3.185-0.367,4.777-0.612,4.777-0.735l-0.49-0.184
			h-0.062C302.91,383.646,301.501,383.851,300.644,384.258z M300.766,386.341v0.061l0.122,0.184h0.858l4.349-0.98v-0.123
			l-1.164-0.245C302.154,385.565,300.766,385.933,300.766,386.341z M304.809,410.045v0.122c0,0.123,0.306,0.225,0.918,0.307
			c0.694,0,1.041-0.103,1.041-0.307v-0.122c-0.041-0.164-0.184-0.327-0.428-0.49h-0.551
			C305.339,409.555,305.012,409.718,304.809,410.045z M305.85,381.931c0.205,0.572,0.652,0.857,1.348,0.857l0.613,0.062l0.121-0.062
			v-0.306c0-0.449-0.428-0.714-1.285-0.796C306.115,381.727,305.85,381.808,305.85,381.931z M305.972,384.564v0.062l0.612-0.49
			l-0.122-0.061C306.054,384.319,305.89,384.483,305.972,384.564z M307.014,383.952l-0.123,0.061
			c0.775,0.613,1.389,0.919,1.838,0.919l0.061-0.123v-0.061C308.137,384.218,307.543,383.952,307.014,383.952z M308.115,410.474
			h0.062c0.734-0.245,1.102-0.45,1.102-0.612l-0.121-0.123C308.586,409.942,308.238,410.188,308.115,410.474z M309.035,386.77
			c0.244,0.409,0.529,0.613,0.857,0.613l0.061-0.123v-0.123c0-0.368-0.164-0.551-0.49-0.551
			C309.178,386.627,309.035,386.688,309.035,386.77z M310.137,383.278l-0.184,0.184c0.449,0.572,0.898,0.857,1.348,0.857
			c0-0.449-0.348-0.796-1.041-1.041H310.137z M311.057,385.973v0.123c0.121,0.49,0.693,1.001,1.715,1.531h0.184l0.123-0.184v-0.061
			C312.873,387.097,312.199,386.627,311.057,385.973z M312.404,387.872h-0.246c0.246,0.531,0.836,0.98,1.777,1.348h0.244
			l0.184-0.184v-0.061C313.668,388.24,313.016,387.872,312.404,387.872z M314.977,402.879v0.061c0.326,0,0.611-0.326,0.857-0.979
			v-0.123h-0.184C315.404,401.837,315.18,402.185,314.977,402.879z M315.957,401.776h0.305l0.246,0.184
			c0.039-0.652-0.062-0.939-0.307-0.857h-0.123l-0.061-0.429L315.957,401.776z M316.445,398.407c0.041,1.225,0.143,1.879,0.307,1.96
			h0.123c0-0.448,0.184-0.938,0.551-1.47v-0.184l-0.674-0.919h-0.121C316.547,397.795,316.486,398,316.445,398.407z
			 M317.426,394.059l-0.184,0.184v0.245l0.184,0.245l0.246-0.245v-0.245l-0.184-0.184H317.426z"/>
		<path d="M336.168,368.088l0.246-0.061c1.143,0.082,3.082,0.612,5.818,1.592c0.244,0.245,0.51,0.368,0.797,0.368l0.367-0.184
			l2.879,3.736c0.652,0.939,0.98,1.675,0.98,2.205c0.406,1.185,0.611,2.348,0.611,3.491c0,1.062-0.734,1.592-2.205,1.592
			c-0.367,0-1.041-0.163-2.021-0.49c-0.082,0-0.225,0.225-0.428,0.674h-0.184c-0.205,0-0.512-0.796-0.92-2.389
			c-1.184-3.348-1.838-5.042-1.959-5.083c-0.572-0.327-1.756-0.49-3.553-0.49h-0.184l-4.656,1.164
			c-1.143,0.776-1.715,1.286-1.715,1.531c0,5.554,0.205,8.33,0.613,8.33c0.939,0.653,2.734,0.98,5.391,0.98
			c0.488,0.123,0.734,0.327,0.734,0.612c0.775,0.654,1.164,1.348,1.164,2.083c0,1.715-1.246,2.573-3.736,2.573h-0.123
			c-0.613,0-1.307-0.224-2.082-0.674l-0.367-0.062c-0.818,0.083-1.227,0.205-1.227,0.368v8.331c0,1.103,0.102,2.368,0.307,3.797
			l-0.121,1.776v1.654c0,0.286,1.203,0.612,3.613,0.979c2.164,0,3.449,0.205,3.859,0.612l0.244,0.185
			c-0.244,0-0.512,1.185-0.797,3.552l-2.512-0.367l-0.795,0.123c-2.818-0.409-5.105-0.613-6.861-0.613l-5.021,0.123
			c-0.164-0.164-0.246-0.47-0.246-0.919v-1.348c0-1.307-0.082-2.205-0.244-2.695c0-0.285,0.346-0.429,1.041-0.429
			c0.408,0,1.205,0.184,2.389,0.552h0.92c0.406,0,0.674-0.123,0.795-0.368v-0.122c-0.367-0.897-0.551-2.389-0.551-4.472
			c-0.244-0.979-0.367-1.816-0.367-2.511v-0.123c0-1.02,0.285-3.592,0.857-7.717c0-0.123-0.367-0.224-1.104-0.306h-0.244
			c-1.715,0.531-3.186,0.796-4.41,0.796l-0.918-0.184c0.203-3.797,0.447-5.696,0.734-5.696c0.041-0.123,0.203-0.184,0.49-0.184
			h0.307c3.143-0.082,4.715-0.204,4.715-0.368c0-2.041-0.02-3.879-0.061-5.513c-0.041-1.632-0.061-2.47-0.061-2.511v-0.245
			L326,374.642c0.572-1.021,1.145-1.817,1.717-2.389l2.879-3.001C332.27,368.477,334.127,368.088,336.168,368.088z M321.223,385.422
			v0.245l0.184,0.123h0.307c0.246-0.04,0.43-0.224,0.551-0.551l-0.184-0.184h-0.244
			C321.549,385.055,321.346,385.177,321.223,385.422z M321.836,388.423c-0.244,0.368-0.367,0.674-0.367,0.919v0.245l0.123,0.123
			h0.672l0.123-0.123C322.387,389.138,322.203,388.75,321.836,388.423z M323.857,408.207l-0.123,0.123v0.062
			c0,0.286,0.836,0.47,2.512,0.551l0.123-0.122c-0.531-0.408-1.227-0.613-2.084-0.613H323.857z M324.225,385.667l-0.307,0.245v0.123
			c0,0.286,0.123,0.49,0.367,0.612c0.285,0,0.654-0.163,1.104-0.49c0-0.123-0.367-0.285-1.104-0.49H324.225z M324.102,405.635
			h-0.184v0.245c0,0.164,0.326,0.266,0.98,0.307l0.674-0.123v-0.062C324.918,405.758,324.428,405.635,324.102,405.635z
			 M324.408,387.75l-0.123,0.184v0.122l0.369,0.062h0.184l0.061-0.184C324.898,387.893,324.734,387.832,324.408,387.75z
			 M325.879,388.729l-0.123,0.184v0.061h0.734l0.184-0.184v-0.062H325.879z M327.104,408.207v0.123
			c0.367,0.408,0.715,0.612,1.041,0.612h0.43v-0.122C328.043,408.412,327.553,408.207,327.104,408.207z M327.9,395.467l0.244,0.674
			l-0.123,0.796c0.123,1.307,0.285,1.96,0.49,1.96h0.062c0.203,0,0.326-0.735,0.367-2.205v-0.307c0-0.816-0.246-1.225-0.736-1.225
			h-0.184C327.939,395.161,327.9,395.263,327.9,395.467z M328.328,390.567h-0.123l-0.184,1.715l0.123,1.041h0.061l0.123-0.98
			V390.567z M328.328,403.491h-0.123c-0.041,0.286-0.061,0.898-0.061,1.838v0.061h0.307l0.244-0.245v-0.796
			C328.574,403.777,328.451,403.491,328.328,403.491z M328.512,401.837h-0.307v0.245l0.246,0.123h0.123L328.512,401.837z
			 M328.574,387.198h-0.062v0.49l0.184,0.123v-0.062v-0.429L328.574,387.198z M328.818,394.365l-0.244-0.061l-0.062,0.061v0.123
			l0.062,0.367h0.244V394.365z M328.941,393.323h-0.246v0.307v0.245l0.246-0.245V393.323z M329.064,392.221h-0.186v0.184h0.186
			V392.221z M330.35,408.82h-0.918v0.122c0,0.245,0.387,0.389,1.164,0.429h0.979l0.184-0.184
			C331.758,408.942,331.289,408.82,330.35,408.82z M331.453,370.477c1.51,0,2.633-0.307,3.367-0.919v-0.184h-0.121
			C333.514,369.375,332.432,369.742,331.453,370.477z M331.758,386.402h-0.305v0.184c0.162,0.286,0.469,0.429,0.918,0.429h0.367
			v-0.184C332.574,386.545,332.248,386.402,331.758,386.402z M334.82,387.137h-0.184v0.123h0.184V387.137z M334.76,388.729
			l0.244,0.062c1.186-0.204,1.777-0.429,1.777-0.674v-0.184h-0.367C335.311,388.056,334.76,388.322,334.76,388.729z
			 M335.066,407.533v0.123l0.551,0.062c0.816-0.082,1.225-0.185,1.225-0.307l-0.061-0.122h-1.104
			C335.27,407.289,335.066,407.371,335.066,407.533z M335.494,372.131l-0.184,0.184v0.061h0.184l0.184-0.123v-0.122H335.494z
			 M336.414,408.759l-0.246,0.184v0.123l0.43,0.489h0.184l0.123-0.184v-0.429l-0.246-0.184H336.414z M336.781,370.477l-0.551,0.122
			v0.123c0.08,0.123,0.223,0.184,0.428,0.184h0.857l0.184-0.123C337.699,370.579,337.395,370.477,336.781,370.477z M340.701,370.354
			c0.693,0.817,1.326,1.225,1.898,1.225v-0.429c-0.49-0.652-1.062-0.98-1.715-0.98h-0.061
			C340.742,370.17,340.701,370.232,340.701,370.354z M342.232,375.193h-0.123v0.122c0,0.531,0.205,1.021,0.613,1.47h0.244
			l0.062-0.429C342.988,375.582,342.723,375.193,342.232,375.193z M343.457,379.052l0.184,0.062h0.246l0.061-0.306v-0.735h-0.061
			C343.6,378.317,343.457,378.644,343.457,379.052z"/>
		<path d="M371.816,376.418l7.596-0.184c0.652,0,2.021,0.286,4.104,0.857c2.367,2.247,3.777,4.002,4.227,5.268
			c0.896,0.94,1.613,2.797,2.143,5.574c0.654,0.653,0.98,2.104,0.98,4.349l0.062,1.531l-0.246,6.063
			c0,1.226,0.756,2.736,2.268,4.533c1.387,1.348,2.285,2.021,2.693,2.021v0.122c0,0.49-0.715,1.267-2.143,2.327
			c-1.062,1.062-1.736,1.593-2.021,1.593h-0.062c-0.652-0.082-2.307-1.286-4.961-3.613c-4.818,1.878-7.248,2.837-7.289,2.878
			c-1.592,0.49-3.367,0.735-5.328,0.735h-0.307c-2.205-0.367-4.084-1.225-5.635-2.572c-0.285-0.245-0.879-1.266-1.775-3.062
			c-0.736-0.897-1.104-2-1.104-3.308v-1.776c0-1.143,0.307-2.205,0.92-3.186c0.529-1.673,1.447-3.266,2.756-4.777
			c0.652-0.775,1.307-1.265,1.959-1.47c2.123-1.143,4.227-1.715,6.309-1.715l2.758-0.061h0.367c1.551,0,2.654,0.225,3.307,0.674
			h0.367c0.205,0,0.307-0.082,0.307-0.245c-0.449-1.919-1.184-3.756-2.205-5.513c-0.898-1.51-2.572-2.266-5.021-2.266l-2.512-0.368
			c-2.164,0.45-3.246,0.899-3.246,1.348c-0.857,1.103-1.369,2.471-1.531,4.104c-0.082,0.205-0.818,0.306-2.205,0.306l-0.367,0.123
			c-0.164,0-0.369,0.347-0.613,1.041c-1.145-0.163-1.715-0.408-1.715-0.735c0.082-0.245,0.225-1.715,0.428-4.41
			c0.654-1.877,2.205-3.614,4.656-5.206C370.877,376.746,371.572,376.418,371.816,376.418z M367.529,384.749l-0.184,0.122v0.919
			h0.061c0.162-0.04,0.246-0.184,0.246-0.429v-0.49L367.529,384.749z M368.02,380.216v0.123h0.061c0.367,0,0.92-0.388,1.654-1.164
			v-0.184h-0.061C369.264,378.991,368.713,379.399,368.02,380.216z M368.938,404.777l-0.123,0.122v0.062l0.123,0.123h0.307v-0.123
			l-0.184-0.184H368.938z M369.121,407.963l-0.184,0.244c0.162,0.368,1.184,0.838,3.062,1.409c0.613,0.285,1.43,0.429,2.451,0.429
			v-0.062c0-0.122-0.777-0.347-2.328-0.674c-0.898-0.244-1.838-0.693-2.818-1.347H369.121z M370.408,392.16l-0.674,0.306v0.306
			h0.123c0.285,0,0.488-0.163,0.611-0.49v-0.123H370.408z M369.734,397.979c0.285,2.45,0.633,3.675,1.041,3.675l0.613,0.797v0.061
			l-0.553-0.061v0.184c0.775,1.062,2.369,2.042,4.777,2.939c0.287,0.164,0.695,0.286,1.227,0.368c0.734,0,3.553-1.204,8.451-3.614
			c0.328-0.204,0.49-0.429,0.49-0.674v-0.306c-0.367-1.674-0.674-3.634-0.918-5.88l-0.123-0.062c0-0.449-0.449-0.816-1.348-1.102
			c-3.021-0.858-5.084-1.287-6.186-1.287c-3.104,0.695-5.229,1.736-6.371,3.125C370.102,396.876,369.734,397.488,369.734,397.979z
			 M373.531,378.256v0.184c0.041,0.123,0.246,0.184,0.613,0.184s0.877-0.123,1.531-0.367v-0.245h-0.246
			C374.531,378.011,373.898,378.093,373.531,378.256z M375.799,407.104l-0.186,0.185c0.082,0.204,0.246,0.306,0.49,0.306
			c0.449-0.081,0.674-0.184,0.674-0.306v-0.062l-0.184-0.123H375.799z M376.533,379.787l-0.307,0.245l0.184,0.306h0.797l0.184-0.184
			l-0.367-0.367H376.533z M378.678,377.459l-0.123,0.184l0.184,0.245h0.367l0.061-0.123l-0.184-0.306H378.678z M380.697,406.432
			v0.122h0.246c0.57,0,1.326-0.245,2.266-0.735v-0.061h-0.244C381.576,405.921,380.82,406.146,380.697,406.432z M383.332,377.949
			h-0.123v0.123c0.326,0.328,0.613,0.49,0.857,0.49h0.062v-0.123C383.801,378.113,383.535,377.949,383.332,377.949z
			 M386.271,398.836l-0.061,0.062v0.367l0.184,0.245h0.061l0.246-0.245v-0.367l-0.184-0.062H386.271z M386.455,396.692l-0.184,0.184
			l0.184,0.245l0.246-0.062v-0.184l-0.184-0.184H386.455z M388.17,393.997l-0.184-0.123v0.184h0.184V393.997z M388.416,395.161
			h-0.367v0.245l0.184,0.184l0.184-0.184V395.161z M388.354,391.792l-0.184,0.123v0.184c0.164,0.612,0.326,0.918,0.49,0.918h0.123
			c0-0.53-0.123-0.939-0.367-1.225H388.354z M388.66,396.876h-0.184v0.062c0.082,1.552,0.246,2.327,0.49,2.327l0.123-0.122v-0.123
			C389.09,398.162,388.945,397.448,388.66,396.876z M389.58,405.573l-0.184,0.185c0.121,0.286,0.285,0.47,0.488,0.551h0.062
			l0.244-0.245v-0.122l-0.307-0.368H389.58z M389.764,389.648h-0.062v0.123c0.082,0.327,0.164,0.49,0.246,0.49l0.061-0.306
			C389.926,389.751,389.844,389.648,389.764,389.648z M390.928,406.615l-0.123,0.245v0.122l0.244,0.245h0.246l0.184-0.123v-0.122
			l-0.307-0.367H390.928z M391.479,404.594h-0.184v0.367c0.162,0.531,0.346,0.797,0.551,0.797h0.184v-0.185
			C391.865,404.921,391.682,404.594,391.479,404.594z"/>
		<path d="M421.492,367.965l4.715-0.735h0.184c0.736,0,2.268,0.245,4.596,0.735c3.062,0,7.104,0.837,12.127,2.512
			c2.164,1.675,3.818,3.675,4.961,6.002c0.408,1.266,0.613,2.532,0.613,3.797v0.123c0,1.837-0.756,3.88-2.268,6.125
			c-0.857,1.103-2.164,2.124-3.92,3.062c-0.449,0.45-1.43,1.103-2.939,1.96c-0.654,0.531-0.98,0.898-0.98,1.103
			c3.512,5.105,5.859,8.413,7.045,9.922c1.143,1.96,2.205,2.94,3.184,2.94c3.104,0.163,4.656,0.612,4.656,1.348l0.49,2.878
			c-0.082,0.204-0.246,0.307-0.49,0.307h-0.49l-3.369,0.796c-0.326-0.449-1.613-0.674-3.859-0.674c-2.205,0-3.307-0.122-3.307-0.367
			c-0.041-0.612-0.225-1.449-0.551-2.511l-0.062-0.429v-0.245c0-0.368-0.572-1.307-1.715-2.817c-0.205-0.898-0.428-1.43-0.674-1.593
			c-0.939-1.307-2.326-3.94-4.164-7.901c-0.451-0.449-0.818-0.674-1.104-0.674l-3.797,0.857c-1.756,0-2.635,0.531-2.635,1.592v1.042
			c0,5.187,0.389,7.778,1.164,7.778l0.797,0.062h0.674l1.471-0.306c0.244,0.531,0.367,1.408,0.367,2.634l-0.246,0.612l0.062,1.103
			c0,0.367-1.43,0.755-4.289,1.163l-0.184-0.122l-4.777-0.122h-3.43c-0.408,0-0.613-0.511-0.613-1.531v-1.042
			c0-1.551,0.369-2.327,1.104-2.327l2.756-0.612l0.123-0.919c-0.287-8.901-0.592-14.741-0.92-17.518
			c-0.041-8.942-0.162-13.414-0.367-13.414l-0.244-0.123l-4.166,0.796l-0.244-0.061l0.123-0.551h-0.736v-0.184h-0.121l0.121-0.735
			v-0.367c0-0.245-0.164-0.653-0.49-1.225c0.572-0.082,0.857-0.245,0.857-0.49l-0.367-0.49
			C416.162,368.844,417.939,368.456,421.492,367.965z M416.898,371.641v0.245l0.184,0.061c0.285,0,0.529-0.163,0.734-0.49v-0.307
			l-0.244-0.245h-0.369C417.041,370.906,416.938,371.15,416.898,371.641z M422.961,372.437l-0.184,0.184v1.348l0.307,3.369h0.061
			l0.369-4.777l-0.123-0.123H422.961z M423.145,380.645h-0.184v0.184l0.184,0.123h0.123v-0.123L423.145,380.645z M424.676,377.766
			l-0.428,4.104l0.184,0.184h0.244l0.184-0.245v-3.246C424.859,378.032,424.799,377.766,424.676,377.766z M424.492,386.77
			l-0.184,0.245v0.061l0.184,0.184l0.184-0.184v-0.061L424.492,386.77z M424.676,402.572l-0.244,0.245v0.612h0.244l0.123-0.612
			l-0.061-0.245H424.676z M424.859,405.084h-0.121l-0.123,1.041v0.062h0.244l0.246-0.185v-0.244
			C425.105,405.35,425.023,405.125,424.859,405.084z M426.023,406.125v0.062l0.246,0.245h0.121c0.164,0,0.285-0.286,0.369-0.858
			v-0.244l-0.123-0.368h-0.184C426.289,404.961,426.146,405.35,426.023,406.125z M426.453,375.745l-0.062,0.245v0.245
			c0.041,0.286,0.102,0.429,0.186,0.429l0.184-0.184v-0.49l-0.184-0.245H426.453z M426.76,368.395l-0.184,0.184l0.184,0.184h1.041
			v-0.184l-0.797-0.184H426.76z M427.188,372.314v0.49l0.49,3.92c-0.244,4.247-0.449,6.534-0.613,6.86l-0.305,0.429v0.735
			l0.428,3.124c0,1.47,0.205,2.205,0.613,2.205h0.121c3.104-0.408,4.656-0.775,4.656-1.103c2.082-0.775,3.553-1.409,4.41-1.899
			c1.797,0,3.959-1.265,6.492-3.797c0.693-1.388,1.041-2.674,1.041-3.859v-0.674c0-0.408-0.572-1.49-1.715-3.246
			c-2.082-2.368-4.062-3.553-5.941-3.553l-2.082-0.123C431.516,372.152,428.984,372.314,427.188,372.314z M427.064,370.232
			c0,0.164,0.164,0.245,0.49,0.245h0.123c1.104-0.041,1.693-0.163,1.777-0.368l-0.186-0.184h-1.225
			C427.393,369.967,427.064,370.069,427.064,370.232z M430.496,408.207l0.121,0.062h0.246l0.244-0.184v-0.122l-0.121-0.185
			C430.658,407.778,430.496,407.922,430.496,408.207z M430.863,406.554l-0.062,0.062v0.245h0.062l0.184-0.245v-0.062H430.863z
			 M431.844,390.567v0.061h0.184c0.652,0,0.979-0.102,0.979-0.306V390.2h-0.184C432.617,390.2,432.291,390.322,431.844,390.567z
			 M432.148,370.722l0.246,0.123h0.611c0.369,0,0.592-0.102,0.674-0.306c0-0.163-0.244-0.245-0.734-0.245
			C432.537,370.293,432.271,370.437,432.148,370.722z M434.109,390.077v0.061h0.428c0.572-0.081,0.857-0.163,0.857-0.245
			l-0.121-0.123h-0.123C434.455,389.853,434.109,389.955,434.109,390.077z M435.885,391.119l0.123,0.061h0.061
			c1.021-0.245,1.531-0.469,1.531-0.674l-0.061-0.123h-0.061C436.621,390.547,436.09,390.792,435.885,391.119z M436.865,389.036
			v0.184c1.143-0.245,1.898-0.633,2.266-1.164v-0.061h-0.121C437.824,388.362,437.111,388.709,436.865,389.036z M437.172,394.793
			v0.061c0,0.328,0.162,0.613,0.49,0.858h0.244v-0.123C437.621,395.06,437.375,394.793,437.172,394.793z M439.684,370.722
			l-0.123,0.062v0.061c0.162,0.164,0.387,0.245,0.674,0.245v-0.061C440.234,370.947,440.051,370.844,439.684,370.722z
			 M439.684,387.443v0.184h0.551c0.203-0.245,0.652-0.53,1.348-0.857l0.061-0.061v-0.184
			C441.07,386.524,440.418,386.831,439.684,387.443z M440.725,388.975l0.061,0.061h0.062l0.428-0.245v-0.184h-0.061
			C440.928,388.689,440.764,388.812,440.725,388.975z M441.643,371.58v0.061c0.775,0.531,1.736,1.225,2.879,2.083h0.184v-0.306
			C444.705,372.804,443.684,372.192,441.643,371.58z M441.889,387.995l-0.184,0.123v0.123h0.305v-0.245H441.889z M442.623,373.601
			l-0.123,0.184l0.307,0.307h0.184v-0.123l-0.244-0.368H442.623z M443.113,408.82l-0.123,0.122c0,0.164,0.102,0.245,0.307,0.245
			l0.307-0.122l-0.062-0.245H443.113z M443.541,386.157v0.184h0.246c0.326-0.123,0.49-0.285,0.49-0.49h-0.184
			C443.807,385.851,443.623,385.953,443.541,386.157z M445.195,406.86l-0.244,0.306l0.244,0.307h0.062l0.244-0.307v-0.306H445.195z
			 M445.195,385.544c0.041,0.205,0.184,0.389,0.43,0.551h0.121c0.449-0.367,0.674-0.735,0.674-1.103l-0.121-0.061
			C445.727,384.932,445.357,385.137,445.195,385.544z M446.482,407.656h-0.674v0.062l0.244,0.245h1.041v-0.062
			C447.053,407.738,446.85,407.656,446.482,407.656z M446.236,379.052l-0.184,0.123v0.429l0.184,0.123h0.062l0.184-0.184v-0.245
			l-0.184-0.245H446.236z M446.666,382.482h-0.184v0.306l-0.43,0.919v0.245l0.367,0.429c0.285,0,0.449-0.429,0.49-1.286
			C446.869,382.687,446.789,382.482,446.666,382.482z M451.137,407.166v0.307l0.367,0.061h0.307l0.184-0.184v-0.184l-0.184-0.184
			h-0.244C451.279,407.023,451.137,407.085,451.137,407.166z M451.26,408.82l0.184,0.306h0.797c0.367,0,0.59-0.102,0.674-0.306
			c0-0.163-0.164-0.245-0.49-0.245h-0.674C451.422,408.657,451.26,408.738,451.26,408.82z"/>
		<path d="M471.473,380.645l1.715,0.49h0.551c2.328,1.144,4.492,2.512,6.492,4.104c2.084,1.797,3.125,3.145,3.125,4.042h-0.123
			c-0.328-0.571-0.654-0.857-0.98-0.857h-0.061c-0.123,0-0.184,0.083-0.184,0.245c0.162,0.45,0.529,1.225,1.102,2.328h0.123
			c0.082,0,0.184-0.204,0.307-0.613h0.061c0.123,0.042,0.266,0.634,0.43,1.776l0.551,1.225l-0.123,0.796l0.184,2.205
			c-0.285,1.021-0.551,2.369-0.795,4.043c-0.164,0.776-2.062,3.675-5.697,8.697c-1.633,1.552-3.227,2.328-4.777,2.328
			c-1.43,0.162-3.043,0.245-4.84,0.245h-1.162c-0.695,0-2.512-0.593-5.451-1.776c-3.717-3.308-5.574-5.839-5.574-7.596
			c-0.531-1.103-0.98-2.122-1.348-3.062c0-0.53,0.551-2.286,1.654-5.268c0-1.877,0.447-3.185,1.346-3.92
			c1.92-4.124,4.35-6.799,7.289-8.024C467.857,381.114,469.92,380.645,471.473,380.645z M455.977,398.714l-0.123,0.184
			c0.039,0.367,0.102,0.551,0.184,0.551l0.123-0.061v-0.307l-0.123-0.367H455.977z M457.508,401.593l-0.246,0.184v0.429
			c0.082,1.389,0.469,2.165,1.164,2.327l0.061-0.062v-0.061C458.201,402.532,457.875,401.593,457.508,401.593z M457.875,392.099
			c0.203,0,0.387-0.143,0.551-0.429v-0.123C458.059,391.547,457.875,391.731,457.875,392.099z M459.1,390.016h0.061
			c0.164-0.041,0.246-0.204,0.246-0.49h-0.123C459.16,389.608,459.1,389.771,459.1,390.016z M459.467,397.366l-0.244,0.245v0.122
			h0.184l0.121-0.184v-0.184H459.467z M459.773,405.635l-0.246,0.123v0.122l0.49,0.49h0.246
			C460.264,406.085,460.1,405.84,459.773,405.635z M460.447,399.877v0.368c0.57,1.103,1.203,2.287,1.898,3.553
			c0,0.408,0.775,0.979,2.328,1.715c0.734,0.857,2.102,1.531,4.104,2.021l1.102,0.123c1.797-0.367,3.145-0.755,4.043-1.164
			l2.205-1.837c2.287-2.45,3.389-4.512,3.309-6.187v-0.552c-0.246-0.652-0.369-1.715-0.369-3.185c0-1.143,0.082-2.042,0.246-2.695
			c0-0.285-0.797-1-2.389-2.144c-1.145-1.633-2.328-2.634-3.553-3.001h-0.734c-4.779,0.205-7.168,0.592-7.168,1.164
			c-1.061,1.062-1.797,2.104-2.205,3.124c-1.307,1.389-1.959,2.308-1.959,2.756C460.938,395.611,460.65,397.591,460.447,399.877z
			 M461.059,407.778h-0.428v0.245c0.529,0.531,1.49,0.797,2.879,0.797h0.674C463.979,408.535,462.938,408.188,461.059,407.778z
			 M461.549,389.587v0.429h0.184c0.531-0.49,0.797-0.878,0.797-1.164v-0.061h-0.307C461.979,388.955,461.754,389.22,461.549,389.587
			z M462.346,385.055l-0.184,0.306v0.245c0.244,0,1.49-0.857,3.736-2.573l0.49-0.184l0.367,0.061
			c2.734-0.285,4.104-0.551,4.104-0.796v-0.062l-0.98-0.184C467.102,381.87,464.592,382.932,462.346,385.055z M462.836,386.402
			c0.367,0,0.713-0.245,1.041-0.735v-0.184C463.182,385.688,462.836,385.995,462.836,386.402z M463.08,388.117h-0.244v0.245h0.123
			l0.121-0.123V388.117z M463.938,409.433v0.062h0.797l0.123-0.123l-0.123-0.184h-0.123
			C464.203,409.188,463.979,409.27,463.938,409.433z M465.225,408.575v0.184c0,0.245,0.572,0.367,1.715,0.367l0.061-0.061v-0.123
			C466.469,408.697,465.877,408.575,465.225,408.575z M467,384.258v0.306c3.186-0.367,4.779-0.612,4.779-0.735l-0.49-0.184h-0.062
			C469.268,383.646,467.857,383.851,467,384.258z M467.123,386.341v0.061l0.123,0.184h0.857l4.35-0.98v-0.123l-1.164-0.245
			C468.512,385.565,467.123,385.933,467.123,386.341z M471.166,410.045v0.122c0,0.123,0.307,0.225,0.918,0.307
			c0.695,0,1.041-0.103,1.041-0.307v-0.122c-0.041-0.164-0.184-0.327-0.428-0.49h-0.551
			C471.695,409.555,471.369,409.718,471.166,410.045z M472.207,381.931c0.203,0.572,0.652,0.857,1.348,0.857l0.613,0.062
			l0.121-0.062v-0.306c0-0.449-0.428-0.714-1.285-0.796C472.473,381.727,472.207,381.808,472.207,381.931z M472.33,384.564v0.062
			l0.611-0.49l-0.121-0.061C472.41,384.319,472.248,384.483,472.33,384.564z M473.371,383.952l-0.123,0.061
			c0.775,0.613,1.389,0.919,1.838,0.919l0.061-0.123v-0.061C474.494,384.218,473.9,383.952,473.371,383.952z M474.473,410.474h0.062
			c0.734-0.245,1.102-0.45,1.102-0.612l-0.121-0.123C474.943,409.942,474.596,410.188,474.473,410.474z M475.393,386.77
			c0.244,0.409,0.529,0.613,0.857,0.613l0.061-0.123v-0.123c0-0.368-0.164-0.551-0.49-0.551
			C475.535,386.627,475.393,386.688,475.393,386.77z M476.494,383.278l-0.184,0.184c0.449,0.572,0.898,0.857,1.348,0.857
			c0-0.449-0.348-0.796-1.041-1.041H476.494z M477.414,385.973v0.123c0.121,0.49,0.693,1.001,1.715,1.531h0.184l0.123-0.184v-0.061
			C479.23,387.097,478.557,386.627,477.414,385.973z M478.762,387.872h-0.246c0.246,0.531,0.836,0.98,1.777,1.348h0.244l0.184-0.184
			v-0.061C480.025,388.24,479.373,387.872,478.762,387.872z M481.334,402.879v0.061c0.326,0,0.611-0.326,0.857-0.979v-0.123h-0.184
			C481.762,401.837,481.537,402.185,481.334,402.879z M482.314,401.776h0.305l0.246,0.184c0.039-0.652-0.062-0.939-0.307-0.857
			h-0.123l-0.061-0.429L482.314,401.776z M482.803,398.407c0.041,1.225,0.143,1.879,0.307,1.96h0.123
			c0-0.448,0.184-0.938,0.551-1.47v-0.184l-0.674-0.919h-0.121C482.904,397.795,482.844,398,482.803,398.407z M483.783,394.059
			l-0.184,0.184v0.245l0.184,0.245l0.246-0.245v-0.245l-0.184-0.184H483.783z"/>
		<path d="M491.746,378.93c3.021,0.367,4.533,0.918,4.533,1.654l0.305,0.367v0.796l0.674,0.735
			c-0.449,0.368-0.674,0.756-0.674,1.164c0.082,0.205,0.225,0.306,0.43,0.306v0.061l-0.367,0.429h-0.49
			c-0.408-0.326-0.734-0.49-0.98-0.49c-2.164,0.123-2.43,1.899-0.797,5.329c1.186,4.125,2.186,6.698,3.002,7.717
			c2.287,5.228,3.838,7.923,4.654,8.086h0.123c0.162,0,0.633-1,1.408-3.002c1.512-2.735,2.717-5.328,3.615-7.778
			c0.693-1.184,1.041-2,1.041-2.45l-0.184-0.613c2.695-4.981,2.797-7.411,0.307-7.289l-0.736,0.123h-0.244
			c-0.123-3.593,0.266-5.39,1.164-5.39c0.979-0.408,3.531-0.613,7.656-0.613c1.877,0,2.816,0.695,2.816,2.083
			c0.449,0.776,0.674,1.267,0.674,1.47c-0.652,0.531-0.98,1.144-0.98,1.837l-2.266,0.429c-0.082,0.164-0.756,1.593-2.021,4.288
			c-0.285,0.857-1.736,3.635-4.348,8.331l-1.654,5.084c-2.449,5.063-3.717,7.595-3.797,7.595c-0.084,0-0.123,0.122-0.123,0.367v0.49
			v0.062c0,0.612-0.512,0.979-1.531,1.103l-1.225,0.734c-0.49,0-1.205-0.306-2.145-0.918l-3.002-4.227
			c-0.49-1.797-0.939-2.695-1.348-2.695c-0.244-0.245-0.592-1.265-1.041-3.062c-0.816-1.429-1.592-2.674-2.326-3.736
			c0-0.163,0.102-0.347,0.305-0.551v-0.245l-1.041-2.512c-0.611-2.205-1.062-3.389-1.348-3.552
			c-1.348-3.879-2.266-5.819-2.756-5.819c0,0.205-0.266,0.327-0.797,0.367c-0.693,0-1.51-0.346-2.449-1.041v-0.123l0.184-0.306
			v-0.184c0-0.081-0.285-0.285-0.857-0.612l-0.061-0.123c0.939-0.204,1.408-0.408,1.408-0.612l-0.857-0.429l-0.061-0.062v-0.184
			l0.428-0.551c0-0.163-0.143-0.368-0.428-0.613v-0.184C488.275,379.277,491.012,378.93,491.746,378.93z M485.498,383.952
			l-0.184,0.184l0.184,0.123h0.797v-0.123l-0.674-0.184H485.498z M487.029,381.747l-0.244,0.184v0.245l0.305,0.123
			c0.572-0.082,0.859-0.224,0.859-0.429l-0.186-0.123H487.029z M489.234,385.606h-0.184l-0.061,0.184
			c0.326,0.205,0.52,0.286,0.582,0.245C489.633,385.995,489.52,385.851,489.234,385.606z M489.969,379.971
			c0,0.123,0.328,0.184,0.98,0.184h2.268v-0.122c-0.695-0.286-1.309-0.429-1.838-0.429h-0.736
			C490.275,379.603,490.051,379.726,489.969,379.971z M491.869,390.445h-0.062c0.082,0.49,0.205,0.735,0.367,0.735v-0.123
			C492.133,390.649,492.031,390.445,491.869,390.445z M496.094,396.998h-0.184v0.185c0.531,1.592,0.98,2.389,1.348,2.389v-0.123
			C496.809,397.897,496.422,397.081,496.094,396.998z M498.115,405.145h-0.121v0.185c0,0.408,0.387,0.796,1.164,1.163h0.061
			l0.061-0.061v-0.062C499.115,405.962,498.729,405.554,498.115,405.145z M499.525,408.33h-0.123v0.062l0.184,0.367h0.184v-0.184
			L499.525,408.33z M499.77,405.084h-0.123v0.061c0.041,0.409,0.348,0.919,0.92,1.531h0.123l0.121-0.061
			C500.605,406.044,500.26,405.533,499.77,405.084z M500.076,407.166l-0.184,0.123c0.529,0.734,1.041,1.103,1.531,1.103v-0.185
			C501.096,407.514,500.646,407.166,500.076,407.166z M501.73,406.492v0.123c0.244,0.775,0.59,1.163,1.041,1.163
			c0.449-0.774,0.674-1.306,0.674-1.592v-0.123h-0.062C503.262,406.146,502.709,406.288,501.73,406.492z M504.73,407.044h-0.244
			l-1.531,2.694v0.185c0.816,0,1.326-0.775,1.531-2.328C504.648,407.595,504.73,407.411,504.73,407.044z M506.141,400.062h-0.184
			c-1.512,2.858-2.268,4.409-2.268,4.654l0.184,0.184c1.143-1.837,1.838-3.205,2.084-4.104c0.121-0.162,0.184-0.367,0.184-0.612
			V400.062z M504.793,406.615h0.184c0.162,0,1.123-1.919,2.879-5.758l0.184-0.919v-0.062h-0.123
			c-0.49,0.328-1.082,1.471-1.775,3.431C505.24,404.982,504.793,406.085,504.793,406.615z M507.732,380.89v0.367
			c0,0.613,0.225,0.919,0.674,0.919h0.061l0.184-0.184v-0.062c-0.367-0.98-0.611-1.47-0.734-1.47
			C507.793,380.543,507.732,380.686,507.732,380.89z M508.283,379.358v0.306l0.184,0.306h0.062c0-0.245,2.367-0.469,7.104-0.674
			l0.123-0.061h0.062v-0.184c0-0.122-0.328-0.184-0.98-0.184C512.346,378.868,510.162,379.032,508.283,379.358z M508.529,395.406
			v0.062l0.184,0.123c0.203,0,0.307-0.143,0.307-0.429v-0.184l-0.186-0.245C508.631,394.814,508.529,395.039,508.529,395.406z
			 M509.387,394.487l-0.246,0.245l0.123,0.245l0.184-0.306v-0.184H509.387z M509.57,381.012l-0.184,0.245l0.184,0.123
			c0.244-0.04,0.367-0.102,0.367-0.184v-0.184H509.57z M509.631,393.752h0.123c0.367-0.368,0.611-0.837,0.734-1.409v-0.061
			C510.039,392.282,509.754,392.772,509.631,393.752z M510.551,391.18v0.368h0.244c0.408-0.368,0.613-0.775,0.613-1.225v-0.245
			h-0.246C510.754,390.322,510.551,390.689,510.551,391.18z M511.713,388.546v0.245h0.246c0.203,0,0.408-0.429,0.611-1.287v-0.245
			h-0.061v-0.123C512.305,387.137,512.039,387.607,511.713,388.546z M512.693,388.791h-0.123v0.184h0.123V388.791z M512.816,386.831
			v0.429h0.123c0.244-0.082,0.529-0.551,0.857-1.409c0.121-0.123,0.406-0.184,0.857-0.184l0.061-0.123v-0.429l-0.123-0.245v-0.184
			l0.307-0.123c0-0.367-0.164-0.653-0.49-0.857C513.836,383.707,513.307,384.749,512.816,386.831z M516.123,381.747v0.061
			l0.857,0.184c0.613-0.041,0.92-0.102,0.92-0.184c0-0.163-0.266-0.265-0.797-0.306h-0.551
			C516.266,381.502,516.123,381.584,516.123,381.747z"/>
		<path d="M533.887,378.868c1.715,0,3.797,0.735,6.248,2.205c2.082,1.552,3.123,2.614,3.123,3.185
			c1.633,3.43,2.451,5.493,2.451,6.187l0.061,0.49c-0.613,1.43-0.918,2.41-0.918,2.94l-0.369,0.062h-5.205
			c-0.49,0-1.082,0.061-1.777,0.184c-5.879-0.49-10.004-0.735-12.373-0.735h-1.285c-0.49,0.735-0.734,1.266-0.734,1.592
			c0.285,0.45,0.428,1.165,0.428,2.144c0,1.553,0.246,2.471,0.734,2.756l0.062,0.307v0.062l-0.367-0.184v0.184l0.551,0.612
			c0,0.531,0.367,1.205,1.102,2.021c1.348,2.368,2.818,3.839,4.41,4.41c1.348,0.449,2.879,0.674,4.594,0.674
			c0.285,0,0.879-0.266,1.777-0.797c0.734-0.162,2.285-1.49,4.654-3.981v-0.184c0-0.081-0.285-0.162-0.857-0.245l-0.123-0.306
			c0.939-1.797,2.062-2.98,3.369-3.553c0.367,0.367,1.123,0.939,2.268,1.715c0.896,1.389,2.102,3.022,3.613,4.9v0.245
			c-1.307,1.715-2.246,2.572-2.818,2.572h-0.244c0-0.897-0.551-1.409-1.654-1.531c-0.205,0-1.102,0.674-2.695,2.021
			c-0.939,0.734-2.553,1.429-4.838,2.082c-2.654,0.53-4.533,0.797-5.635,0.797l-3.492-1.226c-1.959,0-3.758-1.062-5.391-3.185
			c-0.693-0.735-1.266-1.613-1.715-2.634c0-0.327-0.449-2.021-1.348-5.084c-0.285-1.185-0.428-2.328-0.428-3.43v-0.062
			c0-5.43,1.633-10.187,4.9-14.271c0.406-1.02,1.348-1.776,2.816-2.266c0.98-0.285,2.164-0.51,3.553-0.674
			C530.701,378.706,531.885,378.706,533.887,378.868z M520.105,394.487v0.184v0.062c-0.041,0.122-0.061,0.409-0.061,0.857v0.245
			c0,0.734,0.203,1.389,0.611,1.96h0.062C520.719,395.835,520.514,394.732,520.105,394.487z M520.963,388.914
			c-0.328,0.327-0.613,1.144-0.857,2.45h0.123c0.244,0,0.611-0.714,1.102-2.144C521.248,389.016,521.125,388.914,520.963,388.914z
			 M520.412,392.16h-0.307v0.368c0,0.245,0.061,0.367,0.184,0.367c0.203,0,0.326-0.204,0.367-0.612L520.412,392.16z
			 M521.207,399.816h-0.184v0.122l0.184,0.123h0.123v-0.123L521.207,399.816z M521.637,400.857l-0.061,0.062v0.122
			c0.162,0.653,0.406,0.98,0.734,0.98v-0.062v-0.123C522.311,401.511,522.086,401.185,521.637,400.857z M523.412,392.772v0.062
			h0.062l1.041-0.123v-0.123l-0.184-0.245h-0.184C523.781,392.343,523.535,392.487,523.412,392.772z M523.596,385.177l-0.121,0.184
			v0.061h0.121l0.246-0.184v-0.061H523.596z M523.475,389.281v0.245l0.121,0.123h0.123c0.285-0.123,0.531-0.347,0.736-0.674v-0.184
			h-0.307C523.902,388.791,523.678,388.955,523.475,389.281z M524.086,387.688v0.184c0,0.45,3.717,0.96,11.148,1.531l0.613,0.184
			l0.795-0.061c1.633,0.531,2.736,0.796,3.309,0.796c0,0.123,0.121,0.225,0.367,0.306c0.244-0.368,0.367-0.714,0.367-1.042v-1.164
			c0-0.53-1.021-1.715-3.062-3.553c-0.939-0.938-2.002-1.47-3.186-1.592l-2.082-0.368c-3.391,0.695-5.615,1.531-6.676,2.511
			C525.229,386.28,524.699,387.036,524.086,387.688z M524.148,386.77c0.244-0.04,0.367-0.204,0.367-0.49v-0.062
			C524.27,386.301,524.148,386.484,524.148,386.77z M524.516,407.718h-0.184v0.245c0.08,0.204,0.428,0.429,1.041,0.673l0.244,0.185
			C525.168,408.126,524.801,407.759,524.516,407.718z M524.76,384.013v0.123h0.123c0.531-0.123,0.797-0.265,0.797-0.429v-0.061
			h-0.307C525.168,383.646,524.965,383.768,524.76,384.013z M525.373,392.282l-0.307,0.061v0.368h0.307v-0.245v-0.123V392.282z
			 M525.801,381.196v0.061l0.186,0.123h0.061c0.816-0.204,1.225-0.408,1.225-0.612v-0.368l-0.244-0.245h-0.123
			C526.17,380.399,525.801,380.747,525.801,381.196z M526.598,391.731v0.123c0.816,0.205,2.98,0.409,6.492,0.612v0.062v0.061
			l-1.285,0.184c0,0.123,0.529,0.184,1.592,0.184c1.715,0,2.572-0.082,2.572-0.245C535.969,392.303,532.846,391.976,526.598,391.731
			z M527.211,389.648v0.184c0.775,0.531,2.184,0.796,4.227,0.796h0.551l0.797-0.061v-0.245
			C531.109,389.955,529.252,389.73,527.211,389.648z M527.332,383.646c0.408-0.327,1.227-0.674,2.451-1.042v-0.123l-0.061-0.123
			h-0.613C527.924,382.687,527.332,383.116,527.332,383.646z M528.252,380.154v0.062h0.123c0.652,0,1.877-0.224,3.674-0.674
			c0.367-0.04,0.551-0.143,0.551-0.306l-0.184-0.184h-0.061c-1.186,0-2.512,0.328-3.98,0.98L528.252,380.154z M528.803,407.963
			h-0.061v0.061c0,0.164,0.428,0.348,1.285,0.552l0.062-0.062v-0.122C529.559,408.106,529.129,407.963,528.803,407.963z
			 M530.885,381.502v0.062c0,0.164,0.838,0.367,2.512,0.612l0.123-0.061v-0.245c-0.328-0.449-0.879-0.674-1.654-0.674h-0.184
			C531.15,381.237,530.885,381.339,530.885,381.502z M532.416,408.636h-0.184v0.185h0.184V408.636z M534.5,410.167l-1.287-0.122
			h-0.244c-0.369,0-0.572,0.081-0.613,0.245v0.122l0.244,0.185h1.104c1.266,0,2.756-0.226,4.471-0.674
			c-0.082-0.245-0.326-0.368-0.734-0.368h-0.307C536.152,409.555,535.275,409.759,534.5,410.167z M535.234,380.583h-1.838v0.122
			c0,0.164,0.836,0.286,2.512,0.368h0.061v-0.245C535.969,380.747,535.725,380.666,535.234,380.583z M534.621,381.87v0.061
			c2.328,1.348,3.574,2.021,3.736,2.021h0.062l0.611-0.245l0.367,0.123l0.062-0.123v-0.061c-0.164-0.123-0.512-0.245-1.041-0.368
			l-1.225-0.551c-0.328-0.694-0.98-1.042-1.961-1.042h-0.184C534.764,381.727,534.621,381.788,534.621,381.87z M538.42,391.241
			h-0.184v0.184h0.184V391.241z M538.297,392.895c0,0.164,0.367,0.245,1.102,0.245l0.553-0.061v-0.123
			c0-0.163-0.389-0.245-1.164-0.245C538.459,392.793,538.297,392.854,538.297,392.895z M538.297,406.86h0.123
			c0.326-0.123,0.51-0.327,0.551-0.613l-0.061-0.061C538.5,406.432,538.297,406.656,538.297,406.86z M538.787,409.555
			c0.408,0,0.734-0.306,0.98-0.919h-0.184C539.053,408.922,538.787,409.229,538.787,409.555z M539.398,384.871
			c0.082,0.328,0.266,0.49,0.553,0.49h0.121l0.123-0.184v-0.368l-0.244-0.306C539.584,384.503,539.398,384.626,539.398,384.871z
			 M540.195,404.961l0.123,0.062h0.061c0.449,0,0.736-0.266,0.857-0.796v-0.123C540.787,404.104,540.441,404.39,540.195,404.961z
			 M540.93,385.667h-0.244c0.449,1.348,0.775,2.083,0.98,2.205h0.244l0.184-0.123c-0.326-1.306-0.674-1.96-1.041-1.96
			L540.93,385.667z M541.604,401.408l0.123,0.185h0.307c0.244,0,0.387-0.082,0.43-0.245l-0.246-0.245h-0.061
			C541.869,401.103,541.686,401.205,541.604,401.408z M541.91,407.166h0.246c0.406-0.367,0.611-0.633,0.611-0.796h-0.061
			C542.176,406.533,541.91,406.799,541.91,407.166z M543.014,388.423l-0.184,0.123v0.429l0.184,0.245
			c0.162-0.04,0.244-0.184,0.244-0.429v-0.245l-0.061-0.123H543.014z M543.074,405.513l0.184,0.122
			c0.613-0.204,0.92-0.469,0.92-0.796v-0.123h-0.062C543.543,404.716,543.197,404.982,543.074,405.513z M544.482,404.839
			l0.062,0.061h0.184c0.244-0.162,0.367-0.387,0.367-0.673h-0.184C544.625,404.39,544.482,404.594,544.482,404.839z
			 M546.627,404.227h-0.061v0.122c0.121,0.49,0.305,0.735,0.551,0.735h0.061l0.123-0.123v-0.062
			C547.219,404.451,546.994,404.227,546.627,404.227z"/>
		<path d="M573.639,381.073c1.592,0,2.939,1.124,4.043,3.369c0.203,0,0.49,0.266,0.857,0.796l0.797,4.533
			c-0.287,0.49-1.369,0.735-3.246,0.735h-0.613c-1.512-0.245-2.266-0.755-2.266-1.531c0-0.571-0.471-1.368-1.41-2.389
			c-0.121-0.204-1-0.306-2.633-0.306c-1.553,0-3.43,0.409-5.635,1.225c-1.553,1.634-2.574,2.9-3.062,3.798
			c0.285,6.983,0.387,11.352,0.305,13.108c0,0.367,0.246,0.551,0.736,0.551h1.469c0.654,0.041,0.98,0.164,0.98,0.368v0.061
			l0.246,0.797l-0.123,3.43l-0.367,0.49l-2.879,0.306h-0.246l-1.225,0.368c-4.695-0.164-7.043-0.348-7.043-0.552
			c-0.818,0-1.227-0.367-1.227-1.103c-0.082-0.734-0.121-1.49-0.121-2.266s0.795-1.287,2.389-1.531c0-0.327,0.551-0.49,1.654-0.49
			l0.184-0.062v-0.122l-0.369-16.783c0-1.02-0.266-1.531-0.795-1.531h-0.367c-0.49,0-1.309,0.225-2.451,0.674l-0.123-0.123v-0.123
			c0-0.081,0.164-0.184,0.49-0.306v-0.123c-0.408,0-0.611-1.143-0.611-3.43c-0.082,0-0.145-0.367-0.184-1.103
			c1.633-1.265,3.348-1.898,5.145-1.898h1.531c0.613,0,1.654,0.205,3.123,0.612v0.184c-0.367,0.572-0.551,0.98-0.551,1.225v0.429
			C563.35,380.89,567.881,380.461,573.639,381.073z M552.018,408.207l-0.246-0.244l-0.121,0.244v0.245l0.121,0.184h0.246V408.207z
			 M552.385,382.298c0.326,0.327,0.674,0.49,1.041,0.49l0.062-0.122v-0.429l-0.246-0.306
			C552.67,382.013,552.385,382.136,552.385,382.298z M553.916,408.82l-0.797,0.061v0.123c0,0.205,0.592,0.306,1.777,0.306h1.838
			l0.428-0.061C557.162,409.045,556.08,408.902,553.916,408.82z M553.365,384.687v0.123h0.184c0.449,0,0.693-0.082,0.734-0.245
			l-0.123-0.184h-0.121C553.672,384.381,553.445,384.483,553.365,384.687z M553.488,407.84l-0.123,0.123l0.061,0.122h3.369v-0.184
			l-2.082-0.062H553.488z M555.203,381.073h-0.184v0.245l0.367,0.429h0.551v-0.123L555.203,381.073z M557.592,390.322v0.306
			c0.203,0.409,0.305,0.837,0.305,1.286c-0.041,0.164-0.102,1.001-0.184,2.511l0.123,2.45h0.061c0.123,0,0.285-1.899,0.49-5.696
			c0.082,0,0.123-0.408,0.123-1.225c-0.041-0.368-0.143-0.551-0.307-0.551h-0.121C557.754,389.608,557.592,389.915,557.592,390.322z
			 M558.326,387.076h-0.244l-0.307,1.287c0,0.205,0.121,0.409,0.367,0.612h0.061c0.123,0,0.225-0.285,0.307-0.857L558.326,387.076z
			 M558.57,408.269l0.186,0.184h0.918l0.244-0.245c0-0.081-0.102-0.162-0.305-0.244C558.918,408.045,558.57,408.146,558.57,408.269z
			 M559.244,382.237L559,382.421v0.123l0.123,0.123l0.305-0.245v-0.184H559.244z M559.428,381.134l-0.305,0.123v0.245h0.305
			l0.186-0.245L559.428,381.134z M559.367,401.531l-0.244,0.184v0.49h0.244l0.246-0.184v-0.368l-0.123-0.122H559.367z
			 M559.367,402.879h-0.123v0.245h0.123V402.879z M560.592,385.055l-0.244,0.061v0.184l0.244,0.184h0.184l0.184-0.184v-0.184
			L560.592,385.055z M564.512,383.707v0.123c0.369,0,0.857-0.591,1.471-1.776v-0.306h-0.061
			C564.859,382.074,564.391,382.727,564.512,383.707z M566.84,382.359l0.307,1.225h0.49v-1.286l-0.184-0.184h-0.184
			C566.982,382.156,566.84,382.237,566.84,382.359z M569.045,381.808l-0.734,0.062v0.061l0.121,0.184h0.613
			c0.285,0,0.449-0.082,0.49-0.245l-0.123-0.062H569.045z M570.27,381.747v0.123h0.43l0.244-0.184l-0.184-0.184
			C570.434,381.584,570.27,381.666,570.27,381.747z M572.047,381.931l-0.246,0.184v0.061h0.307l0.123-0.123v-0.123H572.047z
			 M572.414,385.667h0.307c0.203-0.04,0.592-0.53,1.164-1.47v-0.062c0-0.081-0.084-0.123-0.246-0.123
			c-0.695,0.328-1.041,0.756-1.041,1.287C572.557,385.3,572.496,385.422,572.414,385.667z M574.129,387.321v0.123h0.123l0.244-0.184
			v-0.184h-0.061C574.23,387.198,574.129,387.281,574.129,387.321z M574.312,381.747l-0.123,0.123v0.061l0.123,0.184h0.246
			l0.121-0.184v-0.061l-0.121-0.123H574.312z M576.211,383.952h-0.184v0.123c0.326,0.327,0.613,0.49,0.857,0.49h0.184v-0.123
			C576.742,384.116,576.457,383.952,576.211,383.952z"/>
	</g>
</g>
</svg>
